<mxfile host="65bd71144e">
    <diagram id="jtRlV1ZnvCDJbY7WlKWK" name="第 1 页">
        <mxGraphModel dx="1901" dy="782" grid="1" gridSize="10" guides="1" tooltips="1" connect="1" arrows="1" fold="1" page="1" pageScale="1" pageWidth="827" pageHeight="1169" math="0" shadow="0">
            <root>
                <mxCell id="vUu3U6UHRAD_ZUpuoUFP-0"/>
                <mxCell id="vUu3U6UHRAD_ZUpuoUFP-1" parent="vUu3U6UHRAD_ZUpuoUFP-0"/>
                <mxCell id="M1TbtmR4Qfy2jBV7jQbW-0" value="FStringAssetReference" style="whiteSpace=wrap;html=1;" parent="vUu3U6UHRAD_ZUpuoUFP-1" vertex="1">
                    <mxGeometry x="-70" y="240" width="120" height="60" as="geometry"/>
                </mxCell>
                <mxCell id="M1TbtmR4Qfy2jBV7jQbW-1" value="FSoftObjectPath" style="whiteSpace=wrap;html=1;" parent="vUu3U6UHRAD_ZUpuoUFP-1" vertex="1">
                    <mxGeometry x="90" y="240" width="120" height="60" as="geometry"/>
                </mxCell>
                <mxCell id="M1TbtmR4Qfy2jBV7jQbW-2" value="主要就是包含AssetPathName，SubPathString" style="text;html=1;align=center;verticalAlign=middle;resizable=0;points=[];autosize=1;strokeColor=none;fillColor=none;" parent="vUu3U6UHRAD_ZUpuoUFP-1" vertex="1">
                    <mxGeometry x="40" y="210" width="260" height="20" as="geometry"/>
                </mxCell>
                <mxCell id="M1TbtmR4Qfy2jBV7jQbW-3" value="FSoftClassPath" style="whiteSpace=wrap;html=1;" parent="vUu3U6UHRAD_ZUpuoUFP-1" vertex="1">
                    <mxGeometry x="90" y="340" width="120" height="60" as="geometry"/>
                </mxCell>
                <mxCell id="M1TbtmR4Qfy2jBV7jQbW-4" value="FStringClassReference" style="whiteSpace=wrap;html=1;" parent="vUu3U6UHRAD_ZUpuoUFP-1" vertex="1">
                    <mxGeometry x="-70" y="340" width="120" height="60" as="geometry"/>
                </mxCell>
                <mxCell id="M1TbtmR4Qfy2jBV7jQbW-7" value="FSoftObjectPtr" style="whiteSpace=wrap;html=1;" parent="vUu3U6UHRAD_ZUpuoUFP-1" vertex="1">
                    <mxGeometry x="520" y="250" width="120" height="60" as="geometry"/>
                </mxCell>
                <mxCell id="M1TbtmR4Qfy2jBV7jQbW-8" value="TSubclassOf" style="whiteSpace=wrap;html=1;" parent="vUu3U6UHRAD_ZUpuoUFP-1" vertex="1">
                    <mxGeometry x="1010" y="360" width="120" height="60" as="geometry"/>
                </mxCell>
                <mxCell id="M1TbtmR4Qfy2jBV7jQbW-9" value="" style="shape=image;verticalLabelPosition=bottom;labelBackgroundColor=#ffffff;verticalAlign=top;aspect=fixed;imageAspect=0;image=data:image/png,iVBORw0KGgoAAAANSUhEUgAABKcAAALHCAYAAABbpCEdAAAgAElEQVR4nOzdd3Qc1fnw8e/2XfXee7Uk9yb3ho2xMdimQ+gtBENIfdMTSCOFUBIIPwjEEEI1GNy7LfciyZItyVa3eu/SarV13j/WLCguJMZBSXg+53AOO3Pn7jOz3ruaZ25RKYqiIIQQQgghhBBCCCHECFCPdABCCCGEEEIIIYQQ4stLklNCCCGEEEIIIYQQYsRIckoIIYQQQgghhBBCjBhJTgkhhBBCCCGEEEKIESPJKSGEEEIIIYQQQggxYiQ5JYQQQgghhBBCCCFGjCSnhBBCCCGEEEIIIcSIkeSUEEIIIYQQQgghhBgxkpwSQgghhBBCCCGEECNGklNCCCGEEEIIIYQQYsRIckoIIYQQQgghhBBCjBhJTgkhhBBCCCGEEEKIESPJKSGEEEIIIYQQQggxYiQ5JYQQQgghhBBCCCFGjCSnhBBCCCGEEEIIIcSIkeSUEEIIIYQQQgghhBgxkpwSQgghhBBCCCGEECNGklNCCCGEEEIIIYQQYsRIckoIIYQQQgghhBBCjBhJTgkhhBBCCCGEEEKIESPJKSGEEEIIIYQQQggxYiQ5JYQQQgghhBBCCCFGjCSnhBBCCCGEEEIIIcSIkeSUEEIIIYQQQgghhBgx2stZ2Z+fd7B2rQqrXXM5qxVCiM/NZIIHH4QbbhjpSC5Bzh741S9gyD7SkQghxHA6HcyZA48/PtKRCCGEEOK/2GVNTpWWqQlTn+L6K09dzmqFEOJz+7/1U6mpSRjpMC5NayvUnIY754x0JEIIMVxhLRQWjnQU//FcL70EOTmo7fKQQQjxH8ZohPvug/nzRzoS8SV3WZNTTpeatJhOrp9z+nJWK4QQn9uGg+k4nSMdxSVyKeBrhDmZIx2JEEIMNzAEJY6RjuI/nurIETpcLnrk5k8I8R8m8rXX8KmqkuSUGHGXNTklhBBCCCGEGE5lt9OXnU3TqlUjHYoQQgwTuGsXPg55yCBGnkyILoQQQgghhBBCCCFGjPSc+hKxWO1sz6s67760mGCSo4No6zZT1dhFv8WGWqXCz9tAWkwwQX4mtJoL5zIVBVq6Bihv6GDAYsOk16HXaYgN9SM+IgAAm8NJY3sfVU3dDFkdGPRa4sL9iQ31w8uoA6CutZeCymYCfIzMHTd8fqCDxXV09A4yOjGM5KigS7oGDqeLzt5Bqpq6mZoRzb4TtfRbrACoVCoMOg2RQb4kRwfibdTjUhS6+ixUNnYxNincE6cQQlxIaV0HZfUd5923aFIyLkWhuqmblu4B7HYnBr2WiCAfEiIC8DHpL1q3echGXWsfta09uFwKfl4GVCqYnB6FQe/+SW/vMVPX1ktH7yAOpwuTXkdogBfJ0UF4GXTsyKti0Gpn6qhoIoN9L+u57z9ZS1e/BQAVKvQ6DeGB3qTGBONj0qMo0N1voaqpi1FxIfh6GS7r+wshhBBCiP9Okpz6EukbtPKbNw8AcKKqBYvVQWpMEMF+Xty5eBxGvY53dhfx3p4S1CoVGo0al0vhvqsncP3cTMICvC9Yt6IovLu7mJc25GHQaVGrVSiKwn1LJ/LIdVOxO5xUN3WzeksB23OrMOi1OJwusjOiuXPxOManRGLQadiZX819v1vHpLRI8l7+6rD3eGdXMXllTTx2w7RLTk51Dwzxxo6TvLu7mB1/uJOv/3EzJTXtpEQH4eulx2JzMC4pglXXTWH2mHgsVjvv7SnmzZ1F/O0HK0mOvrT3FUJ8eew7UcvqLQV09Vkob+jEqNcyPiUCgCnp0ZTWdfDS+jzKGzrRqNWoVSpSYoK4/+qJLJiYeNG6y+o6eeHDY+zMryYiyJchmx2tRs36J28lOsSPPrOVLUcreX9vCQ3t/Rj1WjRqFdGhfjxw9UTmTUjkoT9spLq5m7W/uJmVszMu67n/4OWdHCyuJzEygEAfExabnbSYEL5+fTYLJibidLlYu/80b+44ybOPXMW4s9dFCCFGQm9HB42VledsTxozBqO3N3arlZ72dno7OnDYbGi0Wrz8/AiOisLo5XXRuh12O32dnXQ0NeF0ODB6eaFSqwmPi8Pk4wPAkNlMT3s7/d3dOO12NDodXr6+BEdFYTCZqC8rY6Cnh7C4OEKioi7ruTdVVdHT3u5+oVKh0Wgw+fgQFhf3mefmdDox9/bS295OTFoaKpWK6qIihsxmIpOSCAwLu6yxCiG+HCQ59SUSHujD4T/fD0DGnc9TWtfBL+5bwM3zRwOwJucUz689hp+3gVe/txyn08XDz2zi7ztOMj0rllB/L8xDdgYsNmwOJ1q1Gm+THi+DltrWXn7z9gHaus08/9hSPjpQyo68Kk7XtdPRO8iQzcG7u4v580e53L1kAt+/bSavbirg5Y35aDVqAn1NpMUEe2J1uBQ6egcZHLKj06oJ8jXxw9tnY7U7CfI1oShgtTvoM1ux2h2ACpNBS4CPEe3ZpFrfoBXzkA1FAZNBh16r5uipBr774nY0ahXVTd3YHS4AnrhnHpPSo3jqnUO8v+8UgX4mskfFUHymjVXPbgagsqkLzdneYzqtGo1ajcmgxd/b+AV+ikKI/3QPXjOJB6+ZxPt7T3Hjz94jNszP0/YCPPanrWw5WsGqlVNYPmsUO/KqeG9PCR/uP302gaPQM2BhcMgBKBj0Wvy8DFisDrblVvLGjpNkxofwvdtmcv1P3wWgqrGbEH8vDhbX8ZeN+bT3DPLwiiksm57GxsNlvPBhLi868pg5Jm5YrA6niwGLjQGLDZdLQa/T4O9twGjQYbU56B0YwuZwoiig1arxNekx6LUMWR30W2w4nS5QgUGnIdDHhHK23u/eMpMrpyTzpw+OsnprIT5eeuaMi6e8vpNv/GkL5iE7FY1d+Pu420+tRo1Wo8ag0xLoK22qEOKLkbttG7+8/Xa0ev2w5M9vNm4kISuLxspKtqxezbGtWxkaHMRgMhGdmsoN3/gGE+bOBZXqgnV3t7ay6dVX2fDyyxhMJrz9/NDq9TzyzDNkTZ+O3WajNDeXra+9xqkjR3C5XBhMJiITE1n56KNkTZvGC9/+Nkc3b+aBX/+ar/zgB5f13N/49a/Z8te/4uXnh29AACqViojERO76yU8YP28eKvWFR0z0d3ay94MP2P/RR/xm40a0Oh2/vfdeyvLy+H+vvMLS++67rLEKIb4cJDklPOwOJ2arHT9vA3qthnHpUZz469dQn/3hNQ/ZeC+nhNWbC6ho7CIq2Jfr5mRww5xMJj74fwzZHCgKfOuFrTic7qTPyxvycbkUvrJoLO/uKcHbqOdryycTEeTDVxaNYdORcrblVjFrTNyw5FRzRz/fe2kHGw6WkxgVwG8eXMgP/7KLI6caeOaRq3jo2snsLazhhY9yyS9vQq/VMC0zlifumUdiZCBdfYP8ae0xPth3ikGrnaXZqWQmhPLdF7cD4HQpzHzkVWz2j5dvU5EQEUBsmD8DgzZauwY4XdfOvMde88S0/IdvY3e4cCkKo+JCiAv3Z+GkJL57y8wv5gMSQvxPMA/ZcJxdOjI6xJcf3T6Hn945F5VKhcul0N5j5qer97D9WCU2h7uH6deWT2H/yVp++/YB7A4XRdVtfOWXH3jqXPzdN8h57m72HK+hvL6TKyYlMm98AklRgXz9+ml8/fpp542lrq2X17YU8vauIrr6LYyKC+H7t81i6bRUcgpreOqdQ5yqacfudBIX5s8di8cxc3QsewvdvcNauszotGpGJ4by83sXMGT7ZELVmFA/EiMDGRyy09zZT31bH5O/+hIWq7vM7b/8AIfThdOlkBIdRHJ0ENkZ0Txxj6wWJIT4YsWmpbG6qOic7dvfeIPNq1czZdEiVj7yCGX5+az+2c/o6+zkuZwc1BoNTocDp9MJioJKpUKjdd9enSkp4a0nn8Tg5cVzOTk8Ons23a2t9LS14XI6qT55kg0vvcTxPXu44tZbueU73yF3xw7++OijtDc08KM33xwWi6IouJxOnA4HiqKgUqvRarWoNRoUlwunw4HL5XLPtaFSodZo0Gi1KC4XDocDXC5QqT6JUXE/Tlhy993c+r3vse1vf+P1J57gtSee4Ok5c9Co1SiKgtNud9cLqNVqUKmoKCjgmYcfxjcwEOvgIBo/P0+cTqcTu9XqiVGj1bqPE0KIzyAthfDITAjl2hnpVDZ2ccNP3+OHf9nNyapWrGcTOO/tOcULHx7D38fI43fNZeboWF5an8e7OSXUvfctAs4+AX//5zezYtYoAL5+XTZPr1qM2WKjpqUHrUZFfLg/apWaqGBfjHotzR39dPcPDYvFy6Rj3vhEfnnffMrqOvjNWweoaur27N9/spY/vHeYzt5BVn9vOb97aBFr95/iR6/uoq17gFc3F/D27iKyM2OYNSaODw+UUtnYxfan7gRAo1ZR8toq0mI/Toi554CpaekhwMdIbJgfoxPDKHz1Ic975jx3D7PHxgOQnRHDj++Ywz1Lxv9bPgshxP+um+ZnkRQVyJ8/yuX+363n9a2FNHb0A9DZN8jPVufw5vaTPHjNJH5y5xzq23p5es1hpmRE8+SDCwGYmhHNoRc+eTJ95MX7mZweRXNXP72DVqJD/IgP9//MWN7POYXV7uQv372WH90+h+Plzfz+nUNYbU6++fxWDhTV8uO75vDaD1YQEezD82uP8rVnNvH7dw6i1ap5/+c38uyjV3H0dCPfeXE7VY1dnrrrWnupbOzCx6QnPjyA+HB/qt56DO+zc/et+/WtLJ2WCsCE1Eh+cNssVq2YctmusxBCfF4WsxmbxYJaqyU4MpLlDz3Ee7W1/G7LFtQaDUODg7z71FM8OmsWd2Vm8vhNN3Fg3Tp2vfMOP73+emxWKwM9PTw4aZJnCN0vvvIVdr/zDmX5+Zw6dozo5GRmXnstwZGRLLrtNt5vaODZPXuISU0dFktvRwdbX3uNVTNmcGtSEo/OnMnB9euxWSyUHz/OM6tWcf+ECdyWmsqjs2fz9u9+R0N5OXs/+IBvL1zIrSkpfCUtjR+tWEHejh0Mmc3uilUqAkJDSRo9GrvNRvOZMyhnE1cN5eU89+ij3DN6NHeOGsUzDz/M6p/9jJ9cfz0AAz093BQfT2dTkyfO/WvX8oNly7grM5Pf3HMPp44c+QI+KSHE/wLpOSU8MuJD+cmdc5g5OpYNh8v5+84TrNlbwqMrp3L7orHkljZSVt/JrDFxrJidgY+Xgb9sPM6OvCp++JVZqHD3sPI26tFpNQAY9BpMBp37KY3avf/jch9zKgouRRm2zd/LwJLsFGx2J9//yy6OlzfTN2j17K9q6qagopkBi437f78ep0vBZndysKge85CdwsoWmjsHSI8N5q6rxmMZsuPrZaChvc9Th5+3wRPTd17cjlGvQ6WCpdNSuWvxeDRqNb6mTybr9THp0Wrc5ZOjAxmfGoG34eKTFwshxD+6bk4GCREBbD5awZ6CGh5/LYe1+0/z6MqppMeFsOFQGRabnUWTk4kN82f9wTLyy5uobenBpHcndjRq1bDJxH1NBjRqNU5FQXF93J5eeLjJx26cl8XhknreyynhcHE9VruD1q4BVCqIjwigtqWHX72xnzGJYYxODOOeJRNo7zHzwofHKK/v5JHnNjMuOYLv3TqTRZOTeejpjRRWtvD46hyeeucQqGDR5GS+eu0k1Gr3Ihuqs71xfUx6dBr3b0V8uD8T0iLxMUqbKoT44jVUVHB7errn9S8//JCEzEzGz51LWV4eRzdvpqetjTnXXUf2kiWEx7sfVn7w3HNsfvVVJi1cSFRyMsd37+bD559n8Z138s0XXuDJu+/GJyCA5w8e5Bvz59Pd2sqjzz7L9GuuYe0f/0hPWxtJo0eTkJnp7gml16PVn78dLDpwgLL8fO740Y8Y6O3lmYcf5tUf/5jRM2bw7lNPkbdjB1feeSeZ2dkc3bKFLatXU3TgAC1nztDT0cF3XnoJi9nMW7/5DW/86le01de7K1YU+jo7qSsrQ6fXE5mU5Gmn1z7/PNGpqcy49lp2v/MOB9evZ/bKlXzrxRf59Z134uXnxwsHDxIYHu6JMyAsjClXXsmJffvYv3YtRi8vRs+Y8W/65IQQ/0skOSU8DDoNiZGB3DjPi5lj4sgvb+aRZzfx0oZ85oxLwGp34HA40es0+HrpMRm0uBQXg0O2z6zbZNASFeJLn9lKY0cfSVFBtHabsdochPp74fcPKzap1Sq8DDoMOg0qFdgdrk/dcMGQzYHFamdMUhi/uu8KjAb3P2WtRk1smB9WuxOn04VeqyE80MeThPp0curTHrh6EoumJKPTqAnx9yI61O+85T7mZdDhY9R7fryFEOKf5edlIDsjmpToIJZMTeVv2wr5cP9pQvy9+Old89xtqgLeRt3ZpLgaq92JzeHEpL94h+cQPy+8TXraesw0d/Xj73Px1fD2Ftbw1y0F+Jj0jE0Op7CyBafLhUGn5XdfXcThUw0cO9XAyeo21h8qI6+skaXT0nj2kSUcPtVAXmkj+WVN5JU1cbyyxdPG3nHlWFbMzkCrURPkZyI29OK9uEwG97mqpU0VQoyAkOho/t8rr3heh8e55+ebeMUV+AQEkLt9OyWHDrHm6ac5sG4dy7/2NWZccw2HNmygraGBrOnTGT9vHk3V1eSsWUPNqVNMXbwYALVGQ2xamme4X0h0NN5+fu7hgA6HZ+jbZ0mdOBG71UpFQQFl+fnYrVYaKipwnJ1sXVEUDq5bR1NlJWHx8Vz/9a/j7efHB3/8I+aeHt588kniMzPJXrKErBkz2PLXv9JaW0vO++9z+uhRLAMDpE6YwE3f/KZnGN7C226jsrCQI5s2UZ6fT19nJ5aBAcJiYz3nFp2aOiz+5HHjmHLVVXQ0NdHf3U1rbe3l+ZCEEP/zJDklPI6dbuS1rYXotGruXTrh7PA7FWaLDafLRXJUEOFBPjS193O4pIHTtR34mAxMGRV9Tl06rQbN2Rsqs8VGWIA3S6amsHpLIW/vLuahayaz4VAZbT1mZo6OIz0uZNjxAxYbB4rr0GnUOJwuUqKDqW7qomfAPfwvItCHuPAAXAooKOi1Gv7w3mHSY4NJjg4iISIAfx8DjR19vLgul+PlzcwcE8uktCgMOi0Op5P+QSvOswmv9LgQZv3DRMHgnufSqNditTkYsNhwOJWz21WSmBJCXJLnPjjC8fJmFkxIJCsxjCA/E3aHC7PFjlGvZWJaFPtO1FBQ0UJjRz9d/RZSooKIC/OnvWfQU49KpcKo1zJ0tn0asjqYlhnDoeJ6TtW0c+x0Iz5GPQeL6/joYCnxYQH8/L7h8zmV1XdworKFWWPiiPlUUt7hdK+qd6SkgXkTEpiSEcVbO4s4Wd2KQa+luqmbzr5BrpmZzrwJCfzg5Z2eOACSo4PO26aCO2bzkB2zxY797PyEapVKElNCiBFj9PJi7OzZ52z3DQxk9IwZRCYlMWH+fI5s2sSW1asBmL5smXuVPYcDLz8//ENCMJhM2CwWLAMDn/meXr6+ePv5MdjfT3tDA37BwRct33LmDPvWrqW7tZXE0e7FjBx2OygK1z78MMnjx1Oen09DRQUtdXU0VlaSNW0a9/7855QcOUJVYSGVhYVodDq6WltpPnMGgJTx41l6zz1otFr8goNJHjvWMxl68cGDHFi3jsjERPyCg3G5XO75tS7Cx98f/+Bg9EYjLpfLHaMQQvwTJDklPLyMOnRaNftO1NLSNYDD6SIiyIeVszOICvblquwUWrsHKK5u408fHMXhcrEkO4W7rzp33qVpmdEUVbdysKieP6/LZf6ERG6cl0Vz1wDbjlVS29LDmaYexqdEcuP8LFKjg4YdP2CxsSu/mtK6DsICvLl90Rhe2XScXvMQKmDyqChuXzSWHXlV/PmjPLRaNeX1nSyYkIBeq2H5zHQa2/vIL2/mUEkD/l4GAnyMBPgYuWZGGttzq3ji9b20dl/8jweTQccNczPZeqySZ9YcpqKx83JeciHEl1BYgDfNnQO8seMkQb4m2rrNTM+KZcWsUQT4GHhk5VQcThdv7SpCq1HjbdRz3ewMpoyKZvORCk89PiY9K2eNYsuxKn779gFunJvFmKQwbls4hh15VazJKWF3wRmaOvrp6R9i6qiYcwb6pcUGkxITRI95iDPNn8zrp1KrSIwMYHf+GQ4V1+HvbcTpUpg3PoGZo+Po7LNQUNnMjrwq9FoNseH+LJ85ivf2lFDf1nvBc9dqVKyYNYpNhyv4v/V5FJ9pvdyXVwghLptDGzZQfPAgMampjJo6ldj0dBx2Ox1NTaAoxGdk0N7QQFN1NeXHj9Pd2kpgeDiRSUnn1KXTu3vc24aGsA0NEZOeTkJWFh0NDZzYv5/Q2FhqSkrIWbMG/5AQrnnwwWHHN1VXU7BnDyFRUSRkZQ3bV3fqFJWFhYTFxpI8dizHd+/mxL59WAcHUanV1JeVkb10KebeXj584QW6mps9CbSY1FTm3nDDec+/cO9eyvPzSZ0wgeDISM/2j4cgoijuery9PfNUyQNcIcSlkuTUl9RDyyfT0TNIZnyoZ1tyVBD3Xz2JzPhQ2nrMuFwKV05OYf6EBCKCfIgM9uXuq8aTV9ZEe88g/j5GxiWHM2VUNCoVfOvm6QxZHcSH+xMX5oe/t5EzLT0E+3kR6GsiMsiHx66fxtHTDfQOWMmIC2V8agQTUyPx83YPPRmXEs6P75iDl1FHSnQQvl4GlmSnsnBSEmv3ncZk0KHXaUiMDOCWBaNJiAigvq0Xp0thxaxRLMlOcQ+ZyYzBpSgUVbficLrIiAtlxuhYDHotj10/jUnpUQzZHKxaMRWA0Ylh571O3kYdj16XzYTUSPoHre4J1BXIzjy3t5gQQnxaRnwIP75jDkF+pmHbF09Nwc/bSFldBwMWG16jdKTHhTA9KwYvg47FU5LRatSU1nXgdLlIiAxkemYMcWH+TEqP5Md3zCE2zB9/bwOPXp/NhLRIzEN2fL0NxIX5c/3cDJKiAqls7GJwyE5WQhhx4f7MHRePVqNm1cqpdPdbSI8NwWTQYdRp6ey3YNRrSY4KItDXhFatZuXsDPy9jFQ2dWGx2pmcHsXY5HAyE0LpGbCSEh1EU2c/KDBrbBzzxyeSEBFAa9cAk9KizntNdBoNDy2fzJikcLoHhshKDAUFZo87Xy8rIYQYWU6Hg+riYk4dPcrpY8foaW8nNj2duTfcgEql4so772TIbObEvn1UFhTQ19nJ9GXLmLhgAQPd3cPqmjB/Pkc2b2bvBx+gKAqRiYnMveEGDnz0EbnbttHR2EjzmTOUHjvGzOXLPSvkfSwgNJSopCQG+/tpOdvr6WMqtZq2+np62tuJiI9HpVaTNGYMo2fMwGGzUXvqFD7+/ph8ffELDiYhM5PqoiJqSkouev6x6elUFhbS095OX+cnD2j9goIYN3cuFceP8+5TT5G9dCnWwcGL1CSEEJ9NklNfUo+dZ1lxk0HLmKQwxiSdP1ED7hWVJqRGnnffj26fM+x18j/0hgKYMTqWGaNjL1j/pLSo897U7MirYsBiY1xyBPHhAWjUapKiAkmKCjxvPd5GHQsnJbFw0rlPrmaNjWPW2H/uRkin1TA1I5qpGZKMEkL8a7ISwvjFfQvO2R7ka+LqaalcPS31PEeBt0nPtTPTuXZm+jn7sjNiyM6I8byenhXL9Kzhbaq/j5H48IALxvWtm6YPe50Yef6yfl4GVswedd594YE+pMeeOwQl7TzbPk2tVl2wnRdCiC9adEoKyx54gJCo87dJ4+fNQ2cwcProUfo6O4lITGTK4sVMv/pqVGo12VddhVqtpiw3F4vZTPrkyYydPZuUceOoLy9n2QMPYPLxAZWKZQ88QHhCAt2trQyZzQSEhTFr+XICw8KoLCykv7ubkKgoVj7yCDOWLSMgJISpixcTGh1NyvjxJI4Zw8pHHqH29GmCIyNZ9sADABi9vZl57bUYvb2pKChgoKeHxNGjSR4zhjGzZ+NyuQgID6e5qgqnw8G8G25g4hVXUHH8OFUnT5I17dx7go9dccst+AUFodVqsQwOEpWcTPrkyYTGxHDDY49xfPdu+ru7sQ0NMXP5csbMmkXs2YnlE7OyWPbAA8SmpV3+D04I8T9JpSj/sEza57BqFYSa9/L4PTmXq0ohAPccLQUVLcwdF8/iKSlEhfiOdEjiv8zdT64gY/44vve9kY7kErz9Nvz+h/DM3SMdiRBCDLf5OJQ4YePGkY7kP9vtt1M1cSIN3/rWSEcihBDDZF13HSFXXgkPPTTSoYgvucvec6qxw5djp6WXibi8pmdez/RM9/83tLv/E+Jf0dHrNdIhfD5mK5xuHOkohBBiuOYeQB4YCSGEEOLzuezJqTU5WezIS77c1QohxOfS2Wdi9oqRjuJzqGmHx9eMdBRCCDGcxQqzzx2+Ks6l7enBWFs70mEIIcQwGpkvTPyHuOzJqW/ccESG9Qkh/uPc/eQKYNxIh3HpsmJkWJ8Q4j/Px8P6xGeKe/JJYn/3u5EOQwghhlHb7bDiv/kJrvhfIROiCyGEEEII8W9W8/jjNK1aNdJhCCHEMKPuuIOLL2cixBdDklNCCCGEEEL8m7lMJhwBF15JUwghRoKi0410CEIAoB7pAIQQQgghhBBCCCHEl5ckp4QQQgghhBBCCCHEiPlChvUpikJL1wBbj1VS2diFywXB/iYmpkUyMTWSAB/jRY9v7Ohj9/EzlNZ1MCktiuvmZADgcikUVbeyp6CG5q5+vIw6JqZGMmVUNBFBPgDUtPTw+rZCfnbXvHPqXZNTgpdRx9XT0v7lc2rrMbMzr5rbFo4B4Jdv7KO92wwq8DbqmZwexayxcYQFeJ9T9lK9v/cU+08MX+Ul0NfE4/e4z62t28yu49Wcru3A5nAS6GtiTGIY2ZkxBPuZLn4+3Wb2F9WSV9rEqLgQ7rpq/LD95Q2dHDhZR1VjF2qNilGxIcwYHUdiZAA9A0P8/PUcfnnfFXgZh3cL3ZFXRXvP4EftfL8AACAASURBVCWdu3nIxls7i7jjynEY9Vqe//AYFfWdoAKTQcfoxDAWTEwkKti9hLWiKLyx/QTXzEgn0Pfi5yvE/4rOPguHiusoqGjBPGTHz9tAemwwc8bGExbofdFjewaGOHa6kZ351USF+PL167JRq1UAVDV2caC4jor6LlBBWkwwM8fEkRwV6Dn+8dU53Lt0AnHh/sPqPV7ezIGiOr5+ffYlndNbO4tYODmJsABv3t5VxJGSBlCBXqclOSqAJdmpxIcHnFP2UhVWtrB6c8E5279183Tiw91tXG5pI7mlTfQMDOFj0pMUFcgVE5OICPJGpVJdsG7zkJ2CimY+2l9KsL+Jry2fMuw3r7mzn6OnGimobMZqcxId6su88YlkJYaiVql4Zs1hrpiYxNjk8GH1Vjd18+bOk/zkzrmXdM7rDpQyLiWChIgAthytYOvRSlCBVqMhOtSXFTNHkRgZ4Dm37blVxIT6kZkQeknvJ4QQQgghxMV8IT2nHE4Xq7cUcqKyFadLwaDT0NE7yPbcKvad+OwldXfmV7PtWBUHiurYcKjMU2dVUzevbC6guqUbFSoGh+xsz6tme647IQLQ0jXA61sLz1uvUa/FoLu0/FxL5wCvbj7uef3GthN0D1jwNRkYGLKx90QNh4rrPTG8uun4har6p+07UUN+eRO+XnrPf96mT5JB7+0pIbe0iSGbA4NOS+/AEDmFNWw9VvmZdR853cCH+0vJK2virV1Fw/Y1dvSzZs8pCiqasTtd2O0u8sqaeH9vCQ3tfQxYbDz/4TGGbI5z6tXrNBj1l3aNBwZtPPf+EU+9H+47TV1bL74mA1abg6OnG9iZX+0p73IpvLguj84+yyW9nxD/jbYeq2DviVr6Bq0YdBosVjtHTzXw3p6Szzy2tK6DN7afoLSug5fW5+F0uQB3wmTt/tPkljZhtTtwOF0UVDTz7u5i6tt6Pcf/dctxWrsHzqlXp1Wfk6j+V7yyMZ+WLne9u4+f4URVK74mA4qicLKqjQ/3l3rKvrrpuKfspapo6OTDA6eHta2+XnrUZxMz+0/WsiOvms6+QQx6LQ6ni8KKFlZvKcDpUi5ad2N7Hy9tyKOmtYfnPzxGn9nq2dfZO8jO/Gq251UxYLGhUrkfqLyyMZ+Khk7sThdrckqobu4+p16NRoW3UX/J5/zO7mIqG7sAOHq6kQNFdfiaDGjUKsrrO/n7jpPYnS5P+Q2HyjhZ1XrJ7yeEEEIIIcTFfCE9p+xOF2/uPMk3b5zONdPTCPA1UdPSzcHielwuBafTRVvPIPnlTXT3Wwj282JqRjSBviZyCs/wxvaT9A9a8TLoOFHVwoZDZcwZl8C6g6V091l4aPlkxiaF0zdo5d09xRwvbyY80JvFU1MAcLoUOnoHOVRcj1ajZlxKBOGB3gT7eWHQa3A4XTR39lNY2UqveYhgPxPTMmPw9zZiczgpqWmjuqkbh1MhIcIfXy8D7+0p5mRVK69tLeS2K9y9gu6/ehJzxsVzpqWbl9blc+x0IxNTI1mzp4QTVS2esusPlREd4sug1U5SZCCJkZ/0RGjvMbO74Aw3zx993ms5b3wCv7z/ivPuW7v/NFdPS+WGuZlEBPvS1NHH4VMNOBwuXC6FHvMQR0oa6OyzEOhrZGJqJGGB3uSVNfG3be4b1IRwf0pq2nlndzG3LHDHsCOvitqWHhZNSWLe+AQUYFd+NXsKath9/AwLJiaCAt0DFnLLGnE4XGQmhBET6kuAj9Fzg+dyKfSarRw93UBHzyB+3gYmpEYQEeyLoiicaermdG0H5iEbep2G2tZeTtd28Pq2Qu5a7O7JddP8LG69YgyNHX38fcdJcgpquPPKcQwO2Xlz50mKz7Tx9q4i7ls6kbL6TpwuF0a9Fh+TnvEpEZfl37MQ/0l25lcTEejDnYvHkxQVSGffIMdON1LT0oOiwKDVzpFTDbR2DeBt1DE6KZy4MD/KGzp5fWshe0/UMntsHPVtvfx1SwG3LxrL7uM1VDd1M3tsPFdMSkSjVrP3RA2bj1SwPbeK+66e6Hn/XrOVvSdq6R+0khwVSFJUEN5GPZHBPrgUhYFBG0dONdDeY8bHy8C45HCiQ9y9HWtaejhV006/xUaIvxfjkiPYllvJiapW1uwpIcDb3cNo4eQkfnzHHDp7B9lwuJy/bz/Jw8un8NauIk5UtXjK1rX1Mjhkx9ukx6DTMDk9ati1endPMQsmJBJ6nl5WCREBF2xbDxXX02+x8uCyyWQmhNI/aCWvrImjpxtQFIVBq53j5c00tPdh0GkYFRdCclQQTZ39rN5awOYjFVw/J4O2bjNv7y7inqsmEBboTUFlCwUVLSRHB3HjvEwCvI0U17Txpw+O8eH+Ur527WSAYdcwNsyfUXEhGPVaYsP8PDFarA4KKpqpb+tFq9WQHhtMSnQQOo2att5Bjpc309E7iK9JT5/ZHX+wn4mYUHcd2ZnR/PL+BfQPWtldcIYfvbKb79wyA71Ww4ZDZRwqrqfXPER6XDBGvZbSug7iwvzpGRjiiklJn+NfsBBCCCGEEF9QckqtUhEf7k+v2UrRmTYignwI8jNx64IxmAxaWrvN7MirYt3BUlwuBY1azYDFxqLJSRw91UhVYxc6rRqL1U57zyB7C2uYlBbF2n2n+fm985mUFoXJoMXP28CKWRms3lJAbmmTJzlltTk5XFLPjrwq2nrMXNWdwpLsVN7aeZIgPxMRgT7szD9DTmENZosNH5OeAYuNJdmpnKpp5/29p6ho6MLpchEf7k94kA97T9QyOGRnw8EybpyX6TlXBfAx6tFq1QwO2Wnu6iensIZB6ydlf/zKLpZkp2Iy6NBOVQ9LTnX3D7H9WNUFk1MVDV1sPFwOQICPkVlj4jz7YkL9sNgcnKrtoHfQSpCvieUz0/E26uk1D7Gn4Axv7SzC5VJQq1W095i5amoqJ6paKDnThnnIRluPlu5+C9uOVXqSU5sOl3P1tDTmjU8kNMALgAUTE+kbtLE9t4oFExNRgNzSJvLLmmho72PWmDiunp7G5iMVVDZ0MXtsPANDNvadqGHdoTL6BqwY9BpauwdYkp3KgMXG+oOlHDnViNPpou/szZ+CwubDFayclTHsGnsZdBj1Wk+vKovNzroDpdjsTnbln2H5zFH8ZWMeNruTsckRJEcFSnJK/E8KD3QngcobOrHaHQT6mrhiYiK+XgbsDhcHiup4c8dJd88cYO74BJZNT6OqsZtjpxsZHLLR1NGPzeFk/YEyrp+TybbcSmaOjmXBxETCA91DpOeOS6B/0MaGQ2XDklPFZ9ro6rNQ1dTFmMQwrp01iqLqVl78KI954xPZf7KWdQfL6O63oNdpaOroY0l2KnaHkw2HyjlYXIfD4cLbpGfOuB62HK3AYrOTU1jDNTPSh52rXq/Bx6THbLVjdzrZcLCMQau77LIZafxtWyHNnQNkZ0QTFeJ3TnJq+7EqxqdEnDc51dVn8bStAFdMTMRkcPf+CvH3wjxkp7qpC0VRCPQzMT0rhqvO/sYcKqnnnV3FtHabAZicHsWKWaPoHrCwr7AWq81BfVsfiqKw/VgVK2aNIizQm2OljXib9KyYmU5cmHto5ISUSO6/egI/emUXd1w5DoCy+g7q293J+vhwf66bk8Gg1c4P/7KLG+dlAZBf3sSGQ2XUtvSiUsHY5HCWTkslIsiXHblVrD9Yht3hRAGOnGqgq2+Qo6cbufofemVptWoCfIyYLTZ3Y4u751hTZz92p5PTtR30mod4aX0ety8ai3nILskpIYQQQgjxuX0hySmdVs3/u3UW/7cuj2OnGkiIDCAx0p0syEoIpbKxk42Hy7hmRjorZ43irZ1F/H3HSTITQvnh7bNp6ugj2M+LqFBfth6t5KmHF1Pb2kttaw9pscHodRrPe0WH+KLXamjrMXu22Z1OzjT38PN7F7D+UCmbj1SQHBXk2X+iupWdeVVMy4ohMyGUg0V1/OmDo2RnxvDmziJ0GhXfv20m3iY923OrcLkUnnr4Sm554n0++MXNnnpK6zow6rVUNHTSZ7aSHhdCdkYMf3h4MTc9vmZY2fAgH26en0VM6PC5WtJig3n1e8sveC33F9VypsV9M5EZHzYsOfW15ZN5dVMBJypbiAv3JzEykNGJYUxIjaCla4DXthSyJDuFW68Yw/qDZWw6UkFiRCBfvWYynb0Wqpu6WDE7gydey2H191d46m1o7yM8yBt/b4NnW5CvifBAb+rb3UN8FEWhsrGLx26YxpFTDWw4VEbk2bmgPtbaNcCrmwuYnhXD9KxYCiqaWX+wjISIAMrrO6lo6OK+pRMYnRTG7uM1+Hkb2Hykgrd+ej3Bfu6kWFVTN7mljdS19lDf2kdGvHv+k2A/Lz761a1EXvcUL3xzKVkJYYB7Tq4Vs0aRHhdywWsqxH+zWxaM5u87TvL61kKiQ3xJjg4iPTaY7MwYdBo1z7x3iAWTkrh5XhbHy5tZf6iMEH8vbls4hkGrnZfW5/Hnb17NrEf+yoe/vAW9TkNjRx8hAV4E+n4yN1KAj5GoYF/qWnuHvX9tSw8PLptEXXsv6w6Usuf4GULOJrG7+gb587pcpmfGcvOC0ZScaWPbsUqiQ/xo7xmk+Ewbdyway+RR0ewpcD8geP+Jm0m57Tn+8PBipmZE85eN+TR19HGstJG27gEKK1uYmBqBt1HPB7+4mYSbn/WUfXXTcQJ8jFw9PY3M+HPnRrpY21rX1svPX8/xvJ6UFulJTi2dlsq7e0p4Y/tJIoN9SI4OIiU6iFlj4gj28+IvG/JJiw3m69dnU9fay0cHytiZX83Xr8/mtw8t4t7ffsS7P7uRyOue4pX/t5zESPd8WR09gwT4GIe1lQa9hsyEMM409+BwOAH30OqHl09h9th41u47zfqDZSycPDwh9MrGfCKCfLl14Wi6+izkFNSg06jJzoxl3cFSlkxN4cb5o9l/spawQG/WHSjlh7fPZkl2KkdPN9LWbSa3tJGegSEOl9QzLTPGM//Y7x66ksrGLhZNTua2hWN4cV0uXkYdUzNizkkACiGEEEIIcSn+LcmpAYuN7n73vD9ajZrIYF/mjU9g1pg4Kho6KaxsIaewhsKKFlbOGYXTqdDVP8R1czLwNRm4beEYXtqQz8Cg7SLvouBS3EMC3Y933X9E2+xOnC4XGvUnE9T6mgzcddU4/LyMrJydwVs7iugZGPLsb+8xsz2/ir0nalGrAVSY9FpcLoXSunbuuHIc41MjMOi0jE50Jz2Onm44J6KfvLobo0FLiL8XK2dncPW01AtGPyE1gtgwf7Saf23ar3uXTLjg0JPpWbFMHRXNmZYeTlS1sO9ELXllTXT2ppEUFciZlm5uWzgWf28DK+dk8PauYrr6P3t+Jpei4HQpKMonc6s4nC6sNocnfrVKxe2LxhIV7MtVU1NYf7CM9k8lCAEGh+wcLK7jeHkTL67LBcCg02KzO6lv6yPY34v5ExLwMuq5Z8l4Fk1OIvGWZ4fV8eyaw/xlYz4BPkaunJLMzQuyLhp7SnQQo+JChiUwhfhvZXc4h82vFB7ow/iUCMYkhdHY0c/JqlYOFddzpKSepo5+rpuTSUFlC88+uoSYMD9C/L3YfLSS5s+Yo8ndtip86iuPw+li6FPf+Y9dOzOdlNhg4iMD2H+yjvr2Pk9yasjm4MipBgorW3h5Yx7g/s5b7U4aO/rwNelZNDkZb5OeO64c5+kp9I/e2lnEpsMV+HjpmZYRwzdunHbB2JMiA8lMCP2X5xMcnxLBvj/ee959GfGh/PTOubR2D1B0po2jpxp4fWshNc09PHLdVIpr2rl/2SRSooOJjwjgYHH9OUm881FQcLrcw64921wKg0M2tFo1nB0SvXCSe0J0l6JQWNlCbmnjOXWdrG5je14Vb+48iUoFOo2GpKgguvstdPdbuGl+Fn7eBpZNT2PZ9DRO17QPO35bbhXHSpswGbSMSQrnB1+ZjV574XYzxN+LKaOiPAk8IYQQQgghPo9/S3LqrZ1FPPrcZgASIwMofeNR7A4nGo2ajPhQMuJDWTYjnafeOcjWo1UsmpyEoihn/0BXcLhcuBQFhQtPNGvQuf+APlbaSIi/F75e7slyK5u6sNocxIZ9ukeS+yZLwZ3M0mjUnifCZ3czd2wCL31nGUG+XihnkzFajRqdVoNahft4xZ0Qu5A1T9zEnHHxF9g7/DiTXvcvJ6Y+i8PpQq1WkXL2qf6Sqam8trWQNTmn+N5tM1EUPDdBTqfroufyaRnxodQ0d9PWY/bMT9LSNUBDex+pMcHuQir39XFfO3dyUK0efn4KEBbgTc6zdxMa6A2K+yZYrVZxqKTeU8Z9nd3n49l41p8eW8qtV3zGyn+fKq/XaSQxJf5nVDZ2Mf6+//O8Pvzn+xmXHA4qFbGh/sSF+bNoUhI78qr55Rv7uG6Oe8ixy+VuA50uBZfigvN99z/VJI6KDaGxo4+WrgHiz67E19Zjpqal+5xeiB+3jU6nC7VKheYfvve+JgP7/ngP0aG+qFB5vvNPvtmJWqM6+513twUul4JOqx4WC8B3bpnJj++Y809dI51Oc8kLXVyI0+kCFUQE+RIZ7Mv88QkUVLZww0/e46Hlk0EBp8vl+R1zuVzn//1SwacbqLgwf9p7zFQ1dTE2ORyVSoXZaufo6QayEsIwnG27Pv41dLpcoHDe3w5FUfjr91Ywb3wCep0Gl0tBpYItRyvRajSed3W5lLO/r8PdceVY/vzNZf/0NdFq1JKYEkIIIYQQl82/ZbW+u64aR/Pa79C89jscefEBLFYHC775OrvyqzEP2bA7nNS39mK1OQn2NxHoayTYz4u/bSukd2CIlzbkEx/unnj801SosJ+dj8jPy8ADyyby2zcPsj23yvNE++X1efSarcwbn+A5rr1nkPt+t57i6jZe2XicYH+TZ5gYQFigN3qdmvdzTtHVN8jqLQVc95N3aOrsY3RiGHllzeSXN1FU3cav3tjPj1/ZjQr3TVV3v2VYj6LzUan4p8t+Hjc9sYY1OSX0DAzhcLpo6uyn1zxEWKA33kY9qTHB/N9692p2b+w4ia+XgSA/0zmxuhRlWM+yO64cy5ZjlazJOUVNSy/VTd28s7uYfSdruWm+++bX4VR4+JnNHC6p5+/bT6JSqYgKGT6sz9uoJy0mmJc25NE7MMS6A6Xc+9t17DtRS2JEIJ19FrbnVlHb2ssrG/O56fE1qNQqesxDnlXEPotaraJv0DpslSkh/lekxQZ72tbmtd9hbHI43/rzNl5cl0t7jxmny0V77yBNnf1Eh/qi1aiZOiqGt3cVUdvaw0cHSxmyOc8ZcvtxNqh7wIJLUbjlitHsP1nHO7uKqW7qoaalhzU5JWw5WsltC4cnhx9/LYfNRypYu+80bT1mkqM+mUPPqNcxOjGMVzYdp6N3kI2Hy/nqUxvYnltFXJg/AxY7m49U0NDey2tbCrj2h29hczhRq1T0W6zYzw5ruxiVmn+67KX6zVsHePLN/TR29uFyKXQPDFHd1E1chB8qYHxqBNtzqzhd1872vCqaOgdICA/4h0DdPUx7zVZP4n3+BPfcfS9tyKf4TBut3QNsy63kN28d4N6l4z2/gc+9f5R3dxez+UgFpfUdjIo7d8ji+JQIduRVUV7fyaGiOr7/0k5eXJdHsJ+JEH8v3th+kt6BITYeLmfFj9/hVG075iEbVvu5q6yej0qlwmK1Y7HaP9e1FEIIIYQQ4nz+LT2nDDrtsCfXTqeLH90xh02Hy3nu/aO09ZgJ8DGyaHIS185MJyzAm5sXZPHy+nz+urmQ0AAvvnHjNM8T+49FBvvQ3W9h1TOb+NsPV3Ll5GT6zTb+vqOIJ988gMmgZWpGNCtnZ5CV+Mkf737eBu5dOp4fvLwTVPDgsklkxH/y9H9SehQdvYO8sf0EL2/MJzTAm0evyybQx8Q9S8bz2pZCfvDyLpxOF9mZMdy2cAzeRh2xYX4s/u4b7Hrm7oteDx+Tgfhwf3fZpy9etqi6lW8+v5WdT9/1r1xyAL5+XTZbj1Xy1s4iWrvMeBl1zB4bzwPLJhId6suqlVN45r3DrMkpIcjXxP3LJjImKWxYHUG+JkwGLTc9sYbtv78DgBlZsfQvs7H+YBnv5ZSgAjITQrl36QSmZcbS1WdBrVZx/7IJ/HHtMQYsNm69YjRTR0VxsqrFU3dUiA+PXDeVZ98/wrpv/w1fLwN3XjmOjLMrW5mtNl74KJd+s5XUmGC+ffN0Xvwol+t/+h5rf34zn0WlguzMGFY9u4mXvn3Nv3z9hPhPp1Grz0kof2XRWLYdq+ThZzbR3NmPWq1iyqhovn/bLEwGLT+9aw5Pv3eYW554H2+jnpvmZzF3/PAenl5GLVmJYSz+zhts+/0dTB0Vzb1LJ7DuYBm3/+oDFEVhVFwI9189cdg8dwA3zs9ky9EK6lp7uWpqCounJnOgqA6A0AAvvnvrDJ5+7zBXf/9NvI16br1iDGOTwlGAAYuVv2zK56l3D5EYGcC3bpqOVqNmyqhovvviDp55ZPFnXpOpZ8s+veqzyy781us8veoqxiaHf2bZT7tmZjrbj1Xx7ee30dTZj8PpYmxSOE8+sBCdTsM3bpjGnz/K5cGnNqDXarh6ehrL/mEyd41azYzRsdz724947QcrGZsUTkZ8CLddMYaPDpSy6tnNmIdsxIb68cjKbK6amoqXwf07unRaKierWymubmPmmFhumJtBU2f/sPofu2EaL67L5at/2IBGo2LhpGQWTUoiPMiHG+dl8cqmfP66uYAgPxP3LZ2An7eBZ98/+k/3MsuID+Wd3cV4GfX/0rUTQgghhBDin6FSLmNXnlWrINS8l8fvyRm2XQEGLTYa2vvoG7RitTsx6DREBvsSFuiNVq2md9BKTXM3A2dXy0uODsLHpEetUlHR0IlWo8Hf20BNSw9qtYrxKREoCnT1W6hv62XAYkOrURMW4E14kA/eRvdwgz6zlZKaNkYnhlFe34lGoyYhIoD6tl4efy2H0Ynh/PSuOXT3D1HX2sug1Y6XQUdqTBDeJj1Op4uG9j7aegZRXAohAV7EhPrhUhQq6jsZsNjIzozheHkzabHBBPgYz7kuFqud8n+ybP+glZKadqZlxpyz7+Pr8PFkuv9ocMhOU2c/PQND7vmgtBrCA72JDPZFd3b1wMrGLvoHbXgZtSRGBOLvY0SjVlHX+v/Zu/PwKMtD/eP3TCaTZbLvCQlJCHtCwhIxLGGVRRFxQ9zqfqy1p1X763a6nHpqtYvW1oq2WtwQwRVE1LIFMOwCYgg7JOwhIWSdbJOZyfz+iKbNwaVHkQeS7+e6cl3O+z55555FGO553uetU3OrW0nRoTpYVqNWt1cXD+jRcey6xhaVnXaq5pMZVZEhgUqKCVO4I0Aud/u6MjkZCTpSXqs2n5QSF6aq+ib96fVN8ra16e8/ukJtPl9HhobmVgX4+yktIbJj0eXK2kadOO1Uq9urMEeAkmPDdPRUneobXRrSJ1EHT1QpMar9PfNZfD5pz9FK1ThblJkWq7LTzo7jALf99koNGJ+jn/zEdJKvYMEC6dGfSZ9RhLe0elRR3aCq+mY1t3pktVgUHR6knnHhHVe0LDlRrdpGl+w2P6V8svaUzc+qUzWNKqtyakBqjPYdrVJdY4uGD0hWgL+f6htdKqtyfjLj85MF0WNCO/25tXHXMWUkRamqvknNrR4lRIbI7fHqhaUfa23REa18/BY1uzw6eKJa9U0uBfj7qWd8hKI/KdhO1zXpxOl6tbR6FRZsV6+kSDkC7dp79LSqnc3qnxKjyrpGBdptSv3fM5E+8enYfinROl3X9IVjN+0+roGpsQpzdJ6VW1nbqOOV9RrSJ/Ezf8/l9qiytkmVtY1qdrXPNIoICVR6YoSCAvzlcnt0uLxW1fXN8rNalRQTqvioEPn7WVXX2KK9R0/ron49tOdopWqdLcrOiO+YFdXU4lZ5TYNO1TTK421TSJBdybFhig4LksVi0Uf7Tyou0qFml0fOJpdiwoPlb7NqYeEePbnoQ+2d+5+fZPR+kqFJVotFCdEhSoxqnz1X3+TS4fJaOZtaFRRgU6+kSFXVNamqvlmp8eFyub1qdXvVNyX6c9+CRypqVV7doISoUPn7WVXtbO5YgxHd3PsfSbu80rvvmk5yfrv5ZpUMHarjP/iB6SQA0Enm1VcrZvJk6Z57TEdBN3dOyqnz0aK1e/TR/pMaPainpnxyOXCcXSu3laqw6IiyesXpunFfvHA58E3rquXU+WbrvjK9t3G/4iId+s6Mi0zH6ZL2HTut11fvkr/NTz+9cbTpOOjuKKf+PZRTAM5TlFM4X3wjp/VdCPr3jFFGjyglxzCr5pvSKzFSMWHBZ6w9BaDrSooO1bQRfZUYHWI6SpcVHRasKRf1VkIUzzEAAAC6hm5bTg1IPXNBWZxdvf5lYWQA3UNSTCiF9DcsJjxYMeHBXz4QAAAAuEB8I1frAwAAAAAAAP4dlFMAAAAAAAAwhnIKAAAAAAAAxlBOAQAAAAAAwBjKKQAAAAAAABhDOQUAAAAAAABjKKcAAAAAAABgDOUUAAAAAAAAjKGcAgAAAAAAgDGUUwAAAAAAADCGcgoAAAAAAADGUE4BAAAAAADAGMopAAAAAAAAGEM5BQAAAAAAAGMopwAAAAAAAGAM5RQAAAAAAACMoZwCAAAAAACAMZRTAAAAAAAAMIZyCgAAAAAAAMZQTgEAAAAAAMAYyikAAAAAAAAYQzkFAAAAAAAAYyinAAAAAAAAYAzlFAAAAAAAAIyhnAIAAAAAAIAxlFMAAAAAAAAwhnIKAAAAAAAAxlBOAQAAAAAAwBjKKQAAAAAAABhDOQUAAAAAAABjKKcAAAAAAABgDOUUAAAAAAAAjKGcAgAAAAAAgDGUUwAAAAAAADCGcgoAAAAAAADGUE4BAAAAAADAGMopAAAAAAAAGEM5BQAAAAAAlMa9RwAAIABJREFUAGMopwAAAAAAAGAM5RQAAAAAAACMoZwCAAAAAACAMZRTAAAAAAAAMIZyCgAAAAAAAMZQTgEAAAAAAMAYyikAAAAAAAAYQzkFAAAAAAAAYyinAAAAAAAAYAzlFAAAAAAAAIyhnAIAAAAAAIAxlFMAAAAAAAAwhnIKAAAAAAAAxlBOAQAAAAAAwBjKKQAAAAAAABhDOQUAAAAAAABjKKcAAAAAAABgDOUUAAAAAAAAjKGcAgAAAAAAgDGUUwAAAAAAADCGcgoAAAAAAADGUE4BAAAAAADAGMopAAAAAAAAGEM5BQAAAAAAAGMopwAAAAAAAGAM5RQAAAAAAACMoZwCAAAAAACAMZRTAAAAAAAAMIZyCgAAAAAAAMZQTgEAAAAAAMAYyikAAAAAAAAYQzkFAAAAAAAAYyinAAAAAAAAYAzlFAAAAAAAAIyhnAIAAAAAAIAxlFMAAAAAAAAwhnIKAAAAAAAAxlBOAQAAAAAAwBjKKQAAAAAAABhDOQUAAAAAAABjKKcAAAAAAABgDOUUAAAAAAAAjKGcAgAAAAAAgDGUUwAAAAAAADCGcgoAAAAAAADGUE4BAAAAAADAGMopAAAAAAAAGEM5BQAAAAAAAGMopwAAAAAAAGAM5RQAAAAAAACMoZwCAAAAAACAMZRTAAAAAAAAMIZyCgAAAAAAAMZQTgEAAAAAAMAYyikAAAAAAAAYQzkFAAAAAAAAYyinAAAAAAAAYAzlFAAAAAAAAIyhnAIAAAAAAIAxlFMAAAAAAAAwhnIKAAAAAAAAxlBOAQAAAAAAwBjKKQAAAAAAABhDOQUAAAAAAABjKKcAAAAAAABgDOUUAAAAAAAAjKGcAgAAAAAAgDGUUwAAAAAAADCGcgoAAAAAAADG2M7mwex2aXlhX52sCjmbhwWAr+2jkmTlTDGd4iuy2aTKRumxJaaTAEBn5XVSao7pFAAA4AJ3VsupadOkuLhEud2JZ/OwQLdRUnJQFotFvXplmI7S5dw4Sho1ynSKrygrS/rP/ye5XKaTdEmVlZU6fvy4hgwZYjoKcOGx2aT+/U2nOP/Z7YoqKJCtrs50EgDoJLikpP3PcsAwi8/n85kOAaDdc889J6vVqttvv910FKDbWLdund555x394Q9/MB0FQFe1YIG0ebPk8ZhOggtcfX29jhw5okGDBpmOgq4iIECaOVPKyzOdBN0cFSlwHtmzZ4/8/PxMxwC6lZMnT2rTpk2mYwDoym64of0H+JqO7dqlF59/Xn/84x9NRwGAs4oF0QEAAADgAlBRUaGlS5eajgEAZx3lFAAAAAAAAIyhnAIAAAAAAIAxlFMAAAAAAAAwhnIKAAAAAAAAxlBOAQAAAAAAwBjKKQAAAAAAABhDOQUAAAAAAABjKKcAAAAAAABgDOUUAAAAAAAAjKGcAgAAAAAAgDGUUwAAAAAAADCGcgoAAAAAAADGUE4BAAAAAADAGMopAAAAAAAAGEM5BQAAAAAAAGMopwAAAAAAAGAM5RQAAAAAAACMoZwCAAAAAACAMZRTAAAAAAAAMIZyCgAAAAAAAMZQTgEAAAAAAMAYyikAAAAAAAAYQzkFAAAAAAAAYyinAAAAAAAAYAzlFAAAAAAAAIyhnAIAAAAAAIAxlFMAAAAAAAAwhnIKAAAAAAAAxlBOAQAAAAAAwBjKKQAAAAAAABhDOQUAAAAAAABjKKcAAAAAAABgDOUUAAAAAAAAjKGcAgAAAAAAgDGUUwAAAAAAADCGcgoAAAAAAADGUE4BAAAAAADAGMopAAAAAAAAGEM5BQAAAAAAAGMopwAAAAAAAGAM5RQAAAAAAACMoZwCAAAAAACAMZRTAAAAAAAAMIZyCgAAAAAAAMZQTgEAAAAAAMAYyikAAAAAAAAYQzkFAAAAAAAAYyinAAAAAAAAYAzlFAAAAAAAAIyhnAIAAAAAAIAxlFMAAAAAAAAwhnIKAAAAAAAAxlBOAQAAAAAAwBjKKQAAAAAAABhDOQUAAAAAAABjKKcAAAAAAABgDOUUAAAAAAAAjKGcAgAAAAAAgDGUU0A34HQ69fe//10PP/zwF46rq6vTo48+qqeeeuocJQO6B5/Pp4qKCl177bXavXv3547zer06fPiwLrnkEp08efIcJgQAAADMoZwCurh9+/bpySef1NNPP62SkpLPHbdz50499thjeuGFF3Ts2LFzmBDo2pqbm7Vq1Srdd999KigoUENDw2eOq6+v1/vvv6/7779fGzZskMvlOsdJAQAAADMop4AubvPmzfL5fMrIyJDX6+3YXltbqxtuuEF1dXWSpDVr1igkJETJycmdxgH4ehoaGrR48WKNHTtWNptNbW1tHfveeOMNPf/885KkyspKrV69WuPHj5fX65XP5zMVGQAAADinKKeALi4zM1PTp09XdnZ2p+12u115eXny9/eXJA0dOlQzZsxQv379TMQEuqzg4GBNnjxZM2fOlMPh6LQvJSVF6enpkqSIiAhNnTpVV111lfz8/ExEBQAAAIywmQ4A4Js1bNgwSdKyZcs6bQ8ODtZ9993XcXvkyJGSpMDAwHMXDugGHA6HLr/8ckmS1dr5O6G8vLyO/46OjtbkyZPldDplsVjOaUYAAADAJGZOAQAAAAAAwBjKKQAAAAAAABhDOQV0U263W9u2bZPb7TYdBei2ysrKdPToUdMxAAAAAKMop4BuIjQ0VFFRUR23a2trdeWVV3Zcre9TYWFhCgsLO9fxgG4hISFBdru94/b8+fP17LPPdhpjsVjUo0cP2WwsCwkAAIDugU++QDdxzz33dLodGxurY8eOnTHul7/85bmKBHQ7GzZs6HT7hz/84RljQkJCtH///nMVCQAAADCOmVMAAAAAAAAwhnIKAAAAAAAAxlBOAQAAAAAAwBjKKQAAAAAAABhDOQUAAAAAAABjKKcAAAAAAABgDOUUAAAAAAAAjKGcAgAAAAAAgDGUUwAAAAAAADCGcgoAAAAAAADGUE4BAAAAAADAGMopAAAAAAAAGEM5BQAAAAAAAGMopwAAAAAAAGAM5RQAAAAAAACMoZwCAAAAAACAMZRTAAAAAAAAMIZyCgAAAAAAAMZQTgEAAAAAAMAYyikAAAAAAAAYQzkFAAAAAAAAYyinAAAAAAAAYAzlFAAAAAAAAIyhnAIAAAAAAIAxlFMAAAAAAAAwhnIKAAAAAAAAxlBOAQAAAAAAwBjKKQAAAAAAABhDOQUAAAAAAABjKKcAAAAAAABgDOUUcJ7wer3y+Xzy+Xzyer2m4wDdQltbm9ra2mSxWOTxeEzHAQAAALolyingPFFVVaXW1la5XC5VVVWZjgN0C06nU7W1tbJarSorKzMdBwAAAOiWKKeA88SKFStUVFSkjz/+WAUFBabjAN1CcXGxli9froqKCr3yyium4wAAAADdEuUUcB6ora3VBx98oLy8PA0fPlyFhYWqra01HQvo0hobG7V9+3b5fD59//vf17vvvqvKykr5fD7T0QAAAIBuhXIKOA8sXbpUQUFBGjNmjPLz82W327Vs2TLTsYAubdu2bTp+/LjGjx+vUaNGKSsrS/PmzWPNNwAAAOAco5wCDKuvr9eyZcuUnp6uYcOGKTc3V2lpaVq+fLnq6+tNxwO6pMbGRn344Ydqbm7WlClTlJqaqksvvVSvv/66Tp8+rba2NtMRAQAAgG6DcgowbOXKlfLz81NmZqZiY2MVFxengQMHymq1atWqVabjAV3S9u3bderUKfXv319paWkKCQlRdna2evTooSVLlqipqcl0RAAAAKDboJwCDGpoaNDbb7+tnJwcDRgwQDabTTabTQMHDtSgQYO0ePFiNTQ0mI4JdCnNzc0qLCyUzWbrOI3WarUqPj5es2bN0quvvqqKigpO7wMAAADOEcopwBCfz6f169ersbFRgwcPVnx8fMe+hIQE5eTkyOl0asOGDQZTAl1PcXGxysrKlJ6erj59+nRsDwoKUn5+vqxWqzZu3MhptQAAAMA5QjkFGODz+dTc3Kz58+dr9OjR6tWrl/z9/Tv2+/v7q3fv3ho5cqQWLFig5uZmriAGnAUul0vLli1TdHS0cnNzFRgY2LHParUqKipKN910k9577z0dP36c2VMAAADAOUA5BRjgdrtVVFSkgwcPKj8/X3FxcWeMiYuL0+jRo3XgwAEVFRXJ4/EYSAp0LQcOHND+/fuVkZGh/v37n7Hf399fM2bM0OnTp7Vz505mTwEAAADnAOUUcI75fD45nU49++yzmjp1qlJTUzvNmvqUv7+/UlNTNWXKFD377LNyOp3MngK+Bo/Ho0WLFqlnz57Kzs5WUFDQGWMsFosiIyN11VVXae3atSopKeHKfQAAAMA3jHIKOMfcbrdKS0tVUFCgmTNnKjIy8nPHRkdH65prrtGKFSt06NAhud3uc5gU6FrKyspUWFiowYMHq1+/fl84dtasWSotLdXu3bu5KAEAAADwDaOcAs6xyspKLViwQDNnzlRycrJsNtvnjrXZbEpOTtbMmTP1yiuvqKqq6hwmBbqWuXPnatCgQRo4cOBnzpr6V9HR0Zo6dao+/vhj7dq16xwlBAAAALonyingHKurq9OaNWs0c+ZMBQQEfOn4oKAgzZw5U6tWrWL9G+BrWLZsmYYOHaqkpKR/a/wll1yiY8eO6fDhw99wMgAAOrvtttuUkZGhpKSkTj/XXXed9u/ff8b2pKQkDRo0SHPnzjUdHQC+ks+fsgHgGxESEqJhw4apoKBAgwYN+sz1pv6Vy+VSQUGBcnNz5XA4zlFKoOvJy8vTvn37NHz48C88nfZTW7ZsUXx8/L9dZgEAcLZkZGTI5/Np0qRJysrK+tLxCxcu1LFjxxQTE3MO0gHA2cfMKeAc+3QdqTfeeEMVFRVfeKl6r9er8vJyvfHGG7ruuusUFRV1DpMCXcsNN9yg4uJi7d+/Xy6X6wvH1tXVadmyZcrKyvrMq/oBAPBNmjFjhtxut6xWq/r376/Bgwd/7k+vXr1UXl6urKws5eTkmI4OAF8J5RRwjgUFBSknJ0dpaWlatmzZF56qV1dXp+XLlys9PV05OTkKDAw8h0mBrmXgwIHKyMjQjh07vvRUvWXLlikwMFCZmZmKjo4+RwkBAGjXr18/9e3bV/v379f+/fu/cOzq1avl8/k0cOBAxcfHn6OEAHB2UU4B55jValVkZKRuu+02LVmyRCdOnPjM2VMej0fHjh3Tu+++q9tvv10RERGyWvlfFviqAgMDNWPGDB08eFDFxcVqbW09Y4zP51NDQ4PefPNNjRgxQn369PnCixYAAPBNCAgI0NSpU1VZWamtW7d+7ozfxsZGvfPOO8rMzFRmZiZ/ZwG4YPEvXcCAgIAAjR8/Xn5+ftqyZYtqamrOGFNTU6OtW7fKbrdrwoQJstvtBpICXUtubq6io6O1b9++z5w95fF4VFhYqObmZg0bNoy1OwAAxmRnZys+Pl6lpaU6ePDgZ47ZuHGj6uvrlZ2drcTExHOcEADOHsopwACLxaKwsDDNmjVLq1ev1qFDhzrNnvJ6vSotLVVhYaGuu+46hYaGymKxGEwMdA3BwcGaNGmSKioqtHXrVrnd7o59Pp9PTqdTL774oiZPnqzU1FS+gQYAGBMcHKxx48appaVF69ev7zTj1+fzqaWlRQsWLFBeXp769OnzpRfZAYDzGeUUYIjFYtHll1+uuro67dq1q9PsqZqaGu3atUv19fW67LLLDKYEup6RI0fK4XBoz549OnHiRMd2l8ulHTt26ODBg5o4ceK/dUU/AAC+SZ/O4t2zZ4+OHj3asd3r9WrHjh06cOCARo0apYSEBIMpAeDro5wCDIqIiND06dO1detW7d27V21tbWpra9OePXv00Ucf6fLLL1dERITpmECXEhISovz8fDU1NWnt2rXyer3y+XyqqqrSvHnzdM011ygpKYlZUwAA4xwOh/Ly8mS327VixYqOv7MaGhr07LPP6pJLLlFaWhqzpgBc8CinAMOuvvpqlZWVaefOnXI6nXI6nSouLlZ5ebmuuuoq0/GALik/P1+hoaHasmWLqqqq5HK5VFJSorVr1+qWW25RaGio6YgAAEhqXy8xMTFRmzZt0qlTp+TxeHT48GGtWLFCV111FesjAugS/B588MEHTYcAurOgoCBVV1fr4MGDCg8PV1lZmTZv3qzhw4crPz/fdDygSwoICFBTU5MOHz6shoYGRUVF6eWXX1ZWVpamT5/OrCkAwHnDbrfL5XLp6NGjqqysVFpamv7617+qf//+uuKKKxQcHGw6IgB8bXz6Bs4DM2bM0C9+8QsVFhbK6/Wqrq5O06dPNx0L6NLy8vK0e/duLV26VAEBAdq4caPmzZtHMQUAOO/k5ORo3759WrBggVwul5YtW6a33npLISEhpqMBwFnBaX3AeSA+Pl7Dhw/Xpk2btGXLFg0fPlzx8fGmYwFdWkREhLKzs+VyufTMM88oPz9fPXv25MqYAIDzTlhYmDIzMxUeHq7nnntOY8eOVVpaGl+oAOgyKKeA84Cfn58mTpyolJQUpaamasKECfLz8zMdC+jSrFarsrOzNXLkSFmtVl1//fV8yAcAnJesVqv69eunKVOmyOfz6dZbb5XdbjcdCwDOGovP5/OZDgGY9sJLL2jDhg3yur3GMrS2tqq4uFiSNGjQID5wAOeAx+PRkSNHdOjQIY0ePVqBgYGmI50hMDBQN910k0aNGmU6CoCvaO6L0vr1ksGPGegCPB6vTpw4oaKiIk2aNEmBgYFisi++rsBA6cYbpdGjTSdBd8dXxICkNavXqLSuVAMvHmgsg7/8lZeVZ+z+ge7IX/7qP7C/+qu/6Sifq+C1Ag0bNoxyCriArV4j1RyU8jJNJ8EFzd9PA3v31KTePU0nQRfyeoE0dCjlFMyjnAIkedwe5YzJ0cwHZpqOAgCd7N68Wx6Px3QMAF+D2yONyZF+cJ3pJADQ2Yd7JD5m4HzAmlMAAAAAAAAwhnIKAAAAAAAAxnBaH4Dzntvl1omSE2dsj0mKUUhEiLwer5obmlVfXS9Pq0cWi0X2QLvCY8MVEBggi/XzVwv1+XxqcjaprrJOHrdHNn+brH5WhUaGyhHukCR5PV411jXKWePsGBMSGaKQ8BD52dqvqlhfVa/qimoFOYIUnxrf6T7KSsvU2tLakferaPO2qaWxRQ11DYpNjtWJgyfkcbfPwbZYLPKz+ckR5lBoZKhsdpt8bT61NLWovqpeMT1iOnICANCdlZ0uU21DbadtAfYAZSRlSJJcbpdO155WY0uj2nxt8rf5Kyw4TBEhEfK3+X/hsV2tLlU7q+VsckqS7P52+Vn9lBKX0jGmsaVRNc4aNbY0SpIcgQ5FhkTKEeToGLP/2H55vB71jO+pkKB/fm6oa6zTicoTnfJ+Fa5Wl2obahUYECiv16vy6vL2HRbJarHKbrMrPjJeQYFBslo+fy6Dz+dTs6tZVfVViouMU0V1hRqaGxQXGaeY8JivnA9A90Q5BeC8d2z/Md2RfYckKTQytKNsun/2/Zpw/QTVVNSocGGh3n/ufVWVV8k/wF/xPeN1009vUs7YHAWFBH3usd0utwrfKtT8389XQ12DImMjFRQSpCu/e6Um3TRJbW1tqjxeqRXzVmj5y8vVUNugsKgwTbh+giZ9a5IS0xJlsVq0bO4yPfWDpzRkwhD9qeBPne7j0bseVcmOEn3/L9/XJTde8pWeA2eNUxuWbNCaN9fokcWP6IEJD6jyeKWCQ4Nls9sUHBqskdNH6srvXKmeA3qqpbFFm/+xWQufWqhfv/lrRcRGfKX7BQCgK/nZ33+ml5a9pEB7oByB7YXQgNQBWvvkWklS0cEi/WHBH7Rt/za1ulsVHR6taXnTdOvUW9W/5xdfPKP4ULH+tvhven/z+wqwBSg+Kl7R4dFa8sgSWa1WuT1urfpolV5c+qK27tsqi8Wiwb0H67apt+nyEZfL5tf+T7MJD0zQidMn9N7v3tNleZd1HL9gW4Hufuxu9Uvpp/VPrf/Kz0FRSZFeXPqiRmSOULWzWvc/eX9HCWe1WhUXEaff3PUbTRw6UaHBoZ97HI/Xo1XbV+npt5/W4999XD/664/07sZ39fBdD+tnN//sK+cD0D1xWh+AC8pzRc9pUfkiLSpfpPGzxkuStq7cqvm/ny8/fz89+NqD+u7j39WuDbv0l/v+olPHTn3h8ZobmjX7/tk6vv+4fvrCTxUeE67dm3br9InTkqSqsiqtmLdCrz/+ugaPHaznip7TkIlDtHD2Qq16dZWqy6u/NPMfV/xRi8oXacL1E77y4z6085AevetR7f1wr3w+X8f2n8/7uR5d9qj6Deun1a+v1vJ5yyVJp46f0q9v/LWK1xbL7XJ/5fsFAKAruueKe1S+qFzli8q15ok1Hdt/8sxP9P7m9/Xdq76rl3/xsgamDdSzS57VnHfnfOkx31n/jl5e8bIuHnCxfnv3b/Xh3g+1Ze8W+dT+9/aGnRv065d+rZNVJ/W7u3+nx77zmKrrq/XQSw/pwz0ffunxr8q/SuWLylX4ZOFXf+CSfvPyb/TMO8/oeOXxjm2jskbpwCsH9Ph3H9e+Y/v0qxd+1Wn/Z2lobtB1D16npR8uVUNzw9fKBADMnAJwQfGz+Z1xipqryaWm+ibF9ohVWHSYBgwfoNeOvCY/m5/CY8LV2tKqwrcKterVVSo/Uq64lDjlX52v/hf1108u/YmanE3y+Xx65JZH1FTf/t/zHpmn1uZWDcofpMKFhQqJCNG0/5imiNgIXXbHZdq2cpvWL16vgRcPVHRSdEeWkyUn9Zfv/0XbV29Xj4weuuOhOzT7gdk6tu+Y7v3jvRp95WgVry3W0peW6mDRQQUGByo7P1uzfjhL4THhaqhp0OK/Ldbm9zfL6/Fq5PSRCokM0Uv/85La2tpUX12v69Ov7yjF/Pz8lNo/VbEpsWqoaVDVySrt3LBTv7z6l2rztkmS7hl+j6x+7d9FpPRNUXhMuIZPHa5Lb7/0HL1qAACcX6wWa8dMpX91uu603B63AvwDNDB1oJ6+/2m1tLbIEeiQt82ro6eO6s9v/FkF2wpks9mUn52vb0//tp5d8qxeXPqi3G63lm1ZprU71srn86mqrkpps9K05ZktWrBqgQ6dPKR7Ztyj/Ox8Wa1W7TmyR0+89YTmrZynkVkjO2WZu3yunlz4pBpbGnXNmGsUGhyqX73wK/VJ7qOCxwvU1NKkP7/5Zy39cKnqG+vVN6WvbrrkJk3KnSQ/Pz9t27dNf3rjT9p1eJeS45L14K0P6pfP/1Ibd21Um69Nv5//e1ks7bPRLRaLwhxhGpE5QpJ06OQhtbS2SJKOVx7XKyte0cK1C1XfWK9BvQZp8kWT9avnf6WW1hb5fD5N+8k01TfVS5JWblupopIi7Tq8S1lpWbr3yns1JmfMN/lyAugCmDkF4ILyo6k/0t25d+vu3Lu18d2NkqS0gWnKzs/WkT1H9Of//LMW/22xWltaFR4bLj+bnwrfKtTivy2W1WbV+OvGKzQqVIv/ulhFHxTpv176L+mTJam+9+fvqe+wvpKkKbdO0WV3XiZnjVMnDp6Qf4C/UvqmyOpnVY/ePWQPtKustEz11fWd8tmD7EobmKb8q/L10aqP9Npjr6mkqESVxyvV0tiiHWt3aNFTi1R1skqzfjBLY68ZqxXzVmjeI/PU5GzSP178hwrmF6hH7x4Kiw7TildWqKqsSnc+dKckKTg0WA+99ZDCosMkST75dOrYKdWeqlVwWLAiYiPUa1Av3ffkfR2Zfvzcj+UIc6jyeKXiesZp0s2TNGT8kG/6pQIA4Lz1yspXlHt3rnLvztWsB2d1bJ85bqaiQqP0xJtP6Fcv/Eobd2+U3d+u8JBwHak4oj+9/ictLFyoWRNm6dqx12r1R6v15MInNSl3kq7Ov1o++TQ2Z6weuvMhSVKYI0wLH1qo6LBo7Tu6T/VN9UqMTlRMeIyiw6KVFJ2khqYG7Tuy74yM8ZHxmnzRZAXZgzRvxTzNL5iv45XHVVFToZbWFj3+xuOa894cTRk+RT+8/odqbGnU7Ldna8W2FdpzZI+eXPikikqKdMuUW7Rp1yb95uXf6IGZDyi3X64k6eZJN+uuaXdJal8/qqW1RbsP75YkJccmK8A/QJK0aO0i1TXW6YGZD+iKUVdo5baVWrxuseb9Yl5HwffYvY/pov4XSZJCg0M1OXeyJg6dqJXbVuqpt5/6hl5FAF0JM6cAXFCu/+H1CotqL2YyctoXA+09uLdu+PEN6j24t3Zt2KUlzy7RurfXafq3pytvWp62r9mu0h2lmv7t6Zpw/QStf2e91r29TkUfFGnC9RNksVjkk0+pA1IVEt6+8GhsUqxik2Pl2+hTm7dNFotFNnv7H5k2f5ssFotaXa3yeryd8oVGhWr41OGqq6rTK4+8ou2rt6upvqlj/6HiQ9q9abc8bo9aGlvU2tKqmlM12vTuJt38XzereF2xyg+Xa9pd05Sdny1njVNxKXGqOlklqX3mWJ+hfeRvb1+U9aX/eUkBwQGqO12n3Em5GnH5CAWHBistM63jPnsN6qWA4PYPmGmZacoalSVHmEMAAHRXI7NG6s5p7V/8hAb9c12l26beph6xPbTqo1Xaum+rtu3fpjHZY3TTpJvk9ri1ZOMSNbY0atb4WbJarXq14FWt3LZS0/KmKSEqQZIUFRqlvintX3bZ/Gwa2neo/Kx+8rZ55fP5ZLPa5Gf1kyztM6C9bV41tzafkXFInyEamzNWB44f0KaVmzrKIql94fa3Ct/SidMn9Prq1xUaHKqSEyXytHm069Au+fv5a13xOjkCHbp50s3KychRSFCIhvYdqmfeeUaSlBST1LEQe3Fpsa7572tUU1+jlLgU3XvlvYqPar/Ay6hBo7R9/3btKNmhD/d8qLqGOh09dVSDew+W5ZNv+AakDlC4I1zzlW42AAAgAElEQVSS1C+lny69+FJZLBbNXjRb+46eWbwBwP9GOQXggjLskmGKTozutM0R7tCAiwcoPjVe2WOyVbyuWPMenieP26P+F/WXs8YpV4tLwWHBik6MVkhEiDytHtWdrvvS+wsMDlR4bLi8Hq9qK2sV3zNedZV18rq9CosKU0BQQKfx/v7+ioyLbD+NziI1Ohvl9f6zwGqsb1RjXaNSB6Zq8i2T5W/37yi+gsOC1VjbKI/bo+DQYPUZ2kdWa/sE10/Lqf8ta1SWMrIzFBAUoKSMJKUOSP3CxxMaEarQiNAvvIIhAABdXXpCuqblTTtje8/4nro6/2oN6TNEHx/4WHOXzdWba95UVGiU8nPyVVVXJbvNroToBFktVvnb/FVWVfaZ5dL/FhcZp0B7oOqb6tXU0iRZpPrGegX4Byg2IvaM8eGOcMVHxcsR6FCru7XT54k2X5tOnj4pr9eraXnTlJGUIau1/VTFzPRMHSk/ovqmeoU5wpQYndjpioGfJTYitr1ws1gVHhKuiwdc3FE2lZaV6t2N76rN16bwkHC1+drk9nz+epbhjnAlRCfIEehQW1ubXG7Xlz43AEA5BeCCd2D7AW1ZtkVBIUHKnZQr+SRZpJOHTsrtciu+Z7xCwkNUXV6t0uJSnTp6SkEhQUrpf+YHNT+bX/sVddxuuZpdikqI0qBRg/TRqo/04T8+1CU3XaIty7eooa5Bg0YPUnzP+E6/39TQpJKiErU0t6/BkNAzQccPHperqf2DWXhMuCLiIuQIc6jP4D7yD/BX4VuFik+Nl8/nU0yPGAUEB6i6oloFCwpUfrhc/XL7yR5ol83fJvmklsaWjkXRcy/JVd60vDMex6eFl6fVo5amFrW1ta8/ZbFaKKYAAPgcc96bo6MVRzVx6EQN7TtUaz5eo237t6m8ulyOQIcykjJ0qPyQdh7aKYssanY1q1diL0WFRnU6zqfFlc/nU2NzowLtgRqXM07bD2zX9oPbtfvIblmtVm3bv02xEbGaMPTMi6aUnizVrkO7dLr+tMId4XIEOlR6slSS5Gf1U5/kPqptrFV6YrpGZo3Ulr1bVFFToT7JfRQSFKLE6ES1ultVXFqstz54SzERMbpx4o2y2WwdVw9sdbdKkhKjE3X7pbd/5nOyZe8Wrd6+WmNyxqhfSr9/7rBIdn+73B63ml3N8ng97ZstFlkt1o5lEwDg30E5BeCC1+Rs0v6P9qustEwnSk7I1dReKo2cPlIhESG6+NKLVXm8UmUlZXr37++qvrpeOWNyNPaasWccq3dObx3adUh7P9yr9YvXK3VgqsZeO1bV5dUqXFio+up6FRUWKaVvisZeM1aJvRI7/b6zxqnNSzer4kiFIuMjNfbasVry7BKdbj4ti8WiAcMHaMTlI1RSVKL35rwnWaTidcWacssU+dp8ypuWp1PHTmn3pt3asmyLLFaLEtMSlT4oXZkjM3V452EtemqRmhu++BvaQEegcsbkaNfGXVr64lLVVNSc1eccAICuqLyqXG+ve1sHThxQXEScjp06pmF9h+niARerR0wP3XjJjZq3Yp7mLJkji9Wi6PBoXTHyCvVN7quCbQUdx4kMjdSIgSO06/AuzV40WxOHTtS4weO07/g+7T68Wy8ufVFWi1XHK49r6sVTP3MWV9HBIh2vPK6SEyUaPmC4IkIiVHqyVBZZFOgfqDun3ak2X5tWbF2h4tJi7Ty0U/GR8RraZ6jSEtI0feR0/WPTP/TU209pyfolunbctWr1tConI0fFJcXasm9Lx2l5XyQxOlHxkfFqbGnUqdp/XgXZ389f44eM17ridXrzgzd1uPzw2XkRAHRLfg8++OCDpkMApi1cuFBBSUHKHJFpOgo+Q6urVdXl1UrPSlf+lfmyB9o77Q+LClNcSpwkqe50ndq8bRo6fqguu/MyxaXEKSE1QeGx4R2ziJLSkzTmmjEaOmGofD6fyg+XKz0zXSMvH6mEXglyhDnU2twqP38/pWWmKT0rXdEJ0Wp0NqriSIVikmM0YdYEDR43WKFR7etUOGucamtrU6/MXopNjlXd6TrljM3RpJsnaf0769VU16TRV47WsInDFJMcI5vNpoa6BskiXXzpxbrsjsvkCHUoPjVegY5AuRpdioyP1KgZo3TR5IsUGhmqyPhI+dv9VVVWpaSMJKVnpWv41OFnnOYotc8Ai06Mlj3QrvrT9YpNiVV6VrpyJ+UqIS3hm3/RcNasem2VsntnKzc313QUAF/RwoVSYqDExwzzyqrKFBYcpvycfOVk5Jyxv3dyb4UEhaihuUH1TfVKS0jT1WOu1qTcSYqNiFVGUoaCA4JVUVMhm5+tfSH0MVcrJT5FlbWVstvsGpE1QvnZ+UqISpDdZldZVZn6JPdRTu8cpSemy+ZnU2Vtpbw+r/IG5mnmuJnKTPvnm6OkrEQZSRnKSs+S2+NWfGS8po+crqiwKC39cKlS4lJ0z4x7NCB1gEKCQ9Tsapaz2an+Pftr1vhZGpE5QlGhUUqOTZZPPtU21GrUoFG6a9pdSolLUUx4jMId4WppbZGf1U9Z6VkaPmC4xuac+aWd1L4mV5gjTJEhkYoJj1FidKKG9R2mqRdPVWJ0ooICglTtrFZ8ZLyy0rM0fsh49e/ZX84mpxpbGjW0z1BNGT7lG3tN8fW8tlrKGCTxMQOmWXyfnhsCdGM33XSTInMjNfOBmaajoIvZv22/Hr7lYfn7++vu392t4VOHm46EC8wvrvqFbp56s7797W+bjgLgK7r5ZmlouPSD60wnwYXqZNVJzXlvjp546wlNHzFdL/z0BdOR0EVc/Utp8o3SPfeYToLujtP6AOAbtOKVFQqPCte468ap16BepuMAAIAL0M5DO7X9wHZNGDKh4yqDANCVUE4Bn3A1u+SscZqOgS7mll/e0uk27zH8X3ncHtMRAJwFTS6put50ClyohvWdpDk/mtRxm/cSzpbWz7/wInBOUU4Bn3j+v5/Xi//zoukYANCJ1+PVbdNvMx0DwNf04AvSQy+ZTgEAnXm80uW3mk4BUE4BHb71i29p2p1nXikFAEx69D8eNR0BwFnw85uluy43nQIAOrv7MdMJgHaUU8AnQsJDOq74BgDni4CgANMRAJwF4SESHzMAnG/4mIHzhdV0AAAAAAAAAHRflFMAAAAAAAAwhnIKAAAAAAAAxrDmFAAAAGDYkYojWle8TsmxycrJyFFESMRZPf72A9sV5ghTRlKG9h7dq+VblksWyWqxKjQ4VGOyxyg5Nln+Nv8vPdbyLcuVNzBPYY4wLd+yXDHhMRrad2inMU0tTZrz3hyNGzJO/VL6KcC/fWGbdcXrJEmjB40+q4/vqzp26pgWrV10xvYZo2coNT5V63euV1VdlXL75yopOkmS1Oxq1pz35uiOy+6QI9BxriMDQJfEzCkAAADAsJXbVurpt5/WvOXzdOD4gbN+/IWFC7Vh5wZJ0od7PtRvX/mt1hevV2FRoRavW6w3P3hTdY11/9axHnvtMZXXlEuS5q2Yp4KPCs4Y42x26v7Z9+v5959XZW2lfD6fJOmd9e9o8brFZ+lRfX37ju3Tfz//31pfvL7TT42zRpK0ZP0SPTLvEa0tWiuP1yNJamxp1AOzH1Bdw7/3fAEAvhwzpwAAAACDWj2tWrN9jXL75qqsukz7j+/X0L5D5fF6VF5drqMVR2WxWOQIdCg1IVXhjnA1NDfoSPkR1TXWyW6zKyosSglRCfL5fDpUfkjOJqccgQ6lJ6brcPlhbd6zWdXOao3KGiVJyu6Vrdd+9ZpcbpfWFa/TT5/5qa4YdYViwmMkSS63SxU1FaqorlCru1VBAUGKj4rXwRMHtXXfVq3bsU6x4bGSpIbmBh04fkBV9VWy2+zqldSr47HtKNmhnYd2KtwRrtDg0E6P2+P1qLahVkdPHVVTS5P8rH7qEdtDCZEJKj1Zqra2NlmtVrlaXYqNiJXL7VJ5dbn6JPdRVFiUrBar3B63yk6X6VTtKfl8PsWExyg5Nll2f3un+9q2f5vSE9IVFRZ1xvOfEpei1x587XNfn4qaCn188GPl9s9VRlLGGfubXE06efqkTteflsfrUVhwWEeG7Qe2KyMpQ0cqjighKkH+Nn9V1lYqKCBIybHJcgQ61OZrU2Nzo0pPlna8bmkJaQp3hMtqZS4BgO6BcgoAAAAw6GjFUR2vPK5bptyit9e9raMVR1XjrFFVXZWeWfKMFhQsUEJUgpKikzRrwizNGD1DH3z8gZ548wkdKj+kxKhEDes3TFMumiKbn03PLHlGh04eUlJMkv7j8v/Q3GVztXn3Zn188GOlxqcqISqh475tfjZlpmWq2lndMTNIkg6eOKiFhQu1evtq1TprFR0RrbE5YzVv+Tw5m5x6aO5D6teznyRp9+HdenbJs1pbvFYB/gG698p7NW7wOEnSjRNv1IqtK5QYlaisXlmdHne1s1rvbXxPr69+XeXV5bL52TTloim66/K79Nt5v1WTq0mxEbE6WnFUY3LGqNnVrIWFC3X3FXfrtqm3yRHo0NFTRzV/5Xyt+miVvG1ejcwaqW9N/pYy0zI73dfDLz+sB2Y+oPzs/DOef5fbpX3H9nXcTktI6zgNUZKy0rOUFJOkt9e+re9d/b0zfr+opEivr35dW/duVVNLk9IT0zVrwiwNTBuoS398qR6/93HNeX+OxmSPUY/YHlq9fbWiQqN017S7NGrQKDW1NGnz7s16evHTHa/bndPu1PjB4xUZGvl/eSsBwAWLKh4AAAAwxOfzacmGJcrOyFZKXIqG9Rum+sZ6FZcWa/uB7Xpv03u67dLbtPLxlbpj2h2a8+4cVdZW6oV/vCCffHr8u4/rbz/8m6LDovXIK49ofsF8XT3mav3jD//Q9ROu19xlc/Xzm3+uK0ZdoR/f8GP9+IYfS/rnrKWKmgot2bBE6YnpCvQP7MhVsK1AFTUV+vUdv9Y7v31H35r8Lb2y4hXtfXmvosOi9fbDb3fMwqptqNWYnDF6+Wcva1LuJP1hwR86jjNtxDQ1NjdqR+kOVddXyydfx75DJw/pzQ/e1D0z7tHqP6/WX77/Fy3dslSHTh6SJFmtVl0+4nJNGT5FHxR9oCF9h+hHN/xID8x+QM4mpyRp3vJ5amtr08N3Pazffft3svnZ9ML7L5zxPC98aOFnFlOSVFpWqrzv5HX87Du6r9P+Psl9lJmWqQPHD2jP0T1n/P6rBa8qLDhMT973pF578DUN6TtECwoWdOz38/PT7Ptma0fJDrW6W3XXtLvU5GrSonWLOp6Hucvn6qr8q/T+79/XDRNv0PwV87X/2P4veOcAQNfCzCkAAADAEJ98emf9O7rzsjsVFxGn4f2Gq+hgkYpKijQ5d7ImXzRZb655U26PW7dMvkVLH12qoIAg3Tz5Zs1eOFuzF83WdeOu061Tb9WIzBG6/tfXa0HBAlktVrX52mS32T9zts+aj9co4eoE+fv5Ky0hTY/8xyOdZlTdfunt2rh7oxavW6xdh3dp9+HdanG3fOZjGDd4nCZfNFl2m13D+w/XG2ve6NhnsVj0vau/p7+89RfFRcbpX7opDe49WI/e86je+OANLShYoOLSYpWUlajV0ypJysnI0cRhE1VVXyVXq0tTcqeopqFGHq+nYw2rXYd36b1N7+mReY9Iai+0JuVO+j+9Bv179te2v2/ruG232c8YM7j3YFXUVOiJN5/Q77/9+077HrztQa3YukLPvfecdh3epb1H92pg6kBJUoB/gK4dd60cAQ6drj+t/j3769Lhl2p98fqOx1nbUKt3N76rV1e92ul1u3v63f+nxwEAFzLKKQAAAOAc+Oviv+r389uLjcy0TC1+ZLF2H96t3Ud264GnHtDP5vxMXq9Xzmanrp9wva4cfaUeuPYBDes7THuP7NV3/vQd3T71dl077lpdevGlio2I1fb927W+eL027dqkpJgk9UrspTk/ntNxOpjFYlFcRJyef//5TllGDxqtuT+fK4sssv1/9u48PMry7vv/ezIzWSbbZN9XEhICSdiXEGQVQVEBd0BFW8VWn1rv3vWn3ta2PrW1Vq0+tb3VuqFFEcUFUURB9n2HsCUsISEr2fdkMjO/P0ZHUkCRKqPyeR2Hx4HXnNc53+ucUZOP52I0ERIYgq/3lzOn3ln9DjsP7ySnVw5jB4zlRMMJ/r/n/r/TPpe32RtvkzcGgwGDwdAjgALondCbzKRMDpQc4GDpQTISXMsBD5Qc4Ik3nyCvXx65vXK5c+qd3PrnW933mU1md79eXl54m73xMvRc+GG32/nNTb9hWv40fH18MWDo8Rxnw2Aw9FjGd8rrGLAGWMlOyWbLgS0sWrfIHY4B/P3dv9Np62RY1jCm5E1hQ8EG96mEBoMBi48Fo9EITtczmUwm1zh9zul0khSVxMv3vUxIQAgYXPdFWCO+0XOIiPyQKZwSERERETkPpuZPZVDvQQBYfC10dHXw3tr3uG7sdUwZMQVrgBWArQe3UlxVzDPvPkN3dzeThk5ieNZwAJ5f/Dyj+49mwYoFWHwt5GfnkxKTwtur3ubjzR8TFx7Hpv2bmH3JbJZtW8aybcu47fLbMBgMdNo66ehyzX7y9fYlKSrpjLUeqzpGa3srOak5tHe289aqk2ZDeRloaW/psUfVyWHLvzObzEy/aDrPLXqO3Yd3u8OpxpZGDpYe5PbLbyc+Ip65H8+lqa2px70n93u690iNTaW6vpr6lnqCncEs37acru4u/uva/zpjPefCy8uLlNgULh1+KX949Q89lifuL9lPRmIGOb1yKK4oZlvRth73ftXYAARaAomPiGfD3g3MnjSbFTtWsHzbcmZPnk12ava3+hwiIt9XCqdERERERM6DmLAYYsJiANdsmRMNJ/h066f8ec6fGdh7oHvGT3xEPK8vf51dh3aRkZjBCx+9QGdXJ6XVpUweNpkg/yBy03JZunkpa3avob65ngC/AGZMmEF4cDjvr3ufT7Z8gtPp5OLBFxMaGEpydDIrdqwgLjzulNlHp5Odmk1RWRF/ePUPhAeH95hZlJOawx//9Uce+ekjZ/3s8RHxDOo9iJU7V7qvRYZEktsrl0dff5RgSzApsSlnVdvJrh5zNe+sfoe/zP8LAAkRCVwx8opT2t3zzD3cOPFGBvYe+I36P5nFx0JWchZDMoewevdq9/WR/Uayetdqdh3aRXRoNN4mb9ppP+t+EyITuHbctby35j2WbVuG0+lkwqAJhAWFnXOtIiI/NAqnRERERETOM4PBQIBfAL+46hfk9MrpEf5EhUYxeehkhmQMISo0ioyEDJpamzAYDORn5xMSGEJ+dj7B/sEcqzpGp62TmNAYctNyMXoZCQkMoaaxhmD/YIb2GUp4cDhXj76a7NRskqOTsQZYv3bJWF6/PIL9gymrKcMaYCXSGkl+dj4A9824j7KaMiKsEdx66a2EBoa678tKzuKh2Q8RZAniuV89R7B/MABGLyP52fn4+/m7lxwmRCQw5/I57D22F5OXiT5JfchKyqJvcl9uufQWd7/Ds4a7/xxoCezRb05qDkYvI0fKj9Dt6CY5KpmcXjmnPM+onFGuPa/+TZ+kPvx29m/POA7TL5qOw+lwf2bhQeHccuktZCRmuGe6TRkxheToZOqa64i0RmI2mWnrbCM2LJYn73zSHbg9eNOD9EtxnVg4bdQ0d78hgSFMHDyRkADX5xZoCWRo5lAt6xORC4rBefKCaZEL1MyZMwkZHMI191zj6VJERHp4cNqDzJo0izlz5ni6FBE5R7NmwcBg+K9rPV2JiEhP038DE2fAHXd4uhK50H2zebMiIiIiIiIiIiLfIoVTIiIiIiIiIiLiMQqnRERERERERETEYxROiYiIiIiIiIiIxyicEhERERERERERj1E4JSIiIiIiIiIiHmPydAEiIiIiIheibns3RaVFPL7gcbYXbsdgMJAUlcS0UdOYNHQSkSGRZ7x31h9mcfWYq5maP7XH9X3F+7jsvssAMBgMRIVGcefUO5k0dBLhweFfW9MTbz5BXr88RvQdwfMfPM+BkgM8eeeTp7Q7WnGUFz58gRU7VtDa0UpsWCzjB47n2nHX4mXw4ok3n+DJO5/EYDCccu9X9fttqmuqY8icITicjh7X75t5H9eMvoZl25bx6tJXOVp5lEBLIJmJmdw19S76pfbD19uXlz56iZiwGCYPm3za/of/bDgv3PsC/VL6fafPISJyIVA4JSIiIiLiAU1tTdz7/L0MyxzGNWOuwd/Xn0Nlh1hXsI5ueze3XnrrGe+tqq+ipb3llOtd3V00tzWz+NHF4ISdh3eyfNtyEiISGN1/9NfWtK5gHfGR8YzoO4LG1kZqGmtO2+6vb/0VPx8/fnXtr4gMiaS8tpzN+zfz/KLnuWHCDXy06aMzhk+X513OuIHjvraW/5TdYae4spj3//h+j2AuMTKR1btXs2TzEi4bcRn9kvvR7ehm68GtPPKvR3ji50+QGpvKtsJt9E7ofcZw6h/3/IOUmJTv/DlERC4ECqdERERERDzA1m1j28Ft3DblNvL65mHxtZCZmElOag5B/kF8tv0zVu9eze9m/w4Ap9PJ7D/N5uGfPAzAiYYTzF06l4KjBQxIG8Blw10zpswmM8OzhgMQHxnP4g2LOdF4wv2+TW1NbDu4jUXrF1FRU4Gfrx/XjLmGd1a9w9o9azlWeQwfsw8AlXWVzP9sPp9t/4yOrg7unHonA3sPZG/xXq7Mv5K8fnlEWiNpbm+mb3JfthzYwv95+v9wrPIY0x6cxsv3vczvX/k9GYkZNLc1M7TPUBpaGjhacZSxA8by1NtPMXHwRFbuXEl9cz03XXITF+VchMHLwNLNS1m1cxVhwWHER8RTcKSAp3/x9Cnj+PTCp0mISGD6RdNPO86Deg8iJiymx7Wq+iqa25oZ0XcE2SnZ2J12UmNTGZI5hAhrBL+f+3sWr19MgCWAQL9A0uLSeGP5G1yUexEHSg7w29m/5Zl3n+F/bvwf/vXpv/D19sVut3Og5ACJUYnMnDCT9Ph0ymrK+Md7/+BEwwnGDxrPxr0bmTpqKuMHjv8Pvz0iIj8u2nNKRERERMQD/LxdodD7a9/nb+/8jXdWv0NpdSm94nqRHp9O6YlSNu7d6G7vdDr5ePPHNLU2AbDnyB4cDgehgaFsPbiVT7Z+0qN/h9NBdUM1BoMBk/HL/ye9r3gf7619j7CgMMYNHEdaXBovLH6BzKRMIqwR9E/rT2pMKgA1jTWU15QzIH0AFh8Lv5/7e1o7Wpk4ZCJ7Du/hH+/9g3nL5rH/2H4irBFMHDKRUdmj8DH7MHn4ZHzMPqzcuZLC0kKiQ6OJConiUNkhthdu50TDCT7e9DFHKo4wst9I4iLiePGjFzlUfog1u9ewad8mggOCCQsKY+2etazYueK045jbK5decb3OOM73Pnsvcx6fw5zH57Bh7wYAesf3JsIawYsfvsg/3v8Hn23/DFu3jfzsfAItgQzNHEp8RDyZCZn0SerD8RPHWblzJW0dbeT2ysWAKzxrbGlk075NbNy3kQC/APql9ON49XFe/eRVGloaeP3T16mur2ZQ70GUVJWwdMtSSqpKzu0LIyLyI6aZUyIiIiIiHmDxtTDn8jl8uvVTWtpbKCorouBoAX2S+jAqZ9TX3h8SGMLIfiPBAG+teIsVO1aQHp9OS3sLv335tzhxUtNQQ5/EPqREf7n8LMgSREpMCv6+/nibvWlsaWT17tU8fOvDfLLlE8YMGENOrxyWblnqeo/skWQlZZGdms3ou0fTaevkmtHXsGrXKipqKyipLuFIxRGiQqIYP3A8V42+iuc+eI7bp9zu3nOqV1wvJg6ZSIQ1gg83fthjDPL75ZOfk09evzymPjiV2sZa1hesx2wyM2PCDPx9/WlsbWRH0Y7TjsOY/mO+cpxiwmII8Atwvx9ATq8cuu3dbC/cTmNrI1sPbmXVrlVcOuxSBvUexORhk1mwYgGZSZmM6DuCoxWufamG9hlKRkLGKXtp9YrtxWXDLyPYP5i5S+eydIsruFq0fhEP3vQgo7JHsaNoBwtXLfzaz1VE5EKkcEpERERE5DzYXridDftcM3fCg8O5bux1ZCVnkZGYQXlNOceqjrHz0E427N2Al1fPBQ5Op5PO7k6cON3XMhMzSY5OxuF0EBsey85DOwFwOBzUNtZiMBhcs5kGTyQ1NtV9n6+PL4GWQGqbamlpa6HT1kl7ZzsOR8+NwwFiQmMY1HsQJqOJ9Ph0d5vU2FSSo5M50XiCY1XH2Ht0L3uP7qWlvYVLhlxySj8p0SlEWCMwehl7XPf39WdEvxHu/r1N3q5QrbGGXrG96BXbC4PBQN/kvrzFW+c07vdcc88py/rCgsKYMGgCeX3zKDlRwpHyI2zZv4VXlrxCUlQSib6Jp/QT4BdARkIG3mbvU17LTMgkKToJk9FETFgMDoeDru4uKuoqGNF3BAGWAPqn98caaD2nZxAR+bFTOCUiIiIich6UVJewYrtraVpKTApT86eycudKBqYPJDY8lriIONLi0njsjcc4dPwQCZEJdHV3UV1fjcXXwto9a7F129z9HS47zNHKo3ibvKlvrickKASAIP8gnvnlM2esY+/RvXyw7gNmT55NTFgMlXWVvLr0Vffrdocdu8MOgJeXV48lgV9YV7COuPA4YsNjibRGkhabRntnO2t2r+GSoa5wqqu7yx3kmE3mU4IpAC+Dl3t/q5NZA6y0dbZRXlOOEycFxQVfO77fRHFlMTWNNWQmZtInsQ9psWlkJGRw1UNX0dTW5G5nd9ix2+3uWk8XTAGYTKZTxslsMhMeFE7R8SIyEjLYUbSD+ub6b/U5RER+LBROiYiIiIicB1PzpzI1f6r77+ua63jmnWeYefFMkqKS6LZ3U1FbgY/Zh5TYFAJ8AzAZTbyx/A2So5OZ/9l8Oro63Pdv3LeRCGsEXgYvSqpKGNxERXEAACAASURBVJE14qxrcTgdtHW0UVVXxZJNS+i0dQKuJX+Hyw5TWl36lffPXz6fjMQMclJzMBqN1DTU0NDSQE6vHExeJvz9/Pls+2fnfCrfwN4D2bRvE++ueReT0cTybcvxMpx+u9zC0kIsvhbiI+LPuv+dh3aycudKLhlyCWFBYTS3N1NSWcLA3gPdSwAD/AIorymnqKzonJ4h0BLIuIHjeH3Z64zsN5Ll25dTWVt5ypJAERFROCUiIiIi4hFBliD+POfPvPjRi7yy5BWqG6qJC49jxvgZTBo6ifbOdqaMmMLzi58nLCiM26bcxoGSA/iYfYgLj2N43+E0tDSwZf8WxvQfw/RR0ymvLXdvZn4m/VL6MTxrOE+9/RTWACs3jL+BTfs24ePtw8jskXyw4QPS4tMICQwhOjTafZ/Ry0h6fDpGLyP3XHsPC1Ys4MkFT1JeU06gfyCXDb+MmRNmYrPbGJUzivuev4/lTy4nMSrRvdcT4O7X4mshMarn8rnEyEQsPhZGZI2gpa2FD9Z/QGRIJGP6j+HTrZ+e9nle/PBF0uLTuG3KbT2uf1Hv6WZ+XZRzEQDzP5vPkfIjtLS3kJOaw39f/9/EhsUCroDszRVvsnjDYjISMogLj+vRR0pMCj7ePsSGxRJkCXJfD7QEEhceR1hQGD+78mf87uXf8dyi55h20TQKjhZgNpm/8vMREbkQGZxOp/Prm4n8uM2cOZOQwSFcc881ni5FRKSHB6c9yKxJs5gzZ46nSxGRczRrFgwMhv+61tOV/HDYum2uv+w2io4XsXDVQsprypn7wFxPl3bWnE4nnbZOuu3d2LptLFq3iEXrF/GTS3/CpcMv9XR5IgBM/w1MnAF33OHpSuRCp5lTIiIiIiLyvTJv2TxeXvIy+4/tx8/Hj7EDxvLrG37t6bK+kcq6Sh588UGWbllKW0cbydHJ3H3V3QzJHOLp0kREvncUTomIiIiIyPfK9Iumc/Hgi7F12zAYDFh8LFgDflgn3UVYI/jT7X/iNzf9BqfTidlkxhpgxeJj+fqbRUQuMAqnRERERES+Q6NHF5McvQcGVHu6lB+MoM//+iEzAZGeLkLkq9RmgE8/4IcV/MqPk8IpEREREZHvUGhoOwHh1RB03NOliIh8qTUSjN2erkIEgNOfxyoiIiIiIiIiInIeKJwSERERERERERGP0bI+EREREREP2r+/hn37qmlq6sRq9SU7O4rkZCsm0/n//8ibN5cRFxdEXFwgO3dWsmFD6SltZs/uj5+f+Tut47PPjnLwYE2Pa6Ghflx3XT8A5s7dSVubrcfrubnR5OUlcPx4E+vWlbjbng+ffXaUkBBf+vSJoLi4gYKCahoaOvD2NhIWZmHgwBgiIixf+Zna7U5KShpZvfoYmZlh9O0bSUCA9xnaOjhwoIaCghO0tnYRFuZH//7RxMcHYTR++9+bwsJa7HYHffpEfOt9i4iAwikREREREY+w2x0cP97E66/vprS0iY4OG0ajF8ePN3Hppen06hV63muaO3cnl13Wm7i4QIqLG1i27AjV1a3s2VPF+PGpANxwQ/Z3Hk7NnbuTHTsqSE8Pc19LSgp2B05r1hyjvr6DdetKSEgIJjExGD8/M3l5CRw4UMMjj6w+r+HUa6/tIjMzHLPZyKJFB9m37wQ2mwNfXxNmsxfFxfVcd10/wsPPfFJfZ2c3L7ywjY0bj3PjjTmkpoaeNpyy2RwcOVLP3Lm7qKxsoaurG6PRi6qqFi65JI2kpG9/c+tPPz1MR0e3wikR+c4onBIRERER8YD29m5ef30PBw/Wcs89w+nTJ4K1a0vYsKGUXbuq6NUrlIaGDoqLG+jfP9p9344dFaSkhFBd3Yrd7sBsNtLY2IHBYCA83EJLSxdZWRF0ddkpKWmkoaEDo9GL6Gh/IiL8qatr5/jxJkJD/aipaaOry05aWiilpY1s2VJGWJgfublRTJ2aydSpmXzyyWHuvfcTFi687t/qt1FR0UJ9fTvd3U4CA72JjQ0kONiH9vZuDh2qo7PTTlSUP7W1bcTFBREZ6e++/3TPdrIbb8zl178eedrXXnjhSgAmTXqNG27I5uab+/d4vbvbSWVlC+XlzXR22klKCiYiwkJxcQPd3Q68vY2YzUbi44Noa7NRXNxAS0sXFouZpKRgAgN96OqyU1XVSm1tGzabHYvFTFxcECEhfnR1dXP4cD2trV1ERQXQ0eHaVHrz5jK2bCnjrruGMXJkAl1ddlavPsbChfu49NLe+Pubqaxsoa6u55h5extZtaqYJ57YwD33DGfixDSsVl9KSxs5caINp9NJWJiF2NhAmpo6WbCggMOH63joodGkpFhZtuwomzeXsX9/DUlJVhwOJ01NnZSUNNLebsPf35vU1BD8/Ezs319DWJgfUVEBANTUtFFZ2UKvXiHs3FlFfHwQNTVtdHZ2ExsbSHNzJ5s3l9HebuPgwRrS08NOGbPExGCCgnw4cqSeri47Pj5GTCav7yQoE5EfJ4VTIiIiIiIe0NHRzfz5e3n88YvJzY3GYjEzcWIvIiIseHsbAdi06Tj33beMHTvucN93883v8uSTk5g7dyctLV2kpoawYkUx7e02Zs3KoaiolldemcahQ3U888xmtm+vwM/PxJVXZjJ9eh9Wrizm//7fVVx1VRZr1hyjtLSJu+8ezttv76WgoJpjxxpJTLTy058O/Mr6d+2qYv78AjZvLqO11UZ6eig33NCPSy9NZ/PmMh5+eBWtrTYmT05j/vwCHnhgFDfdlOu+v6CgmkcfXcPixTNP239dXTuHD9cB4OdnJjY28KzHtqmpk4UL9/Huu/s5fLie2bMHcOut/XnkkTXU17eTnh5GbGwgt98+iI0bj/PMM5s5cqSOuLhg7rhjEKNHJ1Nc3MBbb+1l9epjNDV1Eh8fxHXX9WPGjGz27KnmkUdWU1LSyNSpmZSVNdO/fzReXgb8/Mx4exupr+/Az8/EhAmpXHZZOgaDgU2bjvPmm3vZuPE4ra020tJCuOGGbHJzo/j5zz+kq6ubN94oYObMHDo77cybt5tPPz1Md7eDUaOSuPnmXHx8TCxZcoi//OVi+vSJwNvbyGWXpRMZ6U9IiC8AjY2drFhxlP/93y1UV7cSHx/EvffmM2RILPfe+wnTp2dx660DAFi27AjPP7+Vv//9MsaPn8t99+Wzdm0JR47UM3VqJocO1bF6dTEOh5OYmEAeeWQ8mzeX8be/beLw4Xri4lzjOHZsCo8+uoaqqlYyM8OJjPQ/Y7goIvLvFE6JiIiIiHhAd7eDw4frSE0NwcfH9WO5t7eRYcPiz7oPf39vrruuLxkZ4fz975vp3z+au+8ejtMJf/nLOgYMiOEXvxhGaWkjixYdZMmSIveSvNRUK/ffn8/Klcf46U8X8dlnN/GrXy3lxhtzufHG3K95Z3jttd2Eh/vx7LOXERDgw+uv7+GNN/YwaFAsTz+9idGjk5kzZxBvvllAV5f9lPvz8xPPGEwB/PWvG3jmmc0AjBuXwvvv33DW42Kz2Wls7GThwuvYsOE4d9+9hBEj4t1jds01WeTkRFNUVMtrr+3i2mv7MnFiLz799DCvvbab2NhAPvywiM5OO08+eQnR0QEsXlzIP/+5jalTM/ntb1cyaFAMTzwxkVWrjtHY2OF+piNH6vjZzxaTlhbK8OFxDB4cx4gR8Vgs3sybtwer1Zf//d/LCAryYf78AubN283VV1/P1q23Ex39OOvW3UpcXBB/+MNqnE4nf/7zxRiNBhYvLuSFF7Zz222DOHaskYyMcPceVj4+JvLzE93PX1BQxcKF+7jiigyuv74f//jHFp5+eiOPPXbxWYyek3/9azr79p3gvvuWMWfOYPr2jaC1tYunnppMQUE1r7yyk6uv7svEiaksX36U11/fQ0xM4Ofja2b69D707x9z1p+XiIjCKRERERERDzAYXKGC3e4EnIDhG/eRmRlGdnYUBw7UEh5uYdSoJPz9vQEnmzaVsWDBXh54YBkOhxMvLy/uuWcE6emhJCS4ZgEFBfly6aXpGI3gdH6z9/7d70azfPlRXnxxB/v2nWD//hqyslwhxp49lTz//BTCwizMmpXDe+8d+MbP9uCDo/nlL4cDYDR+s7EJD7dw111DCQz0YcKEVCwWMw6H6wG/GDM/PxMNDR18+GEhCxbsxWTyorvbgclk5I47BnP33cNYvfoY8+cXsH//CfbtqyEoyBubzcGGDaU89tgEEhOtTJ3qx9KlhwBITQ3hgQcu4rbbBrF7dxXbtlXwm998xowZ2cyYkc1DD13E8uVHeemlL8csIyPstM+wb98JFi8+yKOPrnVfGzcu5fPvjRG73XHG56+paaexsZOZM3OwWn35+c+HMGbMK7S0dH3luPn6GpkzZ/Dn36VEwsL83OP2hcbGTj76qJC33jp5zLz4yU9cM+169w4jNzcaPz/9qikiZ0//xhAREREROQ+ee24rf/nLOgCysiKYO3caI0cmUFLSSHx8EBaLaxZMZWULANHRAaf00dzc9XmY5eLra8bX1/UjvcnkRWCgNwaDK2iy2ey89NKV5OZGYzZ7YTAYsFp9Wby4EJPJSFCQDwYDmEzfPBQDePbZrdhsDgYPjmXSpDTWrSth8+YyAAwGA2azEYOBcz49zsfHeMbT6r6O0Whwj4XJ5IXhpEf08TG5gxOHw0l8fDAvvHCFe0mcwWAgOjqAl1/eQUlJI9nZUYwbl0JhYS0vvbQDcOJwODAavdzPZ/j8Dby8DPj6moiNDSIszMLw4QlMm5bJrbe+//nsrwO0t3czaJBrzDZuPM7atSWnfYbubgf33pvPtGmZ+PqaMBhcSwZtNjuDB8dSVFRHSIifewloWVkT3t5GIiL8cTpdNbo+d9cY2GwOnP+WQHZ12Wlv//LUQ9d3xA8vLwNg+Hzcet7jdDqJjQ3ipZeuPGXM3n57L76+JgVTIvKNnf/zaUVERERELkBTpvRm7txpzJ07jYcfHofFYuaOOwbz+ut72L+/hqamTpYtO8KCBXs5cKAGcP3S397ezfr1pTQ2dvDHP66mqqrF3afBgDsYOfnPYKBv3wgKC2sxm72oq2vnrbf2smJF8WnaclJ/Bjo6uunsPHUZ3r/bt+8E3t5e5ORE09XlYPfuasC1P1RmZjjz5++huLiBxx9fR1FR7X8ydOfkdM/3xfUvXgsM9CYhIYjt2yuIiwuiqKiOZ5/dytGjDRQV1dHd7SA3NwofHxNbtpQDrqBn8OBY3n//AAUF1Tz22Do2bDgOwIcfFvKHP6yivLwJPz9XSNPc3IW3txGDwcDevScwmbzIzY3CZnOwc2flGetPSbFSX99Oc3MX3d0Oli49xPz5BYSG+jFjRjbPPruVQ4fqaG7uZMmSIt5+ex+HD9cDYLX6EhDgwwcfHKShoYPXXy9wn2jo5eVFUVEtRUW1rFhxlAUL9vZ4X68z/IbY1eWgrc1GQIA3iYnBbNtWTkxMIIcOucbsi/d2hVrnFniKyIVLkbaIiIiIyNdwOp0sWbKEmpoahg8fTnJyMt7e32xWT1xcEHFxQT36HDkygf37a3jmmU20t3cTEODNRRclkZ7uWuqVnGxlwoRU7r9/GTExgaSmhpzVTCSDAe64Ywhvv72P++9fhsMBfftGkpJipaCg+oz3paWFsnDhPqKiArjiioyvfI+8vATWrStlz55qIiP93UvvIiIs3HLLAN54Yw9r15aSlhZKUJDvKUvzdu2qZO7cnTz55KSvfZ7vSmJiMFdfncUHHxSybNkRHA4HY8emEBLiy8CBMSxdeog//nEN4eEW9wwzPz8z//VfefzrX7vZvbuKzMxwoqNdpxAmJARz8GANTz+9icbGDpqaOgkLs/DTnw4kOjqAvLwE1q4t4ZFH1hAV5e/eM+p0pk3rw7vv7ueJJ9YDEBsbyOWXZ2CxmMnLS2DfvhM8+uhaurrsBAX5MG5cCsnJrtPxMjLCmDAhlYUL9/POOwfo7nZwyy39iYoKYPr0PixeXMgvf/kxCQmuwKqzs/srxyk2NpANG0p59tmt3HxzLtde25f33z/A8uVHcTgcjBmTQmio77fxkYjIBUrhlIiIiIjIWbBarWzatIktW7aQmZnJRRddRHp6Or6+5/ZLucFgIDjYl2nTMklKCqapqZOICH9ycqKIiXEt6UtICOK22waxadNxzGYvBgyIITMznMzMcGbP7k94uAWAYcPiCA3169F/fn4i3t5Gjh9vwmTyIisrgoyMMPz9zT3aGgwGHn30YuLiArn55v4UFdW6Qw6APn3CeeCBi06p//LLM0hKcs3uiYoKwGz2oq3Nhr+/N+PGpWAyedHY2IHN5iA2NhCLxdzj/i+WvZ3OzTf3P+V5Tueuu4aRnh7a41pmZjj/8z89673//lFkZUVw0025PfoNDfXjkkvSCA72paamjaAgH4YPjyciwp9x41KIiPCnqqqFsDA/rFZfysubMZuNjB6dhJeXgYaGDrKzoxg0KJaYmADS08Pw9TVx8GAN9fUd2Gx2IiP9GTYsnuBgH6ZM6U1iYjB1de1ERvrj7W2ktdW1rM7f35tnnrkUq9X1fcrNjcJoNFBUVIfd7iA5OcR9ImBYmIVrr+3L1q3ltLXZiIoKoH//aCIjXSFZVFQAkyalER5uoa6unfBwC/n5iQQF+bivV1a2uD+XpqZOoqMD+MtfJvYIP3/+86GkpFjx8jIQEeFPeLgFq9WXSy7pRXCwDydOuMZs2LB4IiP9mTUrl6Agn6/93ERE/p3B+e8Lj0UuQDNnziRkcAjX3HONp0sREenhwWkPMmvSLObMmePpUkQueK2trWzfvp1NmzZRXV2N0WgkJSWFIUOGkJmZiZ/f6cOUhQv3Exu7nhEjjp/nij2jqamT5cuPUFRUR2dnNxUVLQQH+3LDDf3IyYnydHki8oWKgUy/ZQQTp4Zzxx2eLkYudJo5JSIiIiJyFvz9/Rk1ahQDBw5kx44drFmzhj179lBaWkqvXr3Izc39ypBq585KNm788QdUDQ0dvPvufgoKqunqcs0cmjQpjWXLjrB+famny5PzzGr15frr+3m6DBH5nlM4JSIiIiLyDfj7+5Ofn8+gQYPYs2cPS5cuZfny5Rw6dIicnByysrJISUnBYrH02Bj6yJF6li495MHKz5/Y2EBiYwPdf19X186aNcc8WJF4SlxcoMIpEflaCqdERERERM6Bn58fQ4cOJTc3l8LCQt59911efPFF+vbty9ixY+nduzdxcXE4nQ4Apk/vw/TpfTxctYiIyPePwikREZHvuba2NioqKmhvbwfAZDJhtVoJCgrq0a61tZWGhgY6Ozvd137sbYODgwkODlbbM7RtbGyko6NDbc9DW39/f2bNmsWVV17JBx98wO9//3v69u3L9ddfT1OTlbg4RERE5Ay+/hxaERER8ahVq1Zxyy23kJ2dTXZ2NhdffDHz5s07pd2SJUu4/vrr3e2+qu3HH3983tpOmDCBf/3rX6dte8MNN5xV26VLl5627elq+E/bjh8//ow1zJgx46zafvLJJ+e17WuvvXZWbceNG3fatp9++ul5bfvqq6+etu3MmTN7tB07duxp2y5btuy8tp07d+5p286aNeuU79nKlSu59957ef7552loaOBvf/sbu3fvPuV+ERER+ZJO6xNBp/WJyPfXg9Me5PoJ13PLLbdgt9sB8PLywtvbG7O557Hs3d3ddHV1uduprdr+p23NZjPe3t5qe5Zt7XY7lZWVvPzyyyxcuJD8/HxuvfVWiostpKfvumBO6xORHwid1iffI1rWJyIi8j1nMpmwWCxn1c5kOrv/tKut2qrtt9e2o6OD/fv388Ybb7B69WpGjhzJSy+9RFpaGqGhoVRXHzltHydOtDJy5IsAGAwGwsMt3Hxzf664IoPo6ADefXc/ixcX8uKLV/Zoe7L77hvFrbcO4L33DnDvvZ8ABoxGL+LiAnjggYsYPjwei8V8yn1n44UXtlNYWMNjj008p/vPVm1tG3l5L/Kb34zm8sszCA72AeDPf16Lw+Hk/vtHfafv/224775Peeed/T2upaeH8eGHMwE4fLiOZ5/dyvr1pXR12YmLC2LSpDSuuCKjx8bx/27u3J1ERvozeXL619bwwAPLePvtfT2upaWF8tFHswC46KKXuO66bK6+ug9RUQHu/nfurOSvf530jZ5XROTbpnBKREREROQctLW1sW3bNhYtWuQ+qe/hhx8mPT2dmJgYfHx8MBgMPU7sO1l3t4PDh+t5//0bsFp92b//BFu3lhMdHcAVV2TQ1NRJWVlTj7bvvXc9ISF+7j5SUqwANDV1EhLixxNPXILNZmfr1gqef34rvXqFkJRkPafnq69vp7Ky5Zzu/SbsdidFRbW89NIO+vePJiAgHKPRi9raNhyOH8Yij5/8ZCBTpmSwYEEBBw7U8NBDY3qEgo88sobY2ED++7/zCAnxo7S0kS1bymlu7uTXvx55xn63bi2nV6/QswqnqqpaGTcuhVmzct3XTq7h6NEG5s3bTXZ2JGFhFkwmLxoaOs7LZywi8nUUTomIiIiIfAMtLS1s3LiRZcuWUVNTQ3JyMjfffDN9+vQhOTkZHx+fb9TfsGFxRET4k5oawurVx9yB1OnbxhMZ6X/a10JCfMnPT6S720FCQjAvvrid1lab+/WamjbWrDnGypXF1Nd3EB0dwNSpmeTlJVBf3878+QVs316JyWRg/PhUamtdhzA0Nnayc2clpaWNzJqVA0BJSSOLFh1k9+4qurrs5OREceml6aSmhnD4cB2vvLKTmpp2Lr+8Nx99VMSddw4hLS2UFSuKWb78CO3t3QwcGMNVV315emG/fhF89tlRgoN9SUjoeShCW5uNgoJqFi7cz/HjTfj5mbjsst6MHp3EvHm76ey0YzYbqalpZeTIRGpr21ixopjbbhvEwIHRmM1Gmpu7WLKkiLVrS7DbHQwfHs+UKb0JCfGju9vB9u3lPPfcNtrabERFBTB+fCp5efGEhblmru7ZU8XLL+/gySdPnWWUnh5GenoYW7aUUVvbTn5+Yo/Xd+6sYNSoRPLzkwgJ8aWxsYO+fSMxmbyw2RwcO9bAa6/t5vDhOhISgpkxox9vv72PDz4oJDDQm+BgX265pT8ATqeTlhYbmzYdZ/XqY8yZM4i4ONd4JSVZT3nvk/XuHca2beVERvqTmRne47WuLjuFhbXMn19AaWkjJpMX48alMm5cCp99doRDh+qIiwti//4aLr44lfZ2G++8c4DZs/szfHg8/v5mWlttrFpVzLJlR2ht7WLAgBiuvjoLf39vHn54FXl5CQwfHk9YmB9eXqcPbUXkwqRwSkRERETkLDQ3N7N+/XrWrl1Lc3MzoaGhTJgwgdzcXFJTU79xKHUyp9NJXV07TieYzcYztrn//mX4+X35I/y0aX0YPz61Rzu73UFVVQs+PqYeAcDatSWsW1dKdHQAqakhVFa28Pzz2xgxIoE339zL7t1VJCUF09ZmY82aY2zfXkFiYjDl5U1s2nScvLwEd1/z5u2msbGTzMxwHA4nhw/X8fHHh5g2LZN33tlPbW07gwbFsHdvNR98cJCrr86iqqqVgoJqYmIC8fIycPx4E++8s58rr8wE4Oqrs5g/fy8HDtQQFubX45lKShqZN283Vqsv+fkJ1Na2s2BBAcnJVrZtq6ClpYu8vASamjpZtOgg2dmu4OcPf1jN3LlTCQ31cwcsCQlBOJ1QVFTHkiVFzJiRQ1ubjT/+cQ11dR1cckkvHA4ny5Ydxtvbi0suSQMgJMSPIUPO7djFyZPT2bDhOGVlzaSnh5KaGkJqaghhYRaOH29i0aKDeHlBXl4ClZUtvPfeAUJD/YiJCSAqyp/09FDa2mwcPlzHtm0VFBbW4uNjxGr17fF9WbTooDvcTE8P4+67h/eo47LL0tm2rYKCgmri4nouJ6yra+e557ZitfoyZEgcTU2dfPLJIaKi/Nm37wSbNpVx+eW9MRhgwYK9jByZQHCwD888s4mkpGDS0kLZsKGU3buriIryx2QKpLy8mbff3ssttwwgJiaAHTsq2LTpOImJwQwYEE1GRjhBQef+z42I/HgonBIRERER+RpOp5OtW7eybt06uru7GTRoEEOHDj2nmVL/3u8TT6zHYvGmpqaNqKhTZ7ScLCTEF3//Lzdn9/P7ctnW4cP1PPzwKhwOB+XlLUyenIbV6ut+3Wr1JT4+iOBgH7q7HdTUtLF69THAFTZcd11fpkzpTUeHnV27KikpaaS8vJlNm8owGg09wqmYmEACA30IDvahpqaNQ4fq6Oy0M3x4PKtXH+PXvx5Jfn4iK1cexdfX9SvHunUlbNx4nJSUEHx9jRw8WMvu3VXucKp37zAGDoxm69YyYmICOPnYJl9fE4mJwQQG+hAU5E15eTPr15dSW9sGQHR0AJdc0ov160t5++19/OxnQ8jJiWbMmJfp7HRtWr98uSucSk0NBaCwsIbjx5uYMSMHp9OJw+H6PKKiAkhOtlJe3uyeNQUQHx/EDTdkf7MP+HM33dSfzz47Qk1NG0VFdezfX0NyspXRo5OorW3n7bf3kZQUjN3u5NChWg4cqOWppyaxa1cl6elh5OcnsmVLGS+8sB2j0Yu0tFAyM8Pp1y+yxzJPi8XsrjkoyPeUOlJSQnA4nBQW1p6y15XZ7HXSGPtQV9fO1q3ljBuXAkB4uB9jx6Zw9Kjre3bPPcMZMSKBiy9+lcbGDgA2bChlzZoSUlKsWCxmDh6sxWCA228fzLXX9qWgoJoDB2rYu7earVvLmTYt86yWLIrIj5/CKRERERGRs5Sbm8vAgQOJj48/5dTDr7NrVyWbNpUBEB5uYcSIeAAqKlrw8zMREuLHuHEp9OsXedr7DQYD996bf8ZlfR0d3ZSVNWE0ehETE8A11/TtEVwEB/vg72+moqKFpqZOmpu7aG+3AU5KSxvJyYkiKioAk8mLXr2+9IKBNgAAIABJREFUXJ538GAtqanWHrOwoqL8aW7upLi4gcbGDlpauujq6qa93UZDQwdDh8bh62v6fLmXK0yrrm79vJ0dp9NJUpKV5OST98MyMGVKBk8/vZHdu6uoq2snJMQVsPj6moiI8KeqqoXS0kYaGjpoa7NhtzsAV3CUmRnOzp2V2O0OsrIiqKv7Ys8qp3ucOzpcNbqeMZS+fV1j7edn5p57hvPqq7vYubOS6upWhgyJde/p9Z/KyAgjPT2UysoWiosb2L27ip07K+ns7CYrK4Kysib364GBPuTlJfQIxr74fBsaOoiM9Ccqyh+r1RcfHyMnb2k2YULq124gP25cCkePNrB7t+s5v2A2G4mNDaSiooWKimYaGjpobbXR3e0a44gIf/r2jaCurp22NhtZWREYjV4YjQZ3kHjiRBvNzZ3YbHba2iAxMZj4+CAMBvD2ds30ioz059ixRqqqWmlrs52uRBG5ACmcEhERERH5GgaDgbFjx/5HfRw+XM9HHxUCkJoawogR8RgMBh5/fCIREacPnL6Jvn0jeO65y8/4+ooVxRw4UMOVV2YQHOzLjh0VrFpVDEB4uD+VlS00N3fidLqW0R0+XE9YmB8pKVYaGztpaup0L8F66aUdDBwYw8iRrv2N6us7sNnseHsbCQz04ejRetLSwtiypZy2ti4A/P29GTs2hZ/+dCBhYX6UlTWfEk5ERweQl5fA7t1V7Nt3gpEjXbO1iosbePXVXcyZM4jkZCsnTrTx4YdF7vu8vFynFILrszIaT93PKCDAmyFD4pgxI5uAANfsK7vd+fk9rjbXXtuPlpZOPvqoiMLCWry8DKcsmzwXa9Yco1evUCIi/ImODqB37zD++c9t7N5dRU5OFMnJVu66aygDBsRQUdFMeXkzMTEBgAGHw4nd7mDAgBh+9as81qwpYeVK12eZnGxl6tTMU4KsrxIR4c+wYXFs2lTGli3l7iWUNTVt/L//t4m77x5OSkoCjY2drF9f6r7PaDx5jHH/+WQWi5kxY5K57bZBRERYKC9vprm5C5vNwYcfFnL0aD0VFS0kJgYzZUo6OTlR/9nAisiPhsIpEREREZHzYPr0Pkyf/uUG4BUVzd+4j23bynvMhkpKCiYmJvAr7viSw+Gku9vx+QycRlatOvb5KwYmTkxl9epjdHc7aGuzsW1bBWvXljBwYDRjxiQzf34B27aVM3ZsSo++2tpsFBbWsm/fCdLTXeFL//7RzJu3h4suSuLNNwtoaOjAYIDc3Cg2by5j8eKDREcHsHVrBV5eBn75y577Ik2YkMqePdU9TpFzOl0Bjc3m+HwvpMM0NXV+o7EbMiSOfftOsGRJEQEB3mzfXkFYmIXs7Eja27t56qmN5OUlMGhQLJmZ4axZU0JZ2ZefUWNjB8eONZ5ToPLcc9sYOzaZrKwIDAYDVVUtdHbaycgIJyzMQk5OFG+8UUB7u40NG45TVFTHXXcNxd/fTHl5M4cP19O7dxhDh8YxeHAszc2drFxZzMcfH2L8+NRvFE6Ba2+rwsJaSksbe+zv5fpc7TQ3d7FqVXGPmVVnIycnig0bSvngg4PExwexdWs5druTrKwIVq0qZty4VG6/fTAREf6nDRBF5MKlcEpERERExAOMRi+Sk62nnYECrpk+UVEB7raJicH8/Ocf9mjzwAOjuO22QT3ansnYscmUlDTyxz+uISUlhIEDYygpacBggDvvHMoTT6zniSc24Otr4rrr+hER4U99fRv+/t5ERfmzbVuFO5yaPbs/L7ywnUWLCsnLi6dfv0gCA71JTrYyc2YOf/rTGtatK+WnPx3A9u2VGI1eTJnSm/Z2GwsW7KOpqZNRoxK5++7hGI2Gz8fBFVb4+ZmZOLEXRUW17iAuOdnK5Zdn8Nhj6/D1NTFzZjZpaaH4+ZkJD/cjONg1o+uLWk83vtde25dXX93JvHl76Ozs5pJL0rjxRtfpgxaLmd/9bix//vNaXnttF52ddm68MZdRo748+a6goJqHH17F0qU3nnGMg4J8iIg4NSh66KHRvPbaLt56ax+Vla69rK66KotrrskiKMiH2bP789hj67jjjg9JSgrm3ntHkp4exoABMbz++h4WLtznXq7n5WUgONiXK6/MdO/XBa6losHBp+4z9YWEhCC8vV2bp/v4mMjPT+LAgRr30siwMD9uu20QTz21CbPZyLRpmfTuHUZAgDdWq6/7Xl9fk/t0QHAtqfzitcmT02hvt/HmmwXU13cwcmQi99wzHIvFzAsvXHnG2kREDE7nyVsNilyYZs6cScjgEK655xpPlyIi0sOD0x5k1qRZzJkzx9OliMg5WrhwP7Gx6xkx4rinS/nOOZ1ObDYHdrsTm83OG2/s4b33DvC7341l2LBzO+lORL4jFQOZfssIJk4N5447PF2MXOg0c0pERERERL4VBw/W8qc/rWHlymLa2mz06hXKr389koyMME+XJiIi32MKp0REREREzoN//nMbjz++3tNlfKe6uuzU1LTR1mbD6XTS3NzFL37xERaLucdpfyInmzw5jaeemuzpMkTEgxROiYiIiIh8h1avTiI7NITJg4aReVe9p8sR+d4JD7fAzghPl3Hh6fKHjqCvbydyHiicEhERERH5DtXWWmjqthAfGE18jqerEfmeavR0ARcoh6cLEHE5/dEgIiIiIiIiIiIi54HCKRERERERERER8RiFUyIiIiIiIiIi4jEKp0RERERERERExGMUTomIiIiIiIiIiMconBIREREREREREY9ROCUiIiIiIiIiIh6jcEpERERERERERDxG4ZSIiIiIiIiIiHiMwikREREREREREfEYhVMiIiIiIiIiIuIxCqdERERERERERMRjFE6JiIiIiIiIiIjHKJwSERERERERERGPUTglIiIiIiIiIiIeo3BKREREREREREQ8RuGUiIiIiIiIiIh4jMIpERERERERERHxGIVTIiIiIiIiIiLiMQqnRERERERERETEYxROiYiIiIiIiIiIxyicEhERERERERERj1E4JSIiIiIiIiIiHqNwSkREREREREREPEbhlIiIiIiIiIiIeIzCKRERERERERER8RiFUyIiIiIiIiIi4jEKp0RERERERERExGMUTomIiIiIiIiIiMconBIREREREREREY9ROCUiIiIiIiIiIh6jcEpERERERERERDxG4ZSIiIiIiIiIiHiMwikREREREREREfEYhVMiIiIiIiIiIuIxCqdERERERERERMRjFE6JiIiIiIiIiIjHKJwSERERERERERGPUTglIiIiIiIiIiIeo3BKREREREREREQ8RuGUiIiIiIiIiIh4jMIpERERERERERHxGIVTIiIiIiIiIiLiMQqnRERERERERETEYxROiYiIiIiIiIiIxyicEhERERERERERj1E4JSIiIiIiIiIiHqNwSkREREREREREPEbhlIiIiIiIiIiIeIzCKRERERERERER8RiFUyIiIiIiIiIi4jEKp0RERERERERExGMUTomIiIiIiIiIiMconBIREREREREREY9ROCUiIiIiIiIiIh6jcEpERERERERERDzG5OkCRL4PzGYze9buwd5t93QpIiI9VB+rxmTSf65FfsjMZlhbAHaHpysREenpWDXoxwz5PtDXUAQYPXo0pnUm2graPF2K/EAUFhYSHR1NUFCQp0uRH7kxQ8aQkZHh6TJE5D8wejSsNYJ+zBCR75vBo0E/Zsj3gcHpdDo9XYSIyA/NQw89xNVXX01OTo6nSxEREREREflB055TIiLn4MMPP6SsrMzTZYiIiIiIiPzgKZwSERERERERERGPUTglIiIiIiIiIiIeo3BKREREREREREQ8RuGUiIiIiIiIiIh4jMIpERERERERERHxGIVTIiIiIiIiIiLiMQqnRERERERERETEYxROiYiIiIiIiIiIxyicEhERERERERERj1E4JSIiIiIiIiIiHqNwSkREREREREREPEbhlIiIiIiIiIiIeIzCKRERERERERER8RiFUyIiIiIiIiIi4jEKp0RERERERERExGMUTomIiIiIiIiIiMconBIREREREREREY9ROCUiIiIiIiIiIh6jcEpERERERERERDxG4ZSIiIiIiIiIiHiMwikRERGR/5+9O4+vurrzP/66e272hOwJJAQIkLDvuygURZAqil1ErVP3qtVWmamo0zpdRn/TsdVaW60KiKiAK5uoLGFLWMKWQEiAkH3f95u7/f5Ab8kgbq290r6fj4cP5X7PPefzPd+I+vac8xURERERv1E4JSIiIiIiIiIifqNwSkRERERERERE/EbhlIiIiIiIiIiI+I3CKRERERERERER8RuFUyIiIiIiIiIi4jcKp0RERERERERExG8UTomIiIiIiIiIiN8onBIREREREREREb9ROCUiIiIiIiIiIn6jcEpERERERERERPxG4ZSIiIiIiIiIiPiNwikREREREREREfEbhVMiIiIiIiIiIuI3CqdERERERERERMRvFE6JiIiIiIiIiIjfKJwSERERERERERG/UTglIiIiIiIiIiJ+o3BKRERERERERET8RuGUiIiIiIiIiIj4jcIpERERERERERHxG4VTIiIiIiIiIiLiNwqnRERERERERETEbxROiYiIiIiIiIiI3yicEhERERERERERv1E4JSIiIiIiIiIifqNwSkRERERERERE/EbhlIiIiIiIiIiI+I3CKRERERERERER8RuzvwsQEflXdeLECX7729+e9/l9993H8OHDeeutt9i0aRMAFouF5ORkrrvuOlJTUzEYDH/z+Pv27SMzM5OHHnrogm2ysrJwOp3MmDHjbxpr2bJlXHnllcTExABQXl7O7t27ycnJweFw0K9fP2bPns2IESMwGAz86le/Yv78+YwcObJXP4WFhbzyyiv813/911eqY82aNYwdO5bU1FTeeecdNmzYAJyd3759+7Jo0SIGDBjgm9/169fTv39/MjIyvtQ427ZtY9WqVed9/pvf/IaoqCgaGhrYsWMHBw4coK2tjbCwMIYMGcKsWbOIi4v7zL6bm5vJyspiw4YNJCYm8uCDD2KxWAA4efIkmZmZ5OfnA5CWlsall15KWlqa7/sPP/wwP/zhDxkwYECvfg8ePMjmzZv52c9+9qXu9RMrVqzgW9/6FvHx8axcuZLMzEwAbDYbAwYM4Oqrr6Z///6f2UdRURE5OTksWrSInp4efvrTn/Loo4/6fm5ERERE5J+TVk6JiPhJQEAAKSkpxMbG8tJLL9GnTx9SUlKw2+0AHDhwgOPHj5OSkkJUVBRlZWW88soreDyev8v4wcHBxMfHf2abrKwsduzY8TeP9fLLL1NTUwNAXV0dmzdvJjMzE4vFQmRkJLW1tTz//POcOHECp9PJe++9R2lp6Xn9BAQEkJiY+JXrWL16NWfOnAHOhjF5eXmkpKQQHR1NRUUFK1aswOVy+dpv2LCBvLy8Lz3O8ePHyc7OJiUlpdcfZvPZ/ye0adMmdu3aBUB8fDxWq5UjR46wcuXKz+27oKCAFStWUF1dzQsvvOCrt6KigjfffJOjR48SGBhISEgIhYWFvPrqqxQXF/u+/8Ybb/iexbmCgoJISEj40vf6ieXLl1NVVQXAnj17KCoqIiUlhYiICE6fPs3q1as/t4+ioiLWrFkDgMvlYvny5bS2tn7lmkRERETk4qCVUyIifpKSksLSpUtpaGjgiSee4N577z0veJkwYQJLly6ltbWVLVu28Pjjj/PII48A0NXVRU5ODqdPn8ZoNDJ48GCGDRtGY2Mj77//PqNHj+bUqVNcddVVNDY2smfPHurq6ggKCmLgwIFYLBYCAwMBcLvdlJSUsHXrVnp6eggNDaW7u5vNmzfjcDgYO3Ysc+bMoaGhgd27d1NTU0NkZCSTJ08mLi6OHTt20NbWht1up6ysjMDAQKZPn05MTAx/+ctfyM3NZcWKFdx9992cOHGC48ePk56ezjXXXENoaCjHjh3jueee48033+Tee+8FoLW1lczMTGpqakhNTSUjIwOTyURQUJBvfjo7O8nOzqakpASLxcKwYcMYPHgwFouF6upq9u7dS21tLaGhoTQ3N7N//34iIyN9q5PGjRvH0qVLaWtrY9u2bSxdupSHH34Yi8XC6tWr2b17N83NzfTv35+AgABfmNXU1MS8efMAcDqdlJaWUlBQwODBg30rkoYMGcLSpUs/9dlnZmYSGRnJ4sWLGTBgAE1NTRw8eJCioiK8Xi8dHR3s3LmTyspKgoKCGDVqFKmpqZw4cYIXXniBzMxMpk2bRmVlJc8++yy33XYbW7dupby8nGnTpnHZZZdhNpvZvXs369atY+PGjdx9992+8Zubm/noo49oamoiLS2NwYMHYzabCQwMxOPx0N7eTmZmJtXV1YSEhDB27FiSk5MBOHPmDIcOHaK1tZXo6GgmTpzIO++8w9GjR3nllVcICwsDYPr06SxdupSmpiY2btzIn//8Z/793/8dgPr6enJycigvL8fj8ZCcnIzBYGD16tUcOHCA5cuXs2jRIgBOnz5Nbm4utbW1pKWlMXLkSCIjI6moqCAnJ4fBgweTmprqWz0mIiIiIhcfhVMiIheBT0KZ7u5uvF4vADk5OXzwwQeUlpbi9XopKirC4/HQ1dXFo48+ysMPP0xpaSmXX345b7/9NqtXr8ZutxMbG0teXh61tbWUlZWxcOFCHA4Hf/nLX1i/fj2pqamEhoZy6NAhCgsLSU5OpqCggAkTJrBt2za2bNlCZ2cnFouFlpYW5s2bx2uvvUZJSQljx46ltLSUtrY2Kisrueuuu8jKysLhcHD48GEaGxs5cOAAwcHBzJs3zxfGjRw5kptvvpklS5Zw6623ApCfn095eTmFhYW+FV6dnZ386le/4sYbbwQgOzubDz74wLdip6ysDK/XS2xsLJs3b+aDDz7AYDDgdDrZvXs39fX1HD9+nOrq6gvO7yeOHj1KY2Mjp06doqysjKqqKl566SVuuOEGHA4HkyZNoqSkhLKyMkpLSykuLiYkJMQXTpWXl/tWC1ksFhYsWIDJZAIgMTGR9vZ2jh49SmtrK1FRUUyePJm5c+ficrnIzMxk7dq1dHd34/F4qKioYP78+VRXV5Ofn4/T6aSjowO32012djY33ngjW7duZeLEicycOdO3DW7q1Km0tLTwxhtv9AqncnNzcblcnDx5koKCAuBsCPS73/2OefPmsX37dt5//33a2towmUzU1dVx5ZVX4nK5WL9+Pfv27QPAbDZTUVHBnj176O7u5ujRozQ0NPSaW7PZjN1u7zW3mzZtYu/evbS0tOByuQgKCsJkMpGfn09ra6tvax+cXYXV0dFBQUEBffr04fvf/z5z5syhvr6erVu3UlRURHJyMklJSSQnJxMZGelboSYiIiIiFwf925uIyDdYeXk5mZmZNDc3c+DAASZPnozReHZH9qpVqzCbzcyePZuuri527drF+vXrmTVrFlarlSFDhnDLLbcQFBTEzp07sdls3HjjjQwYMIDs7Gyys7N9q02cTicbN24kKSmJe+65B7PZzNatW3nrrbeYPXs2999/P0eOHOHVV19l/PjxTJw4kf3797NmzRqGDh0KnN0mOH/+fFJTU3nzzTf585//zIMPPsjKlStJTk7m17/+NWPHjmXFihXExMQQGxvru0+bzUZaWhrFxcW+bWp1dXVce+21TJs2jbfeeosNGzZw6aWX9pqfl156iZiYGK688koaGhrYuXMnVquVsWPHsnHjRhYsWMA111zD7t27iYuLY82aNTz00EPMmjWLzMxMKioqfPObk5PD1KlTffP7y1/+kry8PK688kquvfZa/vCHPxAUFMTkyZNJTU1l9erVHD58mJaWFoYPH87ChQsZPny4r7bTp0/zxz/+ETi7ZW7u3Lm+cOq6667jjTfe4O233yYuLo6+ffsyYMAApkyZQnBwMH/4wx+YPXs21113Hbm5ubz99ttERUVx880309bWxlNPPcXvf/97xowZw4oVKwgMDKSyspLIyEgiIiJ8NYSGhpKQkEBZWVmveaupqeHWW2+lurqat956i23bttGvXz/g7KqqZ599lgkTJjB37lwKCgr44IMPSExMpLW1lby8PL7//e8zYcIEduzYwdatW3n55ZfJyMjg8ccfZ8KECSxbtoySkhK2b99OQ0MDOTk5TJw40Tf+wYMHSUtLY/To0bS1tbFy5Uri4uJ48MEHefLJJ3n66afp7OwEwGg08qMf/Yj29nZ+/vOfs2fPHubMmcPAgQNZvHgx27Zt44033iA4OJiRI0eyaNGizz23S0RERES+WRROiYh8g23ZsoXc3FwCAwMZMWIEDzzwgC88OXHiBEVFRWzevBmDwYDZbPadGRQYGMjUqVN92/Z+8IMf8Pzzz/POO+8wc+ZMLrvsMsLCwnxnHNntdpYsWcIf/vAHVqxYwezZs1m8eDHt7e2+M67a29vJysoiPz+fV199FTgbKn2ykmvkyJFMmDABq9XKiBEjcLvdn3pPBoMBt9vd6/onW8msVqvvs8suu4yMjAw8Hg8HDhzgyJEj5/WVm5tLa2srGzZswGAwYLFYGDVqFM3NzbS0tPi2Dc6dO5e5c+eSk5PT6/vbtm3j+PHj2O12hg0bxk9/+tPPXHUTFRXFmDFjqKqq4re//S1Tpkzhxz/+McnJyYSGhvrOCwO45JJLfOcn/V/Dhg1j6NChVFdXk5uby969e1m9ejWVlZXcdNNN5Obm8uSTT5KYmEhUVBQbN248b7XXp82ry+XqNa8ul4uurq5e8wpwxRVXMGjQIFJSUti5cydlZWW+cKqnp8e3XXT16tUYDAasVitut5uqqirsdjuzZ88mKCiI73znO3znO9/51HrWrVtHdnY2QUFBjB071rddE+COO+5g+/btrF27ljNnznD06FHmzp37qf0sWrSI5ORkjEYjcXFxvp83u93O0KFDSUpK4vLLL+fZZ5/lj3/8I5MmTVI4JSIiInKRUTglIvINdvPNN/PUU0996jWDwcBvfvMbFixYgM1mw+l0YjAYyMrKwmg0+oIpOBuUREdHc/ToUT788EN27drVK0ixWCxcddVVJCYmkpuby6pVq8jKyuLUqVOkp6f7AoGUlBTeffdd4uPjcTqdOJ1ObDYby5cvx2KxnBeCnOuTPpKTk6mrq6OwsJBRo0ZhMBhobW0lOzubkSNH+vro6enB6XTidrvxer2feqaQwWDgueee45JLLsFiseB0OjEajWzevNn3a6/Xi8vlwuFw+Pr6xOLFi3nmmWc+9zl88h2z2UxAQAAJCQm89tprvP766zzwwAMMGzaMuXPn+s7Z+jydnZ2YTCbi4+NJTExk5syZbNu2jccee4ybbroJo9FIT08PHo+Hnp6eCwZ959Y2ZMgQKioqqKio8G0trK6u5uTJk+e9bdDpdOJyuejp6QE4b27tdjubNm2if//+eL1eenp6sFqt/O53v8NkMuF0OvF4PL4+PjkH7Ny5veeee/j5z3/+qTU/9thjjBw5km9961vExsaybNmyXgf9n9uP1Wr1BbLn+uSthRs3biQrK4spU6bw5z//mfT09AvOlYiIiIh8M+ltfSIiF6lhw4axe/dujh49yv79+3n00Ud58sknP7Xt7bffzkcffcSMGTO48847MZlMvPPOO77rra2tzJo1i1OnTrFo0SJuvfVWTp48SXZ2Nj09PXR0dBAaGkq/fv148cUX6ejoYO3atdx0003s37//c2s1Go20tbXR09PD7NmzaW5u5vnnnycvL4+amhref/99nnzySW677TZCQkIAeOqpp1izZg0bNmygsLCQIUOGnNfv6NGj2bx5M4WFhezatYuHHnqIP/3pT0RFRdGnTx9WrlxJc3Mz69atY8GCBRQUFNDR0YHD4fhCc2wwGOjs7Ox1XhKcXTE2btw4nnjiCTZt2sScOXN4/fXX2bNnzxfqd8mSJTzzzDPU1NTgdrupr6+nvLycxMRETCYT48ePZ82aNZw5c4b33nuPjo6OT31LocFgoKmpCY/Hw/XXX09WVharVq3i1KlTFBcXs3btWt577z0WL17c63uPP/4469at4+2336aqqoqBAwf2urdRo0bx4osvUltby4YNG7jzzjvZuHEjffv2pauri/Xr11NRUcHy5cuZO3cuXV1dvZ7x5zl16hSJiYlkZGSQk5Pjm7dPVtW1tLR8bh+5ubk899xzTJo0iS1btvDUU08xbdq0Xgfmi4iIiMjFQeGUiMhF6u6778ZisXDvvfdy7733YrFYuP766z+17V133UVhYSHXXnstN954I11dXb22YwUGBvKLX/yCt99+m5kzZ3LfffcxaNAgfvCDH5CTk8MjjzxC//79ueOOO9i1axfjxo3jueee47rrrmPw4MGfW+ukSZO4//772bVrF0OGDOHmm28mNDSU22+/ndmzZ/Paa6+xZMkS5syZQ0BAAHD2XKbDhw/z4osvkpSU5Dsg+1wPPvgg7e3t3HLLLSxZsoTY2Fjmz59PRkYG119/PZs2bWLKlCk8/fTT3HPPPSxYsIAnnniCd9999wvN8bBhw1ixYgUvv/zyedc+2UoZHh7O/Pnz+eMf/8icOXO+UL+33XYbDoeD22+/nfHjx3P11VeTm5vLf/7nf2K1WnnssccoKSlh0aJFPP/880yZMoVZs2b16sNutzNmzBhmz55NRUUFY8eO5c4776SiooLvfve7LFy4kMOHD3PfffcxderUXt+98cYb+eijj1i1ahVDhw71vXkQIDIykqVLl5Kfn8+cOXN48sknmT59OhMmTODSSy9l0qRJvPTSS8ybN49Nmzbx+OOPY7PZmDBhAkuWLGH79u2fe/+33norL730EgsXLuTgwYNERUUBZ7dNWiwWrr322s/tY+LEib4+wsPDsVgsn7rCSkRERES++Qzec9fOi4gLxZtVAAAgAElEQVTIFzJ27Fh++ctfXvCcnC/D5XJx6NChXlva4Oxh6B6Px3cW0P/ldDqpqqqiqakJOBsqxMbG0t3dTUlJSa/Dubu6uqiqqvK9HS0sLIyAgAA6OjoYOnQoXq+Xjo4OysvL6ejowOPxEBMTg8lkorm5mcDAQFJSUujs7KSsrIzOzk5sNhtJSUmEhIRQWlqKzWbznXnV1tbGmTNnGDFiBABFRUW0tLSQmppKWFgYXV1d1NfX09jYiNvtxm63ExcX5zvM+9ixY0RFRdHV1UVnZycRERF4vV5Wr17NCy+8wLFjx4CzW/8qKipoaWnBYDAQExNDVFQUJpOJ9vZ2KioqfLX27duXpqYmmpubSUpKoru7G7fbTXJy8gWfTWVlJfX19URHR/tWBp27yuhCampqPrOtw+GgoaGB5uZmHA4HBoOB8PBw4uPjsdls9PT0+N56aDabiYuLIzIyEpPJRGNjI9XV1QwcOJAzZ87Q3t7OsGHDsNlstLe3U1dXR0tLC16vl5CQEGJiYggNDfWNfeTIEd/h5t3d3b55Xr58OR999BGZmZk4HA5KSkro6OjAYrEQHx9PeHg4BoOB5uZmqqurcTgcBAUF0bdvX+x2O8XFxTQ3N9O/f3+am5uxWCyfutoLoKGhgaqqKpxOJ2FhYb7toVFRUZSVleFyucjIyODQoUNkZGT4Asvi4uLP7FdERERELk4Kp0REvoK/ZzglX0x+fj5r164lJCSE+++/39/l/FM5ePAg69evJy4ujttvv93f5YiIiIjIvxgdiC4iIheFT7bsfZEDx+XLSUpKYsGCBcTGxvq7FBERERH5F6RwSkRELgqRkZFERkb6u4x/SjExMQr9RERERMRvdHKoiIiIiIiIiIj4jcIpERERERERERHxG4VTIiIiIiIiIiLiNwqnRERERERERETEbxROiYiIiIiIiIiI3yicEhERERERERERv1E4JSIiIiIiIiIifqNwSkRERERERERE/EbhlIiIiIiIiIiI+I3CKRERERERERER8RuFUyIiIiIiIiIi4jcKp0RERERERERExG8UTomIiIiIiIiIiN8onBIREREREREREb9ROCUiIiIiIiIiIn6jcEpERERERERERPxG4ZSIiIiIiIiIiPiNwikREREREREREfEbhVMiIiIiIiIiIuI3CqdERERERERERMRvFE6JiIiIiIiIiIjfKJwSERERERERERG/UTglIiIiIiIiIiJ+o3BKRERERERERET8RuGUiIiIiIiIiIj4jcIpERERERERERHxG4VTIiIiIiIiIiLiNwqnRERERERERETEbxROiYiIiIiIiIiI3yicEhERERERERERvzF4vV6vv4sQEfkm2rp1KytXrqSlpeVTr2VkZBAbG9vrc6vVSnp6Oo8++ug/qkwREREREZGLmtnfBYiIfFN1dHRQV1dHSEgI06dP73Vt9uzZ57UvKysjJyeH+vr6f1SJIiIiIiIiFz2FUyIiFzBkyBCmTJlCbW0tN998M4GBgRds63Q6+fDDD6moqGD+/Pn/wCpFREREREQubjpzSkTkApKTk0lPT6e2tpaDBw9+ZtuKigqOHz9OYGAgkydP/gdVKCIiIiIicvFTOCUicgGfnB+Vnp7O2rVrcTgcn9rO5XJx+PBhiouLmTt3LsHBwf/gSkVERERERC5eCqdERD5Dv379GD9+PHl5eZw4cYJPe4dETU0Nx44dw2g0MnPmTD9UKSIiIiIicvFSOCUi8hlsNhuDBg1i8uTJLFu2DJfL1eu6x+MhKyuLhoYGZs6cSWhoqJ8qFRERERERuTgpnBIR+RyJiYnMnTuXjRs3UllZidvt9l1rbm5m//79GI1GZs2a5ccqRURERERELk4Kp0REPofVaiUlJYXLL7+c5557jo6ODt+1LVu24HQ6mTJlilZNiYiIiIiIfAUKp0REvoA+ffpwww03sHbtWioqKnC5XLS0tLBjxw7Cw8OZOnUqBoPB32WKiIiIiIhcdBROiYh8AVarlUGDBjFlyhTee+89Ghsb2bJlC0ajkREjRhAVFeXvEkVERERERC5KCqdERL4Ag8FASEgIt956K++//z6bNm1i7dq19O3bl7Fjx2IymfxdooiIiIiIyEXJ7O8CREQuFmazmXHjxpGYmMirr76KyWQiPT2duLg4f5cmIiIiIiJy0dLKKRGRL8hgMBAYGMh3v/tdKioqGD9+POnp6VgsFn+XJiIiIiIictHSyikRYOeOTE6ePInL7fF3KXIRaGtro7u7m5qaGjZs2KBwSr5WVquVKVOmkJaW5u9SRERERES+Fgav1+v1dxEi/vbDW27m8O4P6RsT6u9SRER6yS1p4pHH/5tbbrnF36WIiIiIiHwttHJKBOjucbF4zggeWDTZ36WIiPRyzSOv09PT4+8yRERERES+NjpzSkRERERERERE/EbhlIiIiIiIiIiI+I3CKRERERERERER8RudOSUiX6sfPvEuu3JLz/t8cL8+vPwfVzP1Ry/yyWsZzGYjsRHBLJqZzjXThxIXGfx3q+M//vwhb+88wQ/mjuJnN0y/YLvCsnrWZuYzckAs8yZ/tbejdTmc7D9RwYsbDvG7e68gIsQOwKGTVbyxNY8dR0txutwMT43lhm+NYNaY/gDMuO8laho7eP6hq7hkZEqvPvfml3PTr94mPDiA3c/+ELPpy/+/hcLyBt7MPE5GSgwLpg5mQ3YhP/nD5rMXDWAxG0mOCefH101kckZf6ls6eW9PAX1CA1n8rRFfaS5EREREREQ+j8IpEflaPXD9ZH4wdxTPvbuf17bkMWfcAB65aQZBAVbcbi+F5Q14vfDikgW43B6Wv3+EFzceIthu5cY5I/9udfzblWOYNzmNxKjPfiPj79/cy7u7TvDgd6d+5bEq69u4+3cbqahr5b/vmA3AsTO1PPPWPk6WN3DZmP7ERgSxbk8hv3plBxEhAYweGE9RZRMV9W10dDnP63NIvyj+smQBFrMJk9Hwlep6+s29vLMzn59cPwWAts4eCssbSI4N46V/v5qcwkqeWpPN/67O5te3BfHu7hMs23SY780e/pXnQkRERERE5PMonBKRr9Ww/jEArNtTAEBMRBDTRyQDUNvU4Ws3Ji2BuMhgNu8/zQcHTnO6sgm3x0NpTQvv7iog90wNAOnJ0Syckc6KDw5z7EwtcZEhRIUFkhgVQt+YMDbvP01tUwcmo4HUhAgWzcxgQEIEHxw4zY4jxcybnEZkqJ19+RXntT1d2cgH+09T3djOSxsPEmK3MjmjLxuyCzlRWo/JaCQjJZrvXDqM6Iggnli1i8OnqhjWP5ZAm4XC8gbcHg8Vda0cO1MLwO3/s46n77uS9/edYsfREialJ7FwxlAiggNobOvi92uzefXDo4wcEOebi837T5F5pJjuHhfTRyQzZ9wAyutaeeatvYTYbYwfkoDT6WZ9ViFZx8pobu8mLjKYmaNSGD8kkfK6VtZsP0ZxVTPREUHcfPlIXt50mLd2HKeqoZ2XNx0iIsSO3Xb2HwGBARYuGZVMakI4T63JZn9BBQ/96QPOVDVRWtvCWzuOExsRxJzxA/jFsu2YjEbSU6Jxe7zcPn8sCVEhX/8PkoiIiIiI/NNSOCUi3xjtXT30ON3YLGZsFjMl1S2s/PAIm/ae4tLRKRiNRpZvPkJLh4O1mcfIL6nn8vEDGZAYQV1LJ2szj1NU1cR1l6TT5XDx6kdHqWvu4MfXTeLAiUrWbD9O3+gwBib24Xdrszld2ehru+qjozicblo6HACkxkfg9nhZsfkw2fkVTMnoi9Pt5rl3D9DlcPHDeaPZlVvCpr2n6HK4mJLRl8a2Lt7fdwrvJ/sUgYnpSQTbLRw5XUNVQxspseEMSozEYjYxLCWGjm4nO4+Wwjnf6XQ4sZpNHDpZxcnyRqwWEyF2G2u2H6dPqJ0//XQ+6/YU8Kf3DpASF05cZDB5Z2opLG8gv6Se0toW3t97kinD+rJi8xE6unoYlNSHyBA7VQ3t9I8PZ2BiBBX1bb4xvV5obu/G4/ESFGBl1MA4uhxOzlQ1kxgVSnpKNHXNnazZfhy7zcyQ5Gj6xYRhs5j+cT8gIiIiIiLyT0nhlIh8I7ywPgePx0t5XSvTh/djbFo8pyobWZuZT3ldK8P6x2AyGjld2cjazOO+YCU9JZqrpw0hp6CK59fl0NrRTVtXD1GhgWSkRBMbEYTl/5zP1NzezYnS+l5t05OjGZMWz6otueSX1DN5WF8iQgJ4d3cBbZ0OBiVF4nR6OFnewKotuVw9fYivv+TYMOZPSSMwwMI7O/OxWv76W+stc0cRHR5ER7cTp8uNzWoiwGrGaDAQGGDB7fbS1NaF95z6RqTGMuXjM5/WZxUyPDWGKyYM6nUPb2w9xr78CswmI2aTkdKaFirr2yiqbKK9swe3x8NdV48nvs/ZlWXfuXQYWw8Wcay4jknpfZk+IpnXt+YBUN/Sya9W7uBMZRM2q4mrpgzmzgXjaGnvJutYOSMHxHL5+IFsP1wMgMVk4qrJg0hNiCQ00Pb3/DEQEREREZF/QQqnROQbobqhnajwQC6fMJAZI5OZMDSRDw+cpqSmGZPRgMvtwWCAG2YPJ8Bq4b3dBbR2OIgODyQxKpTObhffnz2c/fkV7Dhcgs1iYlBSJOEhdizm3qt7UuMjerW1ntPWbPpr24bWLsrrWgm2W3G5PFgtRn44bzR2m4Vgu9XXLuHjlUVHi2pwe7x0Oc4/MyosyIbNYqa7x0WXw4XFYqSjuweT0UBoUADnniLVNyaM9JRoosICaevsoaG167z+Cssb6O5x4XZ7cbk9jB+SgNlkoqK+jW2HzpAUHcrw/rGMHhj/uXPvdHmoqGsjwGbh5itGcc30oSTFhF2wvdFoYFDfPgQH2DB8teOvREREREREfBROicg3wqM3X8KogXG9PrNZzYQF2giwWVjyvWnERARxoKCSQJuZfScqPg6uzq4c6hNqZ/zgBOxWMz0uN3lFtby5I59deWWMHBDbq9/z2p6p5a0d+ezOK6OptQuDwYDb7cViMhJst5ISF85/3DCd8CAb+wsqiQgOICIkwNef0WjAZDRi+DhiMgBGoxG3x0OP04PL7SEjJZqdkcGU1LRwurKR8OAAjp2pIzDAwuT0JM5NeeqaO6hsaKOj24ndZv7U1UmRIQGYTUauvWQoV00ZTG1zB40tXeSeqSGnoBKX20NlfRu5RTUE2a2MTYvHaDSevTePB6fLjcdzdr1WfJ9gnn/wqvPGMBqNGA0G3B5vr/YGA9jMZgVTIiIiIiLyd6FwSkS+sfrFhDF7XCp7jpWz6qOj9IsN55crMhk/NJGKutZebU9VNvLndTkUVTZxz8IJXHdpOvtOVBAfGUyA1Xxe2+fX53C64uO2M9PZl3+2bURwAKW1LRRXNxMebGP0oHiqGtp47aOjhIfYeXx5JldOHMivb5t9wbqtFhMpceEUVTWzN78ctzuBS0alcLSohsKyBt7amU9cZDCZR0rI6B/D4jkjOPcFfAcKKmlu7+Z0ZSOD+0X1Du0+ToTmTU6jrqWTPXlldPe42Hm0lLLaFsYOTmDa8H4cKKhk5YdH+e9XdzJtRDLP3DeXxKgQIkPslNa0cOR0Dc3t3Z85/7ERQUSFB1Ld2M7BwioaWju/4JMTERERERH54hROicg/RHiwneTYcKLCAn2fmUwGkmPD8XrBaj7/YO1h/WP4yfWTCV53kM37T9Pe2cP0Eck89N0p/GbVLrKPlRMadHZV0eiB8SxdPJ3n3j3A8+sO4HJ7GZMWz13fHsfgflH0CT07fnhIAKMHxvPw4hk8987+89o6nG7ezMxnT14ZXQ4n8yencbSohg3Zp3A4XXx76mCW3jiDhKgQYsKDSY4NJ+zjGoLsFpJjw4mJCOL2q8by/LocHntpG/dcM4HrL83g7qsn8NqWXDZmn6TH6WZ4aiw3zhnBpPQkAJKiQzGbTHQ5XGw5eAaH0833Zw1n/uRBHD5Vg8HAx+dnGfjR1ROwWcxs3neKZZsOE9cnhDsXjGP+lDROljfyv6uzePWjo0wd3o+lN04nISqE71w6jE6Hi6xj5ThdHpJiQkmODSehz6e/bW/e5DQaWrvYebSUJ17bzcShib771aopERERERH5ezF4z32tlMi/qBtuuIFxEQ08sGiyv0sROU+P0837+06x6D9XMyw1hr3P3Yb5/xzyLv+8rnnkda5YfD933HGHv0sREREREfla6L9uRES+4bLzy/mfN3bTLy6cJd+bitGoZUsiIiIiIvLPQ9v6RES+4calJbDi4YV4vF5iwoMwak+diIiIiIj8E1E4JfKxZ9/ex7u7CvxdhohIL8eKa7nC30WIiIiIiHyNFE6JfGza8GSunDTI32WIiPTyP2/s9ncJIiIiIiJfK4VTIh8bOTCW6y/N8HcZIiK9vLYl198liIiIiIh8rXQguoiIiIiIiIiI+I3CKRERERERERER8RuFUyIiIiIiIiIi4jc6c0rkArocLoqqmhiUFInVbAKgrdNBRX0bNouJuMgQ7DYzHq+Xjq4eympbSU+J/tLj5J2ppV9MGKFBtl6ft3R0U1jW8PGvDNgsJhKjQwkPsmEyGalv6QQgKizwb7rPw6eqcbrcvT6Liwwm2G6jobWT5NhwLOazOXZTezdlNS1EhQUSFRaI1WLC7fHS1NZFa4eD1ISILzW20+Xm8KlqRg2Mw/LxHJ/L4XTT2NpJXUsnTpeHAIuJuMhgwkMCMBmNnKlqxm4zExcZfMF7S0vqQ2CA5UvVBVDf0onX6yU6PIjWDgcFZfUfX/nkWYQQFhSA+eNn8UlbERERERER+XIUTolcQHF1E7c9+R4rH1lIclw4JqOB3Xll/Peru0iJD+fH105k9KB4HD0u9uaX8/jyHex4+pYvPc73/2st//ujK5g9NrXX59nHy7nqZ6uIiwzBYIDIEDt3XT2eq6cNISY8iDczj2MwGLj9qrF/031e8dArGAwGXwAFcPtV4xieGsvrW3L5f3fNISk6FID3953iP1/axnWXpHPr/DGkxkfQ3uXg3V0n2J1Xxkv//u0vNXZTWzcT73qByjcfPC9gcrs9nK5oZPX2Y2zMLqS5zUF8VDDXz8xg4YyhxEYE84tl20lPiWbJ96Z+av+3Pvkuyx++hoyUmC85K/D2znxcbg93fXs8+wsqmLtk5dlnAUSG2rljwTgWTh9KTEQQ7+w6gdPl5q5vj//S44iIiIiIiPyrUzglcgGBAVZGDIzh4MkqEqNDMRlNZB0rIyE6hB6Xm+PFdYweFE9Lh4OS6hbGDU7A6wW3x4PX6wUMmIwGjEYDXi94vd6z1wDDOdc+4fV68XjBYACj4eznGSkxHPrLnXi9XjZmn+T3b+5lRGoskSF2TpTWYzQYcLk9GA0G3B4PRqMBjwfMJiOGv3aN2+MBwGT89J28m//fjYwYENvrsz15ZSRFh3K8uM4XTn2w7zQT0xM5U9VEeW0rqfERVDd20NbVQ0ZKNF6vF5fHi9frxYABs8mAwXD2/j1eL56P799o6H3vcPa61wtGAxgMBsrrWnlrZz4HCip5+r4rSU+O5sjpau57ehNms4mF04f0uj+PB4xGMBr+eu9Zf7wVs8l4ThsvAEajAaPRiAF8z8zj9WL4eI48Xi+FZQ30ON243GfnLi2pD3nLfoTX62XT3lM889ZehvePITLUTmFZPY4e9/95FkY8Hu95z0JERERERER6UzglcgHBARZGDojjYGEVcycOxOPxUFDWwBUTBnCitJ6iqiZ6nC5aOxyU1rYwZlA81Q1t/OyFLWQdLyM+MoQfXTOeOeMH0uVwsj6rkGWbDlNe10pMRBA//c4Urp462DfekdM17DhSwoCECOZNTutVi8FgYNqIfvx82XY6HU7u/f1Glr1/GICuHifXXZLBvU9v5NZ5Y9iQdZI1v7ieiJAA3/cfX5aJwWDg57fM/ML3Hx0eSFJMKMdL6vjWuFQ6HU7yztTw27vn8Ie391HZ0IrT7aamqZ2Orh6G9Y/hYGEVv1ieyeFT1QxNjubRm2YwNi2emqZ2Xv0wl3d2naChtYv0lGjuuWYCYwbF+8bbk1fGzqMlzBk/gLFpCRw8WUVNYzs/WTSZcYMTMBkNTM7oy6M3X8KbmccZl3b2u9WN7Tzz1j7W7ylk7OB4frJoMrEfr8Ia+cPneP2xRfSNCeWF9Qd5M/M4TreHBVMHc+eCcUSFBXKmqolH/rKVfScqiA4L5MeLJrM+q4B3dp4AoLvHxfWXZfR6FlOH9+W/VmTS6XBy/zObeHHjIV/bxXNGcPv/rOOOBePYkFXIa49d9zdvvRQREREREflnpnBK5AKC7FZGDYzjnV0FuFweDp2spl9MGGlJUZhNJkprmskvrcfp8lBa28JVU9L49as7GTckgTu/PY6iyib25JURbLfS2tlD9vFyfnzdRAYkRHKspJZfrsjkWx9v5evucXGgoJKEqBCmDe93Xi1uj4c9eWWEBtmwW808etMlOJwuDBh45MZLyD1TQ1tnDzHhQfzunisICbT2+v6Prpnwmfd6zSOvY7OePfPpoe9O45a5o4gJD6JvdBib952ix+VhS84Zxg1OIDk2nDFpCTS0dFFW00ptYwcd3U7sNguvbc3j29OG8MsfXsa+/HJe+eAIYUE2NmafpLGti5/fMpM+oXZ25Zbx/Loc/vST+QB0djvZdriYGSP6MbTf2XO76po76XI4GZ4a41v9ZDYZmD48md+tyaal0wHAseJaxg9J4J6FE9h+6Ax/XpfDYzdfAkBzezduj4dVW3LxeLz8/JZLAS/7T1SybNMhbrp8FL9dnUV0eCArHr6GvDO1rM8q4PLxAwkOsOJ0eXjsB5dworTeN1cej4esY+UEB9oIsFp4ePEMelxuepxn2xaUNtDW6SAqzM7//uhywoP/GhKKiIiIiIjI+RROiVyA1WIiKTqMmsZ2elxuth0uZlj/aFLiwgkLtlHX3EFOQRWDkiLp6HISExHMxr0n2XLwDBEhAXR09dDc7mBocjSXTxiA0QhFlU3sza/g6OkaTpY3+LbbbcguJCk6jPTkaEKD/hpmnKpo5NL7l2EwgMVs4qopg0mOCyehTwiRIXaMRgMJUSHknqkh2G5h+oh+JESF+sKcT8REfPZB3UtvnOE7zHzAx38ODrTRJ9ROfUsnnd09rNtTyJWTBhIRamfmqBQ+2H+KwvIG2rt78Hi9WMxG3t11gs37ThEZYqehrYuW9m6+N2s486ekcfBkFUdP11BR18rBk9U4nC7f+Cs/PIrBAIlRob7Dyx1OF063h0Bb78PMbRYTPU63b4teeko000ckE2iz0NbpYOWHR8+7vwMFlWTllRMSaMVgOHvW1ehB8Vwzw8Hu3FKW/+wa0lOiGdIvimnD+xHfJ4QTJXX0uNwkRoVyorSe4upmLr1/GRjAajZx5cSBpMaHkxAVQp/QQBxOF4lRoRSUNhAYYGX6iGQSP+VZiIiIiIiISG8Kp0TO8d7uAl7bkgtASlw4D313Kv1iQ9mVW0remRouG51CVHgg4cEBBNutHCioxOlykxAVgtVsoqmtm0dvmkFsRDBG49lzpUYNjKOkuoX84noiQgIYlBRJfGQwW3KK8J7NV2hpdxAV5gTodT5RVFggdywYh8EAwQFWhg+IveAWMYvZ9KnB1BcxbnDCeWdOmYwGQoNshARa2XrwDAVl9fxs8TSCAixkpESzIauQrGNlBFjNxEYEYcCAxWTix9dOJDjQ9nEfRoYmR7PjSDFlNa2EBtkYPiAWq8XMlpwi31j1rZ2EB/VeYRQaZMNqMVFa28LQ5L++BbGgrJ7IUDt269nfviJD7ESHBWIwGIgMtdPZ7Tzv/to6e5g5Kpkpw/phtZgwGgzERQbj8Xjp7HaSEheG1WIiOjzogm/ciwix93oWw1JjiL5A6GcxGxVMiYiIiIiIfEEKp0TOkRAVwqSMJACiw4KwmE2MG5zIn949QGJ0KLGRwVjNJqxmE/1iw9h68AwfHjjN3ImDMBmNpMaHExEcwOXjB1DV2M6hk1W0dfZworSeE6V13DZ/LEEBVj48cLrXuJMzkvB6oa65g+b2bt9WsPDgAL572bBPL9ZgwOn2+FYgGeDvHoaEBQUQGxnMn947QEZKNFGhgZiMRkICbaQmRLBuTyGhgVYWzkjHbjPTLzaM6PAg5k4axJFT1Rw6WU13j5O9+RV4vV4uGZmMw+Um93RNr3GuGD+QnMJKqhvbie8TQlCAhcF9ozheXMcb247xgytGERsRRFldKy9tPMToQXG+t/vtP1HJ1kPFJEaFcKKknpT4iPPuIy4ymIiQAMYOjic00Mahk9XUtXSSGB1K39gwth8uYdbY/lTWt7Enr4yJ6UnnzW9YkO0zngVf+7MQERERERH5Z6VwSuQc4wYnMG5wgu/XDqebKcP68vu12Vw3M52Yc1bVDO4bRb/YMHYcKWHkwFgCA8zcdMUoduaWUlzTQkt7N3abhbSkPkSFBWI0GvnwQBFBARbK61p7jTs0OZqWjm6Ka5pJqmhk7Dk1XEifUDt788vZtPcUdttn/6289eAZAC4b0//LTAfhwQEMSurDixsOseR7U7FZ/zrO+CGJbN53GofTzaCkSILtVi4dk8K7u09wvKSOirpW+oQF4nZ7SYoOJbeohs37T2MyGqhp6ug1zpi0eEpqmsktqiG+TzADEiIZ3LcPkzP68sH+0/xl/UECrGY6HD30uNxcPmEgcX3OhlM9LjcHCyvZfshBV4+r1yHzn5gzLpXth4t5edNhrGYj3T1uxqTFExEcwLUzhrIhu5C8M7W0dTowGo2MHhRPn1A7+SV1bMw+SWiQ7TPnqU+onePFZ9uGBemMKRERERERkS9D4ZTIZ7CYjIwcEMtNl49k5qgUws4JKRKiQrhiwkCiw4MYmNgHu83C92cNx8DZs6KC7VYunzCQjP4xxPUJobXDwYRQq08AABzGSURBVKFTVdgsJuZOHITT5SbAauaaaUNJ6BNCXGQwJqMR08crbhKjQvn2tCEXrG3q8H509bhobu9mYGICV08besG29S2dF7z2vVnDiQy1f+q1kEArk9KTuOnykUxKT8Jq/utqoIGJkXx72mDcHg99Y8KwWUxcO2MoazPzKalpJiY8iEWXZJAYFcKccQMwGgwUVTbRNyaUq6YO5nR5IwFWM/82dzR2m5nRg+Ipr2vF+PG+xogQOzNGJmO3Wcg8XExFQyvRYUH829zRjE6LJ9BmYfrIfgQFWAix2zhQUMmoQXHMGT8At8dLWW0LHu/Zt+vNHN0fjxf2Hi+nx+Vh7OB4rhg/kLDgAK67JB2X20NRZRNhwQHMmzSIwf360Olw0t7VQ1N7N0P6RbFwxoXnd3J6X9o6v1hbERERERER6c3g9X5y6o3Iv64bbriBcRENPLBosr9Lkb+D7h4XKz88yqsf5fKnn8xncN8+/i5J5Cu75pHXuWLx/dxxxx3+LkVERERE5GuhQ1FE5J+O1+uls7uHh2+YRmJUiL/LERERERERkc+gbX0i8k/HbrNw37WT/F2GiIiIiIiIfAFaOSUiIiIiIiIiIn6jcEpERERERERERPxG4ZSIiIiIiIiIiPiNwikREREREREREfEbHYgu8hma2rr40e82nPf54m+N5MpJg/7m/vcXVLLi/cPMGJnMpaP7ExUWyL78ChpaO5k7cRAlNc08sWoXf3xg/t88FsCx4jqOF9eyaGYGze3d3P3U+vPafH/2COZPTvvSfRdXN7P9cDE/uGLUF/5Oa4eDu/53Pc8+MI/w4IALtqtv6eSNrXncffUEDAaoaWrnvd0FHDpZjdFgYPyQBGaPTSUi1E5eUS1v7jhOTWMHsZHBXHfJUDL6xxBos3zpexIREREREZGvn1ZOiXwGq8XE+CGJjB+SyPbDxUSE2Bk/JJG4yOC/uW+v18v6PQUcLaph877TlNa0AHD4VDVbD54BoKmtm3d2nfibx/pEYVk967MKAbCYjb57yzxcQlhQAOOHJBLf56vdW3ldK6u3HftS3zGbjIwbkoDF/Nm/FTW0drLs/cN48QKwetsxCsoaiIsMJiYiiJzCKjZkn6SstoVVW3Ixm4yMHBhLd4+TVR/l+uZWREREREREvnm0ckrkMwQFWHlg0WQAXtp4iIUzhjJrTCoA7V09FJTVc/hkDa2d3QTbrUzO6MuQflGYTUY6unvYl1/ByfJGosICsVpMdHY7uf7SDLxeL+1dPew4UsK3pw4h80gxxTXN1LV08M6ufGoaO3hjWx6D+0ZdsLbWDgfHSurIK6qlvauHiJAAJqUnMaRfFEWVTXyYU0Rbp4PQQBvD+sfQ3tXD61vyOHSqipc2HuLfrhztu7dlmw5zzfShzBk/wNe/y+2hrLaV3Xml1Ld0Eh0eyOyxqUSFBVLV0M6u3FLKa1sJDLBgMhrYf6KCQyereOatvdy7cGKvWtdnFRIdHsjEoUnn3YfD6fb99Rvb8rBZzLg9Hirq2ogOD6JfTChrM49zorSeJ1bt4t6FE4kKC2RocjRD+0VR1djOKx8c4URpPZdPGMjQ5CguHdWf/gkRHCqs4qHnPqCmsZ0h/S48lyIiIiIiIuI/CqdEvqLjJXWszyqkqqENrwd63G5yi2r59W2zCLZbOVBQyXu7C2ls7SQhKoSiqiZaOxxcf2kGTreHw6eq8Xi8zBk/gBOl9ZTWtODxeKlr7qS100FZbetnhlOHTlXxwf7T1DZ14PF6cbu9nCxv4Fe3zmLZ+4d4f99p+sWGER4UwOnKRrxeqGpso6PLSXF10+feX1VDG1sPFpFTWPX/27vz8KrKA4/jv7vf3Jub/SZkh5AEAkEEIpsoggqouENtS4VObYtja6utM51x2k5n2ukzdZzWmbZjW+tSbStapVQFKSIqO5R9C1tYQyD7zXKX3HX+CARiIAWn9NDp9/M8PkDu4Zz3PTz3n6/nfY8i0ZhkkrrCMd193VC9tXa/fvP+btltFuVnpehovU9rdx2Xw27RwdoWJRIJmUymXueymE19rtEZDOvxZ5br0zOulttp1/NLtsqdZNeQwiwdb2hTMBxVbkayjje0KRqLa9+xZkVjcX3ixhGKxuJavfOY3tt6RB2BsKqG5Kk4J1Xzb6/qOX9uZrKyUl2yWS2X+K8LAAAAAPhzIU4BH1FTW0DRaFwzxpbKm+rWpn0n9O0XV+qb8yYrOcmuRav2yuW0ae708YrG4vrxbzeq3d8lSQp1RbVwZbUmX10sb5pbEysLtedIg24dX65oLK49Rxr12H0Tte3gqQte/1Rzp6wWs26bUK4Ul0Ordx7TL9/Zru88MFVrdh5XWrJTn7xxhDJSkrShulYluemqHJStX72zQ//6mal/dH57j3UvARxdnquKYq827T2hZxdv0XVXFWl7zSklJN02oVyjy3K181C9LBazTjZ16L++dEufc31u5piLvq+ZKUn62JThyvAk6bm3t2rd7lo9+bc3a93uWj33tTtlPh25YvHuwLdy+xGle5zyprl6nScSjWnljqO6fmSx8rI8F319AAAAAMCfF3EKOEd9a6dONHZIklxOW79LwUaVDVA0Gtfm/XU61tCmQ3XdT0YlEt37ItXUteqe6ys0bKBXiYQ0tqJAb67dp3giIV9nSIvX7ddDd12jgyea5bBZtO94s0rymhSJxS54zXNNqCyUxWLWpn3d1z9Y26KOQFgmk0kP3ztOP31jkxauqtakykLNuKZUpfkZen1l9UXfi9aOkDZUn9Chk62ymrv3hHLarTKZTLpvaqWeW7JVK7YcVrAromsrC5WZkqRvv7jyos9/IWOH5mv4QK9sVotK8zO0Zuex8x7nsFn1yKzxmn7NYP3kjU16b9sRzb5huBIJqSsS1b7jzdp24JQ+P3OMCrNT/s/jAgAAAABcHsQp4ByvfbBH331plSSpclC2fv/k/Rc8dvmmQ3pn0yHdOr5MN1eVyB+K6Na//1XP5w67RdFYXF2RmCKRmDqDYUlSMBTRtppTqm/164kFa3VmsVsoHFVpfoZC4agSSvRErgtZtGqvdh9p0E1jSnTLuFLVNrTrkR8tlSRNGlGkzJQkVR9t0tKNB7Vxb53mTR8pmaSEpHgiIbOp7zK7c5lM0pjyXP3kqzOVm+lRsCuqUFdEqclOZaW69KV7x2nPkUZ9sP2I1u46Lm+aW7rIc/fHbrOefxme6fS5ZVJLR1BOm1UOu1VFOWkq8KboQG2L4omE/MGwDtS26NklW/TwPeM0MDdNFjPvfgAAAACAKxVxCjjHF+4aqy/cNfaijm1uD6orEtXwgV6Fo3H94Dcben0+siRHO2vq5U116Wh9m36+eIsG56WrtTOkFZsP6xvzJuuhO6+Ry2mTJL25dp/W7a7Vxr0nVOBNUVugq+dcsXi817nNJpMafH4lJA0b6FWTL6iX3tkhSUokpFn//Kruvb5Cd02qUH6WR0+/sUnvbzuikrx0xeJxtXWGlO5J6nd+3lS3kpPsWvDuLs2bPlKvfbBHr6+s1tNfmaknFqxRdqpbH7+xUuWFmfrZm5v1m/d3q8Cbopb2oLJSey+xi8cTMpnUax+qS2EymWQySU3tAWWnufXZJ97QtKrBum1CuRp9fvmDEZUVZKi1PajFGw7olRW79bPHZio7zS2z2dRnDywAAAAAwJWDxwmAj2jCsAIlJ9l1zzde0Vd+tFTDinsvAfz0LaOU7LLre79eox2H6nXTmBJZrWb5OkPaeuCk5k4fKafjbB++fmSx7DaLusIx1Zxo0RefWiJJqm/xK/eeJ3v99/rKat04epD8gbDu/vor+u4vV6qsIENS9xNP//I3U7Riy2FN/vLzmvfvi+RNdWnmxHINyEhWKBzVx//1tT86v6vLBmj2lOF6c91+XfPgM3rpnR362icmKS/TowfvqFJTe0Czvvmqbv/HX+t4Y7v+Yc4kpXuSNO2xF/s89fWl/16i//ndHz7yvXY7bRpW7NXY+c+oyRfQ1z45Sev31Gr6372kLzy1WMkuuz5501U6cKJF3/7FB1q+uUYjP/O08mf9p3LveVLvbT3yka8NAAAAALi8TIk/tnYI+CswZ84cVaU369HZEy54zMETLRqQkazkJLuk7mV4ze1BdQS6ZLWYleJ2qKHVr6FFWbJazIrF4mpqD6qtM6RDJ1u1dMNBhcJRPfXwDNU1dWjggLSezb2l7iVrTW0BdQS6pIRktVqUk+7WwRMtfcZS4E2R3WpRc3tQ/lBYdqtFLqdNvs6QhhZlKdgVVYOvU4FQRPFEQmnJTmWmuBSLxVXf6pckleSlX3BuZ8bjD0bU6PMrFInKYbUoN8ujJLtV4WhMzW1BtQe6FIvH5Xba5XE51O4PKRKNq7wws9d4axvb5bRb+zxRFY3FtfdYU889O3LKp7Rkp9KSnZIkX2dIvs6Q8rI8qmvqUCAUUXlhpqKxuBp9AflDYVktZqUlO5XucSoUjvW82e9cAwek9Zob8Jfk7q8v0IxPPaL58+cbPRQAAADgsmBZH3CRSvMzev3ZabcqP8sj6eyb4LJP77skSQtXVWvZpkOqa2pXIiGVFWTo4zdWymm39gpDZ5hNJmWnuXudQ+re++pCziwJPGNARrIkKclhVXFO2nn/Tsl5Is2H53ZmPB6XXR5X3+MdNqvysjzKU++34GWmnH+pYIH3/BuSWy3mXvMbOKD3mM8NVed+ZrWYz7vJudtp7ncTewAAAADAlYc4BVwmlYOy5XLa1Rnskt1qUVF2qoYQTgAAAAAA6IU4BVwmFcVeVRR7jR4GAAAAAABXNDZEBwAAAAAAgGGIUwAAAAAAADAMcQoAAAAAAACGYc8p4CK0+UNq9AUU7IrKYjEpLdmpDE+SnHar2v1dOtnSoSGFfTc7P1rvk8thk/dDb+C7GMGuiFrag8o//aa7XYcbVJqfIae9+2tb19ShBp+/53iHzaoCr0cel+OSr7XveJOCXdFeP0v3OFWck6ZYPK62zi41+PwKR2KyWS3KTElSuscpm9UiSWrtCKqlI6jBeX3f+ldT16L05CRlXOBNfv3pDIbVEQwrNyNZ0Vhcuw43aPhAr2xWi2rqWtQRCEuSTJLcSXblZnrk/tAbDAEAAAAAVzbiFNCPRELqikT1uzX79PLynTp4olUpLrumjBqk2VOGa3R5rtbuPq7Hn1muLc882Ofv/8fLazRicI7m3151ydfefaRRzy7eoqe/MlOJREI3PvoLLf/+XI0oyZEkff/VtfrJG5uU4nYokZCy05P1j3Mm6a5JQ+WwWWUyXfy1vvCDxdpztFG+zpBsFovcSTbNmjxMTz18i5p8AS14b7d+vXyHGlsDys5w6/YJ5Zo1eZhKCzJkMZv11rr9emnZdi17cm6fc3/j2RW6+7oKzb5h+CXfgw17arVsU42+N/9mtbQHNeZzP1Xta19RbqZHX3xqidbvqVWSw6p4Qho5eIAemT1eU0cNksNmueRrAQAAAACMQZwC+hGOxrR6xzE9+fJaPfaJibp5TIma24P64cINenbxFiU5xvY6PpHo/vVMGPrhl2+V6UOVqPuYhCRTr4B09ueSZFJTW0Dr99Qqceak5/HQXdfoiQenqb7Vr5ff3amv/s/v5bRbdcu4Ujlsfb/eiUSiz3gkafn350mS5n53oa4aPECP3TdRktTSHtTSjTV6bvEWff+L01VVnqf9tc361gvvKxKLa970qzUoN63fe/Crr9/b65oXmv+HP5OkuuYObdl/8oL34KmHZ2je9Kt1oLZFP31zk771/HuyWy26cfSgC94zAAAAAMCVhTgF9MMfDOu/F27QI7PH69ZxZcrwJMmb5tYDt43WolV79e7mQ6oo9irYFdWaXcf0Tz9foQyPU4/PuV4jSrL16I+X6qrBA/TgHVUKdkW1fs9x/eer67T/eLOGFXv1nc9OUXlhljqDYT27eIsWrqyWPxSR2WTS0XqfOoNhjXzgaW1/9m/7Hac3zaVPTK2UxWzS5598U7tfeEjetN5f7x8v2qi9R5v0wy/fetHzP1rv0/LNNfrmvBt03VXFslnMurosV4/MmqBFq6u15UBdT5zqDEa07A81+vdfr1a6x6nvPDBVpfkZuv/fFuqe64fplnFlemvtPv18yRY1+gK6trJQj3/qOhVmp0qSmtoC+tHCjXpr3X5F43HFYnEdq29TKBzVlEd+oVe/NfuC4yzJS9PnZo6Rw2bVt55/jzgFAAAAAH9B2BAd6EckFtP2mlOqGpqnVLdDZrNJVotZFUVZ8rjsOnzSJ0lq83dp3a5a/eCh6RpSmKXnl27V4VM+tfu7FAhFJEk7D9Vr2aYazb5huF56/G7dVDVIT722QQ2tfv1y2Q4dOeXT528fo2/MnayqIXlyOW0qzc/QK/984ShzhtlkUlaaWzPGlqq5LaD4eR40+tgNw/W1T066pPl3BMI63tiu8cPzZbdaZDKZZLOYVTUkV6FwVPUtZ/e8avD5tfdYk/7ts1NVnJOqH/12o+pb/fJ1hhQKR7ViyyHtr23Wg3dU6b8enqGSvHQ98fKanietfvbmZjW2+fXV+ybo7z9+rUYOHqAkh02jy3P1zN/d3u84LWazSnLTNK4iX23+0CXNEQAAAABgLJ6cAvoRj3eHp2SnXWbz2ZZrtXT/PhyNSZJS3A5NH1uqiuIs2WwWffGpJWpuD/Q614mmdi1cWS23s0apboea2gLydYb02H0TtaG6VlVD8jRjbKlcTrtGDs5RZUm2frF0myqKvf0u7TvDYjbJ43IooYTOLg8866Nsyh6NxRUIReRJ6r3Jut1qUSyWUOT0/CUpK9Wlm6tKNCg3XUkOmx743u96NiyXpL3HmrRgxS55XA457RY1twVP38fuZXyrdhzVrMnDdNOYEtmsFo0uz1VpQYbW7DymsoJMNbT61R+b1SKX06aLuFUAAAAAgCsIcQo4x1vr9uuVFbskScU5qfryrPEqyk7V4ZOtys1MVpKj+01w9a1+hcJRZaW6JEkOm0WDctNktZhV6E1ROBpTNNa7koTCMaW5nfrMbaPkdtoldUeu3Ixk+YMRpXucykhJksNmVarbocOnWi9p7IGuiLbXnJLFbNaZPZv+r5wOqzJTklRT16JRZbk9Pz9a3yar1axUt7PnZy6HTUU5qbLbLCrOSVWgK6J4PN7zuT8UUWlBhu6cOEROh00mk+R22nv2o+oMhuVNcys12Sm71aK0ZKdK87vj1MVoaQ/qQG1zr4gIAAAAALjyEaeAc2SnuTWydEDP7512q+6dXKEFK3bJ5bRp+MBsdYbCWrL+gFo7QpoyeqCk7jDy8ru7dMe15Vq/u1ZZqS65ToesM5KT7CrMTtWg3HRNqizS9ppT2l5Tr2gsrnyvR7WNHTpy0iePy6HtNfVatLpaiURCwa6InPb+v6qdwbA2VNfq2cVbNXf6SCU5/jRf7Zz0ZI0Zkqfn394mj8uh/CyPGnx+/eb93UpLdqisMKPn2LqmDr3+QbWmjh6kDXtqVeBNkeOccWd4kpSflaLKkhyVFWRo+8F6HT7ZqkSie/P0opw01dS16ERju6wWs7YeOKW3NxxQPJFQMBzpd5zNbQEt21SjlduP6s5rh/xJ5g4AAAAA+PMgTgHnGFuRr7EV+T1/jsbium9KpX64cKMWrd6nFVuPKBKNqdHnV+WgbI2rKNCOmnrF4nHVt3TqucVbdeBEi6aMGqi8zORe5x6cn66RpTl6/YM92rKvTscb2pWV5lYsntC0a0q1eucxvbB0m+w2i/yhiMKRmOw2q3721mZ96Z5x5x3vH/bW6T8WrJE/FNHhkz4lJ9n06OwJfcJY97En1OgL6NbxZRd9PwZkJGvG2FK98PY2vbB0m9xOm4JdEZ1q8evmqhINLco6e6/icR1raNMLb3ffgzsnDVW65+yTVVVD89Tg636rYFaqS42+gIpyUns+v2NiudafDmwmkxSKxJRISJFoTL96Z4fumDi0z/jeXn9ADa1+tXQEdaKpQ0U5qZo7feRFzw8AAAAAYDziFNAPq8WsIYVZ+vztY7R040EdPeWT027VpBFFmnRVsfIyPWryBTR32tWadcMwPf/2NpUXZurOSUMlkxToiur0qjUNzkvX7ROH6I01+3T4lE8DMpJ1/7SrlO5J0tRRAxWLx7V+d63a/V0aXZ6rIUVZWr7pkI43tEuSPjZluNI9ST1jGzMkT42+gHYdapDJZFJOultzbh6hykHZ551Loy+g441t/c732hFFKso+G4zcTpvGlOfKbDJp8foDOnzSp7Rkp+6cNETjKwqUmdK9rLEkL11zp43UbePL9Op7uzV8oFf3Xl+hQFdEoUhMJpM0qmyAItGY3t1yWPWtfpXlZ+i+KZU99+eWcWWKJRLavK9OiYQ0YXiBBlw7RO9vPazaxg457VbdP21kz9LKG8eUaGdNfff8zSYNK/bqnusrVJqf0WdeAAAAAIArlylxMTstA//PzZkzR1XpzXp09oQ/2Tnf3nBAL/5+u2ZOLNecm676k533L8lvV1XrxWXb9dnbxui2S3hiC8BZd399gWZ86hHNnz/f6KEAAAAAlwVPTgGXSSAU0azJw3otE/xr0xkM69PTr9aY8tw/fjAAAAAA4K8ScQq4TO6dPMzoIRju/mns/wQAAAAA6B/vXAcAAAAAAIBhiFMAAAAAAAAwDHEKAAAAAAAAhiFOAQAAAAAAwDDEKQAAAAAAABiGOAUAAAAAAADDEKcAAAAAAABgGOIUAAAAAAAADEOcAgAAAAAAgGGIUwAAAAAAADAMcQoAAAAAAACGIU4BAAAAAADAMMQpAAAAAAAAGIY4BQAAAAAAAMMQpwAAAAAAAGAY4hQAAAAAAAAMQ5wCAAAAAACAYYhTAAAAAAAAMAxxCgAAAAAAAIYhTgEAAAAAAMAwxCkAAAAAAAAYhjgFAAAAAAAAwxCnAAAAAAAAYBjiFAAAAAAAAAxDnAIAAAAAAIBhiFMAAAAAAAAwDHEKAAAAAAAAhiFOAQAAAAAAwDDEKQAAAAAAABiGOAUAAAAAAADDEKcAAAAAAABgGOIUAAAAAAAADEOcAgAAAAAAgGGIUwAAAAAAADAMcQoAAAAAAACGIU4BAAAAAADAMMQpAAAAAAAAGIY4BQAAAAAAAMMQpwAAAAAAAGAY4hQAAAAAAAAMQ5wCAAAAAACAYYhTAAAAAAAAMAxxCgAAAAAAAIYhTgEAAAAAAMAwxCkAAAAAAAAYhjgFAAAAAAAAwxCnAAAAAAAAYBjiFAAAAAAAAAxDnAIAAAAAAIBhiFMAAAAAAAAwDHEKAAAAAAAAhiFOAQAAAAAAwDDEKQAAAAAAABiGOAUAAAAAAADDEKcAAAAAAABgGOIUAAAAAAAADEOcAgAAAAAAgGGIUwAAAAAAADAMcQoAAAAAAACGIU4BAAAAAADAMMQpAAAAAAAAGIY4BQAAAAAAAMMQpwAAAAAAAGAY4hQAAAAAAAAMQ5wCAAAAAACAYYhTAAAAAAAAMAxxCgAAAAAAAIYhTgEAAAAAAMAwxCkAAAAAAAAYhjgFAAAAAAAAwxCnAAAAAAAAYBjiFAAAAAAAAAxDnAIAAAAAAIBhiFMAAAAAAAAwjNXoAQBXAovFoqP1bVq985jRQwGAXnz+LpnN/L8kAAAA/P9FnAIkFRcXa9GirVqyfZXRQwGAXtzuVGVlZRk9DAAAAOCyMSUSiYTRgwAAAAAAAMBfJ9YJAAAAAAAAwDDEKQAAAAAAABiGOAUAAAAAAADDEKcAAAAAAABgGOIUAAAAAAAADEOcAgAAAAAAgGGIUwAAAAAAADAMcQoAAAAAAACGIU4BAAAAAADAMMQpAAAAAAAAGOZ/AXelYPovacpqAAAAAElFTkSuQmCC;" parent="vUu3U6UHRAD_ZUpuoUFP-1" vertex="1">
                    <mxGeometry x="-820" y="130" width="720.3" height="430" as="geometry"/>
                </mxCell>
                <mxCell id="M1TbtmR4Qfy2jBV7jQbW-12" value="TPersistentObjectPtr" style="whiteSpace=wrap;html=1;" parent="vUu3U6UHRAD_ZUpuoUFP-1" vertex="1">
                    <mxGeometry x="305" y="260" width="120" height="60" as="geometry"/>
                </mxCell>
                <mxCell id="M1TbtmR4Qfy2jBV7jQbW-13" value="模板类" style="text;html=1;align=center;verticalAlign=middle;resizable=0;points=[];autosize=1;strokeColor=none;fillColor=none;" parent="vUu3U6UHRAD_ZUpuoUFP-1" vertex="1">
                    <mxGeometry x="305" y="240" width="50" height="20" as="geometry"/>
                </mxCell>
                <mxCell id="M1TbtmR4Qfy2jBV7jQbW-14" value="" style="shape=image;verticalLabelPosition=bottom;labelBackgroundColor=#ffffff;verticalAlign=top;aspect=fixed;imageAspect=0;image=data:image/png,iVBORw0KGgoAAAANSUhEUgAAArkAAABXCAYAAAAAj11vAAAgAElEQVR4nO3deXhU5d3w8W9C9n0ZIBtJCCAEAhQFGyygVSsiyuJC61MrrUBFLEgVUfr4ulAUheKDWnmsSH3dW1zQVBRerRtqULEoBIICIQSyT/Ztsr9/nFnOzJyZzCSTbfh9rovrCjP3nPs+y5zzO/f9O/f4pCYnd3YwsMXHx7Nq1SrWrVvXg6WEM+qhFIbpa6hoARIiiW2uIPd/iqlu6t6yAr86xtH32lSvB5G4Oo3k9hIOPFVJaw9aKxzITGDaggDOPpZPcVUPlpOmY8ItMTTuOsGpb7vxDfBUO7xM6LyRZGQY+KFb36vBp6/W12k9mQlMWxCG/vVuHsuu1iMGvp6e1wDTdWyYvoBDL9fT7tEGDkJpOibcEkfnl7bX+3NDzOJ0xkaU9npM01v1+IYu+Q2+HlzgwFXHyQdyyP6mnciRwbRmHSX7ETmRCyGEEEJ4I7/2qAkETI3HcKC4v9vSY8HBwVxyySW8//77Gu8ae3KbDTQWNOE/bzzTZ3e3J7dr0YvTGZU+RPlPrXU9MYvTGWt6j3rytXoDjXePEX6Wl2o+c+dO0tirHOer2QazzASmLYjBUk0LJe70CGn1Imn1crpQj/V2Ua+vzboAqfdkkGpTLmZxOmMTq+23tQfvDkPnjSTjolDzjaG6HYacfFXPh/F4C7R81r39p12f1fFi7rUpxXfeCHNd1u3A/ljSPBact9f5MWv72VDSH4g1/m3cz/5xTFsQQ4PNNlDWz58yt4851bGksT62x5J9Gfv1tdtutvUUFpmPI+vlq9fXdj+7UI8TrtcD6GKZsGG4eT/bve9ku7lVjyPG5Xe9j50fa0r5TgpUx5i7Pcwxi9NJaS+hXBfPiDhfDDmFqr9V29/uPKs6tl1eHyfSdEy4JYzKLfbneNt1svuuq4438zn11XpiFsXZ72ObfRtxw3jibtBYjlM2+yUulQsf1dguaLTV0fXFnfq0rj1OrhuO9oNyLDcp7R3bxXYzs7/G2H9Pwxj1UJL2eVbVg16TMdb8XbJdht15Sb1vXD2f220T9b7RGk3W6pm3X1/XjxM8891wmSv7xvGx5DeEYIiOAQZ/kBsQEEBISIjme6HzdIQdz+frl31IXRNGxaM56Belk/Dzcqo9PQSRmEBiVT5f31tPu3Hjq+upfCGXbDCfuOyFM2qxMjyS3e22GSjcepRCTCdTjSJpOiZcHYb+9aMePCC7V485QH3IeKJM0zHhlnGM5xhH37OsS3+nCTRkneKrrK7aoezziOP5fG36ImYmMG2BaX1c3KeZCYy/qJOCx3KcrGsAcTeMoOYz47GSmcC0BQkkX2A8yaiG2rJVAWv6H7FclEwX+lLHJznnx6wySnISZ8FIJUWZUSSPisAfy8k3Ki2YlpwCClw9/tJ0TDjfwHf35hiXoWzr9KXN5raHzhvJGPWxZCeIxNUjrPePLfPNm+mYVU60U1fCgacqzdvDefDlQj1dcK0egADifh5K/mM5HKkylv/JUKI+Vu1jJ9vN9Xqc2O/KPvbQd8MFQRmJRHx2jEN5I8i4KJGhOfnk5A1lfEY44cH1VDeFM+pafwofzuFIk9LWxNVppN4WT9P/FFPt0vp0Ia8ZQ3sMQWm+YFM+MDoI37oaGpqUbZAWUc6Be0+pgqYEMm5qUV3Mw0j9L6z38awk4rPzKd5fxDf7i3qYrmD6HjtPV7DchORYBVZW55QuBZG4OprGrTlkG89tMYvTGXtDMoY81U28k+tGQ5Ye/QUpRKWHMORbS+dCdNoQaj47qzpnOtluVcpnlA6wCifnDIicNYyS14+S/W2H8ZjVMSy6XlVPAHE3jCcqx3jttzkX213jjPWazimt5mUMt6lHdT63Oy8Zt9s9qeDGNTFm8UglEL63m50/nvhuuEQVtN+rvhlIZdJNpkDX+bHk21wFvpEjPNSggash6xTfv1xPe1ogQcYbqcoXcnsnx6awiBzzyaEVQ1UHgTFBDOniY7YiR0Xg7/nW2QhQThL9WU+ajvgx7ZTsLbWcYPL0FB9v76Nt4Fmh83ToAusp2a26QOwv4mRud9YnjOjpfk5LWPVK7K+kqMTPvK1jZg4lorSI46rjvHJfObUh4USPV+6MY2YOJaKxgtznejPnykDh/mraEiPQRRtfSgsjStdovZ26kqfnyDZ1O+uoytP4dIRl/RwJSg4nPFjzHRIzo2jLKVKdrDXa7yLH9XhSCyWvF5gvcg1lzXREBBIcZHzb1e3WI13vY89+N7pQW0HRx23mv0+9WY/1pbeOk39RBzUGqvOaVGU8dMwSQPBwX5QL9nim3BRmPg8aqlqU+vYXcVgdUObVU623DRQ09rHLbfCUcOIuCKUlR0+ZOaAyUJhVZnVO6ZqBwq0FVkFZ5Q812F+NnV2f6ij5toEA9fcrM5yYZtV+B7rabqZjMv9/nQfoNZ/lWYLtshYa2wKUmxf1Wql7GPfXUdls3PdpOuLHDKHmu3JVHXWcfL/S7pxiX4/pHeW85Feo56wqiKx84SxlzV1fJ+x041xm4anvRhcyY0iIa6Pky2rLuStPT/7X6v3u/Fhyc6sMbM3Nzej1eueF8vQceaxv2tN9dZx84DQ8lMLURxOUl9wZSnBVnp4jf4cJt1iGpdwZSvVsPcpdsHmIzaTQkw3pQ7XNNBk0Xg8PJDQY13o79hfxDTBtwTimz1JecnXoOCg6wDKUmJhgOY7MWmhU/7euWelR6k37KynKTCNubhhlL9cTOXMoEaWl/OhWj7zGMBtYHScNWafIYSQZ5uPJdhjUQOHWPFidZhmW1xhuDcpQD9ea1LvRVtfq6RtdbzePcGUfd/Hd6MsHdu2GjwFqVY3r8TGrdHJExAQxJC2IqMAWOhLDCQ9uIzjah+YfDQ7TmwAMXVzO+ktzpUHjGmEK5l0Lve1TscDq++XCdcPUm6uMlPopN6cFBdS5+/1ydEy6yXq7KD3jAKQBtNBUqrVtjMGyi8eU+cbIhtKR5lqnXeULufywOJ2x5nQ7B2mTznjkfO6KFgx5GmtsvInXTPUBTMeSH0BHzRlPt6pfGAwGPv300/5uhodYhoC1hzU8JE/PkfuMZ1K7YYC+rMfNXODByt1g0jQMCW4N61qdCHvjBqlblJ6ypIxwwoN9iE5rpySr2q12xSweSXJIldWwopJ3bV3OnFaC8QR4w2jANtA1psA4GG71zA1f1/X0BVe3W8/1YB8bvxtaCVy9IXTeSMaYcjetcn/VpXp6zBpoquoEICQjnPbDxVSfF0/0+EZ8o9uMQY+S1jJMX2SfR+mZVe0jjoI4DZkJjL/InzJ1KoJWKlSX1w1lRGLsqAj803yVnsQXBtuMEMYgrtu9qgolwHa939Kcgkb3Uh48cT7vEdONSRfHkq9fdCVtPx7pq2aJbumNoUUNmkNkXTAO2yh38GgkxbtQT1491Xo/4mYPJ6oHw7rNVQarIVrNXhpPKWuhsU17iKghp476kFhGXmcZliQzgVHp7dbDLu7aX0dls/MiofPiSYqzDBlV/lBDW2ICY65yvEdMZTJUw6i9pSFLjz4wlpGrhqPTWw+7dUtmguUBT0d15tRR7/SewH6YujqviYCMBJIvcD78qqQFuDpMa1uP69yrxwUOtpsn6nG2j135bijDyZahYO1eml6QpiP1Qvt6enrMNlcZCIgOIzqtnZrsBgr3NxKWHoSvox4qTN/jbqxxXjOG9p6moCmBuXaajXItipyVRLw5KAsicd4wIkp78n0OZ9QcN68bRpX7yqkdrmP8DcMIOKZOo3CN6ZhMXxrTe6lxmtc4ZZ3bclxts/Z5KWZxEsPMKRrGmyrjqIjDERwb2qkiXfP4+dzW/joqm8NIvUm1b4zf0zqr1A8162PJz/f0V7Se9my7hDP2w1KmJ/TNQ9EaMysow5xu9MbZLcP0xLSqx1QrIC0s4oA7vVd5evK/DidjlmlIvZ78V0uIWRRmKdNlPRrDukbuzEjQkFXM2bQ0y4wHhUUc/TKScSmmEvZfeNNTyG732tmtt2oZGsNs3emp1rq4G3LyOWSzPSJVbaDW5uEJjZQHczlTb+L+Ir4pa7Fpr3rbu3DMukzJo9Nd5E/Zh+4H/JX7yqm9Jc5q+P/U1w2kJFrKaN3c1Hx2TLXttYaG68l/zLLd7FMejGx7xfcXcXJsOmNV5ZxtN9t6XOa0nq65st08UY/CyT525bth24baCnLfa2bMDDea4ALTUHeqesj2g0pCfurG+rhST1kzHRfpiM3J51AVsL+OxjnKg07lBjDlNyYsSLBKTzuZG4Tt7umakuc5bYFq+3ZjJKfyhbOUPZSiOh9bhrPth7q7UYfpwSV1StHHpdTODLWUcfX6lKen+PhQxqY3kv9sN3px8/Qcua9ZGS1VpXV5NnVP+xrnbh2a5yWbFCjbfWfIyed41QgsT15pBb7Kd9DxbEimY9M2raFn342u69FI3UTjORQnx5JPSnJyZ6e7Detjrv4YRGBgIBMnTuTAgQN91DIh+tEgnaRcfnDA+3nbPva29fE2ffWDBcLeQP9u+A70ANcdQUFBpKSkdF1QCNE/TPlT6pk0hHfxtn3sbevjZcy51S9LgNvnBsF3w6tmVxBCDEyW1Itz5AHDc5C37WNvWx9vY0lL6sbMAKJHBtN3wyc5OXnAd+a6mq4QGRnJ5ZdfzptvvtlHLRNCCCGEEANRrz+w2pdqamokwBVCCCGEEN4V5AohhBBCCAES5AohhBBCCC/kVUGun5+fzK4ghBBCCCG8K8gNDQ1l6tSp/d0MIYQQQgjRz7wqyBVCCCGEEALOxSA3TceEe+JVvx/dRdkN5zGyi9+vF0IIIYQQA4tXRW/19fV8+umnmu+FzhvJ5JvCGJLXjMH4Q9Exi9MZf5Xj38OImTmUiFI9ZwfwRMdCCCGEEMKeVwW57e3t6PV6zfcasvTUj0nlwpVRDKnzY9i9GYxNrKbo4zYHSwsnOq2dki+r5acChRBCCCEGGa8Kcp2r4+QDOWR/007kyGBas46S/Uixw99bDp2nQ9dcR9VR6cUVQgghhBhsvCrI9fX1JSQkxMG74Yx6KIPpl4bQUtCE/7zxTP+To9zcIKLSgqn7rtxhECyEEEIIIQYurwpyw8PDmTNnjuZ7ofN0hB3P5+tHSqkPaaPs0Rx+KIwi4ecaObmZMSTENVKV7SiVQQghhBBCDGSOn7ryMg1Zp/geIE1H0BDltcoXcqnUKBszNhK/wlL0VX3YQCGEEEII4THnTJBrlqfnyGNO3k/TET+mnZJd8sCZEEIIIcRg5VXpCo2NjeTm5vZoGaEZ4YQ1ygNnQgghhBCDmVcFua2trRw9erQHSwgn7oJQeeBMCCGEEGKQ8w2/61GCpsb3dzsGhsxwYgLr5YEzIYQQQohBzq9uy7393YYBIojEzCjacgookwfOhBBCCCEGNa9KVwgKCuLiiy/u3ofTwojStVGd20i7Z5slhBBCCCH6mFfNrhAYGIhOp+veh/P0HLlP+yeBhRBCCCHE4OJVPblCCCGEEELAIOnJjYiIACA6Otr8WkdHBzU1NVblWlpaaGxs7NO2CSGEEEKIgccnOTm5s78b0ZWNGzfavVZVVcWmTZv6oTVCiMEqeeQYQkJD+7sZQrissaGBglPH+7sZQgxKgyLIFUIIT7hh2d18f+x0fzdDCJdNGZfKP7dLh44Q3TEo0hWEEMIT2traKdXXdF1QiAGitV3m+xGiu+TBMyGEEEII4XUkyBUu6uTJZws4vdf07yx7bvLQomOb+HzvGQ78ydVfmjO25b0y/u90D7VB9EAwkdf+g8w/bSXWSakhlzxD5v17jP/eZfRPHRT0n0PK6j1k3vciiSN7o72DkYEH1rzKoa2v8fY1zf3dmF41b2kWhx7L5r4EFz8w5Sj7tm7n67uKmNCrLRO2Vm4qUl0TCth/d4eHltxC1q4Cjm5uwdXDQGlLMbtv8N4MzJWbijj9Rg13dnOm1HPRuZWuMPkxzp+vo3jbEor7eUrcqBveYlz0Fxx8dgvduWQlrKoge26Dzau+5L6UxJUvG/8b2squ54s5P9JSor00llU3h/KuW7V1smxjKfPjI9g+O4oNGu8/+ewZrmoczujVgZpLiJhbyxerqonoUTv6SGgru54vYcR38Ux9xPYroqzr/BTrV1tzbddd2WbrEsMH7nr2sfZPlrP/EyD4D4y7+8p+aoWeHeu3My1C+13Dmbn8bksM1695i+uSGjTeS+BIH7SyN0xa8AU7pvvyzhPT2VDUn/XUsmP9P1X7IJ6vdlzNssO916aecLY+kxZ8wY5LjmJ11mvOYKdt2SlH2bc4j2O9uZ4La8ldXk2IzcvFHyaRudnUn9XOMzuKmZOkCkbrInlieSSPu3lNvPQuPasnB7B3RQK/P2n//spNRazRRTH/lhC+01rAlEay/6wnwb9n7egbynabVTmMy+8OwPawXrmpiDWTbTppCnWO172b9Qj3+fkAA+m+R2smBS0yuwLQEsH2a7SCTpTe0VfLicsdTsoi7cDTZaFtXDWqlfJsnXZdXVAC8iZyX0pm4suYg+8nXwS6FQD6sOr3yazqRls8xSpIj23i81dLyXtxAAfug0nr+5ze+j6983iYjiX3LzP+rQRbY/J/xay/h6vKGLgeoGYmax8Yxx6ApEKyVu7mtYdUr/WpIB76y3/xUJ/X62FJhWStfI+4srnceL9ywzBvaRYblrzL9u4GgAfHM/PgeE+31A3qIN3AA2veYtHaClJ6NXDP5NZNNzP84KOsf61A9XoIe1foNINOpXe0hMlVOubPdjf4stXOovEGmg8N40HNurpgDMhrPkwiZbMvpuDujmeAbga6T61N4KluNMVjrIJ0ZVu/80bfB+7J89fyxylFPP3gy5zou2oHLL/gX0yg8YOB1Tfx1FNPUVVV5fD9oKAgli1b5vB9AQm/bmREexAf/7OHAW5Phbby9IxGyj+Nt/QwN/iz8LahfP5qBX+4KZR33+/XFvZcRTCLdoeSfWUD108P5d3s/m6Q8LizidyXPZ4dl5zguonj2DNAex0HunlXfkuqYSZrVT3iWc9dwZQ1bzH3iiImHHZ1cHqgCuKhf1zMBSvfY+y0Ojgc3vVH3JV2HetWXcaIllze2FPQdXmThQbGhPiT82pwDwPcnmrnmatr6TwUx7XmHuYhLF8yjKxdJSz6XTiPb+7XBnpAAPNejCJ3eQOX/TyCx1/36bOaC975N0cyl3Dn5lje3vQE/6+8z6oekPyGJJ+PL0fwVCaNJ5SVldHW5jg/s7W11f7FpDtJv/kKIlWjy7XZKzj6QR4hlz/HhIuSGGJ8PWXFHkyjzc3HnuPwzjdoYwrxy9YTV/MCh3+YxqT5kwkAqD/MD3+7m6oGjMvx4awq3SHk8ueYMKmKE8YyioWMvPtWhgfbtiWS+GXrSYk3jc/8gin3/8L4dx2l/1rOqYMVbmwpx+pP+lM7pIEZv2yGbMeBrl3ag6p32O69i4s4fbHyZ3tpLKtuC2CJVTpEKaf3Gv9sD+LjPw9jVUwToyN9KCywGfY3+FFe08HEqc3wPoAP+pJOdu0sMC9PnQJgm+6gruO3qqDSts32aQQayzIt50el93uExvo67TU3LyeAE9m26QwVPL23gqcBq3SS2CY+f7WC+pcSeXNCKfed3+KwvV3yuZo1T19FWudJ3rt9i3s9yf5zSLl9JeE//g/lw+9ipHHlO/WfkbPtERoA3/EPM/H6yTTsvZoTXynv+45/mInXjkD/ys0UnjJ+prqM1kueIXNWqvJCRxlnVO93LYrhv/uHuQ20HeP4I6ux/0bYlAPaT7zCN6++5M6ad09zLKfNDVJ67SxpDWHk/ftaFvzLuP+SCsla+Rkdn1/L34fvZUNGqfIpm7QH+yFv6+H7eUuzzJ91OLQ/5Sj7Fn+BJTPJ0hbrz8OitTksMv5dfUjdi+08jWDe0iw2jDiP/z1YwS3m9lrKdF1PJ/OTSzHUTOWMVeODOFgdxnVjTrMwIYFDAIZoKi78gm806rHf7mhuV9fSIuyXZVrOKJe3m5YwKssD7PbtT5dsV9bPqr1KG+Z2XsLvPqrmGdN+NKY9WN0zZ97KppsnE1ayj0fXv4YbIS7k+1Hd2krGnCZ+8rqTnly7tAdV77Dte0klZJvO+XWRPLE8jPMeU6dD6HnH9D7+5DwXx9wTzUwe3kHtMT+b4fghFFX6MjndwE+MmZS1ZT7cv+OsZXnqFADbdAd1Heqg0rbNWmkEdssyLadV6f02fVi9vk57zS3LKfyPpS22aQ0Nh+KMaQktbtWTequek7MajVvJ9v1veW5dOfPX/pEFDz3IsMcf5OVzuEvXS3JyFzLyxivw+WYF+z/Is3u38cOlfPMhLuXkBo5bytSkw/yw5UqqGpRgNXXu9dTtfMO1ppiCbf0HHNxsn29bvP0aiul5Tm5XandHMHtUK9lzlcBTKwc2YVUF2Ve28/GDycZAUQnQlv0LuCaKDU/GkvJkrNMc1XcXJeMsJzdiLtAeQIntiaDBjzPVMNH8Qgfpvyyh/NMEUh7xMwai5ey5SQkKa3dHMHF3hGq5tXxxu8FqkXbrY0yLOLHV0i4lCG4012MtmBmzk7vIydUQ28TOuQ205g5nAz7w+2RWuZST20H6b85wT+5wUmYH2q1z3/ElbOpdBJ94hf3rXzLmzF7FyKsuIue9L11eio9uFuMvOsbx9VdSYQxEU+f8iWpjsNy1akqfv5JSlIfUpl2kUcR/Dim330F8yDGOr9cKgHtJUiEbph+ls2wuu4rAHByFn8/a1cb0hSlH2bf4Ld5GFehST9plL3LfmbncuDqBI1OOsm/xpzx8jbHMlKM8fUkV3+1Y5nBoO+u5eWSZl29/fiOpkKxffU/Fv29m5r/sb5BMn3eeK6sEhBNrLGkEkxZ8wQ7bNILIfdw2ZSZrVy9jj2kbXH+MKw+Pc6GeWgAMVeF2ec35+liax6heiNzHbdMz2LlpGRuKrOvZY5e6YQwS3V4fYxAcmMHOTfbb5IhL282WgQd+9SmpjGTnt4EcKvoZ097+mUs5uUEjdvPar0zrrLRt3o0pnP0yA4C069ax6rIRtOS+wX8/9RGOxzodOBjC9B1R5C43Bp5aObALa8ld3kDecyPMgeLKTUWs2abn2RU6fr8rgvRdETjNHV2SZPmcVk7uFAB/KvJtezeHcKTClzmqh6riLy8m4lAc05cEUGQMRJ+525hjfDCE6Vcnq5bbSPafbaYHtFsfpd3v/B1Lu4xBcOehOKbb5cEGMG9hsvP11dRC1s3VhBTq2Ga89l16l55flseRMttX1bYS3ro7iczNbtQTXsP8UTrmz9bxnan88hYSrMoX8M6mP3J26UaW3LmZ2Lc38cQ52qXr217wnwHVi2sSExNDXFyc3T9nIkYupMeD86qeW9hFVX4jgVEp5l7grkRNn0Gk4TA/vNI7wauVgFqWqZ5stZ1toOjJWFJmJzN9dyhDhlfw9N4CTmw1tiq0ladnNND6Y6SqJ9SHVeuGciagnhmemjnBZT6Uf2oJKmt3h/Px6Q5GT3VxK5rSIj6PsaxPgz+3fx6K/6gm7jOXaaA1d5hrwasTpu15em8Bp1+toP6lZPd7YLHuua39JJgTNZ3okl2dZcKo813+smIFK9ztxVWx6glt2kFxTi2hqZfg1m+DWfW8VlP+1bcYYsYR5cEZEob8bD7xYWWcea0PAtzIfWzaup1DW7dzaM1ndHx+Mxeaegqn5HF5UgRfvaHKzz2YxodnO0k4r8LqKX+rHsaDSfxYW0/M0BZViWJlaLtH6u3qdcekBYeZFJhB1muWntBDb0/kUK1N25oz2Pk30zorPbC9wurhrSAe+vdPqIk8wXUTu/qgwpX1mbTgMJMi4vnq5Z4+iFes9NBu3c6hrS8xt/MSbrynG8u0WucI3ikYTlBELTog89ZNrLlsBJX7HmWt0wC3kdnb1LPg2Mw2sCuC9NnJpDwTRWN4DXe8UsDpvzfyE8CURhBSGMl/q3pCn1qr4/vGRiZd2/eRgqWnEzgYwqtH/YhPNxjb2xVTWkQsy8zrM4Tl70bQmNjIilGWMiGFOv6rpw96mbbn3gJO7y1h2JdJpKgC/I+26JixWTWh1a4gjjd2o566SJ5Ya1qucmMQGtvGMI2i3z63jkf3lpO64CE233EFQ7tR3WDn1/LtwMrHNXn88ccZPXq03eszZszQKL2LU5uBu2+1DP+XfNC9XtL6EhpV3U7Vr1/LfuPftk+turqMXuPKEDrGYPfJWGMvprGncBeAD9VlWuG7KdDyUEf/kBbiRoHVuFtoGyOifKjOHwJObrN8Y9q4mkAXg7dOhqpTDExa1EkOjtbZPZ6ZHcKmLQ3+LFw0wnHxPuYTNYwgoKknC/GNIXgY4HLKggs6KjF4cnmO1HT1kFmx1fCzieGMzf+tei4jVA++oTw0Bexb/A8ObVVe6noo3MbZROY9dZXyYNxWUxu6MRNEYI7VkLxJtTvLcEFQdB0TsO7NTdVVEGg4jwNFKGlimuoYmtoMh128mXRlfazST7rLQ7NDGKI5oIqyTD3jl02H/X9bS9l161h12b1s0r3BRoeBritD6CjB7q4IY2+iqXdUeauhwo8yjY9EDGsjAU898d9KbGonoO7NbWdCbIfD+i0NaeVSHXzn4sNcoZPUQ/8m1lfzLut0RVezQ2imV0BxT+t14oKlG1lyvh8/vP3AOduT69dW2d9N0Pbb3/7WzU/s4tTmXcZrqZJmMOX39Fo6wGBU9EoIZ+Y2utBT6IPeNoe2m2o/CebE4hpG2ATNEZeoc3U1cqyNOir93AgkrXuDRc90Vpdh6LqYcx2VNPX46jFQeSi4Uc8OMOUo+xb/g89u6Uage48xeDbOBPH8XW4GulpTX3mU0js5bUQtI7DOnVXn6o5y+PlwyvPdGC3p9fXpW3lvbmR14a1suvl6Hr5/uPs5uVp2BXH8Zhg9rI2ELsYra8tsc2i76WAg35f6Mju5jeUAAAkHSURBVMs2aJ6iztV1co2q9ecjN2YrsOoN7jctZN2vJzJXnRKh5OFq9cD2XDLz1/6R2ak1fPn4unM6J9dLfwxCSTOwU1FKU1si0VPSurXUxvIK2okgaIQy5b3tA20A1T8epyXuF4xfdL3TftCWqkra48YT02eTOneybE0NI9oDyfnYDxr8eO+kP0NnVKpSHDp5cmM5CaXR/NXNnNDDFQGWtAC1Bn9u/zyEoReXWH48IrSVFxZXE5w71GHuacKqSuYnBfG5q7NDaK6PgzLqtjgod6a6k5hxzVztWu0afNhd7M8QXQPX9/YPVvhczZpt29j29F09aK+F7/j7SM0Io+JbJZe241QxzfgSFHuR8f2HmXj9BQQ7W4j/HEZccQEBeR+48eBZ19q/yqHabxyjV/zJvVQKTzuYxI+1xfz0+mN4dMbfg0n8WNvDZZyN5dty+61z6HQ0hsB8pl5gf9t/6EAqxeQw78ae/6CCs3qy9lxAftA+1qt+uGHe0k+YZpNaYK2WHQu/IPDM+Wx18YbClfUxlVl0q/N96Gx9XFYeSVWzB9JS9v+NtX/5N2diZnLvppVcGt2zxV16Vy0TQvw59bU/RQxh59EgAidVsF2V4rByk57J7ZHsfN69cOFIaQBt5rQANSVlwGdSCW+ZfzyinWf+UElCmY7lmx3Us7CWFZN9yHnf1dkhtNdHu4y6LdrljlT4EjqyiV956Jq9cpPe8qCZR+u5gKUb72X20HzefuDcfugMvOXBM42ZFZTcWpte3LOPc/rr8Uy4aBuZxsDDMruCC76/h7zz3mLcNa8w/BpjHXsqGDnD16rMfyruJP3mpUy9f6n5ZdNMDyaNHz7N2ZHrVTM9eHJ2BeWhJ9MT+2YtEWy/ypTe4MP2dcNhYyn3PVhgnpO0e8PwPmzfEMtVzxezbG8ty8Bq5oOiJ2OZTgXZvyng9G+UT1jNImDwo7ymk/NtZzO4KtaNeXm118e6Lh+2r4tj9yrrttjP0qDkJp//arllZgQXU0PUip6M4Z2MM8w3t8fmxzoGkCGjf03m/b9W/tNRxpmXrrYEp01/5fhnGUybdT+ZU43v73yX8OsvNBWgvrIa/MYx5v49KM8PdVB/YD3fmB9cs58Rgdl70M1W5QMH/4Fxd19NlKqIsrw29KaZHZr+yrGNJ0m5/Q4m3j/LXK7PZlcwi2DJ/b9kx/p/smnrPiwzdtvMsNAFrR8TMJyZy+8cznhgeULfnNZgN7MCxlQLm6Dx4Hg2X3CCDZe9yKHLlJfMy9BIeVB0o7fa3Xpselzz9bE0Z+TYzWZwYQ9TOOzW52wi8+6x34d2qR7O1seN9ihT0FnSUrr94yJ5b7JxdSG3brqZGVcm89FrrvXnXnqXnu1XNNpc9EPYuyLenN7w0RYdy9CzfekZTpsuX938kYaPtkTzwfhi5mwznf9UMx/siiAdyF1+ltOXGz9gNeuBcaaFSbazDMR3nYph1QaN9bGp66MtOkbl1Vq3RWOWhqfW6vjFrhLueKWGO8ztcSE1BIAAtn4ewvYrLOvTcGgon5ytYKxNyZ7VA8nzL2NC85c8vk7myQXwmfDErs72Q88OmLlyN27cyKZNm6ipqXFYJiAggFWrVsmPQZzDzDMp2EwhJtxknK1gWFlfB4n9Y+Hv7uSj/QPjXCc8xTKTwmD+RTpHLpuewVt/39LfzRj4zDMp2EwhJs5pfnVb7ujvNthZu3Ztl2Wc/ViE8DadLNtQzc92R5unBnt6RgPt+ljekABXiHNLUiH/XODD+r+apgY7zKSIMAq/ifW6AFc4duld1awqiGSBaWqwq2sJqQvn3x9LgCssBly6wrp16/q7CWLA8WH7xjCuer6A0w8qr3hmdgMhxKBzNpGHz37B/92625jm4V6KiPAOH20JZ9GOQk4vNebSdjOtQng3n+TkZEcZ2QNGfHw8q1atkgBYCNEjkq4gBhtJVxCi+7x0dgUhhBBCCHEukyBXCCGEEEJ4nQGXkyuEEL2mo42fTUrp71YI4bpON3/mWwhhJkGuEOKc8faLT+HrKwNYYvDo6HD2IwVCCGckyBVCnDM6Oztpb2/v72YIIYToA9KlIYQQQgghvI739eTOvI2/3DiREKDo0z+z4Z/F/d0iIYQQQgjRx/x8gAE/Ua7LZnLb/IlUf/pn1khwK4QQQghxzvIN/sWE/m6D54yOJ8a/iOOfSYArhBBCCHEu8/WNHIH80rMQQgghhPAmvm3533tRuoIQQgghhBDgazjgPUP7o88fwzBDJcUN/d0SIYQQQgjRn/zCl/yGhh0vMZinmx696L9ZeUkihpx/8H/u+Yza/m6QEEIIIYToV77tUWn4DfJfuTyx82HuWLGC7fqZ/PmxFcyK6O8WCSGEEEKI/uTra6iio66/m+EZJ/5znLKgGOJD+7slQgghhBCiP/lS+iPtlf3dDCGEEEIIITzHr/6NPf3dBiGEEEIIITzKt78bIIQQQgghhKd5V5B7opjK1gTOXzgLefZMCCGEEOLc5V1BLvv432c+oXbsr3h02zbu+2V8fzdICCGEEEL0A7/+boDHndjJw3fs7O9WCCGEEEKIfuRlPblCCCGEEEJIkCuEEEIIIbyQBLlCCCGEEMLrSJArhBBCCCG8jgS5QgghhBDC60iQK4QQQgghvI73TSHWXUl3kn7zFfh8s4KjH+Q5KLSQkXffyvBg439LPuDgs1to1igZcvlzTLgoibZjz3F45xu09VKzhRBCCCGEPb+AFGg53d/NGCx2cWrzLk4BUTe8xbjo/m6PEEIIIYTQIj25vaTxw6V882F/t0IIIYQQ4twkOblCCCGEEMLreEVPbsjlzzFhUhUnPu9g5JWTCQCgjtJ/LefUwQpgCvHL1pPi84kqh1Z5La7mBVXObB1N+p8x8u5t5rzbZndzaic/xvnzTW2A2mwHOb425aCQ09uWUKy3FAlesJYtV6TS9uM7rNq61/UNIoQQQghxjvOKIBeAsImMvbKQ09uupFhvzJn9+b1U/3g3VQ2uLiSc4df8mtrsFez/IM8YiP6SEVM+NgbLLvj+Hv7zPZgeUgvWKGJ6KK0hewX/cfiQmxBCCCGE6K7/D8jIAJxJGDY3AAAAAElFTkSuQmCC;" parent="vUu3U6UHRAD_ZUpuoUFP-1" vertex="1">
                    <mxGeometry x="481.67" y="195.47" width="276.65" height="34.53" as="geometry"/>
                </mxCell>
                <mxCell id="M1TbtmR4Qfy2jBV7jQbW-15" value="TSoftObjectPtr" style="whiteSpace=wrap;html=1;" parent="vUu3U6UHRAD_ZUpuoUFP-1" vertex="1">
                    <mxGeometry x="800" y="240" width="120" height="60" as="geometry"/>
                </mxCell>
                <mxCell id="M1TbtmR4Qfy2jBV7jQbW-16" value="包装器" style="text;html=1;align=center;verticalAlign=middle;resizable=0;points=[];autosize=1;strokeColor=none;fillColor=none;" parent="vUu3U6UHRAD_ZUpuoUFP-1" vertex="1">
                    <mxGeometry x="785" y="210" width="50" height="20" as="geometry"/>
                </mxCell>
                <mxCell id="M1TbtmR4Qfy2jBV7jQbW-17" value="TSoftClassPtr" style="whiteSpace=wrap;html=1;" parent="vUu3U6UHRAD_ZUpuoUFP-1" vertex="1">
                    <mxGeometry x="800" y="350" width="120" height="60" as="geometry"/>
                </mxCell>
                <mxCell id="M1TbtmR4Qfy2jBV7jQbW-18" value="包装器" style="text;html=1;align=center;verticalAlign=middle;resizable=0;points=[];autosize=1;strokeColor=none;fillColor=none;" parent="vUu3U6UHRAD_ZUpuoUFP-1" vertex="1">
                    <mxGeometry x="780" y="335" width="50" height="20" as="geometry"/>
                </mxCell>
                <mxCell id="M1TbtmR4Qfy2jBV7jQbW-19" value="" style="shape=image;verticalLabelPosition=bottom;labelBackgroundColor=#ffffff;verticalAlign=top;aspect=fixed;imageAspect=0;image=data:image/png,iVBORw0KGgoAAAANSUhEUgAAA6wAAAEXCAYAAACpqcnbAAAgAElEQVR4nOzdeXgUVb438G9IyEa2TgdCJ5CEsARClHUYVkdUlEVFvbhfGBVQQYe5gxs6woy448AdcRv3Gb3OuL24MCyKI6hgkEEYJAQiEBJC0oSk09lI0lnI+0dVdVdVV3dXdzrpTvh+noeHpFNd59RyTtWp8zunQtLS0tpBREREREREFGR6BToDRERERERERFrYYCUiIiIiIqKgxAYrERERERERBSU2WImIiIiIiCgoscFKREREREREQYkNViIiIiIiIgpKbLASERERERFRUGKDlYiIiIiIiIJSt2uwxsTEYMCAAYrPhgwZgsjIyADliIiIiIiIiDpDt2uw3nvvvbjnnnvsjdbx48dj4cKFuPHGGwOcMyIiIiIiIvKnsEBnwFunTp0CAFRXVwMALBYLmpqaUFpaGshsERERERERkZ+FpKWltQc6E0RERERERERq3S4kmIiIiIiIiM4PbLASERERERFRUGKDlQLIhNnL1+KJ2y4IdEaIiIiIiLpOnylY8sw63HtxoDMS/NhgpYDJuW0prkwtQ+6XBwOdlU50IZ576XXs+WgVHo0FLv3t09j90Tq8Mj0i0Bkj8qNUrPrNnfjHNQO730x+nWDaVTdiyx/uwlbxnz/3yx3zF2Pr/1yEy/RevafMwmY/54E8k86Bzt7vXZUOBTOh/t36h5uxOktdMeRg/UpHXbT1tlEID0gez0PRU/GXN97Envfux12Iwo2PrMOe95/CM2Nly5zdhY9/rET2dStx07CA5bRb6Eb120jMH/8QftHwD6zK34Jq++eX43e/uh1JxQ/i90UlyMp4DvcNHYDeqm+XHRX+rjedSwzKNdSVvqNI12M6MYvwxIRLkRqqWAvyDjyItWeqXa/D+jUe3fs6pDmPp2e/iQWp0apUlOsBAPR9GC+NvhDRLtajSE/1N1fbIijF9p33451GYT9fqK7pmg7ivd1P4asW7b+72u+m2ctx+4QQ7HllLTaVaSYMDJ6BB56cgcxIC3Y//iz+9qOL5Vwy4eq1SzBr8Dkc/eglrHuvQvnnqTfhqfvHwmD/oEF7uQ75CUVV5/Crfm4WmTILmy9Lc3p6VLj9DSz9tk32SQ7Wr5yCYb1qsef9D7Cq4Jwf8+kNIR9h36jz5/jbMNXGOG9LKlb9Zg5GlGzB/E9L0NrZWaYg5e5c8m8a6nMSxbtx9V8PoFn8ddpVN+KRsQkIsS/gYzmbMgsPj+2Ff7//uuZ3p111Ix4ZbMba9d/iK81Vq/Nbis+e/CdeCdJC4nZ7NOs2je0ZMgXv3ZKG4x8Esl7rWnfMX4wbQvcozsEe7Tw8xsEhD8sezwMgnXMBzk4P47b+aziEshpgbJT7dVR89DzeS1qJW+++F6eXv4gdnZbb7q0bNVi9ITWyfF+DooEaswhPTFiA/40eoGoEek5H3mDLyngO9416BU/KG3H2Bh/sjdyHsk8pG+XyZTQIjdo25B1Y4mjE9n0Yj2YMxBP2xuJITEhKRkXJHrSnZOHSKNjzXVD0AO4sgiOPA6340EV66oa7u+0VGtFrsD5a/Z0cXDFpCHB8E1x3rppw9dJpMDVa0RTpahnXBty+FPfN7YeSH07AOjjdeYGpN+Gp+4ej8qPn8IjYQB398CO46/o78OsjvjSOO0rHTemUgRhSdxi7q7KQNSIVYQXB29CzHtjsaIhOmYXNly3CPxI3s3FKAeP80MThjvmLcUOmGZ89+UGHG4Z3ZA5Ar+I9eMKXm/IhU/DeLTno9dNmXCmWlTvmL8YNv78S8LXRumsLZu/y4Xt+o2z4C9tzM0wBfejW+b7b+AFmbew56VAwK8XqF14LdCbIZ2ex6+Mf8avHpmHaTcOw4/2fA52hoMSQYD3q38CjB39Cg+EXuKlfgs+rKSj6K76ztiAlaSZSNdPJRUFtC2KjB6CP3pXGLMKl/aNRdvRxZY9rxdOyxiqAmEnIijuDguIvUVDbD+MHzYLvW6JTxdNYf/QUIlMvxdWyJ0ym2ZfjAmMVDn65Ca46Vwfcfi2mm05h2+cn4PVzh8EzcPNFrfhy2R+x7jvtbw8YmogoNMJyxNGb+p/vCmH1Ni0djlRW4VxNFY40A/8qteIcqlG61+b1eu7IHICaohN44vgpxI8ahcXd5XHTri34uPAcDBmDcDFrHAo6ORid0QvWAwfweoCfptwxKRvGk7vxa9mDnbfe3Yzvq1Jw0ZU9I+TzrXdz8fO5OAwdkdojtoeISFsTCiw1aLNacASN+Ka8Bmirwol9GotWbMY3BxtgmnA5OJxVG68XelX8iGPNF2JQ0iQknNnSoVXVNZzCWQAx6j/0vRoTDb1RdnSrIpTXnaykLPRrOYgPS92HO2clZaFfbQFeaTyEmMpyTBs4BuN7b3HZa+svBZUFOJN5KbKSBwJiA9rYz4CoqmP40VXv6uAZuPmKDNT/+Bq2VIzHNG8TPb4Nz90u/pymvcipt3cg76LbMPG+O3FmxWvY0nsGHrh3LCILNuMLP/eu/uv5h/Ev6ZeP12Dyx76sJQejM+px9MNStBbE49glU3DB5FBA3mMk9s4YHTGNTr1KzmGP6p5dIVR3cqK0hKx3RL3+6Yuwdbr4c81h/MlliKOougbfnlOFOybOxj9HaeRlyixsviwUG5/cj75LHPlx10um3l/rV16A6g81enHs65anJQtb1NgWoQdO1trWs72aabrfHnU6ir9L6/iHFVNvchwHj8dYFvp6x/zFmFG3B0cG/hKTEkNgPbBb9rOsB1x9rDW21/lcAqx6Rl1ord/NueS071WhvB1nRWV1O4aNGoXF/yxx04vpHFps3/dOZW8iPv/DRPFn4by23SzfjgTcv3IE7lesZ4TQcD5YBeVpVYpT1e2YnDEIF/cSd3B1Dc7NuRFb7PtfXo7VZVjcygPqCAc9ocfO65LWs2C+p+1xX06tVWVoVZU9402LsVVaQHXe3hC6B1fvjMHb9v3sfai0u7Lhanu9Pt9U26TcF+r1y88TL0PQ3abjr+1xDN34V+xMzJOOt7o+cDr/Zdui8xjr217P9Z9Tfa6Vhrv8AtBVNpzC3Z2Pn+frhjod1Tp0XDeUafgwfEDcjiLN60gv/Nubc9JpvzrXSx7PpQ6nI8+/N/c6cD5X3FwH79BV/zXig6eW4wNpfW8+hglvutqos/jPT8W4akQS+g8DwE5WJz20wZqK6VP/gen23zXGfHqtFJVnW3ChovfTu3SyMm7DNEMTCk7mohpAMgBEXoBbL/4HbrV/f4nz9xXLCHmRQpFTohPRu/FnHHbb8BTDgSvXCw3hygKcyZyAUYYEfOXlPolNXYD/TV3g+EBjrKxC/UlY2oBB0TlIQAmqYUJaYjQarRWwuPjK6Bt+gcz6f2P9c8eAqeO9yp9++Xjz9gfx48OP4K71a3A1GnD0o+ew3K/jV/1oykAMqSvFuqPnAOThP0WTcENmDsK/lSrXHKy/OQc1O97Ara5uFKfMwsNjz+Jzl2GPYgVe9wOufkFc75RZ2HzTjVj9/gdYVbALt67eBa/HHU6ZhXmZvVC4PQ/NaBPH0+gZw5qKub9PReH2NzDz2zbhAjR9FpZ8r+eCbEVldSz6J4cABcq/TEuMQ0iNGUfPQbggDS3DNY9tcezHlVNw/4IafCteuKZddSOuNxbgT497eVH1cnvumL8YN8jTGTIF792yCC9DecM792bgsydfxSutcN4nU2ZhSej3uOoxecNzIv52TRXmfyo0dgyjJiJ5+xt4Mn4eHhk7EcMPbMbTRZOxYrDQIPoqU7hIy8+lO+Yvxv3LAIgXa+FmQH4uicdT7644pu9ccton4vKf3wY/NlpLsfqF77F+5RTM/f1dmKvZcBDS7XvQEaorhboLx0faHjdjE999HW/B8xhWa1WZU3k4Wl2LdqPsg/SJeDDhMP70+Af46pyw7+f+9yi8+dcDaHYKD9Q6Ns7bM+2qG/GIIvRYvJmuO6x57r+lc3vU7pg/CcN6leKz79uAVjFcWc/4xvSJ+Dy9VDz31dusg4eyIYRfz1bWf76wh2CL57bij45j0+ExrG7TgZiGH7YHgGHUbFx6YDOufKwErWJ6C68+gR2flqB1iHN9Me2qG/GIdN3Y5cUx9shz/bf5sgTstY8fF84TRX0hNtBqDsjKsoKOsjFkCt67VJ6OM8/XjVSs+k06Dj/9KpaJmbhj/mLccNNsLFE1rNxdN6RyKDVuvbbrJ+weOxCTFfcTqZieEY/qA1uwWvexysH62aF4+4lXxe0Vy+i9F+GorG5wey75Kx2P9zo6yobGeS2/Dvpa/7lz9udK1IYNRVIK2GDV0EMbrB0fw+qvdFKGrsHbQ8Vfmg7ivR0PKHs1pfGpEYvwxIQJ2ivxMIbVIykc+JD4dL7+JCxtl9p7i71psnoaw+qZEf0MUXC5gqk34YZftmH34x/hsM9p6JGNhW/fhvERx/D5sqdw8NKluO/6B7Duws1Y89AOnO7UtLWkijfLEtW4r8wBqCnaih1ihXi0uhbtYwdiYdgBRYWcqbjoaKfj1DMrmXIhJiaW4bNXZN/f9RN2j52DEV6OmTWMUvecvurT+Dv5k+TvDp9C1Zg0mAb3AnReRA2JKQiD2Bsk3hwCEHt7ITScjsm/ITwMGKa+7sen4qKhvfBVB8fcudyetkm4dFA99nyw03HRO7YL/zqRrXowUYs972+278vvqmrRDllmd23BLfIEjxWhwDpS2VipOYwNO9uAOcLPb35egnNzHH+WwlJvl50jb+Xm49Jb0sR9kI3rRyfgxPaPO3cioCFTcOmgXijcsUt2I5CHZV8PxObLnM99TzLlvbhQ9zhKE5MIN1ATblqMrbIn8tOuGomhvUrx+T9lZWDXFnycuVh1fLqIoleiFKv3lXi1T6ZdNRJD6w5j7eeO7flu4yEcHe2I3JC2+bMXO3ojFifuT1Hxblz9mC/7S95DUortRTWYNDgeF/WCvvzpKRsAkO79uRXU/LE9xfIwdSEioa/4pzsmZcNYexhv73TUF99t3IncDO+vG565q/9SsWrsQNQoGlnqsiEs06tYGXYvp6dsCMSwdnfb5/a6UYrVLygf9b9VeArzMp0bnR29DrqnUX8MyUCWoQzfvuLNscvDsvXK9QplVLWYm3PJr+m4u9eRuCkbnq+DnTX+PgwGdrFq6qEN1s6QiqQ+vVFX4SKc1wXdsxPXv4F/nZ6EBWnXI/WMmx5LLVF9MaI3UOqiQSuEDVdhh71Qfon/VNyIC41dEBYckwZjKFDXkCe2US04Y20EQrQWzsbChWPRtuu1Tp/0aMDtFyMn4hg+X/EatpwE8PbLWIuluG/uxbjl1kN+nilYD3ehPOIYu28cPS/CRStHViHnYdnjEHqfpBAzdXjLri2YDaFXSLpx15q9V9lwFugO9ZSWdwo/9EUtKsvbHb8ec/RieSaGUSYkohfiMdpQB2uCcHGyJcShuloKu9QOn0Sx48fvNn6Ap3AjHrHfdPs6S7Ob7RkCON3Ya+TFM+0Zcb09fkiXhypKanEcAIbEwxhSi+Pybek0qn1mF+v1DZu+cHJlw1XqwQMA1NQKvfJqCV40mnSQHrLIy87QhDiEVB/Bt+eA/3b5TS/3SfwIRRibpFD+i6tt9oqfZjVX5eW7jR9gllcr8Fw23nr3dWD+YtxgrwODe4ZmT7pse6QHgCqGhET0greVT8coH5ZKlHdU1mp12L2Kp7JxbBdu/Tvw3i2OtNTXPD3XDa1hFeq8duw6qJP4YPqiKwfi9U9LsGBSNown9+BNL88TpxBoAKgx+y+fetPRca+jq2y4uw52mlZYT7OxqqUbNVgP4VRDCy4RQ3LtHXQxaTCG1qGqoa5zk+87DkPC61BYKQvn9bPtJ3Nx6YThihl8PX6n4hjmpQ5yE94rhAP3jhygCisGgAyfwoK9kZWUhX6hpdhZLl20zDhZ1YCoIX1hBJSTLk29EIMNgGHKnXhlinI9E1euwcQGWQOzg5L6JyCy4SiKZOs69e1RlF3h7v0zATJlIIb0AnqpeogAwKjo3XFMX+8ydFI+Y6gipFGqyLv3DZqcPYxyykAkndyFf1lnYuzkgTidEAJrcZkjBDD0iCJsS2vqf/lMnIpwN78+Ze3ojX0qVv1mMoaVyB9UeBmqK3E7tqwGlvY4JGmEW3edOpiPd+YMs2JPu1FojLqdIs3Fzbqvad7gdJOf42Jsq5qX+8SXsWPdlv6yYQ+xhB9maA4Cgdwejw3DzkjTHw9L9ZQNxQPHKXjvltl4F86NVpfXDa3XX/ka1tthUi/lIFzcKx6jM+qx58ODXkVBTLvqRlyfaVbcPwjhsv7Nqe50PN7r6Cgbfp8vwb0+w5IQ12pFoavZSM9z3WrOzu0Vx5xm6p2eNgmpLUU4YO28Rpf0jtO20k/wZic27oRZgvth+sjF2rMIa6n4HLutkcgZtQb3yWcwFl9rI4QDNyHvwBLcvu1m2b+38VNzLNKTJnXabMHS+10rjj6vaIBbzljRmDgE4y5QfWHn+3jkmgexRP7vT/tghQW7H38QS26RN1ZNuHrtarzy6Rqse/Zi9Pcyb5Wnq9GUNBKzbnUEo4y+4RfIjFTOHAwAv7pnLV5++WU8cr13gSv+IrwmYzeufuxVzJT9e3JfNdrTB2Kh5mOnPPynyMOtwq4SHDun/j0Vc//b04vFhTCezMycDryAXOgB7cyZg7+rqkV7QjweGRyPY4dL8UZuPuIzM9DLZa8d7ONt3a738ClU+btz8VgRCqyxmDBrKi7z4/6YdtVUTFL3HnvwVuEpnEufiD9f5OrGSX38XfRS6+LmXNLcJzlYf0kaajp7Rl8xHNladAI7zonHPG4EFl4tm6l3yizMy6zHnlzvbuy+q6pFuxgqqPZWbj4saRPxt2sc6dwxfxKG1Qmh29qb7P0+0dweF8vcv8B9feBue3Q7JjwE6cqZg/WUjbcKT3Vag+toda2b+rtzdMb2aNUXwr4tw7fyEPpOP8ZCoyth1FSsynJ1LkrLzMZ6F/WbnrLh5FgRCqzuLwqerxtCOQ7UTfl3Gw/haOwILPxNDoaW5Pv2Wi65IVNw9xh173En0JOO+l5Hg7pseL4OCvxS/wEA+mD0hemIrjiKfexg1dSNelghviZFeJfp29JnmuM71ZMheRGaK1JOLuRiMiQ/pKN0CO8WH8bE0ZdgacZWx3qcJl2ST+50CO/uXYBT2W9igXy/WL/Go3tLkJWRhX4tRdjh1KD3LSzYadIl1f5XjNlFKbbvvNmpt9i8+UscnLQUF1w+BykHXb/axnfi+FSD4xPD9Q/gleuBxgJhjOopKQRY/BwA0HAMny9z7sE1W6rRiigMGDcPU7e8gp31fs+wG0LvSuE3eU43xYqw4LKJTjMEC0+JHU8HNWd1PbAZ8+1PHDXCigE49/yVYvWWQ3jvFlm4jA+9NW+9m4vRK6fIQq/83LtbXgtrXA4mVu/G1QXnABShYNYcTE4sw2diT5QwJiXHkYeaw/hkfzWuSXSsRiv8qHD7G37uXS3F6hc2YdVv5jiFoumfGVkaizRRERa+oXACprv/opJGOBUA2TF2TFIkpVO4/Q18mH4HZniTjpRnl+eS9j7xT7i5jMbs2oBqv2uEAPrcIy6NfZWFf9vT0kpHVbaOVteiPXOE06yUN+s6R+BmewBFGTy2C7eurnGqD5z2v7vt0U0amyzLj197N/SUDa0HL8Ix9qZOcqovpMgY1fZI4zwdQzC8O588p+Of7fFIs77Qqss7+xhrheE6p/Pdxg8wq0qdX9m+11M2nGYIFtOQlQuP1w0xDHeyPGR4+yFYLvamC8E5zF06n+xl0CmvUhlQH6M8fPSfkcLMwFu9ewgHOMb5zpWH2H59EleN83JFfkjH872OjrLh8TroWK7j9R+APqNxYXo0Kv6zj6NXXQhJS0vrioFIRAqm2ctx/5WJOPjKo/irq9fbBI1f4Z61N2KkZTv+8NRHCNJ5hImINDhmPfVrQ5+IehR/znhL3uiDKUtW4tahp/Dh8hexI9DZCVLdKiSYeg7z5nV4e087Jtx2H+akBDo37g276SJkRQGnju5gY5WIgtuQKXhBFlIszPZbi6OHS9lYJSJt0pjaLTvZWO1ifa//LW4dcRbf/oWNVXe6XQ+ryWRCQ0MDampqFJ+1traiosLRnMjIyEBlZSXq62Xxm+JY1Gg36+/4a1tIPxNmL78fk6v+ikeDsZt12E1Yee9FMIXV4uDfn8ArXRsLTETkE2VInJ9m6SWiHsdRV7CeCIg+U7Bk5X8hdOtyvMjWqlvdqsFqNBpx//334+zZs3jmmWfQ2tqKIUOGYOHChWhra8MTTzyBpqYmDBw4EEuXLkVNTQ2eeeaZQGebiIiIiIiIfNCtJl06e/YsrFYrLBYLWluF4KaamhrU1NSgqanJ/pnVakV9fT1KSrr2/V9ERERERETkP92qh5WIiIiIiIjOH5x0iYiIiIiIiIISG6xEREREREQUlNhgJSIiIiIioqDEBisREREREREFpW41S3BwGwPT4tXoX/M3HPzwY69f0B592RsYOXkAQsXfbUfe8Gk9XSKlAd+/XYlU6XdbPF68Oh7P+WHVg39Xia8va8e2x/pi0R79eUk2J+Ge26Kx1Q95ICIiIiKi4NANG6zXYtADdyHqP0uRv60w0Jnxj1HPYvjkeFRuvBUn9lu8/PI5vPTGKVw5UPWxqhFpvKYW3yypRqx9gRCc/tqEXz7r5SkQ34zP/lyJpLz+SL8v3PnvKQ34/m0rqt9Oxez3tVbQjnueOY0Hx7R0LB9dxHhNLb5ZbMNurQa0uuEOAAjFIfW2xzfjs9fL0f/HTtzO+GZ89vppjI5Xftzq1JB37H9bXn8M0zqGXUI4b2fUaOVBfY4InLdFfMAxvbffHpgQERERUXAJzlbCeSZh2FCEn96FMq8bqw7uGh+Df1eJr2facOjtNBeNSP2M05swuE8Uvv3Al4aO2LjuF48XrxAaGEJD2owf4GNjriwak69I8yEv/qJscA/+XSW+vr0EP6QHohGuo/Ef34LLM8/h590JMI1pxAMID96Gnvyhi9ggf/Vz//XmExEREVHw4xjWHu8clo9sQKvZgPUdbKx2lPGaevzKFIVtTzgaHJZP4zB3axT6TzmLBwKaO/84/r+J+GdJO5JGNGNmoDOjwTi9CYMjY/Dlukgcb6rFvIeCMujcWU047vh7Auoi6jH9pkBnhoiIiIi6SvfpYR2wHCMWXI54KceTXsbESeLP9QdR8OoDsA55FmPnjkJTrjJcWBgfGo/KjXfjRMWvMWLBJDRt+Ry47FYkRwnLOI0ZVacnpXEWqvU6xp0CgK1GnmlhXGu6qbf4ex3KN94thP2q148ZGLNqhvhzKYpfXghzpY/7SiEE+ZW9ceUYK5bdFI2tLhutzqHFjl5b57/NePwkisX1n/7ahNkFDYqQ49TbT6L4duFnIZQzCoMnnkVsWzQKVKG11SfCUTezDtNviscGAGgLx6mUWuR9Ia1PHmarN1xUnWeNUF2NdUnrOfq7Snw9s0Fje933ZkvaLGHYqg4ZvqQMxZdIK3H0FNrDWudHYao9rFcrvx3VjpsmnkX4USOeq+mNhsIwLB/RjJkIc+w3jdBi9fY6h5er8+om7Fu9/oGnUfyF+HNrlOexy63hKCt0Pm73flGDezXTEkKxb2muth9PrdDisQufwqJxCajY/Wf84Z2fPe9KIiIiIuoS3afBemodDj+1Dm7HsB54H+YJ2UgfdC0isBY2AMAYxA9KRuuRv6FkvwUYAACxSL7qVtTmLsXubYXAqGcxdu6NGDhmu6IxGfJv8e8AEq7fgOF3PWdvtAqN1RCcenmm2LAUJ12yZ0ZsrIbswP7VYl5GPYuxc/8C4G6c2C9tj7huwy7sf03Ksz+F4KUVych+4xSuvP0kim/XChsVGnczw5Jw1xXijXxKA75/+zR+Xis0Vu5ZlIZ74G5MZxxyPo1zM4a1HfcAaK3qjYOqHFr2hKF2ieyDiBrcvjgK21amYdEesXFySw0eeD8ezyEEL60w4SX5ep85jeX95Wt03h6hkVWKzZDyJTZoTVHYttLk3Ej63ySk/6+HMawaBv+uClcODMWhr8KBsnAhXFnPGNaIGtz7YT0OvZ2G9PfV2+wnYjjwsQ1C4/P93X2wZPFZzJsQja17AOAcXlp7GiNK+iP9BhcN8pQGbFxSh5Muw8vFvGdH28O+hXNCCvsOx9wb0uB+DKtW3pvx1i3ViKpIwsd7QrB1j3AOeB7D2o7+l5ThS3MS7roiSXyIYMFjD4Vja5COmyYiIiIihx4WErwf5j35aO6fjcQk8aMB05HQ9wxOf62ccbdW3gt74H2YzZFIGDodYQASJk1FfOU2HJc1iKtzd6ImMgMJw4wArkXymAE4m/uk617QUTfBZDqD4g2yRqgqHX+KyDmN4i9O2v8d/2uDLCS1F+5ZlIb0KwbgnyXCDXzxF6XYLIZWGq+px68GhqJgq6zXqSwa87dGI2JoY9eH6ip62kLw0vp4lHoRCiqFHm9/2bE9lk9j8E1JG4b8otmxzMBQHHpX52zELkn7U9jvX0/vjRev8KVnVN5LGYL3d/dBXWgzsib4npfiL07i57XN9r9K4cDbxbxZ9oShNqwJF0xXhgV7PuaO/egkpRG3jjmHQ3+XNSDLovDe/jDvw6QjanCvtC0flqP/jykY7MNM0Ioe1bJI7C9ph6HfOcUy+958BEuXLmXvKhEREVGQ6XldDAfeh3nCavS/ZB4qPvwYMZOmIr5yFwp1hNdGJKQ7wnv7y0N0JXVoAoABgxDZuw6NlTVwLxXpS7ciXfWpzdPXfKBvxtdeYk+p2Lso9uC9BYihlhpfkRpNHWrUOYQltuACQNHoME5oRVxrOPILAZhcffMcjOmt0H3KhjUqwnglin3vapu94qdZjlV5sXwah5xP/ZkXIRw4qire0cMtNt5m2sOCe+GeRQOAN045QmzVrywqi8bk25Pw/e/nK9EAACAASURBVNuOUF7nc68NI2Uh4fZNNHu5OX56XVKbRRbyLJYBIiIiIuoeel6DFftRc6IcAy78JWL7tCEhow3lX/1VV6itrboYbdIvp7e5CdE9gaaWyxGVFA/A3cy+/hyL6k+9sO5QNK406ejBawt3GnPqG6HXcMkFNlUDWGhI2ce2TnGdZ0uxF6ernvGQ55P4Flye2YKw+Eq8+oXqb63ysOBe9vBvKWz33s8BqBut0szMqtBxQWeMvyUiIiKi81E3DAkuQlN1C+IGXYsIF0s0fLUJlaEXIGPhDUiq2e3xdTHRl92DASZH2HD1z0fR3H8GBs/I1JkH9eRKAA7shrUxFenX3ecynwET34x1kxrQWtEHH+8BLNsjcfxsI6YvlYURpzTg3ZmNOL2rj3c9XGfDUFGjHTJq+TQG35gbMePRGnvIqfGaOixRh5AqnMNLqyuR7MUsx5rb42IZeV40l3MRNuuVmjCcqg3szMHS64i2rUxD+hWyf7cnodTl9gkPNtwqi8T+EvXvbRh5i/v9Kk0G1tGQ8+oT4X6ZOXjswqfw8ssv40//cwX6dWxVRERERORH3bCHdT/MW7YjYcHljpBdpxl8P0H5/jlImhyPyo3avatx6lmG18q+f+Ah7MOzGDtXtowinf0wv/4WIh+4y56H2tylOFL9JwwKceThxHMAZMsIZDMFdwWNWV8BIYxzsNQjVhOOuYv7C++5tPe++RjqKr5+5JsljpBRxxhCjZBTVW9c9Ylw1IVVO83KO1jPxDyyPDhvjyqtmnDMvWGA0INoz4vGDLJl0Zi/tQFfz3TM8Ksv/FquF+5ZlYTv35b1bvop3FUfMRy4Ih4fq3uc5WHB8eewRH2utEZh22OOfDrPECzuM/v+0DrGgPP5FIKXnjbi8tdPO5bzoVfc8mksXpl4Fg/aQ5B9O2/37T+O6nHjkDBgBMb0+wJfnPHq60RERETUSULS0tLaA52JzhB92RsYeaEVx1SvopHPAOw0yzB1Q44ZgdWvKiHSbywWPrUI48J/xmdr/swGKxEREVGQ6IYhwTqMehbDJ8ejcvszysYqdX/xzdiw3hHqK8z2G4LKw+FsrJLPBs69DCMTgIqfNrOxSkRERBREumFIsGvCu1EHILSrw26p69SEY/HXTfjmi5N4FYDfZuml85TYs5rQgJ8/+yP+zNYqERERUVDpsSHBRERERERE1L31zJBgIiIiIiIi6vbYYCUiIiIiIqKgxAYrERERERERBSU2WImIiIiIiCgoscFKREREREREQYkNViIiIiIiIgpKbLASERERERFRUGKDlYiIiIiIiIISG6xEREREREQUlNhgJSIiIiIioqDEBisREREREREFJTZYiYiIiIiIKCixwUpERERERERBiQ1WIiIiIiIiCkpssBIREREREVFQYoOViIiIiIiIghIbrERERERERBSU2GAlIiIiIiKioMQGKxEREREREQUlNliJiIiIiIgoKLHBSkREREREREGJDVYiIiIiIiIKSmywEhERERERUVBig5WIiIiIiIiCEhusREREREREFJTYYCUiIiIiIqKgFBboDHRU9JwM5IxuxrHny1BVr7VEBEzLBsNUXYKf3qlDa1dn0O9ikLkqA1H7CnDony2BzkxgjTdh3Dwjws1m7HveAlug86Mhek4GcqYBp9YVoexMoHNDLgXRuWSYn4XhI3ujdqe6jAt1WUaK+JyxrgoF6nov3YjsRSbE9xZ+teUX+1DvCXVMcrT4axfuE8/1OVHHCHVyDFp9KhtdTCrPTRplnYjoPNLNe1hj0H9cDM4eqHBdkY9PREpKA05v1X9hMszPwqRncjDyyt6OD9ONyH58GDInhHqVQ8P8LEz6rRERXn3rfBcB07JsjF0Q2y2eqPAYaxhvwrhnMpDSL9AZ8Y/oORmY8PsUJMYEMhc2mNfnI3dFHg58V482rUWKLchfmYfcFUdRVHbOx3TqUbg6D7kr8nDkUPd4KNZVZZBlnYiIqOsFrD3w9NNP61rOarVizZo12n8cHwtDWxVO7HB9U2UYEYf2/DKc8bZ3q64JYSP7InEHn2oGrb1m/LjXHOhcUE8QROeS9d0C5AY6E0Q9VMOmIuzZFOhc6FRsQf5KS6BzQUQUcAHtwHrhhRdgtVpd/j0yMhKLFy928dcImCYb0F5SglpXDcp0I0zD2lG9scH7sJ/6eljbY5CQHYqqPZp9GURERERERNSJAtpgPXPmDFpbXTclW1rchKOlx8DQtwGn33cd6hudE4uYSguO+9TgbEH592eRMyUBEXu0x29JY83s7GO9VGPNYMLYZ0ziz80o33AchV7kySkdALWK31RjzlCPYtmYScP8LAxPrET+sVhkTYtBqJtl9n0KDLaPgVMu4ykdgXrbncfRqbfH8XfV+lPS8YtnNNLyOE5PGud7AlWZ6Y68qMfiSeMWVftb37g/L4/xBSaMmyGl5fx3aVyVFHDunAfn/eq0Par9ojnG0Q3huNhUx1RMN7basS436ai3I315DtJdbpMH6uOjsT1OZcPLbfZ0LqnXn/Voov1n5zGmbrbjihCc0MiXvdw9b0GoYt95X090NV/OWad9pj6XAKCuSmcOvCiDTmVdq+7qinQ8149upRuRvSgW1TtsMM0wIhz1KN4m+1ldp2vWs1I+I2D+oA4J1zn2v/34iMcl8qgqb+L2Nek692OQuSoF2KpxHkvpS/n1UNY9Xp88bQ+c09A+F41o2ngamJlmvw45HR8d1w112fDufJP2nbtx5I65OU62p2CodJy9rf983R5ZfgzzszAopAJnEvpjYEov2PLLZD+rzzlZOhpj4ztcnxNRj9UdhghqMlyUhPjKShx3eQEQx7fuK/V9spC9dbDOToKxnwVl6vTnZ2F4Wh0KnpAqU+ECM/a3wL7nLTCvz4cZyhtSX/LhKp0o2XZmrspAQlEx/i2/uCzPAOQXSJMJ2TFVKHgiD1X14k3TzUZY5PkymTB2ST2K1+Uh/4x6GT3piBfZtipZfpWi52Sgv7UQuSvkNxHpyLqyAIf+KYydK/Q0UZY9TEpczsW+i5s6CNhZgNz1jhuwIVfWOm7I5go3Xj/+s0WxH/XdPNq8OMYxSJ/YLO57cflJCSgVH4Q4JmbKU+zHCxc48mKYn4GMkHLsW+EiDXH7Qn4oQK54E2aYn4Xhv03RfcG3fluJmmEmGCb0Rpl0I5ceA0PfVpRvLFc0Vl2mI4XbqW9IvZVuRPYvm5G3Ik/cXmGfZC202fdz9JwMDFWUDR94OJek8NwOTQZU0YzGyFhERgNQfDcCkYZQ2KzNaANgk/adeOMczPSds6mI2l2AXLGxInxnEDLPiA0YjXNJ2M96c6GzDI43Ydy8WFg3HLY3nAzzszBcXUd2ejpinSovx+lGZC9KV+w3z6T6pAgJyzOQPgMoXleEyLsz7GXXfT3b4ljPjRDre+n4pCJlTxHKii0w/5yE4WmxiIupczQcR8Qh3GxGnq4J/1rQWB2GxH69ANWI6+jkCITWNaOpAbrKOgAP1ycP23MGsrB/9TVULhzJ1/VH+YbDwnk73oRx80xIm9DgOGc9XTfGmzBCUTZ8IV0LpXNOe6mI7HSk5Rfj3yscD3wzrqtDrTcPQHRsz2CjBftWFAm/i+V25IJm/PROnZiPFMTvLMCB46nImZaCfvnFyDtuxIjR4vkzXF02hOMn3S/5rT4noh4r4JMuJSYmon///k7/3IuBYVBv1B6vdd0IHB8LQ3Q9rHs6MmlIPU7/CPSdqZr8J90I07DeqFVM9lSPws0WNJtiYfTXRDNiSHP5tnKXFXj0nCQktVWhaIPjAtWwqRKVDTEwTHD1pNIG8/dWjbzKnwLbUHO8AW0xEegToy+d6DlJSIquR/Hrri84DZuKcFh+s7O3DtYGL/eLTrb8YhRIaRXb0CQ/FfqGI6q3/Pyoh/VECyIM4fBuWi09lPvEVmWz71f7g5WdpbKbm3qc/rEeYQNjESef5MfNuSU8wDHjmGzfWr+tRE2kENauS7EF5p9bEDc4zj6pjBSlUCrdgPsjHZ15yX9J3igQjo+TWD+n22nCEZkRCuGGUDmhm62qKbhnKnWi75y1vluo6FlryKtDvewQap1L/icMHQk3O85hIW+lKFfXkZ2dzvhEpKS0ojy32nFeF1tQtFujrHsgv/bUKo6DQF8924zyDSX27zaU2xTNSudyHQPDoHZl/nWISIxEGDQmrKq34Ww99Jd1N9cnPdujV+3OE47ztqIZjT5dN/x5brlhNuOQvXHagsZqLyda07M9e804KG8AF9fDWqFKp64KZmkukTrhPsGx78XhW/lmnLSXDRf3IN2mPieirhbwHtZ169ZhyJAhTp9PnTrV5XekxtMxl5MtSRVkifeTLak05NWh5aZYxEWrL9HNaDyjdXEQb0zP+CGUr284ono3o7rIw7piExWhipJajUWVVHmVnniL5JNTROtNR7UOJ1ohgLry6mcVzWhsMcp6E4WHILaiZp9ucjoqbmoWJqlPeVlopPXdAhyZn4Xh9hBbjRAzkzxUUdKMJi/yYf22EjWLjEidUI3CPVHaUQp+SMczjRBoAJDNi9SwqQh5yEDOdSOQfJ2Qh6AMoy22oaklHFH9egHjY9HH1oSowXGIgA1RCa0u6pHg5+mc1Q41lM4TZe9yZ3OVjtCYavHbAwO36ZwGgGY0adXnseEaPfAd4I96VuplFaNBQuckIamtHsfy9R4xG5qsbYhIDEcoYmDo14aGhFgY+1nQmBiBVqtF3FeeyzoAt9enLqPnurHXjB8BjJvnKB+6hw90NV3XQfVQIIGt2rukIrLlQ3wkjhO+29TnRBQQAW+w3nbbbV5+IwLxg6PRWmJxM9mSEMZYvduHyZbUii0wl2UhZWwb2nV9wcUNiS8qmtHYEuu5AezzOA8v89rh8SQxyPy1MC7q3/Yntu7Cszqf/Kbbt3dW+oeeGxr57LGaIY3+eF9mcT2sFckwDY9G2LkY7Vm4u+C9nIb5GcK42SfU49iUyykeqszJQM51gwEE202O0PMRBcAwIgpnt5/B2ZmJMI4BIvU8kApSbs9Zp1BDqEKd5Y0ZBKyHuat6t4V03HShenrQ5xX/1bPWw7VonhcLY796tA+OxtkDpV7V/7YqG9oSITyoqShH6ZkUJE/og3ZDKGyFTY7hDjrKejDxeN2Qzzo+3oRx87IwEkHaaIW77YmAaVkakmvM2LdaqvPdD8VxRc/1tXvU50QUCAEPCfaajveqCqFmytCsjrAerkVkRizsD6uL62GtCEPyjGTZexljkDnbiPZ8i6JX11ZlQ5uvYcJiz0zC8GjxyYLzk86GvDrURyYi4zpv3lmqnVd39KQjLZO1UP97Cg3zU52e3NpvZr0Mk/OGFI64b4XwvsncFXnY52NjtUPHWAzBipua6tU7S62Ha9Gs/t1kwpArOxqGJoRqhWSbMPJSA5pU7zjWnU5FMxpb/BgWN96EzJHu16UOOfWnhnIb2nwOV5MaZ4kw9mtCdX4tTv8IxGeHAfX+bKh0FV/O2QiY5iYrevzU5cZ5ohr9XJdBIXQ0LNuENNk7tA3zU5HcJgtj7Ip09tbB2hCD9Jtl9WO6ERkTPbxL3A+061kd9lahrCwa/W8fiIGx1V7vr4ZyYfhD8oVROHukAZXfVqI9PRa9XUYoQVdZDxSfrhudOOylo3zZnug5JgxU94a7pV02POnM+pyIup+A97B6S5j0oRIWN5MtGQb1Ru0+N+NbvbW3CmWTDciIbYUwxYAN5vXHgWWDFSGyWk8QGzaZUTJ4MDLsoZzehLnUo/BvZmQvkkJphO8WTRwEe6rFFuS/Adkyju8qQkZV4by1Owuwz5unvXrSKbYgf6VNmHxKFjLq2C/COLekaY512PLLUFLWH/Gq5KzvlqJ8VYYsz450nG5spdmEvegBltbvFNrqQy9yx46xVrivwLHftELmhDTsx1cjDM3X7XGc79UoUN+g6k2n2IKi3bHImeZbD7YQmmxyHP+6Kpz4oR5paY5lNGfP3lng1dN43efSXjMKR8RhuD1czbswP1uVDWHT+iJiZ4Gwzrw6hCwyIb7SjOP1gFZYZLyYln2/aYR5CvvHcb75o2w4h/JKIeCOMujxnJXCSafKwyJPoTzB0dJr2FSEo4mydZjN2PexDTlXhOjap3LuyqBzqKGX+8Nv6dSjcHURoKp3/B8uqr+e9Ux4gJUyz4izO4t9nHDMhNRYM/btaQNQD2voYGSkNKBYjCzQU9b9wam+kM5NLyJG9Fw3tB682PKL8ZM3x1hHGfQHz9sjHX/ZMBCzGccPRWCAF8VUs2yI65LPNtzR+pyIeq6QtLQ0fZGufvb0009jzZo1qKmpcblMeHg4li1bhjVr1ggf2Kedd90Y6NBsnj2UfaZh7hORbLZOxY2KtzMF91QeZmkmovNHR2f87jF62nWjp20PEfVkAe1hffDBBz0uY7Va7T9H58Qipqkep11O+qBjfCuRK+NjYYgGmrrdrK3+ZR9T9hZvVojOa7KxyOd3Y9WNnnbd6GnbQ0Q9QsB6WKnrsIdVg+YsmufzrISykFS+rJ3o/CYLSQ3aGW4DoaddN3ra9hBRjxVUDVaTyYRly5bh4YcfDnRWiIiIiIiIKMC63yzBREREREREdF5gg5WIiIiIiIiCEhusREREREREFJTYYCUiIiIiIqKgxAYrERERERERBSU2WKn7G2/CuN+nIDEm0BkhIiIiIupC58F9cFigM9BR0XMykDO6GcdcvjdSeL+kqboEP71Txxdh9zTSi+1/KOjR7w2NnpOBnGkxOLuzAIcOxiF7kQmRR4t5TlOP4rk+P4+o35Hpz/cjjzdh3LxYWHW/bzMGmasykNzGdzR3KekcaOrk/d5V6VBQk+4zWvOd7y0M87MwfKRUGdWjeF0Rys4EIpfnIfG92O35xfjpnXakrcpAco0Z+563wCYts7cKZZMHI2uhTfl5D9LNG6wx6D8uBmf3uWmsjE9ESkoDzO8Lhc/VDZFhfhaGJ1YKB1rzZdoAzGbdJ4JU8EPlH6pvOGQvZ5ez2SsL8SYhWvl3xYvcNfOqqkw8piNRp6dRKdnTU/3N1T5T5VlZ6UkcLyrX/LvL/R6DzF+LDTc3L7aX1um8vfq4q8Sd95nWfu24hnIb2uDq0Zn2eeIqPx3dH/7h/kGS3vOADRwCVPV3Z63fqd4Syet1jXrQt3LmqNv+rfXddCOyFxnRtNF1g1OdZ8V1I9i43R4d10EA5+XD6fEmjJsXAfN503g4D49xkLC+W4BcwH7OkR95qs8rmtHYAkS6XYkN5vUnEbUqAyMXNPfI8tG9G6zjY2Foq8KJHW4aKyPi0J5fhjM+VOYdvsArGqhCRZv1aLiqEehorLmiuOEZb8K4eVkYmyi/CZKvQ0gnY3EKmhQ38R7SkT3BcdwgxSDzLiMiXnXcBEbnxCKmshKl7YkwTOiNMmn/FFuQv9Ii/Oyp8HnqKVA0TISblbG/j3D6TvScJCRF1+PUVjcFc7wJmSPb0WA9p3x4oId48xl5tAJVDTGIc1pAyFtCkWyfjTdh3Lx0ZF3ZlTeH9ShcnYdCWZ6i9rlKPwaGQe0o32eFYWgs4mLqgrehpzhPXJ8HRJ3NfrMGN41jsQ5t2lmA3I6W/fGxMETXw+yubnNJvAbEVqPgCbGsiNeNkfC1XpLXMYHh+TrYA8mvqz0hHQpqDZuKsGdToHNBvqvH6R/rkTTNiH796nrcQ6xuPIY1AqbJBrSX1KHW1c1ruhGmYe2oPtIQBBc04elHeUMM+s+M9f1JwV4zCg+1IGJgLOI0O9xsqDnegLbYcES66HFzJuzLcLMZhxQX/3oUviq/KYtA/OBonD1uQeXxBvQZ1bcL4uXrUfg3M2oiE2G6WN7DIfSut+Zb3DyMiEHmbCOadpbiTKO36UbANNeApo2Hse+dszintUh6BCJ7A7aqJsc+21sHa4O3aelQ0YzGlmY0njkHFNvQ1KJKV6/xsTC01aN6cw2soep9GszqUbjZgubYGCRke/3ogajTGUbEIbyuCmY3D1C7hBhVVPy67MHOXjMOf1ffRXV2F/B4HSQi6iEU93wtaKw+B5u1GVrdTw2bKlHZ0XZGkOq+25MeA0PfBpx+3/XTVaE30ILjusbodIV6WE+0IDlN7Nnq0KpsOFsPwKj+g9CQCzWbYdH7dCU9Boa+rSjfWO0+nE7c59b3W9AQVYf6iUYkZIeiqrP3b3E9rBXnkDE4DhEQG9DpEYjs3ez2YYRhfqow5mpHKyIyvU3UBvP6Yx7yZYH55yQMnzoImWeOo3BPGEzL0sQ0/XzTqngCLvR2+MIwIg7tJWWora9H+4kWJMv3KQB770yK7FmWOhRXI+xRHY2gDol3Geaeko5fPCN9S8+4mGY0FTmHjmc9mqiRF0dv84n2VEd+vAjtN8zPwqCQMpeh4I6ebHXYokZEg1NovufoCiWd26NOR/53e/TDaWBmmj2/TmGrTsdYdmzGmzDuihCU5ocj7ZcxCK2rwgnZz+qoEse5pLG9WkMJ6vTWjOr1mzD2GZN2Wk773v9jsGxVNrSNTITp4gpUuezFdC5fjn3v/Lf05TlIF3+u3VmAQ6eTFNsRf90IJF8n/iIe5+gRcQivq0OT6sFZQ7kNbbGxQp19DgCa0dSSgOzHHftfXo51DWuBvtBjp3VJ6xlu8rg9bstpvQ1n6/XVKY7hA7VIWC4t720ZhPuy4Wp7vT7fVNuk2hfq9cvPE+9C0N2n46/tkaIS8o/FIsu+HvU63JWNjl43lNsbte8EqjLTHWk5bbeO4VFu8yvbbrdlQ8eQIh3XDXU6inXIIt6sWUPsyzlHLDjS8D66UNwO9bhKe5SaN+ek8351qpdGN+PYN+0YdKWUZx/KsYd05Pn35l7H+Vxxcy6N11v/Ke/5zOvzYXa5XWI7IzEcoUAQdNb5T7dtsBouSkJ8ZSWOu+ldE8a3lvo8piluahYmTXX87o8xf8JNjbz3MxzJ8pMUHiqL8SZkjuyN2p21su1SrsOWrzXuyU06fcMR1bsZ1UXuC7vwAKBO3Of1sFYkwzQ8GmF7vNwnsYmKBobnC44NTdY2IC0CfWIAWz0851nsXS/fWI6q+jCYtJfqMOu7Bcgdb8K4eSMw6Tpx368P1hA1IRy4eqvQyLcerkXzvFgY+1ns+94wPwMZIeXYt8LVjaIwti7kB9dhj0IFDpxalyeuV6iwL1wglB8htNDbsUhCb3m4+CDGJoZo6hnDGjc1C6PMZuxbUWQfnz7kylpdF2RblQ1hQzQqfvGBSeOZcxAufEY0/SUPufb9mIXh1w1EU5F4XqcbkT03FtYNh728qHq5PfbJdA4rhgiM/S1kF79wJF/XH+UbDiN3T5v4HRPSJjSI34lB5rwInH42D/nyhqc0zAAAYhMxKM2Mfa/UYfAiEwZlV6Hgb2b0v0V6iBUmfEd+Lo03Ydy8wciEeGMh5l1+LgnHU++esNkv3G7HsDrtE3H55RmAHxutDZuKcDQxC8PF64bz9SLCeZ+kG5G9KN1eNuw3Ii7HJprx416z22EX0YDjgaacOA7KIQbpN4ajfMNh5O9pE8ttKlL2CGmqwwO1jo1hfhaGp9U5Qo/TjchepAw9Fm6m21Gude7v9bw9mhTXwRb9dUpsIrIejbGf+4b5WRg+IxnV+XqHGXgoG2L49QhF/ecLRwi2cG4r/2o/Nh0ew+o+HQB+2h4AJhOyIdZb0n672QjL8xbH727Khm/XDW1xUwcBOwuQu77FXg85rgnOQ32i52QgR1FfyCYhe0L73PFcNiJgWpamHFKkpuO6ET0nA/2thchdIRZuzWFJwv1fQn4x/r2iDq3qOl8qh1KD3us9KoWiKu8nonNiEdNUhWMb9B8rw/xURO0uEK5NkO4npE4BcR/EJiLrV1UoeCIPVfXwoRzrScfzvY7nsuHhXPK1/vPAVmVDm/x+uYfopg3WGBgG9UbtvlrXjVFpDNAe33u6umaSCs9PhiKy1U8T1YVDWodwk6jdOPPlCZQiF2I4sPQAQGhERqT5MA7SD7NdRidHuBmTGgHT3GREHi3Bz3va0JmnueJmrDwB2YvS8YvfB+lMi2I48Il88RyoaEZji1E5FhkATMqLjpY4p55ZifigaGeB7PvixWy0l+eK6sFGra9jA+VPKsXeelNiJMLQou8iGiNW/MNlN4cApN5eoA3m9cWKr1gP16J5pHpiinAk+PKAR/f29ELfyQa055fgpL2c22D+3ooU6cGE+GntzhOOusCpIVOPwrXygyQOM1A0VppRnlsNGxKEn7eVo6ohAf2lP0thqevUsxga7A+5Yi9KQnylGfs6tY6VhjuUo1RW91nfLUX5qgznc7+DpLGuQr0g1Nv268j4RKSktKJ8gyySpdiCot2xyPG2bPiF8prQsKkSleO82CeKh4LiZ1LUiVQ/pBthGtYbtTsLOnwj5vk6qIdym6VyGhkNQNe+11M2ACDG7+dWYPlhe+qqUPCmRXH/AKl67+KyYcsvRoF9/g0h3FJqpEXPSUJSm7KRpS4b0vwZxetcXOf1lA3xYyGs3d32ub9uNGwqwmH5B3vrYJ1tdGp0Kh6gScv06wVoBpZ6z7n+EO8ZD5R6deys7xbCKl9vnhDNp1SvGPIgNNC8y6++dNzd60hclw0951KnkYYFBtt9aAd0ywar/SRwGXYpjm/NL/FpsqXOFJEYgVCNcC139PfsSjenvgy4DkdkRihwxlWPpRA23LjbMZpTuNjHdkFYcAQiDaGKXgNh1lztmeqi55gwMLYax97q5J5O6aJkvwGyIP8NIHuRCRnX1aE2yCYDMYyIQ3h9paPnRSPU2vpuAY7Mz8Jwe4iZuve7HoWri4BVGY7wS40wMnV0AgAvQj0dy/uj4a8c62HzEE6jJIRRCje0hhFRaLVGChea0+GIamrGabEca4ZPyq8UxdK54bjp9jViw/X2COVBeWOvkRcdNGfFm6bQKQAAIABJREFU9fb4IUYRqiixVQNSmXY1DsffXKUT4c2DCy8oGq5TxV5LAI6HHCr+vrmI0Xi6Lo9KcXNz590+cY7cAQBlAZMiETrGP7Oaq/b/XjN+3OvdGjyWjb1m/Ahg3DxHHRjUMzR70mXb00VlQw+nKDBBrfyXumYP93GeyoYN5vXHgWWDHWmpr3l6rhsu3tBQq/xVNeeF78OKXBMeTOeM7ovEHWWoGi69ocPL80TzrRbNaPJjTvWlo+NeR0/Z0HMudQaP52f30w0brMJTm9YSi5vJloTGVfVu5/GN8htQRwXYVTdPQs+wrcjNRFEdJb6LKdGbpzfi0zZ3T/Gic2IR0ztcGWMv8kuvkTvpMTD07YXaH2Q96hXNaGyJ1WhkC+dHaGyMcyWRourx6CitsGSpx6vja/cz4dxDtHycn0TZo+o0I6pT6KTzrMTKkNNufoMmV9GMxpYIADEw9GtCya5GDBoXh/j2CITW1wmN//EmjJgWjkp52JbW1P9OM2k7wt38WXbc3tirW48aoudkYOhIG4rXOXrJvQvVlbgP9W+ytiEiwONsfJq4zAvSQ73IjFBoz9wm8uPNhateQ4OLsa1q3u2TjkbudC+6y4Y9xBJ+mKE5CARyewJx4+2Xh6V6yobygaNp2WBk/RbOjVaX1w2t11/5GtbbcVIvZUJ2KNqzfHhDR7oR2XOFmdZ/VLy60bnns0N0p+P5Xsdj2fDn+7N1ikiU3Z/0IN1vlmAx1Oy0m+n+hfGtFkUImN3eOljVM2iJ4SidO5uwY8xDkRfx/N4TQpT6TE1FSj+93xGejIVlp+PCBfKZxcTX2kgPCfKL8e8VeciV/TvS2TM1Sk8PK804Jr84FtvQ1CKGyii+IFwAchX5PIqisnPC+NIVeU4D5ic8k4NJv0/xfvbMimY0tmidS72cb/rGmzDumRxM+q3RRb9wJxND5IvXKY9f7itm1LQIIS1arIdr0ex2xcIAf/XvcR7PPzGkvIPnjvAAqhNnDhbPs8iL49Gnog61O6tQ1h4DQx/XvXb28bZu1ys82PAvoeyHZZuQNsGP+yPdiIyJ6t5jD8R6Nv1m1+e7rcqGNlMsjOJ5ot1LrY96XbK/aO4TaUK2zp3RVwxHrqtHdX6b9j4R9+3ZAxXe3dC4rP8gPLQsi0b6YlmdJr7eq3xbuct0vN4nxfWwVoQheUay67pTWua6ge7rA3fbo5t/6hSv6CkbnTVzPGC/BrmqvztFZ2yP7rLR+ce4Ia8O9ZGJyLjO9Syr0jJZC13Ub3rKhhMxvNzdIjquG4b5qS7fyd7pii0w/xyC5BmDkDbM5vY+XR9heJe699j/9KSjvtfRoCobes4lAH6q/yTikMnjboZMdlPdrofVMCIO4eZKNzPgehrfKrwmRR5i4epJmFNYoxeziwJwCgXQOxlSR0OfpBj5dPuEBp7TadhUhD3lwmB99ex7tnSjyx5rn8KCnUIkVPvfpOwF1B672Pnvm3IK/ZJCLaUnZhrhOsK2aEyQII4TDDcZkTqhust7JFyWG0VYcD0S1TMEi8fGvn9dzOpaICsXzmHFAvV5LY0jdJwLPszcuteMwhFxGC47t/3bu9uCxuowZIztjeJ1Qt5rjocgZ1oMzu4sFccDCWMzM+x5aEb5jnLUTOnjWI1W+JHZjH1+7l1t2FSEPGQgRx0J4UXdZa8/5GHh2yyImhjiRU40wqkAyMu6fZIiKR2zGfs+tiHnCm/SkfJsRsngwciw51mZjtM+8ftTb43ZtQFhm56Uz/TovE98O1+F1zwp6mv7MdYINVTXsRXNaGxRXRMUedVDKx31NgkPEJvU9YHT/ne3Pfr5pU5xQ0/Z0HrwYssvxk/eHGOn+kK6Jqq2RxrnOc1xr+LV/YOOdPyyPR7pLxudfYy1wnCd0im2IH+lTehxk+XXse/1lA3nGYKFNGTlwuN1Q7oPkocMl6GkrD/ivdhkp3sd6d7XXgad8yqVAfUxsn5biRpxZmCvh+TZ37wgD7E9hfIE3b0v/ktHx72Ox7Kh51wSf/dH/QfAL/P3BKuQtLS09kBnQmIymbBs2TI8/PDD2gvomElLz6yh1FM4ZmDrDi+PFy4KNr+/ToOIqLPZZz3ltZWIXPHzjLfkje51T+ytbhUSLEyRLYZXaZLGt3biGFEKIkJvedPQdGRd2YUhUb4QZ8uEuU7/+3GJiAIiAqY7+jvCGcX6y8ZrKxG5JI2pNctmqqeuIbwmKbnGjEM9sLEKdLOQYPV74Zx5NwOob7TCOFQCMMj6vFVsQf5n4Rh3hTgzXdDtc0eooHZIOBFRsLHB/K8WZD+UgyzxWaB/Zukloh5HFj7LeiJAxiciJbZaEbLc03SvkGAiIiIiIiI6bwRVD2tcXBwAwGAw2D87d+4campqApUlIiIiIiIiCpCg6mF9+umnnT6zWq1Ys2ZNAHJDREREREREgRRUDVYiIiIiIiIiSbeaJZiIiIiIiIjOH2ywEhERERERUVAKqkmXupVRz2Ls3FEIF3+tzV2K/G2FAc1SR0TMeBNjJqWKvzWg/LPrcOJAQLMU/MY0IPfxSoR8MwATn9Pz7KcNr7xpxuwBkfjiniTceazTc0hERERE1K11wwbrtRj0wF2I+k+AG4gHHsK+A7L8+LqeAcsxYsEkNG25Gyf2W/yXPy/Zti3E7m0AjPch+54pAcuHR5fX4eB9VsRp/jEMBe/1x+XveGo8Cg3HX1n7Ycb94Si1f96MzzecRr9cRwP0kuWVeP2KBntBOXuwv+o7QWRMA3Ifr0HVO/0x58OQQOeGiIiIiKjDumGDldwzYt4jj2Ny7UdY/uL2QGfG/76MxQVfxgo/X16Hg/c1Yt+Kfvj1fv8n9Ztny3D/6HB8cU+a0Bs6pgG5j5/Gtj/52mgNxZKFA/yfUZ3CJ9yJx26Nwte/fR7bApYLIiIiIiL9OIa1J+kzBXc/8zgu6W/Gv7f1wMZqVxrTgFtGhiDvTaMjdHd/NCa9mYCQC2rxhyEBzZ1Pmvf8HXvKsnDti3/Ef2cHOjdERERERJ51nx7WAcsxYsHliJdyPOllTJwk/lx/EAWvPgDrWeHX6MvewMjJAxAq/tl25A0c/PBjtAJIuH4DBoXswJn4GRho6g3bkc2yn4Xlwi97AyMvtOLYznMYNFMap1qH8o3ehu2OgWnxaqSbets/sY91VY2Bjb/qPSRfJf5yehv2v7YWNvHXhOs3YPiIaOd1yBnn4ZHHL8GApnx8tOxFODdXM2Fa/DLSTY5PWg6/hh8/2qB/c/rMw6C7FiE5RvrAeaxr2JjncMFVFyACrpYxwnDDX5A1PNbxpcYDOPLcQ6jWn5NOd8n0BvTr3RsH96lCa4vCUN1SjQuvPQd8BQC9YSluwecbyjGqj7CIImz42locvrsa0YqVRDuNYdUVeuy0LnE9Fyg/T1lYguKF4i9lSbjm9mgIHdD1+OTZ/0HpnY/htnufh/GT3+J5drUSERERURDrPg3WU+tw+Kl18DSGVWishuDUyzNhroR9+QtuAA5++DEAIGL4bMTnLsVPJx7ByMmz0e/IGzh0YiaGX/hLxPb5WGgoxlyArJmlKBbXk3D9BgyfvgLVPzsaxp4kXP87RO69DbvFRq6Qt2cxqPJunNgvjoH1MIY14foNGD7wOArWiukOWI4RC15GNhzb32fK3Vh564WINn+H5x//BwrUK5EamqEHcGS1rw3DTJhunIWmD2di9ynA3vCc8yaaLAthPgXAeB+GXTUY1Z/NdDlhU8SMNchKL+xAPnT45Z149tejEavxp/rD/w/PvPClvvXU9UaBOpP7w1DRDPSzf9CCnIXlMH81AOnP9RIblRa8doM4jvSTOIz4RDbi9tpaHL67WbFKobEK/EsKPRbH0spDj6UGbcVXAzBCPcHTMTENXWNYm7HntYeRf+1DWHPti/hj8sv44//l69sfRERERERdrPs0WHW5FsljBuBs7lKxsQoAn6B8/xwkiY3RdgCoPwjz94XAJOHnok0fo23STNW6SlH88kL7eqpzd6Jm6CQkDDPCqrOXtfqjBYpGWcORfNRPmORyeScDlsM0tA3lW55xNJJPrYP56FQMH3QtIrAWMfMeweOXDEBT/kdY5mLMasTkWUiOLEXxOx1pJBbC/NZC2e8W1B0tgm1Iomq5aCQOuw4nDrjpuY0aCsMooLqzZiH+4TU89EMnrVuD+SvZLMGf9MGOK2vxqwktSP1QzzjXZvzPVKEh6uhxDcefd0bj9cmNuCkpHGsrhWVsB/vjv3TNRuxZ/SfP4n9K78Rjt92LF4d8j5f/+H9gs5WIiIiIgk0Pa7AK4uThwpJ6qx/WHIuopHgAOsOCVWG/gjo0eZlmsjxcWHJa+M/y8VN4wHw3Vt56Pdav7I+XtHpYAaClEo2nvErYifLVN6JWWZPMshb5LwHZ99yJiavuFJJVhR3bti3EfryJMXO3InkuENSv0IltQVYCgErZZ2Na0Te8NyzF7mfh7WNsRT/on5jJdNkpFF+m+rAuXvFrbXmY32Ynjrn2IayZMRBnvn8RD7OHlYiIiIiCVI9ssLp7J2pCh9Zch8bKGn2LDliOEXNGoSl3KfZJeRHDf71N09PY2bO7/oIVR4QxrL9dZ8RHy7XGsHZM2JjnkD3JgHJZuG/YmOdwwSxVD6tlLfJXrxV+Nt6H7HvuxLjr4dRo3S2OnYyY8SbGzN0AwI+NVo8hwf9CfmUvzO6nalTKGqNfH43GmUtqkDq2HTjmaJwqxrZqJSA6awnDGS+yrOil7VThmHDnY7htdDQKPrmXY1iJiIiIKKh1w1mCi9BU3YK4QdfKJvaRfAJrUQPiJv0epiR/pjkGplnTEV+5G2U+vytVXIf6EcGpE2hqiUXC0OnOTw9ObUd1RSSSp6+AoY+H1Vs+xlMPvIefmrNx/fqVuDnL8SfbvnzURo3C0MXLVZP/dECfeRg4/QKNYyDP0yewmt2vxrYvH7X+ypPkh9fw0NKlWKrx78EX/oUqAC/sjkFDSg2euKHd/rXf3FSNlKZofP11CLA/Gn8/1I6chRa8Js0IPKYBT17SgIqvEhUTJsldstyKywdEYudf9PauhmPb0TCYLqtypONymXJskuXXyf4wVDS3YNCEFqRqLhCDax/6M2670IbvX+SES0REREQU/ELS0tLc3AEHKfWMwapZgtWz6gKOmYJjpEmMXn0AtknibMBaP8tmGZZ/vxWu0wCgmOHXeXbfDWgcPQP4StVjqg4dVswS7DzTsLAuV73ILt7D6jTDrzxc13kGYc/LNKD8612Iuigb1neESZecZwgG2sxf4tDr69Ag5s1phmC0oOb7VTj8lQ8vUu3ge1jVM/OiLh7r747HWlkIsPAu1lb778qeUGFypFHyhwka61AQJ136TjVLsDodwHmmYKf8asw27DSTsGyWYL6HlYiIiIi6m+7ZYO1kjpmGF8ombyLqOMeMwEkue2mJiIiIiEjQDUOCibqP3zwrD/UVZvsNK4vGK2ysEhERERF51CMnXSIKFi88FIPPN5xEsRQ2LAvRJSIiIiIi9xgSTEREREREREGJIcFEREREREQUlNhgJSIiIiIioqDEBisREREREREFJTZYiYiIiIiIKCixwUpERERERERBiQ1WIiIiIiIiCkrncYN1DEyLN2Liqo8waIwx0JkhAgDc96dSFH9x0v4vd/k5P625GZs+PYlDa5rRz6u8mPH5dXzzFREREREFRligM3DeimnEt/+vAumafwyBZacJYx+XDk871v2lBP81SP15VxPycU1zMjKXRWj+7b8GKT9tK3Be9rYnT+MP6TH43X/H4NPOzbDv/n97dx7fRJ3/D/xVerfpkd4BeoHQcgt0FRB14asWQQ7lWvmKssIiCytoFVQUFBA8kC5erLLoIv5WVBRPFLy/LHJZcQsIFGlpudLSIz3SIz3o74+ZSSaTSZqmKU3x9Xw8eJBmrs9MJsd7Pu/Pe6ZVIGd2BQJUJ/oi+/U4TNjuBaAJG/+lR3pXWWBZGY4X5obiZUPrNnnL4hLMH+CPL+ZE4a9nbac/9MJ5LNRqkT47CCfUVpBWg/0rSqCTTg8X23F5CMftuuIYjFrih4uKqQ+9cB4LBzRZP3kuymbfb1lcgn9c44f17bSfc9bosWxog/pEYyhe/1s41ujdv10iIiIiEvyOA9ZfoP/neHTYb01jIG5ITxAea2qx+8MSmLbG4+bNKvNq6pCWFID9B31wTUodJsFzA71LxRGWQFRTi90fFuH0/4vw7OBUzfthSHk/THg8rQI5sxvwnU0gWY8dHxeif2kU0tPtBJFOa8KUvnWoy47BkyrBaovEALtsV3ckZnaBFBA+vBGAi8Hcuoe7YZ0LTXEbq4BbONa7trVzED5kNtbMScCJ9U9iy0lg01IdNomT5qzRY1m3UNx1TzD+Y7VQT0xZuhB9Tq/Fqq3n2qlhRERERL9Pv+OU4M4j/J5axJcEYetzgTgbbcCCWR3dIicZAzHhUw26RNVg8nUd3Zh2MK0WVwX6IntHYBuD1bZqwsZbq9CYHYeJmdJb2htz/xyDo77lmPFnd6UVdyQ/jHsnDHWh1bh5VPukKMdPXILMOUPhd3Ivdp5szZK5+OCH4wi9fime/9sohLdL64iIiIh+nzpVD2vQTZvQb4QXzm2YDX2J7LmBBpx6fTEM1fL5usPbvOR5FMiWCZ+6Hal9glSnWa1zzyUkjxkEPwBAFYo+m4fTv5Sa57Nej8R2vrZpxvIB1TDkhOJjozduON2MSUNMwGZZmq1/Az7cokea7JeyMhU3ML0KBzIMCDM/44WTih7dWasLsSKt3jzdnH5ss/4iFOySmheA3atiMPNHB7vQ5Ie8H5Upw2V4cVcZXlS2Rdbb/O9elvaopRZ3uDxfGBobMGhcLVK3O+hhtUkvDrKk/SqndS3ET9KxrQzHC3ODMSBTnnJcgl3SdCk1+YwJA2MuofKIjyK11hvnDV3Qv18dUsW3emWhF57+1znL+uRptsqUYvk2tnvZ3x+VVF3bdUnraRB6pQNV9ld+XOzyxfmfvBQpwzV4+N1yPCz+dWFXdwzP7AKpVzZid3c86V2Gf9xUIxwFlfYOmb0Gc4aGo3j/ejy5pVXRqmDva1hcNAVLF07FmmVxWLNqK9T6WkfMW4u7BgZD/5817I0lIiIickKnClidMug5pI7wwrkNY6yCULnybXdgvzjvkIlR6jNpBiBl5BHkrBsDQ7UYnI56FOUnhcA46KZN6NXHgIINdwjbGfQchkzsAYNbg1WI6cD++PVt4aVaeUSDyWNrsQL+eBIA0IzMF/UYXBSLxOl2AjpNLXZllKNoawIGqqUcQwxWrw7A5vQ4Yb2aWuz+UI9Dy3QYssoXk6cnwPEYVvXtfjrBiKacWDwJL2BeAjLgzBjWZvS+8wyW58QiMd1fDLYv4utZdlKmla6di+fuuRohKpOMxz/Esy9/izInVtOirCAMeysMObPFIFJtzOi0CuTMrkHO6/HmoO+hF85j4aYS/GNOFP5qTj12MKbzz90ty6mNYU0DAF8U53vBmjdySr2QrrU80zVdj9DsOPzhz364KAaV/8oQA7ysIAwblyBbbw32r6iwXqXN/gjt3vUGLO0SA9rG7Dj8wWZ8qh/GTUpwvL+q6rFjRgUCzkXhxbPACTFd2ZkxrF3Tz+Gf56KQnh6FE8p9RjwmLnkQ6UmXcPKTp7B+V8stsSv3A6xZdAHz1t6Fpc9HYtuaV/B9ueurIyIiIqIrMWAFAHSDdnAP6L/Oa8M6zqNgi6XXtt5QhqZ4y1Q/bQS8C39EmRQUZ++H4ZZBCIwKA+C+gFVKB84UezBNp3xR4VOOEbPCAVnw5t1THsSqaUZPZc+sRFOLe9MacHJrnGV5YyDezPLFk60cM9slWtlzmoAezgSZCvIe1dofAvDbvUByfCOcOmUPbMQjB1q/TZdIAee0CuTMLhd6+sw9eEKqbsC5CCyR9VCuezgaoz8uxNVTLwGZlzcr35gdZwkQs4Kw7bg3FvarQyqcGYMrpR7HYI55f7wx98sQ5MyuwaL4IPz1rLTPUUh3KhB1ILTcpuc00ZXjJe9RzfLH4YtdcF1cI2IwDOPXzMHQ8GLsF8estt1evLa4CFOWLsTUNc+j37Y1eEUWte59bTH2umMzRERERL8TV17Amv0IDuE5DJm4AcOGC09V7puPY20KXm3VG8rQ1KcvIqIg9rAOgzawCoaSihaXdV4zlg8works1hwwCsFbMwabg08vZMyLB147i1m7KjELABpDsXlcuFXwecPkaOz+0JLKa5tiK/RqFtxp3YJLxa1rsVXRJZd5obzYktANky8mT4+3P7snsApcpR48YZKx1Ee1Rzc0rhExaGNQZ9aA6KRmAPJe1iakRDbDWKy+fUtDGnGzFjjhZCEjzSB5Gq/EOjXe3j63ipuqHFu3xRtzxR5r4BDeWPoMSpY8iPQHXkDEJ8+3rYcVADAC89behYHNx7BtKXtYiYiIiNrqygtYASFozRYfDxKC175wf9AKdEPi/J3irWncPXYVQjpwMuAtHzNqnibvUfVChphuK6XtztoBQBm0WlUlLkLeS/Kg1XZMa6d1uVKC1bwfiFMzKpAU14gY2ShqNZWFyjGnLrLqNZQFwGnysa2NDhrig69bERRa9dJ2emfxyfMZODt7DeZMfAorYl0cwwoAPadg6cLR6F7yH7tjWImIiIiodTpVleCa4lI0IRQB8ZEA1IorqcjeD0Otu1tyO2IHd0f1vvnYv3KM+G+qe4NVCOnAiY2h2JyegETZv9RMLSp8qjBCtVqwF1Ye0ThesTEAWaeVfzej99RyrHC4oBcOl/qJ6ceu+/iCX/tWDj6wEY/Mn4/5Kv+WtGewCuCWxZVIDfRF7n5fXIQ3PjgWgIBBpdh0h6Wy7UMvFKN/Qzje+Vfr3n5HivzR2L0Gi2w6m4W0XJ9BhfgkQyrO1ISNC8qgK4zCn+2l0U6rwNwBXVpR5Vh9f9TnkbdFfb6cUi9okuswXetgthZ8VeCLRjdUDj70xlI8sysfIcMewAsPpCOmtSsYMQ9rHxqN8N+2YamDYHXEvLXYsGEDqwkTEREROalz9bBmP4K83tuROv7fiB0PwHgEOTtLkTzS8oNcLYg1ndiEI+be1duRvPg+xAZapku9pM6nDn+E018Ns0o7ttrW+x846s9ykpAO3JQbazMu1SoteGsXmwrBUuVeaTnbCsFS6q6ld9UmrVh83lwpWLR5ZSTGb9Fb5nOmSrBC+atafDjgLCYvP4MCcTudsXf3lsUllsqzZkH4Yo7OXOn2q7VR+CtK8I/7zqLgPnEWF1Ndv1qrxbd99Ri7STpusgq+74chBUDO7HMoSBcXsKqGK1YMHqSsyqtroSqvsg0q+6PY1ldro9CzoMK6LSrVhqWxvJZxqs5UCVZ4PwwbrzFioaw9lirBrXP2k+eRcXY21swZgTG9d7ViTGtPTPljH1Q6Ufl37+Fc3D5wIDQJ/TA4/HumDBMRERG1wCshIaF9bmp4JeuegT533wKvnxQBbntVCibqCOaKwIrb2lAbyMa4soowERERUYs6VUqwpwvv3Qt+qETdWQar1Pncsrgc282pvmK138pgfP09g1V36Tnlj+gTDOh/+ZjBKhEREZET2MPqItXxs8YjyHndciscos5FuDdqeldx7KmbqvQSYO5ZDTbimOJWN0RERERkHwNWIiIiIiIi8khMCSYiIiIiIiKPxICViIiIiIiIPBIDViIiIiIiIvJIDFiJiIiIiIjIIzFgJSIiIiIiIo/EgJWIiIiIiIg8EgNWIiIiIiIi8kgMWImIiIiIiMgjMWAlIiIiIiIij8SAlYiIiIiIiDwSA1YiIiIiIiLySAxYiYiIiIiIyCMxYCUiIiIiIiKPxICViIiIiIiIPBIDViIiIiIiIvJIDFiJiIiIiIjIIzFgJSIiIiIiIo/EgJWIiIiIiIg8EgNWIiIiIiIi8kgMWImIiIiIiMgjMWAlIiIiIiIij8SAlYiIiIiIiDwSA1YiIiIiIiLySAxYiYiIiIiIyCMxYCUiIiIiIiKPxICVOr80HYY+3hURmo5uCBERUecRNC4J1yyKhH9HN4SIyAHvsLCwpzq6EW0RNC4Jg6cFofaXKtTWq83hD93CFPROqUNxdj0uXe4GUvtKjETfGTFo+vkMzhy9cl/doHFJGDy7O8IDDCg2adH34Z6Ij6/lOe1Img5DF3ZFYGU5DOebXV6NdOwTbopB/E3h8Gvj+i4X63bHIKYrzxfPo0GP5b3RNcSA4pN8Zdr1nE3TYejCJCSJ6w4LuPKPuTPfGw2/NcI/PR4Jifx8ICLP5dPRDWgbDeKGalB9KAdlRjuzpEWga9ca6N+tQiOED/D+V9fj1IsXrJbRzkxBakQJDr1YClNiJPrO0SHMV7EuvV6Y7kTLgsYlof/1GnjLn6wqQ458u2k6DJ0SCT/FsqZjBTi8pQqN0KDH8iTEBllPr9yTg18/bxD+UG2rEQWZ+bhw0dntSJTbU6zHanuKafaOmaLN2pkpSO2nnKkeRdtzkXewSX263eOuQY97dAj4rQCHpeOhQlqn7f46R3otG1WXt32NXN2OIzVFJjTBXhey+nlirz1tPR7u4Q/dwp7QlZ+13waV89bq3L9Manbk4+AOiOd45GXdti0n3qMAkKZDn+v9ULL9OPIONl3mNlK7E8/Fus9y2+f1dfLzHIDKZ7adc7IlLZyz9r67leuw+syQf3dk6fFzlh7Seyiwlc1zG9Vja/kOtBDbecj1zzzH3xsSI/Le0qPvnESk3Hb5P1+JiJzRuQPWtBBom8pw+gcHwUqfUDQfu4CLrf3yhBt+HFsFqMIP9JQn/BRf5mpfVNasAos0HYZOScGQCHmwIV+HsJ2kv3RFndUXewvbEb/om48V4CfzejXocV8k/F+3BItB/UOgKSnB+eYIaK/xxQXp+BSU4tiyUuFxSz+mlIG7klWAKnxpD3lFDgINAAAgAElEQVTc32aZoHFRiAoy4txOB0FXmg49+jWjxnDJ+uKBM8QfFgG/FaOsRoNQmxmEtoXny45Zmg5Dp1zuL34j8lYeRZ6sTfZ/5GigTW5G0SEDtL1CEKqpsv86dCDhIgEDLivm89FyvmlnpiA1IwlQBAjaPqHw05fgPI8ducKpz3PxuyakHDlPO/g8d1Jbz1khcG5GkfwzI02H3rf54qQHBmHy3xdB45LQ/44+CIzpoICxoBT6k1FIHRSNiB/a/loSEblbJx7D6g/dCC2az1ah0t6Ha2IkdL2bUX6ipoN6keRM0L90BkU1GsSNCXH9SkGWHnm/NsA/PgShqhdOTajIrUFTiB8C7PS42RKOpZ9ej1+teruMyHtd3rPpj7CeQajOLUVJbg2CB0VfhnGjwtXfioAI6P4ovyQt9K43Hit1cDFCgx5jI1G35zwu1rZ2u/7QTdSi7rPjOLSlWj1NKtEfAb6AqazOcsyyqmCoae22nFBcj9qGetRevAQUmFDXoNius9JCoG0yovyLChi8lcfUUwjnmbe+lAGXjPaGKISVWL9HDW/nI/9CUNs+U4hckaiBNroLKrOLOz7ASYyErrcvKvectg6qs/QeGawq1ezQ4+yFSwjtGeresaSt+N4w7C5R+Z4lIvIMnfc3TqIG2ugaFL5rv3dN6A0sRa7H/Og1wnC6AbEJYs9Wm1ZlQrURgE2GohDIeev1KHW2VzlRA210I4o+K3ec7iwec8O7DagJrIJxWCTC+3qjrL2Pb4ERhuJLSOoZCn+IAXSiPwJ86x1ejNDO7IbYpjLk/NAI/x6t3agJ+pdOtdAu8ar0yGT0uJiLvIM+0C1MELfp5h9J8h4PsUfVFdo+oWg+ewGVRiOaTzcgVn5MAZh7TbrKrmUpU7JVUtqU2QjKlHi7ae5dE/GHZ6WlpFRCE+oMTUC/SHS7ptxOD6uld/uwPCPApne5HnUN4ei7ytJe28wJ231ufbq0MlVXJaPBJsXZdh6b9EpzNoIG2mRfmPLrYX00hGPlnxCC0D5+iJshf110GPKsTnzsZJpmYiT6zglB+cu28ypTMm2GPdik7jtxLrXAss1KhGdIx1d53JTbsZ5uXsf/NSP5Nun42x57R/ujnZmCZK9iXAyPQ3zXLjAduyB7LDtXlO8NlWwStWEPlU4eD+U5FHZHH8TeYdte95zTLRADoNiWeuVsPi9kx95mmu05W5tufbxSnogwP5bey0H9Q6CpK8OpNn/u2h43m88LFz7/nH3/mQz1aFKuf2QKho8UH8vOJ6feG6353hC/Z3URAfBBgwdc5Ccisui0AavQ21CCXAe9a8L41vNO/zhSCpV/UcA9X/imMhOa+sl7P/0QK//RgRZSkdN06NHPF5V7KmX7Zb0Ok1VarxPbifZDoG89yvMdB57CBYAq8ZgbYSiOhS41CD4HW3lMQiKsfnS0/GUuBjAJ/gjWACYjWm6z2Lte9FkRyow+0KnP1WaGt3OwL02HoVP6YPgd4rF/qaPGhbZESAcu3ykE+YbjlaifEoLImFLzsdfOTEKSVxEOPWovqBDGDXsdyME+O+eo8GMNOJd5VFyvEMwNvFt4/wjpy47HsBrezkf+wp5IEs9Z19PzNUic7oei7cdx7GCT2LZu6How36ptsU1lbUhr9IduYSTqXjuKfebjmILUO+JRly9uJzESfSeGwOAgxTloXBJ6JVQ5bIda74ipzISmBABnLT9Orcbkt2ZXCkyoa4hEQJI3cNG6nf4R/vA2VgkXytJ06BlZikOP5lsFav3urje/ni2fS04KiUDKExoUbT+OfdI495tjUX7sAsqMYoAh306aDkOn9EQPyH64h0Qg5cYy5Dx9FGVGKNbR8v4AgH/frgjbk4Ps3G7of31XxBwrwNHcSPS5WrwAGSksI39vaGemIHVRV3OQoZ2ZglSr17iV4ymlcZgOh12oHJPESPSdk2h+D7rn80nIfgmYoxM/z+3XPJAfEyH9tSeAXOQddOKcfTsH++B4DKvVudkG2pndELg/B/vkFzuuly5INsGZzz9hLK78869lQeN0iO/aiJL9NWgsqBKPiRNjWB2+N1q79+LFrwg/eAMe+h1GRL9XnTRgFXobKg9V2v8hlBYCbZAR+oOuX3G9PAVeWh7D6t9X2Qul/CKU1uEjBAEubscxKR1YugAg69lp7TjIlsawOiEo1t/BmFR/6CbGIuC3szh5sAnteZpbjZsqCkffOYn4w+Nt3792IaYDnz4mngPF9ahtiLQeiwwAOusgVk2oTc+sRLxQtCdHtrwRhT8bEXV1a84VE/QvHYNe+vE9MgXDR7pyDlsvU7OjBCVDk8z7LI2DLshsy+tlgv6lAqtnDMcrUd9Pmdznh/CWLvCEaC5P1oJDfgiM6QLAx+qiAiD2AAFAlh5HsmSLSL0zylU5cS61zPo1lI5tQBCAVKGoXkGm7FzMKsOFEVrzxTSBEQX/tLzG5iDfvIwT+1NVBv0PDcCNwuP87VVoutGS4iKlbB+SvZcMu0tQMUfMRCkKl11Ea8vxaEFaBLp2bUTRdlnGTEEp8veHoH+r3oNOkHrwxMA0MaM/EmWf79obohBWZ51xUrNDj7M9e7p2sbOdGd7Og0H2d81RIZNIyf7nn0Rj+7mqXIey5/TpfBdeFwfvDVdfY43swjARkYfolAFr0LgoRDU5Sv8Rx7ceO+tSsaX25B/hD++qKtS1Ypyj8z27Juj3GtB1SiRiYqpa+SPRT7VXxUxMG67dbxnNKXw5hlyGH9j+CNB6W9KgIVU/VB/tEzROh/iQcpx6s51/DEm9uOYfDKU4tgnoO0eHpDuqUNlhFXjVafuEws9YYumFUEm1NrydgxMzU5Ca0R+JAGx7TYzIW5kPLE+ypO6ppHkqsxMAAFWuJMErAleXew+s+Ytpb0K76lv1flSjWhVc/ouxQDo3LBeflO/rmh35OAqh+IqQCWEboPurpOu5q3dJ0IDa8ksIjwiAT6IftIH1aAoMQaimHv5ab5jy6qzSr5WVqU3llsctn0vOqkedPJMiS4+fpeAyQWhLonkb6m1pWcv74xSdPKVVUo86wOlMFvdQHDOJVNvA3cGIInCVPv8AWH1uy/lr3dyT545AS7Wivvj6AXDq8y9Lj58BDJ1i+QxUu/jtngviDt4brrLzehERdaROGLAKPX2NZ0sdFFsSgqvy/bbjG2uKTGgKUV6BFAIic+9Bu5HGoTkoFNVWWWW4MKInIlq4umu9TBUMYyMd9v4E9Q+BxtfPesyUqMVeo7aSinsckPWoF9ejtiFEJcgWC/aEaBRpxzCPl3Rbz7naD1B7PU0dTjj3EKT2g9q6F8wgpuAB9qrQ2lYlHrIIVj/a3J+dIBYTu949P7il1FrlrZ5conY7jjQdhk5RXFCxqbxqm6JpvoUOlKmT4vh3m3Q9e2NbXSWm33sBgf1D0PyrHhd76BDe1wiENwrFW+AvjNWu0OPQSusxk8ozq+VzyR0cB8Itv8bO70+LHI3RTbT3mXUZueHijEPSRTAxGHXEnd+3brl4mhiJvhMjUbcnBz9b3TZO2cPa8uef5RY6MFf27wdPv2XM5fodRETUep2vSrB4X9VCB7cyEVKz7FQYzaqCQVmpV0yhat9qwpaxcvnb27PnTfhhHzyyG7rGOLuMkLLp0zcRA++WVxsVb2sjXSQ4VoCfHj2KfbJ/JxxWLHYDqQBFiR6n5F/2BSbUNYgpllYLCD1y+6za+RvyL1wSxpc+etSmOMY1z/bH8Me7tr7icXE9ahvUzqUutmMN03QY+mx/DF8U6d4qkM4SU+QLMq1fv33/0KOiQUhfU2M4Xol6hysWAinl36Etnn9iSrnT545UTKxKLCYm9AT6m38YO74XrUQqxKUXszNqjlbBGBCBlNnufF2E6tQOAyXxh70jNUerYJQdWsPuElRE6dBP9h6V9sednymmMhN8tMHQ9mxGxcFq6PdWIzg1EF3s9dpBGoPn+Ouk5XPJBeLneeKd7n1fObM/SobjlajX6XDVbXaqrNp8Zjl3zjq3Lhm1Y5IYiaRhGlS3d0Vf8fOvMle4uKh2TIRj6/g7XI1wsVlImbeRVYYLF3wQe0dP9LhGNl28rY1rhKEl9u5FK1B+/qlwuXK88Bnn9srB9kgX+j3irgpERNY6XQ+rdK82+xVwWxrfarlJtmVcqPrYOJu0xlZWuFQWF3K2GFJbiztJ4/QS74xEqbm9jrdTsyMfB4uEe4gqq7aaEiPt9li7dGXbpuiS4vgr0uoq96gVuBDHRV7vSvqzc2yqeUpjiaUxWippnsK+qBTWKa5HbQPgp3NU+bb92H3fWKUFGxGhrOoqvjbm46t20/uqMuTI3he2qaAC5XltePs8ipYnyc4FqafMTnqm1fvHBP0nRdDOsZwrlXtOI79HIsxnVnE9ahsU571ej0OrS63G9h1bZhJ6SWTnnKWttlVDpSwD8zzimMkkeSrvD0WouC7Y0ni1VEO9Hodkx0O1euyeHOuKn8rzzQ3jwZVqikxouj4KUccKcPgigItVqB4rFqaqASxDD3RWaZG5v/qju5e0FpUKwcpzyS1UUjRl23LufebM/jhBJRUUgOw1Un73CG3MH5aMCPU1OmBE3hel1p/X5u8n9WPi9qwHO+mzVp9/qsfExdTwLD3y+oQiVfZ+tuyTcKGybmaK1XThmMgKYMnfX9L3u3TczFXf5am851AULrvy5sTnn9rwANOxAhxu9bG3/Yxrj/e7RKi0bEThMfavEpHn8UpISGju6EY4zWFlRIGjSoJ0pVG7tYnnEn4wmVwcx0dERNQOZNWcPTttmYh+rzpVSrB0BbDc7hVAaXxrO44RJQ8i9FjU9UpEistpX5eJeGN7mFNaiYiIOppwq56A3wqQw2CViDxU5+ph9QhOjDtqx7QdUpGmw9B0L5z2yGNuSY10x318iYiI3CVoXBL6X1WF7Nbes5mI6DJiwEpEREREREQeqVOlBBMREREREdHvBwNWIiIiIiIi8kgMWImIiIiIiMgjMWAlIiIiIiIij8SAlYiIiIiIiDwSA1YiIiIiIiLySD4d3YBOa9BzGDJxEPzEPyv3zcexr/M6tElt4X/zGxg8vJv4Vw2KPrkDp7M7tEntrAEfvK/HH8LEPy9G4t6Zwfi2Q9vk6Zoxe3URll8dgE3jwrHKiSU0Y6uwb5EBQcdj0fMB/3ZvIRERERFdWTphD+vtSF68E31v7tGxzch+BIdWjsH+la+jqLYN6+megT5LtyF5cKTbmuYK09ezsX/lGOx/9WtUdmhLWnBLFY7sOoMC1X8X8NXdlyzz9qnF7k9l07eXY1l3aaIvpkxLQGJ6Apb95Ke2pSuKZmwVjnx5EW+NsH4+5v5SFOwoxzLpicAGbH9fdsxUlvEczZi9uhCn367GhI5uChERERG1i04YsJJjkZiydAMy/zaqoxvSPr4KwYB0IdBMXKdFJQLww6Pi3+ldccsW4ZQetqAMv60vRvCBbuK0BCQ+7o8R95uQ0sG74LHCa/Gfj/UYdCFWPGbxWHnoEv64zPWg1fiF8Hp1TO9qN9z20DqsuqdvB2ybiIiIiNyBAeuVJPg6zHt2FUbH6fHT1993dGs6UAMevtGIxuOxmLHa2/L08UDc+og/cjquYR6sGbMXV6D7xUg8aA4uvfDG47H4+EwdRk4zdWjrXHMen399FF7X/g3rMsZC19HNISIiIqJW6zxjWLtnoM/dtyBMavHwDRg2XHxsPIKc1xfDUC38GXTTJvQb0R1SqGI6sQlH3v8AjQDCp25HstcPuBh2M+J1vjCd+EL2WJjP76ZN6DfQgFN7LiF5jDROtQpFn83D6V9KW9HowdD9ZSUSdb7mZ8xjXRVjYMPG/xux48U/Cr/GLxvXQQoRwqduR2qfINt1yEVOwdJVo9G97hi2LXwFtuFqD+j+sgGJsl/tDcc34udt253fneApSL5vDmI10hO2Y119Bq/FgPEDYOlPU84TCe2015CSGmJZqDYbJ9Y+gnLnW+LYLXVICQvAwWfaHpwOW1CGtycYza+T7VjXJmS+VojJyU2WhZTz9KnF7ueKkSjrZCzZ3Q1D5cF0RwtsxLhe9bh0wQefKiYdLvHDpKtrsQx+uADgUpkvCu4vRcFt4hvuUgB+WBWDe/YCQDNefP0sJiVZr6NROYY1sAHb39JjqDSG2GodEtt1CevxUzxfipd3leJlAEAXnPh3d6RvkRr/LzyxuhgPZdyGZaui8cqyt3DMpQNERERERB2h8wSs5zJxfE0mhDGs9yHwv+pFjoRg1QvnNoyBvgTm+QdMA468/wEAwD91LML2zcfh00vRb8RYxJzYhF9Pj0HqwGsREvyBEChqBiBlzHkUiOsJn7odqaMeRflJS2DckvCpDyIgaxb2i0Gu0LbnkFwyD6d/eQSHsiEG4sNR96V6MBw+dTtS43ORs07cbvcM9Ll7A/rCsv/B183Dsv8diCD9f/Diqq22QZoUaHpn48RKVwPDHtBNvxV174/B/nOAOfAc9wbqSmdDfw5A5EPoPb4nyj8ZY7dgk//NzyMlMa8N7WjZsF4NCKj2w6niNq7oliq81CsYt6VHCMdUDDxfWe+DSQ8IwfDdTxdjcnA47k23V7CpAR+sEFOTXQxQvW57GK+OVR+zXZb1Op54013VsbxQXqxsoxc+K/TFctkzXWJKsWpMKDalJ2CVGFRO+Gs1JuwNxqfwwqL7ErDIPLcw/Tb5KsVgddCFWCROE4LYmPtL8dOyi3hLClqlgDY4FJvSbQs8CdsQikA9kRCCRTODbQJts/OfY91DZ/Dnp+fhb+si8fkLmfhC78rxISIiIqLLrfMErE65HbGDu6N633wxWAWAj1D0yzhEicFoMwAYj0C/Nw8YLjzO3/EBmoaPUazrPAo2zDavp3zfHlT0Go7w3pEwONnLWr7tbqugrObEMRivGW53fhvdM6Dr1YSiL5+1BMnnMqH/bSRSk2+HP9ZBM2UpVo3ujrpj27DwFfU0YP8RtyI24DwKtrQlSMyD/s3Zsr9LUfVbPkxXRSjmC0JE7ztwOttBz21gL2gHAeWeXoX4qxBc85Xs7+N+yLrgjVuV88VU4+7Bwfj2F/urikqtw//AtSrEzZ+/gPmfu7Bge2kMlVUJ9sLjn2gx+v5qTB4RjE/3trAsgJg5lUIgKutxvbgpFD9fX4j+oxqBvT7CPCEB+GGVc9WIW3YY/3piNYofysBty9Yh9fMXkMmolYiIiMjjXWEBqyBUni4sMRrcsOYQBEaFAXAyLViR9iuoQl0rtxkrTxeWFAr/lX6wBov187Dsf6fipWVxeFWthxUAGkpQe65VG7ZhfesbUeN5y+PSdTj2KtB3wVwMWz5X2Kwi7dj09Wz8gjcweOJOxE4E2u0WOsH1uCoaQJv2WXHrG1HNccvjLU/EAU8XYtWzZ1AAAAjAD4/G4B5z8OqLKdN0+OB9Pd7cJZ43HnsLnWaERzfB+mOhGePjGnCpLADZAKLtLdqlHnFXAXAiYAUA+FRizq5KzLF60gsl8j8v+eGUs+tr0UD8+el5+EPgKXy+ij2sRERERJ3FFRmwOronanib1lyF2pIK52btnoE+4wahbt98HJLaIqb/tnabLY2drf7xNTx6QhjDuigzEtsy1Mawto3P4LXoO1yLIlm6r8/gtRhwq6KHtXQdjq1cJzyOfAh9F8zF0KmwCVr3fy089r/5DQyeuB2A+4LW/d8FQp9ejP5jm4BfXB0n2oTM1y7iD6ZIWbqvMF5V2cO65Yk4SEMm7366EKuevYi3bILWBPGxEAS/+TacDlrdkRJs3OuD8kXKoFIWjNb64MJvfhic0IgJ8Lek1yrGts5WWzkAXPJD4SkndkZi1UvbzrrdhocyxqJnzQG88hDHsBIRERF1Jp2wSnA+6sobEJp8O2xvlPERDPk1CB3+OHRR7tzmYOhuHYWwkv240KqiSyrrUF4iOHcadQ0hCO81yvbqwbnvUV4cgNhRj0Ib3MLqSz/AmsX/xuH6vpj60jLcKbt3i+nQMVQGDkKvv2QgyP4aWid4CuJHDVB5DeRt+giGFnqyTIeOuf++r8cDsemwH6JuOI+fH5cVQ+pTiy+fc/22NsMWVGC8vLiSii27g1vYH198erJ1931t/vwFzJ8/X/Wf0+NXywNwKP8Set8su2dpeB1mpTWg7IQ/PoUX3lgbhnMxpfj7eqncVzNmP1GKocGh2GzvtjSBDdgyy4CgnDBFwST7Lr4dhDM+lZi13n7lYWmeex3eY1UYX9slqhqT7d12Z+Cf8fTjY9H1/OdYxYJLRERERJ2OV0JCQnNHN6LVlBWDFVWClVV1AUulYI1UxOj1xTANF6sBqz2WVRmWL98I+9sAYFXh17a673bUXn0z8I2ix1SZOmxVJdi20rCwLnu9yJGYsnQVRlRuQ4Z8TKtNhV95uq5tBeGW56lB0Xc/IvCGvjBsEYou2VYIBpr0X+HXf2aiRmybTYVgNKBi73Ic/8bBAFB7bqnCkYdqcciqN9PCpsJvdSg2LQzHqnPSsgaE2iwlS+lVznMxEu8WVGGCRisWXVKpEAwf5Pw7znw/WLUKwVbtuJyUlXnhhZLdOgxdLbtUEl6L/7xXDKk/WNkTGnN/KX66TV51TGUdVsSiS7WKKsHK7QC2lYJt2qtSbdimkrC8SnA33PZQBq4teQPL3mKoSkRERNQZdc6AtZ1ZKg3PlhVvIqJWk1UE7mmvl5aIiIiIyI5OmBJMRB4rvBbfy1J9Y+ZUYmhYF5w6xGCViIiIiFrviiy6REQdpDwQ03NLUbCrSHxCnqJLRERERNQ6TAkmIiIiIiIij8SUYCIiIiIiIvJITAkmIgwbNQ5JKQM7uhnUBge/+wR5J1kNmYiIiK4sDFiJCIl9huCfO452dDPIRSnJOnSP7cqAlYiIiK44TAkmIiIiIiIij8SAlYiIiIiIiDzS7zgleDB0f1mJRF0dij6bh9O/lHZ0gwhA+IIyZI9vxO5VMZj5o+vrmbW6ECvS6oU/mgPavL7Lxard8ELpHh2GrLqC36bRuche/Tnipb/rr8H6vw3HSnesO7gY36x6B0M0wp9NxWNw7+Mp+Mwd6/69m2tA/uQqeIl/5n2UgFGvdWiLiIiI6Ap1Bf8S9nCaWuz+sBiJqhOVgUozMl87i8nJHR3ACO2YVB+LHgv9VecIX1CG7AlG2TNeOLk1HjdvvjwtlGx+PA6bAQSmV+HAg7WXd+NKyte6MRSbx4XjScVs4QvKsGJoF+xemdABwXUd3lzxIibp1KfKg72o0VnI+tOPCDVP9UXhgZno+0ZI6zYZXIxvHvscMaemI+L5ONvp0bnIXv0dyj/+C278wsE6ZEEpmnpg54bxmHEEQHU0bspYBKAJD2S8i8cjW9c896nHmyv+YXNsTaemQ2e131I709otsH7m1TOYcZWdiQYtHrkzBO+KNzqb9lQR1g43mSeXH+iKwct9cAkANmqRtFELoA7f77zYDi0lIiIiEvyOA9ZfoP/neOg7avPGQNyQniA81tRi94clMNkL7DR1SEsKwP6DPrgmpQ6ToMHHl7Wxzpm1urADAy7PFJhehQMZ5Wjc0xWJq3wgBf2zdgCwClqbsXyAEU0nYzvo2AXg3icX4V4AUoB1a7UyoAJ63r0TP408iyMfL7IfRDop6toCXBXYA99/qRKsOrO8GDj7ywPe4GJ8uTAH4494Xk+qVQ9vdC6yV7+H4tXt3Os75kG8PMEX3zz4PD4xAY8tSMBj4qRnXj2DGV4x6DE/AE1WCzXi3a0XMDxCg/dujcWSS8Kz054yYOsoLaZ/316NdUUERt//KMbUb8eS1/d3dGOIiIioHXAMaycQfk8t4kuCsPW5QJyNNmDBrI5ukQr/Boy/qh5NJ8MYrJo1Y/XtBmhyYmS94l7IWKRDlrEK45c1dmjrWq8ej/fMQVPxDXihjcGqO9ry/I0/Irh4DObKg+rqaNz6jOcFqzaKe+KOPSnwjjiJOwe0zyb637MSr07ohapD32KHqeX5zeZWYViEH/Y/G2EOVgHg/ac8LVgFgDJ89+l/YRx0N9Y/NhnJHd0cIiIicrtO1cMadNMm9BvhhXMbZkNfIntuoAGnXl8MQ7V8vu7wNi95HgWyZcKnbkdqnyDVaVbr3HMJyWMGwQ8AUGUz1tV6PRLb+dqmGcsHVMOQE4qPjd644XQzJg0xAZtlKbn+Dfhwix5p4ZanmnKs03aFnj4DwszP2Kbq2h0/abP+IhTskponjQ/1QYEBSOtdgbevszNeVOxJ1sjTmtV6l5v8cEZThcO7pPaqpBXbtMmFdGllqq7KWFebFGebeaR0bcssl4oj8OBdGnysqUNashfK91jORACAyQcFhmYMSanDtPRmPGH1usiOrZ3U4Y7jjcMVUZiUuhsPj03BZ3aDVtsUWEv6q+20Mfe/iDIAUmrxDadzrFKO4ye9iLJJwmNzL2X0WQzVBeHYx20PToVe4xzz37ZjXW3bbDOPciyus2nSTVE4cUS5/p14a+NO8XEQjkgp0eYU6XvxUeq7WJ4qfGiZTk3HH7dZ5xuPefBlTOjljfxdD+L5T1oTrQLPDKqCV24MZrQ5OJV6ai3P2Ix1vdGI/y4tgxb251GmJgMavHerLJgueAcrnyjE/Y9OweLno7BlyetQ62tNnLEcj4yMgzF7C3tjiYiIOpFOFbA6ZdBzSB3hhXMbxlgFoXLl2+4QftAMeg5DJkapz6QZgJSRR5CzbgwM1WJwOupRlJ8UAuOgmzahVx8DCjbcIWxn0HMYMrEHDO4u4KSpQ1qSP359W3ipVh7RYPLYWqyAvxjINCPzRT0GF8Uicbr6uFJoarEroxxFWxMw0M5Y0lmrC7Hi6gBsTo8T1qupxe4P9Ti0TIchq3wxeXoCHI9hFXoOE7foccPyMyhoy9hVn0rc9WCAObV41upCrJhajhWbw2VtK0Z8cQQWpbuYHu3fgA83mvB9eoLlOL52Fs/loKYAAAtoSURBVJOXlmOFGCQGpldh9/hGhynOs1YX4XaN43aUnlW+zbxwuNQPt2uA+l0hGLgrBM6MD7bPDxOXrEd6ksqk5lIceG0Z3jrSylWq8sb6zKkYuOIfmDTpRZRNUgvKhOBrvM8Y3DPXOv1Vv0QIWqXU46jRWciaqsdeacypWRqSvktzOIY1aoABYU1x+PVs2/YoanQWvoi7GhFzxwhPiIHnxiVhYoDdhAcytlnvj1JwMb55bBd8D9yLCGfH8UbnYvvIHJhOTcdK+AFPLsK9To1hrcGASa+g96npiJgbJ6ZFf4YtIwZj6X8AoD/uWflXXBtVgUNvLMemn1vbi9+I5Aig/DcfNLdySaVnXi2F18YEJIqB77SnirD29kK8lxMn9tTW4fvHymD4KAFX2yvYNNeA54f7WqUmqyr7Di8vycWM5Y/g7vWPoduLz+DD023cASIiIvIIV17ACgDoBu3gHtB/ndeGdZxHwRZLr229oQxNlu4T+Gkj4F34I8qkoDh7Pwy3DEJgVBgA9wWsUjpwphgwmU75osKnHCNmhQOyYNC7pzyIVdOMnsqeWYmmFvemNeDk1jjL8sZAvJnliydbM2bWJAa2Uu/nnWdQ8CcXKvQqejE3PxOGez8sMe/zrMcqkNgYis13tWEsr8kXk2fIuqThJVwMiFfM52VCv9GNwI/23ypdomow+ToNPu6wVOh6fPL8fHxyWbblJwacYq/gtW+i7FpLL2DU6MMYrez5FNNff7rmNJYjzj0VgN2k5Ls0pHwne6I4Hj/rgVsV8wmpuyn4zG7g34DoHhcwHvZ7fL2jlT2nizDIhdRqebGmkgOJOHXbQSRElQNIxYMv34Fe3vnYJY5Z7UiPLYi1+vv974OxdLjRZr4eA+vgDeU4Wjkj/jA3AmixCnEB3ln5BArvfxRTFq9H729fxDOyqLXgnZWY/05r9oCIiIg8wZUXsGY/gkN4DkMmbsCw4cJTlfvm41ibgldb9YYyNPXpi4goiD2sw6ANrIKhpMKNWxEK8TSXxZoDs9ofAvDbvc0YbA4+vZAxLx547Sxm7arELMA2ldQYiBsmR2P3h5Z0U2XKMNCM3neeQcGd1i24VOxCsxWB68i/GjHpx7YXioqMb4R0yl4y+OCXNq7POgVa1GipfVu7KwTXAjiQcUE8brZpx5sfjwNWF2LF8jMoAFTTiuXtFjRjYGQ9mst8PbJ4lnMUgevYfVj+xXBsAICmOJxX6/n0LkHqAABu6e0F4F2IbvFtXJ+yyrDIdMq8EazP/BOQ8S6WS6nL8krEgFCNeNkMfLPqHXNAqnYLHffcVscXhtJgy5/V0bgpYz5SksPRHSfw9/t/wD0r/4r0v69BtEs9rILwqEZ4tfXrQXHrG4Gf7HEARo2Jwfc7LyJPSoPPVRSB2qhFEoD8yWdQcLvwlP1b6CRixvJHMDLiLL5dyx5WIiKiK8WVF7ACQtCaLT4eJASvfeH+oBXohsT5O8UxkO4euwohHTgZ8JaPazRPk/eoeiFjXgIyANitQmtTlbgIeS/Jg9Z2uP2MyRefnfJD2tWNGAy0OTizTa11ndotZMIXlCF7rPV8teaUXWkcsJQmbR20Sodt1upCrFh2EW+visHMHwOQdboZk6KbYPVWsze21WWXKyVYfdurc1MwKUYMRh1pisIJN7VD6Fn8Ef36FwJfuFZlGKjHm0vewaDaMbgnQwokxQrJVvN5Y33m/2I9AOnWM8vnf4Z3lEFrxiLhsRgEv7kaHXDf16N4a/kCFD34MibMfglLurd2DKsPtuf4Y/jwGjzTJcBxGq4jNxrx38lVOC0PLm804r9LlT2sARg1RvxcEm+Rk7dBJWjdKI5ynWtA/uQz+B6KoDViNO5/dAr6IBtbHlAfw0pERESdU6eqElxTXIomhCIgXrihom1xJRXZ+2Fw+204b0fs4O6o3jcf+1eOEf9NdW+wCiEdOLExFJvTE5Ao+5eaqUWFTxVGqFYLFlJbHTIGIOu08u9m9J5ajhUOFxTGXgrpx07Q1OLetHo05QYKgXODD4rLmxEe3WSebv9etJJmZL5QjPhiLV4Vo8L3dgejKroMmS+5MedRU4tPJ9imK8rV/hCA38odr+a93cGw9LF74fGPtDCmXMQhc0Vgy/6sdNv9dIWU4PnzVf4taM9gFUBwMV6/OgdNZb2x9YgYSNbm4eY/5WC8NE90LraPzEPhL/1blw5cE4piYw169y+0nVYdjfv+mwL/q96DfolsenAxvnxMtu1W6nn3d3bvRSvwxv/7bwoqHc1SHYHPz9kZG++QNz4riXRL5eCdf78fGw6UIDH971gzZ2irrky+/1QY8pqNmP5lGZ6XfUNMe8qA90a52qJGvDvPuriSrQDsz21hNRsDcVo5uDZxBpY/PQU9Dd9irZ2CS8Jsy7FhwwZWEyYiIupkOlcPa/YjyOu9Hanj/43Y8QCMR5CzsxTJIy2/qtSCWNOJTThi7l29HcmL70NsoGW61EvqfOrwRzj91TCrtGOrbb3/Adp+wxLxvpy5sTbjUq3Sgrd2sakQLKWlSsvZVgiWKtlaeldt0orF521SYFdGYvwWvWU+KQU2Wy349ELpnq7oIS1v8sVdb2pxIKPInGJ7cpsOWTcXmivCmk75osLLKBZuEjTlxCL5Lkv6cu2uEAz80ccqxdlxVWOYC0FJ85RvCkHWDXrLdpoDsPdjLcJvs4yks6kQLLbFvD8qFYKlnmqp19Y2rVhWRRidjN302emIlm4to5Ie63TFXKXqaPzp8+uQ9af3ULZReEqeVpu7ZQx6n4uymi6l634Gy31aLUne4hhSc0qvH5b833UY/aedslTem/DeiVJMMp/ythWCpcq95t5VmwrBAOqvwfq/tb53NXfLaHzc8x+YZK6cLKsS3EpH31qOBUUP4uUJ/4Nx/j+3YkxrAEaN6Yp3t17A9C+NmC4+W36gKwaLBZSeefUMZlwlW+R2MWVXSun9Pw2+nFaGGbfLU3ljkDdJdsVHpUIwDFo8cqeld9W2QrDYDnPvagRGT7gamuwteKCFyr8FP55C4cg4xMX2xpBk4DRThomIiDoFr4SEhLYWg/z96Z6BPnffAq+fFAFue1UKJmpn0+cvw6YdRzu6GeSilGQdujedxMH/fNPRTfFgsjGurCJMRETUaXSqlGBPF967F/xQibqzDFaJiDxJxOgJuDoOMB7/nsEqERFRJ9K5UoI9xblMFBzsi34jFCnBxiPIWWe5FQ4REXU0sWc1rh5nv11rdasbIiIi8nwMWF1U880c/MTsOyIiD1eAd1bOB2/BSkRE1DkxJZiIiIiIiIg8EgNWIiIiIiIi8khMCSYiFBw/hL/cOrCjm0FtcPC7Cx3dBCIiIiK3421tiIiIiIiIyCMxJZiIiIiIiIg8EgNWIiIiIiIi8kgMWImIiIiIiMgjMWAlIiIiIiIij8SAlYiIiIiIiDwSA1YiIiIiIiLySAxYiYiIiIiIyCMxYCUiIiIiIiKPxICViIiIiIiIPBIDViIiIiIiIvJIDFiJiIiIiIjIIzFgJSIiIiIiIo/EgJWIiIiIiIg8EgNWIiIiIiIi8kgMWImIiIiIiMgjMWAlIiIiIiIij8SAlYiIiIiIiDwSA1YiIiIiIiLySAxYiYiIiIiIyCMxYCUiIiIiIiKPxICViIiIiIiIPBIDViIiIiIiIvJIDFiJiIiIiIjIIzFgJSIiIiIiIo/EgJWIiIiIiIg8EgNWIiIiIiIi8kgMWImIiIiIiMgjMWAlIiIiIiIij8SAlYiIiIiIiDwSA1YiIiIiIiLySAxYiYiIiIiIyCMxYCUiIiIiIiKPxICViIiIiIiIPBIDViIiIiIiIvJIDFiJiIiIiIjIIzFgJSIiIiIiIo/EgJWIiIiIiIg8EgNWIiIiIiIi8kj/H9kgqeMK9gMAAAAAAElFTkSuQmCC;" parent="vUu3U6UHRAD_ZUpuoUFP-1" vertex="1">
                    <mxGeometry x="-80" y="460" width="940" height="279" as="geometry"/>
                </mxCell>
            </root>
        </mxGraphModel>
    </diagram>
    <diagram id="uqWhT3BkBjmZe0Q6FJVn" name="第 2 页">
        <mxGraphModel dx="934" dy="1849" grid="1" gridSize="10" guides="1" tooltips="1" connect="1" arrows="1" fold="1" page="1" pageScale="1" pageWidth="827" pageHeight="1169" math="0" shadow="0">
            <root>
                <mxCell id="k9G911M53AV15HorQVSQ-0"/>
                <mxCell id="k9G911M53AV15HorQVSQ-1" parent="k9G911M53AV15HorQVSQ-0"/>
                <mxCell id="k9G911M53AV15HorQVSQ-2" value="UObject" style="whiteSpace=wrap;html=1;" parent="k9G911M53AV15HorQVSQ-1" vertex="1">
                    <mxGeometry x="270" y="160" width="120" height="60" as="geometry"/>
                </mxCell>
                <mxCell id="k9G911M53AV15HorQVSQ-3" value="UObjectBaseUtility" style="whiteSpace=wrap;html=1;" parent="k9G911M53AV15HorQVSQ-1" vertex="1">
                    <mxGeometry x="270" y="70" width="120" height="60" as="geometry"/>
                </mxCell>
                <mxCell id="k9G911M53AV15HorQVSQ-4" value="UObjectBase" style="whiteSpace=wrap;html=1;" parent="k9G911M53AV15HorQVSQ-1" vertex="1">
                    <mxGeometry x="260" y="-10" width="120" height="60" as="geometry"/>
                </mxCell>
                <mxCell id="k9G911M53AV15HorQVSQ-5" value="AddObject" style="shape=step;perimeter=stepPerimeter;whiteSpace=wrap;html=1;fixedSize=1;" parent="k9G911M53AV15HorQVSQ-1" vertex="1">
                    <mxGeometry x="470" y="-20" width="120" height="80" as="geometry"/>
                </mxCell>
                <mxCell id="k9G911M53AV15HorQVSQ-6" value="将新创建的对象添加到名称散列表和对象数组中" style="text;html=1;align=center;verticalAlign=middle;resizable=0;points=[];autosize=1;strokeColor=none;fillColor=none;" parent="k9G911M53AV15HorQVSQ-1" vertex="1">
                    <mxGeometry x="380" y="-70" width="270" height="20" as="geometry"/>
                </mxCell>
                <mxCell id="k9G911M53AV15HorQVSQ-7" value="GUObjectArray" style="shape=trapezoid;perimeter=trapezoidPerimeter;whiteSpace=wrap;html=1;fixedSize=1;" parent="k9G911M53AV15HorQVSQ-1" vertex="1">
                    <mxGeometry x="680" y="-100" width="120" height="60" as="geometry"/>
                </mxCell>
                <mxCell id="k9G911M53AV15HorQVSQ-8" value="HashObject" style="shape=step;perimeter=stepPerimeter;whiteSpace=wrap;html=1;fixedSize=1;" parent="k9G911M53AV15HorQVSQ-1" vertex="1">
                    <mxGeometry x="610" y="-30" width="120" height="80" as="geometry"/>
                </mxCell>
                <mxCell id="k9G911M53AV15HorQVSQ-9" value="" style="shape=image;verticalLabelPosition=bottom;labelBackgroundColor=#ffffff;verticalAlign=top;aspect=fixed;imageAspect=0;image=data:image/png,iVBORw0KGgoAAAANSUhEUgAAA30AAABvCAYAAABYfKm0AAAgAElEQVR4nO29v2tbyb///7xf7l9ggQoXMSm1YNxYRQqbdBZEwYVVLSFiU1iwpBJOYbTlChd2VIUFuTAIwjaRC2MFZPgUISkWIjfGEJVBhhVEcP6Ce+9b32JmjubMmZkz5+joh53XA8RuLOlozplfr9/zX+PxeAyCIAiCIAiCIAjiQfL/LboBBEEQBEEQBEEQxOwgpY8gCIIgCIIgCOIBQ0ofQRAEQRAEQRDEA4aUPoIgCIIgCIIgiAcMKX0EQRAEQRAEQRAPGFL6CIIgCIIgCIIgHjCk9BEEQRAEQRAEQTxgSOkjCIIgCIIgCIJ4wJDSRxAEQRAEQRAE8YAhpY8gCIIgCIIgCOIBQ0ofQRAEQRAEQRDEA2aOSl8PjUwGmUwDPZdPn2SQedXGaObtWjDXDWQyZbSHi27IknPdQCaTQebEZfQQy8rovGxcA3on7usDMEL7ldu8WYa1xHbfwHK0kSDmDZsXEfN42EY5k0Hjem7NWh5IPiAIIkXmpvT1TgqoAwDqKDgLdgmIvUGM0H5lEzaj3p81TFkun//M4mAPjR02enD0LoUNkPfpsgjZ90mo4cp3+m3t4csRgMMt5J0+P8DdRQeVP8J9GKVgzYVhG2XL+Bqdl6U5ze69+Gwb2YQ/5yQ8z4s0x/OwjXIq99VDI2qNVw1KUwjcyftj2fejNBnh88cOcPgapVXxN1s/yfTQ0M4v9nzSW5+WvT8eqHyQlpF3ZvvVAiDD98KwG2Ud5+B1w63vZmzomY/Sd91A4QgonvbheV3UQoqfYdOdA6PzN6hcFNG8reqFzeFnXF4AtSvD+xzmpdC9puy86y+oo4jnT2RxUGw0ltcsnyUX6qy/7/pyULyYwaCI5m0XNXRQ+Xv6e9t+VgMuKsjFeE7mPp5sKi6fiY3teavtT9Q3Mbxrf9WB3SZebCa8F9OVz9+xPv7VTeUD8qjeNlG8qOBNYLHt4f1+J4byqLajnNIYXsMG9ONrdF5Gbh/YWON/GA5wA2BjLanKdz+IerYzFVyHA9ygjsKSC0xp7UfpIqJ0Ul7vr9+jcgHUnkp3MlzDo8Mow3APjUwB9YtLfJb2Vja+cqigia3VdrDNot+N66P+934m+YC10c3rujQGUyvT7Vcz67NFY5UR7vm9zYQR1p4yWSMXNe4tRsrepzpwVJjMHVM/7NQBdFBZT1mOFIxnzb8fxi9XVsYrv30Y//D/+HX8dmVlvLLydvx1PB6Pxz/GH35bGa8cf5184lj6jriG+jr+an5PfQV+fzz+0X7p9Fnr51ZWxm97mvYGvvty/OFfy/PpvbV+RnddO+zZvmy7fyM99L/NnoPo63iI5+9fs/c28NyjvjfdK9gv2r7g4882DtTPhDC8//U4OMYD7/O/hfo56re0z0ntGz4fp35+K6Fra3/PdQ5r7is0x/j4cHrFmlcK0u/Y+5Xd6+S+v47fKuNqmvkRvEbEWjMvYo5B65r174fxS9t9WceO8j3j2hHefyafT/ZM4/ZH2vvRfBHrRZwxbFhjjr+GrxcYT/rf8p+L2odq32rGpm7+/YzywddjzZxR0cpzM0Csr6H+1DGb/Yo9D/NrMTJWCjjtt/PcS7g+MOsxFYOovg+OAWlO/ftj/FWVWWVc5s8U+44L/z2lzhhBD431CjqooXtWkkKX8qh6fTx6lUMhA3S9F/bLrJbQ8kr+P5mlvMMshKv5wHsYtlFer2DjykOVW3d6JxkUvukuXEPXC1rogp/t4f0+0Lz1pPATuQ3AI+XvWnibOpaPVNYzqITaxMO+TreR1dyX/rcekNfguoHcfgc47KK1x+9ns4r+6Q1yO2U8um2F+iVIuH9dEf07K3onGRSOgn/r7GR4CHQN3SugcATUTtcwwiD8/b/5vNqbRT9nUTrzUAr8jVvXD7vwDmI+0esGt14JOihk+J1eedj6VEFnt4l+YI1Q4OM/1NK916jtv8PdcASsgll2lTayOR1xfWdGaL/KoXIBRI6v1RJanviWII+q1wpc7/PHDuRnEiDquSwJYk2WmYxnhPrEDh9r8rX89ZGjPJeaui5eN5DZuQledrOK7mEdhZ0GthKuC7NlTvtR6gxwd4F43vXr96hcmOdP6ayLu0wBX66ryK+6fq+Gbty1yQrJB/eDlPerAEU0FTlDrHWd/ffo7S3jOuKI9tmItZd5mu6ixlMa8DG5TOQPPHgHrp+W5LPVLPJ7LXhP2iivv0H7iSKjrpbQugXKf9xhMATwT3jfFFTUPQ+IuY/qmaHSJwaPKTQii9JZH3iVw7vzLTx3vKqv8F15qK62Uc7oF8uAwAEAqCCXqUAsmmua74Tu4IQvGtNupIrSGoALJ+rCwt77gjqAWpwFeniHDop4vpDNP0WEoqAZ5Nm9FrrfMyisl4FIxU9i2EZ5/RLPtYv4RmIFMQmBRUXdsPm9F0/7qO5lgVCogNjsXxjbWw+NfxsbkZ9g4ZdKKBZvS+TmulmF51XZp08yKBxNBJfReRm5oyKat0kVG0mJum6wUKw/E/Si3AdoIPPXo7CyJSmvxdM+WntZ9E7KaP/awtrfsmIZVloYimK320T/T+DyQhUsuGL5i/xMTdcMot0oBClsGCayey14e/wfrgKokTyqnoeq4VpmI57DlX9tovjtjs2poWKMuCggcxT+jl7g1iu65u+GEWPIldT2o7QR+1RobTDBwu6Kp33LesvGAIDg+rdZhfhzmDqfX0U0b1/jbl2aL7/w/6a4P5J8sLxMtV9FwAyNnRj7632Cr718r6svrYFsidAZUmxzerWE1hn/f3nfFNjmfArMJqfvuoGMr/DZGs4sNK09FxUMvueneNpnAsBqCS3Pgye/bpsogll+xd+6h2AClufBcx3AwzbeHcXZyNKn90m3rETkV6jxwDOLvde1g22ynf1c4O9MMKqj4JBXAPDcDK70mBbm/IGH7mEHlXV9/HR2ryX1Nc9xWL/E89tjbCOYv5Dda8G7Amsff17s+5qxe1FBTr4HnYXW5TMmJIXPJBCyDa2G1xaBUR7/tlf/tOjQKJ4nN3UuHy/WMrkTfP7YQe1q8pyNRVi4sGK1nG9W9X0Wt5Wf6rwP5bEligkV0bz10NoD2q8yKBx1cPmPOsPYxhl+xjV05ed/VsLg7wo66OAuMIaZ56T4OLwusrxoUz+ytoXf76O5O90zWRjDO/e548JqCa0z7j3arAafz2E3+Nyuagg+0+DewdYI27wy9Qd7xVH4lmE/MjEa3ACoYct1bRh+xiWaODbcfyiXiq+f9Z2o/CMxv1oorYo5GBz7o8ENsPsc29MKU0vQH0snH+hylEzXF0VJHPPK1TFhz2tKa7+KYPeR3nmgeQ7m9qr9xca0yH8O5DlrC7koVfGV55o4T3qzyuRm1PFOdw3newznl8oFzBqyfCTJTf61Avc8eVbqfenyL9X2iM+Ynol45uJ70Tno7UD7w+uTtEZdN0JzwZgzGpHTN229jtkofXzA1E6f49LUcIeJHsBBGE6TwT+X6Ow2sTUop1T5ybUqGYdvKmGUzUwVVNTXjEPDAkKoRuEOK902IZQtEMKTG9XP+QMP/VNmTTf1EZtYOVw+6/sKwec/RGilVP2RC4D9Z5ds4TFNrMB9TO45/JkuaqJv1M+oG568aHDPw0RxVgUbtqHZvHxp41tNf59yLHHLNDMAlNEeMqPPxBskNmvDZipQN5yTHmzFCwpHCCviFqEkf+DxglNs4ZU3ieLpMUqrPTQyOV7gwT5OeydsPBd3ixCGD/960hy/GUiteJAhWLAUEIj2YIb4ZW3pQ17TJP39KC5mZcJo1DMJK6sltM628Tk0X6W1Tl1n1ddVLf4tDNt4s98JVcnNPnmOot9+tz2a5INwe7QhqpriF8KoG8RcZEmXClHfMRccSW2/0l8d7VcF4/VH52Wtkbe+o1E2fOeIDDNkv/+eoGmhNAomRyRV/PK/Mrml8/FzuP+c7lHsk8HPdfbfJCgWM/CfewC+p6jjQ7RH3t/zT9maod6PaOv7/Q7Cxiud4a4LdqVtNtd8uZf/PTDnmMypMyQzOSPBa8ponZlV78wfeKg+Yf+v8zq4eRgmCKtWwIt00gsLEhqtWzcgoljba8E728bgYwf1HcfFWBEsA6E/119QN1lNNLCcLQu6ymfLTJSQNmyjnMnxfI1wWJipBHp2rwXvtokbZYKLcfHucV+yqk8WodoVn6zKpsSs9300vxVCil/+QLNJcm/ziwHzUIF/BudfcPOtwCxHQ/YZ/558D4NGeQwJO2ooarSXDzBZnUwCmw1RDbM7dWx/79MNaodFsJzFjZCX1q/g+WfEZu17+MXiC4iogdgLqFHoYcITs3YqXA9wsxsRxeBvRmw8Hz8Du+/bJrCfQ+akhxEXHJuHQOe7lBfg4tVcJhzWYFmYDu8Hcj/OoX1LXsFTR6L9aAYEPc2s33R/Cwo+OiMfm69Bg+C0Xnqd4jkROnt/V9CR88MFgYght0ighysfWDwMsldGR2jv4mPhooL3vmIshGtVmDasAUcFFjYf+pypind6+xXE76yr40kvowijQiiig+/tQWVHOoZKUcy7hx3Uj+LGN9RR2LkJPFOxd3X23ydbL1bXWOLHxd0kay3GPQrlW72//qlIJ8kHlCZ5/ISe7VEFFUze9+U5MR5Nxni5uvfmC7YOKVV/AfgG6VkZ0/MHok1hQ/K8mePh7NMR1IqlTUQN8TSFdyYii9IZP2JCKyhsYE3epJSBF1BsN6vonxbdJuCwjXdHRTSvNF4kAH4pYkQJ9/MVDkb/XGqE1REG3/Shaj7XDWR43o5z+K0MHwPMS8cVCf43f4OXrGp+0YfVElpeF7VQKB9XIJRiINHK00ToyO3X0eHCRqCPtOEupoJHYbJ7r/mRJ/bSymmFd4rzNac3LvTw5dtzbD3m/9ysMi+tv3GLzfo1SrCfcTdP8gcaT95mCa0zi4BqG89izB0V8H6tBe+shO3HReDbwL9fFi6nrC1pEgqtmubVQE8TZh/27tvmNdv8zR7TKRVgrZHgPhJzP/rpUARRRVZgedRpinQkH/isltAK7V15vOD3GIhkABAeq3lUtX2jKQIovLzSmilIb7+ywfb5UPjg3xV0dDUsVks4Pi0Cchi/iHrZbaKv3DdLXYnfKjlNgl1HrHc3rGhICsS6R44q+2X3qgmMOxrZSH6GOmP8lerZy2L7GWujmpLBnErq0SeOuBppxd4vG+1j7cXpHKexMKVv8D2OJYOFlkwmmTnnRYfWQwNAZxkMewX5wpXCoeBCYI+05g3vgNNj48SYnB1ks7gmVKASM6lCGDgwm59jpHepc7jna1rLnD4Pj4cl7dQhhILg7wiPDrfoGZQNoytetlLxRcaUd6X1LA3bKGcKqDtXGs2j6oceajbtVcWrGEEw91GBn685wZzHiaNCeJGSnuXo/B1unm0Hwjazey1fCBMezO5BHljdxnOo5+854npOoatSqTkotXcSYakLjGcesvzxOfr+c+bJ8ryPsmsbAWvq4Hvycwad0HmaE78mY8d+gG0U7Dmpz5UpwLNAHsvcG6SOYV1uxas2Rg5jjBmBIrwmIcF7vvvRUmMKxw70zQTzOjYx4EUZ7sIe4J9RPrDnoWrTGUK/X1bmgYxQBB3DaXXr4OojfRtS3K+sz4Pv88EQU5Gvrp/z4jkI5Vesa6YQ1LXH8SLh9Dm1a3iUai53vHtk43kSnTeVd0szDkT0nzGMd3OLe5one6vfpoA8yu9Lm+uru9dgmGk8I20e1dC8i5hz0phLg8V6+qJyd3zy2DoE6p/EAauTnJdQsqUlqTIcex+2DOosLNm9YzR3FWUmEew+Iq15m1WL1ZspV0XLor8QeDhJ8bSLJiYhk8z7B76Jz9PzKHK8ClKIgVmp8t3vQtiwCq/SZiI8OmclZDer8Lw+nn8UIcgR9xvIg9CEJhnbIKydQkCYxeHJPPxktyhtsMECJeZwLkXBHbbxZn/DEpKq5ilmUfq9ljD2n2HzdEZbUaXnuQN0vWOsDcW28RmDb0W+kTlY3kSYlS2/ZHMLNdTx5Zr99pcjs0FLLZLkpmSE8yrSh3n0p821C4S5QhgH5Q2V/87UyGOZe4PUEKFQIRc+pnUFxEKeJYeNPCR4z3s/WhCS0hzKtxWK1wxy+vIHhjw3ER0U8g6RfOCM1KdRKQMiJYPtK/FyKQFMwg4DpLhfRbFZ5ePPFGIaTTynR1KyWPsl+lNGxFEKznK6SjBFIhXlLxY6pZfNMTnE05QDGijUpYkgFHNw8N2hDsESsSClj2vWMQSE/NOab01jigSzbIQqqBmKiUznSWJCaDA2PRn5X5so7kJThj9GW85iVn6bOWLBbeJ4L4/SWR9NXOLzNY//PuxyYSg6LDEVrhuYxN7zRV5n2VNfQgE77ML7/W6i/IVc8AXgyjSu5NyyLXwxWPblZGjdWI1UTHh8OrNY6TY3vYU2MuzzrISsSFbfbaL/p+thKnY2jLHyk98KVPPbfMEEKb6pzjzkUfCJhwH7QkEVeWSR3xRL+jZKZy3IhV5CHgLZE7RjCrOShRxu1PqrjR7PazSFmdyr6p2yMB/pAdRFb3AFb5ZeT/m3lQIfSeidiJxh9QiONNe99PajhSApzaEw4IThl5FevFdtjER419GXgIIhyxPJ+NnlA5GeEF5/jOkD6hhAHYXERuH096tITN5GbYhxWFG4D4i80fC6GO8e/SgpP+8veXGZePDzQxVYQRchW4gINd38Z8bfcHGasIfXee8YtlEOycAOESGhwkfJmZvSF/TI8QkaZ4H3hcA266SZCwK636/h0SobAIm1e7lkeBIGutAi/VEJTt6mqfnMzw+TY66zKJ0dA3/xPLWDPCaJ+x1U/niPu1k2yQ9fm1jRrSGXqhVQvobvwQsqYqoQL7zIQeEjGAZQEzle4tD5qbBY8biSmriqnDgAOa3Kbqsldt6g8begCeeahNzNtVrh06qj8DmxYha/DfBFfkvkmBoUMSboBteO/FMmNBZEXmNofYjKe7MRzlFNH43SJgvzZyVkuYU+nN8DQ8XSeGH8SRlFKNrO8PAy/0ghwXCAO1M4dlLS2o8eCIHwe52Bi69lolLnO6mC7pv9DmpXU6ZC/MzygfAIadYtF4/WJIctYe5Z2vuVA34Ek4/wKomIDTsifNOPXgtenSsii2N0XmZe+IAxNt49hlgtoSUUPyWiIwmiGmf9L9OxICLnT5mHoqDL0Rf0ePqRTp/QF83L48UpJms5/w19pe1wykJ43AAPNrwz5JGLPUG5Ne2owuLVf83r83dczsxIdgconVVRWl2wpWYtHFrkW9O0ITGzzevr7F/iZlfNR+OHS1+EE35ZfuULPJphm2aK85ENls8IhZL/XTdWk1ScZfAkfsMZRbbEfl+54oepz8WoEpFf1j00bYx2bPeZ6NkajlHIH3honZWwFfq88HIrghAvtR6yDIqNCHxtu6dYc3d5Po9W+FxnlRUDytL1F6MylpoiKPpp2rPbhm2Ud+qAtjpkHtUzEemQluK3JPvRrIiZ0+fMagmvD0WVQe6hSqXS45L0xyLlAyWvUXfUAtBDI+T1V89vjck89yvAPy8akEOCuXwKtveEDJXKOW3M+AAWgRSIFBGy0+yab4XL1DlRYTVQSTvePY7Ow8eZ6JUejlwl1AU/Zy98LIi/HkOXWiEKutTx7g9WfDC051qMQdm9FrqHzHDU+2SWtcKeRq7Mp3FO6BQsNqfvusEtTY6WaN+lzqvvOB7OPnnN5oR7H1tJ5mkxFegQZw/xXDqX4hfyweTTUjw9ZpbJQJsGuENESXvCJ1F4pyGsgCXxQ1+W2PBb04c/zw5RcS+u5Xy6nD5GIDphvYJOrMN+t3F8VeNhxWKujdD+g10ndDC1sDhOkSeyUIS1/8K+BtkONA+u/8J4keIGKdro/1vk1DocE2K9Lr/OYdeyh0mVHudcmTbN9X5uzOKcPg6rathBZZ2Hcc/UAy5xT+SD+L+9jee7gBqmVjiqoakL7wwp9CLvXhfhsGg0oXfSUQuB5+0faK4xOqpGCr/aJZTUkxwqaKIb80izROhSXvwaAzV0dfJynHvUfMZXJmUly8/RnNQ1cIvuyaMqHc2Q09xHKOqC4xd0udArYeJ4F5NMlD/w0Fp7j8JR9HmQvqGY7/HhUNAHGt6pg+XpuLr0JwJT/6o2sRarG2jM6oXJMBQtsJVkNl1pmlwlSdho7eVROutiYz8XMWF422dpbVjNo2oraW+ItSYi+CTnFjKBJeBV8L1LTRYKvT6P8N55oMsB7vGwYgRzdBzmv7mab5CpohNWs35YsHe1wfuCe79VBUNWGriiuMhzfJIg8qK6fG1O7qnmGAvg6NeOSAGEH6PR2S2iKHLDh8BG1HmLUYi+06QrhIqMifF6UUEu1bMCbUV05rDep0RkVdyYBMeEpPSKsC9gRnPtPssHSciyPP5A3jCL/tkOfVY6ckH+9NWsw8/ThIfjadqbPzAYJA67of0ju9cKf5YfP7C4MG2RrxdR9M7hHlmBI+Uzu030Q8qkpLzFZbWEljZnnfWROR2CF3SBPh8vdLzL8E7xUOoiqpTCMTxSRRzlII40C0euzDe8E+NZ8u+H8cuVlfHL9g/Nmz/GH35bGa/89mEcfvfr+O3Kynjl+OvkL8cr45WVt+Ovus/FerFr/Gi/NH9G2yaJ3tvxivG+7LD7CL6M1+HP723P8HxWXo4//Gt4z3gP7P0kbU9+Hd7XgfvWtd1yhfbL2N+R2xlrjBx/1V9J03fiJfrI5TM+vH8jx6FxHEjwMRlsu+65u80PtY1ve0nmWvh6rB/VeezwTAL3FRzjYi5PNaaj+sLlpZ1zmj6QPyd+V/obG0Pzmh/p8PVY6iMxFhO3J7z++/TeBq9rmhvy55S54a/9hnnujH+f+lfUui6/P7v9aJbrvflv2vkaet7BuSGu8/U4+p4D412du6bv6salYaz+vPLBPSfl/WpRiHFg3fOJKRDjw9bfyhhy2KND64a/5om1Tvk9dT8zkOb+PlulbxyxePoPQCecSg/n3w/jlylPRpPwGdpwnITQGaEu6n5bHDrfJHg5DrJlY1qlz20DtgibY4MwovSRy2ci/65eJ0rp4309kw3CReGcN723GqEl4SafkvAT7ne5PcF1xv+smKOaNsRV/Baq9FkVr/hC15WyNps30qjfFs/jx/jD8fKNl7DSN4P9KLX1Pq7yqD5fXRvYvq9eU7uGasaSa1sm48csQ6if+Wnlg/vOMu5XcYnTj0QipjL8JRljok/V3zOtz7q9M6U15b/G4/E4Pb8hseyMzsvsoOg5VroiDPDwm42rcDhi7ySDwjcW6pG1fI5YQq4bLLyQh+po5xnvU5z2jSEoo/MycvsbSpGkZWSE9slnbB/QmrJs0HpPEMsIK9hy+awfStEoy0dH3ZuQ13uEnMv9E9adIKWPIAiCIAiCIOZCVJVOtSI6MS3MiDrJzCtaDK4PmcVW7yQIgiAIgiCInwZxbnH4HXamMCl8s+RnVfgA8vQRBEEQBEEQBEE8aMjTRxAEQRAEQRAE8YAhpY8gCIIgCIIgCOIBQ0ofQRAEQRAEQRDEA4aUPoIgCIIgCIIgiAcMKX0EQRAEQRAEQRAPGFL6CIIgCIIgCIIgHjCk9BEEQRAEQRAEQTxgSOkjCIIgCIIgCIJ4wJDSRxAEQRAEQRAE8YAhpY8gOKPzMjKZBnqa93onGeN788bWToC39VUbo7m26mdihParMtrDiE+dl3+OfrhuIJPJIHOyDLPDxAjtVxk0rhfdjvvHcqwnpjnXQyOzDO2bB/xel3qepcSwjfJP068EMT9I6SMWBxcWEwti1w1kMtHCt4ApSxn+iqPA9fDlCMDhFvLJWjodwzbKls1vdF5G+Vy8y9pafLaNbCo/zoRl++brpgT517r3QssAdxcdVP6wP5PBdwAXFbx/0IpGD42dOvvfo3fOczFVhm2UHedzfWdaxY+P4UQGoKjvTnPtWTECUAQuKnhzvmjxu4PKuqH/fllLuN7ZlUa2Z7jvMVquG+mseddfUAdQe5p0F1r0+HNd/0do/1FBB0U0/yyltI/NgOuGdV+MMs5qrzeNPLQQxJiJM0f4nFuqde7nYDwez0jpE1Yazat8PuJeE4eXNKGcv+N4vXQRg3iWbRST6yEIzQAwQvuvOrDbxIvNNK9r7ovc/ga6ngfP8+B5VWcFbnT+DnUU0fw13mYbVDKn6f81bKCCnKbfR+dl5PaBjTX+h+EANwA21ua4VQ4/4/IiKJDp52sOlQsARwXzvc9g7UifPKq3TRStgnAW+YNjNHeB+ifH+Wq5d/NrsRtn76TA5sZtFzV0UPk7ujWprOWScDT65xId1FGwCh5ZlM76rD92pnlmWZTOuqihjkLMdXh0/gaViyKat4a1Z/gZlxdA7cptbXLywPExlVyQnIzjzv77BY61LEpnHvqnRdR3MpKRa0qEIvX7rJQLbhQ5+jL1s+t9qgOoYSvhfpn2+JsNI7Rf8X2CK/mm+a8dAyLqIJWXWCf0ymrvUz1Fo9408pCbEiXkEevcMTy/1ObbkuPvTQ/Qwzwej/3/mSlfj1fGK799GP+w/e3fD+OXKyvjtz3795Lwo/1yvLKyMl5ZWRm/bE97tcStGH/4bWW8svJ2/DXpJfgzYvcyxXXmjrj3NF7KfffejldWXo4//Cv/8ev4bcK+ZmNF+Y3Ac7e/5PEbi97b6Gv8+2H8krdt0s6v47fK/WvvYSp4/znMxa/HUc+BX+vYrXWLXjuiYM/65fjDvwnHuPocNPcS/fuLWwvE2urPNT6Ok80D3dhgc9ltvPDP8t8XYzHOa7JmTK6V+CWNP3kPSvw5zXN1GueRYyqFe9Xcyyz50X4Z7ivHNUWFjRPzHJrM8USX59eP8/30+yPd8Rex1ln7IWr9d5GTxPNJe92z7XPmdtvGj359noU85PZMQut18E4cxp1uHIv7ST5HZo247/armXAAACAASURBVOh9SX4Gy3s/cfnPf/4TeP33YnXP2dI7yaBwxP6/duWhmqpHKQ4D3F1gqvDA3t8s3KF2CNSP6vhyXUV+YfcTB2ahLQX+1kMjU0D9sAvvYHE2RQDMsiXC0wAAHRQy7N+1Kw9bnyro7DbRP7NYgodtlNcrCX5ctmrW0LV5H1dLaHniW4I8ql4rcL3PHzuBewgQdR9Tkj/w0EUZ7wY9YBOsj3UfvCggc6T+sYjmbQul1Rk1bgZk916jtv8Od0OgGhrjD5zrBnL7HeCwi9YeH1GbVfRPb5DbKePR3Psyj6rXBTJf8Gh1hPyBB+9A/YzrupNH1fNQBfy5bV8DxDy2zeHwe72TDArfJm17vw80b73QcxPe/EcOz5Nd09JWcT9+e6R7Va9zFLEmLYjsXgv+qscjG4qP1yzfMDHjsP3rBgpHQPH0OMZc0PWHy/gyw/aLtMafbj+X2hizbeHvN9H3bPOsgHrUXjlH8r82UTyq4N35i8k6aGUZ5aGetFfr9mHxfgeV9TJwz/bpwfeO0+dYRBdQO6yhflTH5T8jlJz69H7xQHP6mDueKXxFNG8XqfAhhVh8vjntPseLX5+jCKD+1/11P/uTK/Q8HBLV5RC4nToCISBJXPKbVR7u6aF7CLDNkf37xaCMwlGCvAI5pMoU93/d8MMdi6d9eF4VOGHhacGwrXC4am6/A6COQig08jMuL9h49/wwVhbShsMuPC4Ixguv40rpRQU5hxDK/EELrb08hPDieYa2hN67XxsJgynd1U3H0TFso+yQ+1DfcesbNg4WgDCUaISU7F4L3UMmHNjuMzwGdaG/XBDRhAPrw43yqHpVlFZT3KhXS2h5XdQuKshpw6eEQG4Jm3Ogd1JA/fD1zOaAP6bWL7FxWIz49AiDbwB2HyGJKpU21jD59Qo6ADr7udjh3knD9p0YtlHmcySkDMTIQQVEWCZQPH0xM0Un1vjT5igyw3bx8ZolxFKd4/wZDNso2/YZ9fvq3hclM8yS1RJeH04X+jyVPJQCLEQffF/W7cNsL2fyUVQu+31FGMxr2DrYQg2LDmdPh7EI6ZRYnNInT26+cMvCTiHkCXBEXkB2m+gvgTA5Gtxgmlh8oTQWn20ju7qN57sALi7xWStUBeO7QzHKgUp7E4VCFqJ0m2xQyJrkF5pyRdjv6qutvd/vJM/lWy2hxRWF/mkRQqn3PM9XapLBFWsftgjUribjx5iYPbxDB0WtJV7E/ecCz0IUv2Btb+2BGyk6uPwnpEYFlCd2z4CsnIp7H/xdQQcd3AWeubQZiyseqAqX6dVFTXxpt4m++v5ZCVldVURjblpETp9rMvis1o6p6aFh2aB7vH/CfRykduXWP5OxMD9G52VkdurMUGGwSucPPCfFLzimdAYBPv50f5u0KN2qnNqxK6zgGmEzY8k/cjVCDdt4d+RoFJTaVziCNBfUdYmv7Xx+TMZUCy8ex3skiya71zLPgys2GpjhTPcZPq5CCCFvFvTQEN7h0BwRRUrqeOeSJzVs480+E0Zfz8rrEGf8gZf2OSoEZYLhADco4vmTbMCQajf6VZEftlFev8PrqxoCe7nue7o9yNS/DvnRaeWp5X9torgLIFGxnynloWnhfQ/U0I3wMuYP+NprzWNUjdQ644Y9BzFkELSuo2GjuOhXIccKecCXEXTX4/mszOufx9YhANTxRXufweI1E3mZ34+DjK0dn4F2TSNjM3QKH7BIpU+ewLdNFBEUdphVIR6j87K/yRVP+1MqAXGxFRDReGZ0L63AyBN8xYKKLLafFQEH4XFwXrYIwAMeKqH82nlZ60Ho7OekQSvaYChSIRaS3efYDoWKvEspcT7lTZsr1vALQrAwjImHWCzO8azfTMHiRS7WgxOfhf300MgIT4FnDRHpnbCxVNwtQown/3r+4g3cDNTNOFlhF2b9bRqEJnF9tljWd6TxKynm8V6OBpoZrB3OqIu1NGdH5+9QPyoYDAO8f3SW/3sB24Ry+x3UruzjFGDjvn8Kc7XFtLh+jwoff6kIcYnHrubluP8M/rlEZ7eJrUE5+llJ7eseQpoLVeSF4eqiglzmHR7dTubHQ4UZVMXeGAM+bmbQokkIoqb/eyfMSOAyhyYKIuAkPyRUZmKNPwDZzSqOT4vo7OeUYkobWItrYF8toRURqik8nUlkBr0BTTUcTclqCa2zKvLKvQ++R8sL6clDyWD95upFFsqQImMIhm2UQykdUQW2ZJgMHZJZTVEW1w3JIDehs/8mdrVdZpCdGD7yT9kIiSzC9k/DEnGjl7EnIfYKFxXkfMUvuYwNmBU+YGZK30QBClojZygA+BaxaOF5lgQtjmxx0f0taL02WSMxsUBInZvde+3gfq6jwmP0tQLIUYXHz7P35ecVsppya6r8e6INuqpkYiEJL2RccTrsTh9uK56LRplibY0I91E8S71PN6gdFgHU0L3aCHkp/FCgRCWk5fAIhesBbnYj8tm4osFybDwcPwNr520T2M8hc9Jjz3y3ieYh0Pk+kL5r9kLaGJ2X2e8dbNs/yIXQ7iG4B2/aapILWDvi4AvdYcGBeSR4ZcdAe4XwFm1NBZYwvNOPnmDjT527prL22b0WvNsmbnZieL3isln118/Ofi7V30laZTSu0L2214J3to3Bx07yyqLXDWQy73Dje0TM60m0MMpz0K2hdjG98zNBGP7iKhvCkCr9xRBCyuaYqYqk2lcRob48x891/xMKotkDlo4yk2T8sTBuoL5TRnvI+0HKjeydJFmv9c9ZrHP6dTE3I+U9JaxHiaQoDyVE5Lu5GoWFMhSQMdhfUNmpAAHZUci1biGhIsxUlT+73OsWqJYswqeBULpI/3QDwCRCQMhdvgEgZIwRUV5SNN7mC9Z26zFEHVT265JhQZnzFhk77LUOe1GTydh2hQ+YmdI3CUkLWiPnkFs3w7yIRaDv3Cj3M0MOTdS8q7VEZvdaYYVZTADcYOBPAFMbpNhopa/FpE6e2yj9Cn8uQBHN01rA6ghoFFeNR2jiWerhy7fn2BJhT5tV5qXwy8+Lxfk1SrCfmWcjf6AxRmyW0Dqz9NN1A5n1CjauNIuKyDc6KuD9WgveWQnbj4vAt4HfPmYJjykUXTeQ20esHCXm2SlKFkPpiBGXl7+gL3DtSIU8qp44GoApAL6l2rEU+lThnWmXLLeNPxe4ktx/dqmEOENRKlxz+nTFgZhXvnsI1J5FGCniog0pS1foZkQdBRExhzer8LwWXv+SuAFhtLm3EeNvrsgF0kZov9IpLPwzsvCt8fKZQkhDKQSBlzwf5IgNzXouhFRtyGcYuQjdfIg//li4XweVde699Pd1drYjUwjjtEF9zjqjufqyGMwXCj8v11JgKE15aBkonvYV+UaMKVjSkTiWSBg/rFSSa4RnTpdmkN2rxtMBRPpUwNvpFlFXPO1b5BK9jM08w+rf83jB19OJFzW+jB2l8I3HYyyueudFBblMsNZTZycT3NCXcjLPE65saDo3/7QGHNVR/9RDdVO3aETkEEZWLJMrS+oRlasCbQjERksIK6dPz1zd8UhT3TFQPY89F1Zl6QZ4IlcNfG29Kx2j83e4eXaMF7j0/5bda8GT3q/7Xpo1PEcOb86343uTrxvI7NygKbWxd5LBu8fqYimxWYXniVpuugpnTEny2722AVzcYQAgC27JO3ztLqxz4aR2Fa7iFkWgqp4gsiJZgqpvS792MCVk7SSDwn6OGSdcrLmrJbQ89xqg2b0WvD3lj4Hxkg5pXE/bVqUi5ui8jNzH5xEVZtm6caN5J3/gKUJ40vVFQjPWotCrQnVDRV35H2zjr++/Q/vXWeWi8yItNg+EY0VM5iVYnOIXKIAxbOPyoo5OBhGVHXk+9WEX/cfvkNtPoSGhiqia3xTvO4T8CoWvdsWKieX2mQfMdRTOb/zlUb2qob6jnh/Iz3b8lkPljza2XcKcN6uYbGMT2aN42sXzjzlkvhv2kev3TNH+c8kUp6i0ilTloWXAFGLNFZcjXmvAMKZ8I77uXgW+XMPXsFTyXNX0qQnZJ89RRAedj58x2tM964iwcoeqwKZ0KkEsGTsCoRA+qJy+B0cgz0yxwgvXdgqHvspMwlwcwiZEURmpDeJoiWBFNL7R7halDUlX3VEX+hp2yQslbOvp5Beye8fJLH7DNt7sb1gWD6ZgTqxAWZR+r8WIG5dyPXeArneMtaEIjfiMwbciD0V1sIpyC7U1/n9zCzXfMhRtbQwgjp6wWq+WgHuydqw9lsQv4zw15wLHft2jA2XzB2qYDTdw8Y3d8k1U1VAZy+eSrC8BUvP0KYWXDOOUrWMzqJA3ELmo3Btlq1g5vEMHriFfCfK4UoFbu0UBjNUSWl4fzd06CrZ5MBzgxtHb5tqO9h+8aItW4RM5fsGQz9F52Xi4eOFIrTieRnjnjMbf6iO+p6veiCxKfzZRvKjgjWu4sx+lkMPlsz4PieN711EhWPNAfPbTFjzvGCn796eGKTEmw3u68hCwhkcJjZxij9Lm6Ola/okf7JDoiJS04N77NFDShAL7qci7i/JSxv7NSV2AyBQNZxnb7uWT31uI0hfe8JN95qEjJpgdxypgLoizt0KCjimEQrjARRsmR0tMkkv5prfbRP/P5yk0knv5QqFyWZTOWighfuGSDWMS86Ttx7KQufmCbYw8/NMYQvmJJxrL1cqQRX5TLJjbKJ2JPDC+6KihNaEjKnS5DXJYE7Os1f9qo8fzEJ2KHEhhfEnzYXsnmvYbK3Umy8m4H2vHpOgJDrs8J1bN8xPoNnvlpQ1N1rzu83opjrVxDIENw555WhX5fJzy2myhp3FhRiV7hbwErMkFauxeHLbvTFFteg7oi3vwcDK5IILqtdSGVk0D8+rr597EYxVMtWB7mNZwyMN0F5eiEm/8iTA7AOF8QHGcwcfPFiVc2t8+bflrWWsvOznWCE30b5soynsJj0Zh3r8ssgt6XqNzXfEbkQ6i88SkLQ/JyOk3YXT5e8yb5Xo8gch9i1M4SXjl3OoK2EN50z+bcZImZKMjpfpMi/D6hw05+nB5Fxk7HvNX+nSlSjVl18VrKYo3LIRJcqlqofNfosCKbVGNAVNedJ4ks2XFLyrz8TNG8tES4gPX71kBiLQ22uEAN5GhcjEKl6yWUDUpOSL3IyT4TfKPrOPzKS9dHWlVnhR6KX4b4IvSvpYlt4TlvQWLMuSfsk27IPIQI55F7yTDw06nyZtTj7zgROQFxcrJuAdrB/OUS+cvHuSZIMcVt8gqk9yC/WDXPVPOodGgYXtJ3nFusQ0XGJgSQ8L9TKsCbr5Ac7eGR6tsnEQXXklwbMV1wxBd4Hpg+SLP8rOVuc+juiQVS+VKncF1NY+qMPQt45lnruOPhyjWrryJYUsx+kUa4ORquWKfFOu8UOwC32fyUPfQobIiTOtJGsYZFqGR+/5aU9jq3SQXWTWCpi0PAQCyWPsFsCsnE4UtIBsJT5Ixl1O6gjjPT6twqEdFcXxPmj0iILvGiq+4ybLCszmtw0Pkxlk86WItSSuijhuhdHKZ6RD5SBkb7l4+YJ5KH5/I5X+2wyWxLZbspQ4zmyH+wmHbfDe33JJkYxI8+N0Saw7Aj9m+uMSbv5iFOBAqyXOMUrPQrJbQsilRw7tkpaN1GM8bmihcLhtPuI16b2T+wEPrrISt0Od5ZVp1oeDJz+oCMCm8ExXGxauCfkvhPEvhqZlFUvo9WDtEWHSO5+B2PcVjKorugFeZtB3PYjizyaYQ3RslMTSnbGdwBS2gYSuwdIbmP5fakJdkMCWq8I3lzUCuTjpcw9Zp0aC8M2F+I0HJ8CBZlM4cD5m/qCCXyeHu93jjXRj4Qn83HhS9LEjhkqZKyrI3L1aoanqIvDxzoQdeuOGiglzk4dum6qGzUGYAt/E3yY2sbgLYrPoVnJOuRX613PVLPL+drOHsKK47vL5tosjDSFmuk62yIsMWHZE0ooWt9fxIFFUW4dFSxdM+W7eOCsGw+7TlIU7+V6GcaBRNWYYLKRs8DFd813KuXoErjaZ5V99R9yHh1UK0EUnILIFjCwSqUYt7o6EeJcY/fd7QjotQCKsw6tu8ZpJSbCuaGBtl7NoLN0XI2DEYj8ezVfr8G7moIPcHcDzFRHMlSaxx1CGH82dyBp198xXVfaLP7HNBuPqDnq3os9rYgtNBJ0Fyadr0PtXnZn3OH7BF3+08HqkkOD+41/0w1m0cX9X4oizG6SSX5FidU3Kcutbyxytr8vy9NMICjSFhCcM7Z7V2pDXXfaMM+5dfTatrDUMRlT2LaD5dC1k0RciayYhjE2Dup3FMKhZlyOXzE92t5xuK/K7kIS8BuDAQMqYAwGoW+b0WvKuaFBLF59NJjyuF0B4jkxrcWypyv6z9zz0p6vvMqqwax+IcFK2piqkh7b114j1zM1KZlNvZwQ0GR7pqhkH8PPRIRWm2RzbERzqLUFJ68gdsbUMs3+Ukp/nLU9WYM/Gm6SpXvz60eEoN4346vrD2fHyuNZKOzsvI7NT9fs/utZjip1VkUma1hGMRHhjac4UxwHBk0GoJLd87rjsPUnzfdrQUq6IeNEwKz6BLDq2kfJoiq2SEkQHh47ly+8E5L/IW/c/xvvDzE3XrvNQu63l5cfGVyKAhp3BUQ9NSDTmpjC17+WZbyEVsSpBCu2acbyJic+Nb9ESYSkoCQxr4JaWj8yqEhcctJjuCwOTnHHbhRZ7VJgbyoi3EvHCJdRLP5jejhJ9QSfA482E1i6zwkFxt8MWCF2RQrW6ikpzIJTsqBIVPceYaPz8mUpESCmTEeUPGkLC44Z0zXTvSmeu+IrJbRPGogMY1z+txsuDy3NPNbKjfmDe3yfJF19VczYfJ9p9CWNUfPi2s5tYQaT5G05r3woAhrKki9CiAbLEXv/94zVcK+6fFdNZktdrmdYMXhNLn5q09LjoUw9HPVxa+5XgWqQhTcml7SnurXNXSTZiPo8SmgH+eZbTCp5L4fMaZE672yhRvXaVStrZVNw33Lc8Tn0lOs9+nfhj/F2wFwj7vAvlX+YM+mnDxlE4LN3Ac1YFQuCkg53Cr/R5Q/Ga8notzUXWqA4uSsOxPgTSSMMzgGGFoeVL1U458Drvu+7dfjCnUem3qSf7A095v8fQ40E5xpmQAcUSEQ37i5Ly8aM9yNFmUztR7ZHPJKmVbZGxTaKcx5HM8T/79MH65sjJeifV6Of7wr+N1jr8maNTX8duVlfHL9o8pb053HfPfgm3V/e0eIfrjtw9j61Pkn3vb4/cb+/V2HHhCvbeB8fGj/TL8mdBvm5tn/b58n1HjLtE4V17aZ/lj/OE3y+c0/fD12DCHDLDPRzx3ld7b8UponPO2Ro5px7GfytqRwlzn9yray8aMw9iPcU2Gpq/jzo85wZ6B+xizou1n+7XVMe73SaL1RTdGHPrC0v/W9kSNG+3csuE4bpTfFW10/R23dSWtvXVyT+b127SnmOeEy7h1H9tJ9jR+XT7mdc8p1tziY0V9RqmOP2XPtaKby8bfk8atde9T+5M/92nWX7mtmn3IJhdMnq197f3Rfhnu37TloXuDuN/72v4FYJGx//Of/2hf//d//+e//vd//9d/zVfpW0biLGJW4m5w6kRPSWhaAEJRiLx3B8UrFnLfWTbOmfz2DPl6rE5ueawEF0r/s0Jx0CwKcRW/RO0NXd+k9OmE0jmN/VTm+o/xh2P1GSdR0IL9dh/GpYmplT4xdnWCoSo4hsY3f/bTCn0zxCQ0huZ5qsbMuO0zrZ3msR05ZtOab1phf3rSVfqm4+txAqXPUala6vHn/6beQOeq5MTd4/SKcJwxJsblFGPjHskkqeLqJCB8bDJ2lMJHSp/Cj/ZLGnzT4AtsC7DaSELFj/ZL++Z0XxdYizLnE6Xwjh28mD8BNNeXg5A32blPJgrI9N4jYjweG71DabDs822ZlD6C+DmgNTw2Fhk7rpfvf/7nf8b/NR5ban0ShAG12pB7ngVBEARBEATxMxCuTqnLCSVkXGRsk/o21hRwEf+/kMPZiYcFKXwEQRAEQRCEld0m+qTwxSKOjG1T+ACAPH0EQRAEQRAEQRD3BJ36FqX0kaePIAiCIAiCIAjinuLiwyOljyAIgiAIgiAI4gGg8/JRTh9BEARBEARBEMQ9IWlmHil9BEEQBEEQBEEQDxhS+giCIAiCIAiCIO4hUcc3UCEXgiAIgiAIgiCIe0JUaKftfVL6CIIgCIIgCIIgHihUyIUgCIIgCIIgCOKBQ0ofQRAEQRAEQRDEA0MO9ySl7yekd5JBJtNAT/fmdQOZTBnt4bxbRRDEMtA7yaBxHfGh64Z5DYnDsI1yJoPMqzZG016LIAiCIAgA+ty+h6n0CUFCfZ1MLaJMuG4gkzEJRyO0X6X8e2lx3UDhCCievkA+zveGbZRdlEHrc1lWeH/FUnZ7aGQsyvNPy316LqKtyitNBYSvReVz3RXZ7+vfw4IMMCMMvgH1HXv/9QY3KKKOd6a2O/5W+48KOgBwUcH7hawZYu5P8SKFlSAIgrgH/PcsLz46LyO330n47SKaty2UVsW/e2hkCqi7fHW3ib7noWX5SO8kg8KRW0tqVx6qm26fBQAMP+PyAig+W0OcdhdP+2jtZWN9J5LdJvpnJWQBdt2dOnDY5b8zQvtVDne/2++PPSu1P3SM0P6rDuw28SLO8xJtyxRQRw1dr2pUSMWYmjwrDdcNZHbCT8/6nXuMeCb2cer2fBeCob9cCd43G9OVC6dvout58CyfiLOGxR5fwzVsnRZR38+hDPt3R+dl5D4+l+aySpI1QzensyiddXGXKaBwsgXvQD9S8nstvP6eQeHjZ4z2TG2yMzp/g8oFULvq49FfOVT+auOF8f4khm2U17mymBhlHhx2jfdqo3eSQeHbVA0hCIIgiJkivH4zVfoYemWBCVMbWgGUvadeJ4+q56Gq/Q0m8NzEELryBx68A/4PLnTahDZbe0Ot+buCDmro7mUBDABECYS8/ZPWWe5V+hZXXN2UUi4U7jbRV4Sb+k4Zj4x9xBQsz5PbHiVYV5DLVKIaxElTCbELvp39HDL7LsqrC259lBZuit39Rntv1w1kdm70faZVFrMonXkoaX+Bj9tf3AX87F4L3h7/h1A2bAqCrb2W8cnGpvgXH6PyB568RvNjAbnMpXX8OiuevJ168qhe1VDfKaDx1MPWJ5uBzDDXA8Ym/e/n9jvAYRfVzSzwZxOX6xW8Od92XsONc4GPi1TmirU/CYIgCGJ+THNcAzAXpS89Ir1zAcFJg1ZY494p1PCaCxuj8zJy318nsvwCPXxJEj4Zl2Eb747AhaaIz/rCcQ3dgCCWRemsD7zKofJHG9v+ex1U1jPseXk6f6lOsOYCbUKL+fTIArVOsRPvd1BZLwP3TIgbfJ/Or/EzEemduyggY1tHDAoLM+YU0fyVj+/rBjJ/PbIrNwFiGgqksM7sah6lMw/b52XkAnN1Rmy+QHP3BpeDHqqygSwNhm2Ud1hEgG+AWi2hdXWHzE4OjbVplLVpog0IgiAI4uFyr5S+vE74cPDSWbl+z0OMJt6mwfcOcNRB42l84WN0/o6F0M00jFDkwtTQdVGwNl+guVtH5aKOQkb1MxTRvO2itl5A7mQN3lPxt7BS1DvJoAC9UsfuG6g9Vd+bjzLYO+EKn/F3mMC9dZJB4aijKLnEQyLgnRO4eOlscCNL8fTYnxejwQ1wUY/lnYrDaHADYANr0jzU3ptEJ8rwFaBoeS+L0lnL4DHVweY5orxroh90ivVmFf3TG+R2MtHXkdF6fC3RBgszTBEEQRDEYpjTOX3Ma6QmvzNLfB0FTWK8ex5g2EsXD/59xVuWP+iiBqD+V9wE/R7e73eAw62Zevl6J7mQomqHeeY8T/dqobTKwrmK3waW4g2swIOhRey+F2VdF15PByVY9K29cIRa4ENX1MJesIRVSHUt9hAuKCKKe4zOy8hkJh7u+s4sikfoCpoYCnmEiiRFFBrhhX1ciin59ya/duowrSFx8gBDXrqY9P5misqxtM5k947R3AU6++9jFK2JKhxSRvu8EblGmvqfhWKb5rr0uqrFfAIjtE/MY04YfeqfLE/iuoGMULwNBpfsXgv90yLqO3GLQRXRvI267z6au3GuSRAEQRDLjS2kU31vDkqffjPunxbhF1LQvidjqLKXEXllBsHIJFQNgUlemk5RyOPFaRG4qOBNjOp0vrdJQ2c/Z2lTjAIMvPomwHLxUqvst1lF66yE/OojFNHBXei6A9xdAMXHa6Gv+l6+3xfjORv9c4kOXENq89g6ZP93M9D07bCNcqg/6ig4V1FkYzUUhnxRQU6nSF03tP3f2X8zp6qNpjyzOgpqe4XQHvgc85pqZ4nOA3NUMFarrF2ZlBODQB9SXMwKFesPg/JoeAmlwy9k9Kc6vrMo/V5jzypupV5ebEp7P0+qwTWS/z3wfGbipVbWWVmxvH6PylEFOe08mBh91Hxh/xMnGT8iI8rLlt1rwbuqob5jqWw6C3RVn41GBzrWhiAIgrhf3JMjG1hoXkBAum2iCIOgaH3xsEUe1hnlbXS24kvKmA67BZ57n6IQuTCHXXQPJ38enZejPT+mYyxUD8xqCa8PdV4XVvkx7FEV3k2H3MIZIfLdNtYcM6uesqfd+T5Q3umgslMBAn0lvAMW5UZCKP5qf7P+UpQD0Z8Az5+UDR8bALgA7H9fGu8aoV/rKXMyLKjGF3HPckl+4VVX51wfzV9016yjsHMTUNbEPcTzjMVB59Fmc8vZAya9qpuQvMgR3sajd0uhBNiNS1FeUrHOajxim1X+d/YcZGWMjXmdUgxMjCBMcQ+FwZqOeNmswvO62NjPmb3OwTt3UOgjqrqultByNk7er5xggiAIgrgnSp+CVLLbLuhawso2q9GC320TRdxgECnMsaMQiqfdGYYP9dAQuTCqpfzJMbq/mKzwAVOD3gAACghJREFUQcJKcljAyx+Ynkk4nFQoOeFcvvtJODeUlbBnIaGX+Gx7vlJxHVW49cNKvw18xZGFHELr/cjuVeckVOZRDfWr8GDpFOMiHqkl/g/0XqfaVVAw9p+B05xKg4kX01kZUo0nGkVAb7TRecenY/C9A+w+Qti3bmZ24Z2AUKq7h/x5nvSkcz+Pw+OVe81vTvsJlSSuhF4BBZ1iGGA24Z1J+oAgCIIglpE5FHJhFlh9Sn1HU1hEYCoywJUfuJYn52Gcke3UHPuwWkLLK/GrWLj+wgqV7K2h/THyhxIgHbfAPTyyKJ5dzSJ74MF72kBmPYPKFIUKxHEZ4UIu7DlePpOeT8i7aTky4UhTMTGqrPvcKeL5E11reEjoERfsDcKrCDPV3qvg4g4DAFk/RzJpPmoYt3P6LFjPy2OKYOWizudz1NEXNWyF2rKGR7sADN6W+k7G2D7zGmJihParqOI+QdzOXNMd+8CUEwCAax7ahanQiFj3+Pj4ZQ1Z3DlcUGqDC5tVxPl44JcOPPQfl5Hb5+NcyXX0kdbPqdiswvPmdTiKDKvEzIrC3C3f+ZYEQRAEocGU53ePzukD9/Bd4jmvNlmPU6lOG4KWEptVeJtAhGqYkLDCZ22Ht4VGpoDMkf78O6NgbXk+8nl9x0+kdu3Ugd0iihciy0tXkt61eqddIbCx9rgIoMNy9DajFajeJ36wgyY/cX6wHMnFE+NQb2l81X1jTpxzD7NY+wXGPk7nnD5gUkmyjyZyqNiUcJWZF/oIHndiXgd5Du2zNQBfDNeKcxB9FPHOy8yubQAiu/PiEp+HpTmHO6oeZ5txUcFxL2C5ykU0b4+BP3IoZECKH0EQBHFvmanSF1VePNb3AsJfDw1M5+kznuUVUiSZULsd9yYUXEqph3ybtvLmRqSjCTLhA4rDgrXFEyqE6tB5fdyLsttE/0/gzUWaZ8ix0L+8QYDU5e9lnzxHER2WK7YXJZQJ673Jq6dDeOVUQVNP4uND5s7EGxYaF0aFaqLYizk09bmHST05uu/xObNx5aG6OUIbmM7TZ3oOmrP+aleOZ/BJa9m2/Df5zL/rL0zheJINnNcXxHYQvUATwTAl/nmpYv6vV1BZz+ByXuN+eIcOgOeBPyrGh8A4EJ9xjfpg33/Dc5VLq1mAn2dKih9BEARxX5ldTl9E4RBrOXI1v8Zm7U+IKJARXfAhnd+MW8hldF6OLG9uI3/g8Qp4SarM8aIIn7ZY+1SB+fo9q3qaamgm9wKhg8rfprINE4UtoHytbuM5LzwSVUXRr7C6+xzboX415GUNP+PyAlDPTAvdwRorvtL5+NnB58s9m4FiKfOGexs1R22wM+LsiPL6xufmhKkyb1T1RPnFC31oBf0pCeX+8rwwpfCOX/glEnFMzOvgurL5Ak1UkOPjl3mjDeNt2EZZl7/L19yZVbzkRVcKPG/VOyshu1pCi69ffp7fjAmdX7hZhee9xt26ea3rnWRQPgcr9BNlABBVagP50yK3V1PVliAIgiDuAbNT+iIKINiObAiVJd+sapUvt+IMaYU/zZHrBnL7HVZ0ZZpDhDXPLVz4Rvd8eFEE5bd7J7wgDvewpG3tzv/KKrLiqKARHqUwRFVgRhalP6XvWs7VK3ClUV9pEJrzwSY5pJHnL26+YArBRQW5UDVVdpzA5NpSsZT9XEhQH503tAKs9piJaVHOLNR7wUdov1Kf6wifP07r5dVU5g0VHIkq0sHHIl9zQsrXUcGpiIut+m5ajM7fGI6J4UrF0Tu0h8y4YTyChHu6VFhhIH2OqG2tjFQSxVmLO3Xo14Y8qkIZPiqkfIakCh9zgbk4WRvuhrpfHmHtcc1BKeVHfojohpBRK4+q56D4yQbPmT4LgiAIgnBnDjl9syPdQi52koaquhVYUD4zw8IFscI7EfwcKywxk2YxVks4Pr1EZ79jKYZiOIB9tYTWLXhV17q1QJDZY1xE83QDFV3eo+UMsglM+by8qKBjKNRR+136x2YV3cM6Cke68N8imreTf4m8Rf9zqRTBEQVq1FzPIpqnNVT21adgeK4aT+FSkWohlwisBVLY8Sa1q5bBeJBH1Wuhd5JBBTV0rWub4gX0iyrV8eW6irzSH7FCjsVxNjy/kXkdo3I3Wajp2kkGXx5PGwxvgXvda7+LJyhClG3tyyK7V4W3BmR2Csh808+d3kkOlYuo+2SKHzIFfLmuYiv0PjMS4bQPb2+ARqaA3MnadMY7giAIgkiB+3lkwzwQ1u3IUuFEmmT3Wv4ZjCosRNbiYeSeHuZFDsOOq4gI131SDZezjxNiu1pCS1sannlIVC9U/sDT3q9aAj+71wqczZgW+QNPuS4XekM1biRvaqCd/RkdFH5PkLw60WGVPB9SGgMiR1W+3jvVy7f6KPDce5/qyjECoqhSE03/jM2Eh4eLHMbdIooXFbw5H/EjXNzC3PMHHqp72RmNhxHaf7CwS2Zk6KGRcVHUOJt8bms98Yhxn+F+9BkOcAORc8yNKtIxLQRBEASxKGbj6bOWfpexHdkgMG/oLsVRfIweKqUCnrgmz9kxfmtwA3thj6SV9eJUQ0wflpdWDx9NwC3srJqgjogqkDbPnarITVnqPb5XVimIsTqtp9WlwIaE4/3mDzx4B5pfc7pfXWVVy3V1z8CpnebfCf2WdN5mFC6VGY1HVqRUvdMvYAJMCrnsNtH3PLRMX+KhmDWp8JC6Pk4UPOksTtkrx3NWZQ907Yor2qFiTyWUDnhb5WcWuVYW0fx/z3HJlcf+WQnZ6wYyOzlk9uNV9pwZw8+4vCiiecvunVXXnLQtFJa828SxOh42q/CugMxfdxgMgaxY4+KMERV5zKyuYQM8DHtzwHKQD9d+XqMIQRAEsVDk4xtmo/TN6Vyl5OGdsoLCc1TOon5No9QcdiPDnVI4pWomBAWkIpp/cpFu8wWau3VziKPxeduF/QcHt+jTwc1TkNY5blEkDu8MGm5Yjm3UVTTGHjX81bA++kpMyHNqWEu4wsdCCZXsM4OBIIq1wzu8PpBzqavsuUQa51RmoCgq40U1djgbezar4fU+4dmm4TGTR/W2ifK6FIZNoZ0EQRDEEvBfY9MJfgRBGJgI9vfneAaCIAiCIAjivqJT2eS/if+X/yv//70u5EIQ8yQQ3gcAhkqJBEEQBEEQBLFMUCEXgkjCbhP9ZchzIgiCIAiCIIgIKLyTIAiCIAiCIAhiiZk2vJM8fQRBEARBEARBEA8YUvoIgiAIgiAIgiAeMKT0EQRBEARBEARBPGBI6SMIgiAIgiAIgnjAkNJHEARBEARBEATxgCGljyAIgiAIgiAI4gFDSh9BEARBEARBEMQDhpQ+giAIgiAIgiCIBwwpfQRBEARBEARBEA8YUvoIgiAIgiAIgiAeMKT0EQRBEARBEARBPGBI6SMIgiAIgiAIgnjA/P+OVkl8lIeYugAAAABJRU5ErkJggg==;" parent="k9G911M53AV15HorQVSQ-1" vertex="1">
                    <mxGeometry x="250" y="-240" width="893" height="111" as="geometry"/>
                </mxCell>
                <mxCell id="k9G911M53AV15HorQVSQ-10" value="InternalIndex&amp;nbsp; 全局数组中的位置" style="text;html=1;align=center;verticalAlign=middle;resizable=0;points=[];autosize=1;strokeColor=none;fillColor=none;" parent="k9G911M53AV15HorQVSQ-1" vertex="1">
                    <mxGeometry x="175" y="-90" width="190" height="20" as="geometry"/>
                </mxCell>
                <mxCell id="k9G911M53AV15HorQVSQ-11" value="FUObjectItem" style="whiteSpace=wrap;html=1;" parent="k9G911M53AV15HorQVSQ-1" vertex="1">
                    <mxGeometry x="1595" y="-170" width="120" height="60" as="geometry"/>
                </mxCell>
                <mxCell id="k9G911M53AV15HorQVSQ-12" value="FUObjectArray" style="whiteSpace=wrap;html=1;" parent="k9G911M53AV15HorQVSQ-1" vertex="1">
                    <mxGeometry x="1370" y="70" width="120" height="60" as="geometry"/>
                </mxCell>
                <mxCell id="k9G911M53AV15HorQVSQ-13" value="不直接保存 Object ，保存这个结构体" style="text;html=1;align=center;verticalAlign=middle;resizable=0;points=[];autosize=1;strokeColor=none;fillColor=none;" parent="k9G911M53AV15HorQVSQ-1" vertex="1">
                    <mxGeometry x="1550" y="-190" width="210" height="20" as="geometry"/>
                </mxCell>
                <mxCell id="k9G911M53AV15HorQVSQ-14" value="SerialNumber 唯一标识符" style="text;html=1;align=center;verticalAlign=middle;resizable=0;points=[];autosize=1;strokeColor=none;fillColor=none;" parent="k9G911M53AV15HorQVSQ-1" vertex="1">
                    <mxGeometry x="1565" y="-90" width="150" height="20" as="geometry"/>
                </mxCell>
                <mxCell id="k9G911M53AV15HorQVSQ-15" value="AllocateSerialNumber" style="shape=step;perimeter=stepPerimeter;whiteSpace=wrap;html=1;fixedSize=1;" parent="k9G911M53AV15HorQVSQ-1" vertex="1">
                    <mxGeometry x="1730" y="-140" width="120" height="80" as="geometry"/>
                </mxCell>
                <mxCell id="o3C7RrCkiSHtWkNwZcuA-0" value="InternalIndex" style="shape=trapezoid;perimeter=trapezoidPerimeter;whiteSpace=wrap;html=1;fixedSize=1;" vertex="1" parent="k9G911M53AV15HorQVSQ-1">
                    <mxGeometry x="1023" y="45" width="120" height="60" as="geometry"/>
                </mxCell>
                <mxCell id="o3C7RrCkiSHtWkNwZcuA-1" value="UObject" style="text;html=1;align=center;verticalAlign=middle;resizable=0;points=[];autosize=1;strokeColor=none;fillColor=none;" vertex="1" parent="k9G911M53AV15HorQVSQ-1">
                    <mxGeometry x="973" y="35" width="60" height="20" as="geometry"/>
                </mxCell>
                <mxCell id="o3C7RrCkiSHtWkNwZcuA-2" value="&lt;span style=&quot;color: rgb(18 , 18 , 18) ; font-family: , &amp;#34;blinkmacsystemfont&amp;#34; , &amp;#34;helvetica neue&amp;#34; , &amp;#34;pingfang sc&amp;#34; , &amp;#34;microsoft yahei&amp;#34; , &amp;#34;source han sans sc&amp;#34; , &amp;#34;noto sans cjk sc&amp;#34; , &amp;#34;wenquanyi micro hei&amp;#34; , sans-serif ; font-size: medium ; background-color: rgb(255 , 255 , 255)&quot;&gt;这个序列号其实就是一个从0开始递增的，当新申请一个的时候就加1，这样就肯定不会重复了。&lt;/span&gt;" style="text;html=1;align=center;verticalAlign=middle;resizable=0;points=[];autosize=1;strokeColor=none;fillColor=none;" vertex="1" parent="k9G911M53AV15HorQVSQ-1">
                    <mxGeometry x="1500" y="-40" width="690" height="20" as="geometry"/>
                </mxCell>
                <mxCell id="o3C7RrCkiSHtWkNwZcuA-3" value="EInternalObjectFlags" style="whiteSpace=wrap;html=1;" vertex="1" parent="k9G911M53AV15HorQVSQ-1">
                    <mxGeometry x="230" y="-730" width="120" height="60" as="geometry"/>
                </mxCell>
                <mxCell id="o3C7RrCkiSHtWkNwZcuA-4" value="供内部使用的对象标志（GC，低级 UObject 代码）" style="text;html=1;align=center;verticalAlign=middle;resizable=0;points=[];autosize=1;strokeColor=none;fillColor=none;" vertex="1" parent="k9G911M53AV15HorQVSQ-1">
                    <mxGeometry x="155" y="-750" width="290" height="20" as="geometry"/>
                </mxCell>
                <mxCell id="o3C7RrCkiSHtWkNwZcuA-5" value="FFixedUObjectArray" style="whiteSpace=wrap;html=1;" vertex="1" parent="k9G911M53AV15HorQVSQ-1">
                    <mxGeometry x="1550" y="-290" width="120" height="60" as="geometry"/>
                </mxCell>
                <mxCell id="o3C7RrCkiSHtWkNwZcuA-6" value="FChunkedFixedUObjectArray" style="whiteSpace=wrap;html=1;" vertex="1" parent="k9G911M53AV15HorQVSQ-1">
                    <mxGeometry x="1800" y="-290" width="120" height="60" as="geometry"/>
                </mxCell>
                <mxCell id="o3C7RrCkiSHtWkNwZcuA-7" value="简单的数组" style="text;html=1;align=center;verticalAlign=middle;resizable=0;points=[];autosize=1;strokeColor=none;fillColor=none;" vertex="1" parent="k9G911M53AV15HorQVSQ-1">
                    <mxGeometry x="1630" y="-330" width="80" height="20" as="geometry"/>
                </mxCell>
                <mxCell id="o3C7RrCkiSHtWkNwZcuA-8" value="数组中按块扩充，但外部使用还是个数组" style="text;html=1;align=center;verticalAlign=middle;resizable=0;points=[];autosize=1;strokeColor=none;fillColor=none;" vertex="1" parent="k9G911M53AV15HorQVSQ-1">
                    <mxGeometry x="1795" y="-320" width="230" height="20" as="geometry"/>
                </mxCell>
                <mxCell id="o3C7RrCkiSHtWkNwZcuA-9" value="内部被分为两个部分，一个是一直存在的，一个是会被gc的" style="text;html=1;align=center;verticalAlign=middle;resizable=0;points=[];autosize=1;strokeColor=none;fillColor=none;" vertex="1" parent="k9G911M53AV15HorQVSQ-1">
                    <mxGeometry x="1385" y="60" width="330" height="20" as="geometry"/>
                </mxCell>
                <mxCell id="o3C7RrCkiSHtWkNwZcuA-10" value="FUObjectCluster" style="whiteSpace=wrap;html=1;" vertex="1" parent="k9G911M53AV15HorQVSQ-1">
                    <mxGeometry x="1370" y="350" width="120" height="60" as="geometry"/>
                </mxCell>
                <mxCell id="o3C7RrCkiSHtWkNwZcuA-11" value="UObject cluster.将 UObjects 分组到一个 GC 单元中。" style="text;html=1;align=center;verticalAlign=middle;resizable=0;points=[];autosize=1;strokeColor=none;fillColor=none;" vertex="1" parent="k9G911M53AV15HorQVSQ-1">
                    <mxGeometry x="1280" y="330" width="300" height="20" as="geometry"/>
                </mxCell>
                <mxCell id="o3C7RrCkiSHtWkNwZcuA-12" value="？？？ 什么时候看GC的时候去理" style="text;html=1;align=center;verticalAlign=middle;resizable=0;points=[];autosize=1;strokeColor=none;fillColor=none;" vertex="1" parent="k9G911M53AV15HorQVSQ-1">
                    <mxGeometry x="1310" y="300" width="190" height="20" as="geometry"/>
                </mxCell>
                <mxCell id="o3C7RrCkiSHtWkNwZcuA-13" value="对应 FUObjectArray 的下标" style="text;html=1;align=center;verticalAlign=middle;resizable=0;points=[];autosize=1;strokeColor=none;fillColor=none;" vertex="1" parent="k9G911M53AV15HorQVSQ-1">
                    <mxGeometry x="1033" y="110" width="160" height="20" as="geometry"/>
                </mxCell>
                <mxCell id="o3C7RrCkiSHtWkNwZcuA-14" value="理解为就是objectbase的管理类吧" style="text;html=1;align=center;verticalAlign=middle;resizable=0;points=[];autosize=1;strokeColor=none;fillColor=none;" vertex="1" parent="k9G911M53AV15HorQVSQ-1">
                    <mxGeometry x="1440" y="140" width="190" height="20" as="geometry"/>
                </mxCell>
                <mxCell id="o3C7RrCkiSHtWkNwZcuA-15" value="里面线程安全的操作还有点问题？？？" style="text;html=1;align=center;verticalAlign=middle;resizable=0;points=[];autosize=1;strokeColor=none;fillColor=none;" vertex="1" parent="k9G911M53AV15HorQVSQ-1">
                    <mxGeometry x="1400" y="180" width="220" height="20" as="geometry"/>
                </mxCell>
            </root>
        </mxGraphModel>
    </diagram>
</mxfile>